<svg width="1755" height="874" xmlns="http://www.w3.org/2000/svg" xmlns:xlink="http://www.w3.org/1999/xlink" xml:space="preserve" overflow="hidden"><g transform="translate(-145 -1328)"><rect x="423.5" y="1554.5" width="176" height="176" stroke="#000000" stroke-width="4.58333" stroke-miterlimit="8" fill="none"/><path d="M492.007 1621.6 482.767 1647.74 499.707 1647.74ZM490.427 1613.65 496.83 1613.65 510.609 1658.84C511.258 1660.95 511.832 1662.56 512.332 1663.67 512.832 1664.77 513.433 1665.64 514.135 1666.26 514.838 1666.88 515.797 1667.34 517.013 1667.64L517.013 1669.62 498.33 1669.62 498.33 1667.64C499.68 1667.37 500.687 1667.07 501.349 1666.75 502.011 1666.42 502.504 1665.97 502.828 1665.39 503.152 1664.81 503.314 1664.03 503.314 1663.06 503.314 1662.14 503.206 1661.15 502.99 1660.08 502.774 1659.01 502.463 1657.82 502.058 1656.49L500.559 1651.26 481.673 1651.26 480.295 1655.24C479.592 1657.23 479.133 1658.75 478.917 1659.77 478.701 1660.8 478.593 1661.73 478.593 1662.57 478.593 1664.19 479.005 1665.38 479.829 1666.14 480.653 1666.89 481.916 1667.39 483.618 1667.64L483.618 1669.62 466.313 1669.62 466.313 1667.64C467.826 1667.39 469.143 1666.52 470.264 1665 471.386 1663.49 472.473 1661.33 473.527 1658.52Z" fill-rule="evenodd"/><text fill="#000000" fill-opacity="0" font-family="Arial,Arial_MSFontService,sans-serif" font-size="55.9683" x="466.313" y="1662.63">A</text><path d="M537.439 1648.1 539.256 1648.1C539.216 1649.2 539.187 1650.17 539.167 1651.04 539.147 1651.9 539.132 1652.74 539.122 1653.55 539.112 1654.37 539.107 1655.17 539.107 1655.97L539.107 1678.6C539.107 1679.22 539.127 1679.75 539.167 1680.2 539.207 1680.64 539.271 1681.02 539.36 1681.33 539.45 1681.64 539.569 1681.9 539.718 1682.12 539.867 1682.34 540.041 1682.52 540.239 1682.68 540.477 1682.92 540.795 1683.11 541.192 1683.23 541.589 1683.36 542.096 1683.47 542.711 1683.56 543.327 1683.65 544.067 1683.72 544.93 1683.77 545.794 1683.82 546.832 1683.86 548.043 1683.88L548.043 1686.47 524.423 1686.47 524.423 1683.88C525.595 1683.84 526.588 1683.79 527.402 1683.74 528.216 1683.69 528.911 1683.62 529.487 1683.53 530.063 1683.44 530.524 1683.34 530.872 1683.23 531.219 1683.13 531.522 1682.99 531.78 1682.83 532.058 1682.65 532.296 1682.46 532.495 1682.25 532.694 1682.04 532.852 1681.78 532.972 1681.46 533.091 1681.14 533.185 1680.76 533.255 1680.3 533.324 1679.84 533.359 1679.28 533.359 1678.6L533.359 1657.25C533.359 1656.47 533.21 1655.93 532.912 1655.61 532.614 1655.29 532.187 1655.13 531.631 1655.13 531.016 1655.13 530.102 1655.45 528.891 1656.09 527.68 1656.72 526.111 1657.66 524.185 1658.92 523.927 1658.46 523.689 1658 523.47 1657.54 523.252 1657.09 523.023 1656.62 522.785 1656.15 525.247 1654.79 527.685 1653.45 530.097 1652.11 532.51 1650.77 534.957 1649.43 537.439 1648.1Z" fill-rule="evenodd"/><text fill="#000000" fill-opacity="0" font-family="Arial,Arial_MSFontService,sans-serif" font-size="38.3633" x="522.785" y="1681.67">1</text><rect x="785.5" y="1554.5" width="176" height="176" stroke="#000000" stroke-width="4.58333" stroke-miterlimit="8" fill="none"/><path d="M853.14 1621.6 843.899 1647.74 860.84 1647.74ZM851.559 1613.65 857.962 1613.65 871.742 1658.84C872.39 1660.95 872.964 1662.56 873.464 1663.67 873.964 1664.77 874.565 1665.64 875.268 1666.26 875.97 1666.88 876.929 1667.34 878.145 1667.64L878.145 1669.62 859.462 1669.62 859.462 1667.64C860.813 1667.37 861.819 1667.07 862.481 1666.75 863.143 1666.42 863.636 1665.97 863.96 1665.39 864.285 1664.81 864.447 1664.03 864.447 1663.06 864.447 1662.14 864.339 1661.15 864.123 1660.08 863.906 1659.01 863.596 1657.82 863.19 1656.49L861.691 1651.26 842.805 1651.26 841.427 1655.24C840.725 1657.23 840.265 1658.75 840.049 1659.77 839.833 1660.8 839.725 1661.73 839.725 1662.57 839.725 1664.19 840.137 1665.38 840.961 1666.14 841.785 1666.89 843.048 1667.39 844.75 1667.64L844.75 1669.62 827.445 1669.62 827.445 1667.64C828.958 1667.39 830.275 1666.52 831.397 1665 832.518 1663.49 833.605 1661.33 834.659 1658.52Z" fill-rule="evenodd"/><text fill="#000000" fill-opacity="0" font-family="Arial,Arial_MSFontService,sans-serif" font-size="55.9683" x="827.445" y="1662.63">A</text><path d="M898.151 1647.89C900.216 1647.89 901.978 1648.13 903.437 1648.59 904.897 1649.06 906.083 1649.69 906.997 1650.49 907.91 1651.28 908.57 1652.23 908.977 1653.35 909.384 1654.46 909.588 1655.66 909.588 1656.95 909.588 1657.72 909.533 1658.44 909.424 1659.11 909.315 1659.77 909.126 1660.43 908.858 1661.07 908.59 1661.72 908.238 1662.37 907.801 1663.03 907.364 1663.68 906.818 1664.38 906.163 1665.11 905.666 1665.75 905.021 1666.48 904.227 1667.31 903.432 1668.15 902.564 1669.04 901.62 1670 900.677 1670.95 899.689 1671.94 898.657 1672.97 897.624 1674.01 896.622 1675.03 895.649 1676.04 894.676 1677.05 893.782 1678.04 892.968 1678.99 892.154 1679.94 891.489 1680.82 890.972 1681.61L901.993 1681.61C902.926 1681.61 903.671 1681.58 904.227 1681.51 904.783 1681.44 905.244 1681.28 905.612 1681.05 905.979 1680.81 906.292 1680.44 906.55 1679.96 906.808 1679.47 907.106 1678.8 907.443 1677.95L910.214 1677.95C910.114 1679.36 910.02 1680.78 909.931 1682.21 909.841 1683.64 909.747 1685.06 909.648 1686.47L884.42 1686.47 884.42 1684.92C884.896 1683.85 885.452 1682.79 886.088 1681.75 886.723 1680.7 887.438 1679.65 888.232 1678.57 889.026 1677.5 889.93 1676.39 890.943 1675.25 891.955 1674.11 893.077 1672.92 894.308 1671.69 896.175 1669.83 897.694 1668.23 898.865 1666.91 900.037 1665.59 900.96 1664.42 901.635 1663.38 902.31 1662.35 902.772 1661.4 903.02 1660.52 903.269 1659.65 903.393 1658.72 903.393 1657.72 903.393 1656.71 903.249 1655.78 902.961 1654.92 902.673 1654.07 902.261 1653.35 901.725 1652.75 901.189 1652.15 900.508 1651.69 899.684 1651.35 898.86 1651.01 897.912 1650.84 896.84 1650.84 894.993 1650.84 893.444 1651.34 892.193 1652.35 890.943 1653.35 889.97 1654.8 889.275 1656.71L885.373 1656.71 885.373 1650.9C887.914 1649.85 890.253 1649.09 892.387 1648.61 894.522 1648.13 896.443 1647.89 898.151 1647.89Z" fill-rule="evenodd"/><text fill="#000000" fill-opacity="0" font-family="Arial,Arial_MSFontService,sans-serif" font-size="38.5718" x="884.42" y="1681.64">2</text><path d="M599.5 1640.21 763.19 1640.21 763.19 1644.79 599.5 1644.79ZM758.607 1628.75 786.107 1642.5 758.607 1656.25Z"/><rect x="1147.5" y="1554.5" width="176" height="176" stroke="#000000" stroke-width="4.58333" stroke-miterlimit="8" fill="none"/><path d="M1215.22 1621.6 1205.98 1647.74 1222.92 1647.74ZM1213.64 1613.65 1220.05 1613.65 1233.82 1658.84C1234.47 1660.95 1235.05 1662.56 1235.55 1663.67 1236.05 1664.77 1236.65 1665.64 1237.35 1666.26 1238.05 1666.88 1239.01 1667.34 1240.23 1667.64L1240.23 1669.62 1221.55 1669.62 1221.55 1667.64C1222.9 1667.37 1223.9 1667.07 1224.56 1666.75 1225.23 1666.42 1225.72 1665.97 1226.04 1665.39 1226.37 1664.81 1226.53 1664.03 1226.53 1663.06 1226.53 1662.14 1226.42 1661.15 1226.21 1660.08 1225.99 1659.01 1225.68 1657.82 1225.27 1656.49L1223.77 1651.26 1204.89 1651.26 1203.51 1655.24C1202.81 1657.23 1202.35 1658.75 1202.13 1659.77 1201.92 1660.8 1201.81 1661.73 1201.81 1662.57 1201.81 1664.19 1202.22 1665.38 1203.04 1666.14 1203.87 1666.89 1205.13 1667.39 1206.83 1667.64L1206.83 1669.62 1189.53 1669.62 1189.53 1667.64C1191.04 1667.39 1192.36 1666.52 1193.48 1665 1194.6 1663.49 1195.69 1661.33 1196.74 1658.52Z" fill-rule="evenodd"/><text fill="#000000" fill-opacity="0" font-family="Arial,Arial_MSFontService,sans-serif" font-size="55.9683" x="1189.53" y="1662.63">A</text><path d="M1260.17 1647.89C1261.76 1647.89 1263.25 1648.06 1264.63 1648.4 1266.01 1648.74 1267.2 1649.25 1268.22 1649.93 1269.23 1650.62 1270.02 1651.47 1270.58 1652.5 1271.15 1653.52 1271.43 1654.71 1271.43 1656.06 1271.43 1657.33 1271.25 1658.45 1270.9 1659.42 1270.54 1660.39 1269.99 1661.28 1269.24 1662.07 1268.5 1662.87 1267.59 1663.59 1266.5 1664.23 1265.42 1664.88 1264.18 1665.5 1262.77 1666.09L1262.77 1666.45C1264.1 1666.69 1265.34 1667.07 1266.49 1667.6 1267.64 1668.12 1268.65 1668.79 1269.51 1669.59 1270.38 1670.4 1271.06 1671.33 1271.55 1672.38 1272.05 1673.43 1272.3 1674.59 1272.3 1675.86 1272.3 1677.45 1272 1678.93 1271.4 1680.29 1270.81 1681.65 1269.91 1682.82 1268.72 1683.82 1267.53 1684.81 1266.06 1685.58 1264.31 1686.14 1262.57 1686.69 1260.52 1686.97 1258.18 1686.97 1256.33 1686.97 1254.46 1686.79 1252.55 1686.42 1250.64 1686.05 1248.84 1685.57 1247.13 1684.98L1247.13 1678.54 1250.97 1678.54C1251.29 1679.54 1251.67 1680.39 1252.1 1681.09 1252.54 1681.8 1253.05 1682.37 1253.64 1682.82 1254.22 1683.26 1254.9 1683.59 1255.66 1683.79 1256.43 1683.98 1257.3 1684.08 1258.27 1684.08 1260.83 1684.08 1262.77 1683.47 1264.09 1682.25 1265.41 1681.03 1266.07 1679.18 1266.07 1676.7 1266.07 1674.06 1265.2 1672.06 1263.47 1670.7 1261.73 1669.33 1259.15 1668.65 1255.74 1668.65L1253.12 1668.65 1253.12 1665.8C1255.2 1665.7 1257 1665.4 1258.52 1664.92 1260.04 1664.43 1261.31 1663.8 1262.32 1663.03 1263.33 1662.25 1264.09 1661.35 1264.58 1660.31 1265.08 1659.28 1265.33 1658.18 1265.33 1657.01 1265.33 1655.1 1264.76 1653.6 1263.63 1652.5 1262.5 1651.39 1260.86 1650.84 1258.71 1650.84 1256.91 1650.84 1255.39 1651.34 1254.17 1652.33 1252.95 1653.33 1252.01 1654.8 1251.36 1656.77L1247.58 1656.77 1247.58 1650.9C1249.92 1649.91 1252.13 1649.16 1254.2 1648.65 1256.28 1648.15 1258.27 1647.89 1260.17 1647.89Z" fill-rule="evenodd"/><text fill="#000000" fill-opacity="0" font-family="Arial,Arial_MSFontService,sans-serif" font-size="39.0781" x="1247.13" y="1682.09">3</text><path d="M961.5 1640.21 1125.19 1640.21 1125.19 1644.79 961.5 1644.79ZM1120.61 1628.75 1148.11 1642.5 1120.61 1656.25Z"/><rect x="1509.5" y="1554.5" width="176" height="176" stroke="#000000" stroke-width="4.58333" stroke-miterlimit="8" fill="none"/><path d="M1577.31 1621.6 1568.07 1647.74 1585.01 1647.74ZM1575.73 1613.65 1582.13 1613.65 1595.91 1658.84C1596.56 1660.95 1597.13 1662.56 1597.63 1663.67 1598.13 1664.77 1598.73 1665.64 1599.43 1666.26 1600.14 1666.88 1601.1 1667.34 1602.31 1667.64L1602.31 1669.62 1583.63 1669.62 1583.63 1667.64C1584.98 1667.37 1585.99 1667.07 1586.65 1666.75 1587.31 1666.42 1587.8 1665.97 1588.13 1665.39 1588.45 1664.81 1588.61 1664.03 1588.61 1663.06 1588.61 1662.14 1588.51 1661.15 1588.29 1660.08 1588.07 1659.01 1587.76 1657.82 1587.36 1656.49L1585.86 1651.26 1566.97 1651.26 1565.59 1655.24C1564.89 1657.23 1564.43 1658.75 1564.22 1659.77 1564 1660.8 1563.89 1661.73 1563.89 1662.57 1563.89 1664.19 1564.3 1665.38 1565.13 1666.14 1565.95 1666.89 1567.21 1667.39 1568.92 1667.64L1568.92 1669.62 1551.61 1669.62 1551.61 1667.64C1553.12 1667.39 1554.44 1666.52 1555.56 1665 1556.68 1663.49 1557.77 1661.33 1558.83 1658.52Z" fill-rule="evenodd"/><text fill="#000000" fill-opacity="0" font-family="Arial,Arial_MSFontService,sans-serif" font-size="55.9683" x="1551.61" y="1662.63">A</text><path d="M1623.72 1655.28C1621.81 1658.04 1619.91 1660.78 1618.01 1663.5 1616.12 1666.22 1614.21 1668.95 1612.28 1671.69L1612.28 1672.05 1623.72 1672.05 1623.72 1666.06C1623.72 1665.39 1623.73 1664.55 1623.75 1663.56 1623.77 1662.57 1623.79 1661.56 1623.82 1660.54 1623.85 1659.52 1623.89 1658.54 1623.93 1657.62 1623.97 1656.7 1624.01 1655.92 1624.04 1655.28ZM1624.58 1648.31 1629.32 1648.31 1629.32 1672.05 1629.85 1672.05C1630.67 1672.05 1631.33 1672.01 1631.83 1671.93 1632.34 1671.85 1632.75 1671.69 1633.05 1671.44 1633.36 1671.19 1633.62 1670.84 1633.83 1670.4 1634.04 1669.95 1634.26 1669.37 1634.5 1668.65L1637.03 1668.65C1636.97 1669.75 1636.91 1670.83 1636.84 1671.9 1636.77 1672.97 1636.7 1674.07 1636.64 1675.18L1629.32 1675.18 1629.32 1679.08C1629.32 1680.23 1629.34 1681.12 1629.39 1681.76 1629.44 1682.4 1629.59 1682.89 1629.84 1683.25 1630.09 1683.61 1630.45 1683.88 1630.94 1684.05 1631.43 1684.23 1632.11 1684.44 1632.98 1684.68L1632.98 1686.47 1620.11 1686.47 1620.11 1684.68C1620.71 1684.52 1621.22 1684.38 1621.63 1684.25 1622.05 1684.12 1622.4 1683.97 1622.67 1683.8 1622.95 1683.63 1623.16 1683.43 1623.29 1683.2 1623.41 1682.98 1623.51 1682.69 1623.58 1682.34 1623.65 1681.99 1623.69 1681.56 1623.7 1681.03 1623.71 1680.5 1623.72 1679.85 1623.72 1679.08L1623.72 1675.18 1606.95 1675.18 1606.95 1672.82C1609.91 1668.71 1612.85 1664.63 1615.76 1660.57 1618.68 1656.51 1621.62 1652.42 1624.58 1648.31Z" fill-rule="evenodd"/><text fill="#000000" fill-opacity="0" font-family="Arial,Arial_MSFontService,sans-serif" font-size="38.1548" x="1606.95" y="1681.7">4</text><path d="M1323.5 1640.21 1487.19 1640.21 1487.19 1644.79 1323.5 1644.79ZM1482.61 1628.75 1510.11 1642.5 1482.61 1656.25Z"/><path d="M1599.79 1437.5 1599.79 1532.44 1595.21 1532.44 1595.21 1437.5ZM1611.25 1527.86 1597.5 1555.36 1583.75 1527.86Z"/><path d="M1239.79 1437.5 1239.79 1532.44 1235.21 1532.44 1235.21 1437.5ZM1251.25 1527.86 1237.5 1555.36 1223.75 1527.86Z"/><path d="M875.792 1437.5 875.792 1532.44 871.209 1532.44 871.208 1437.5ZM887.25 1527.86 873.5 1555.36 859.75 1527.86Z"/><path d="M513.792 1437.5 513.792 1532.44 509.209 1532.44 509.208 1437.5ZM525.25 1527.86 511.5 1555.36 497.75 1527.86Z"/><path d="M0 0 1406.43 0.000360892" stroke="#000000" stroke-width="4.58333" stroke-miterlimit="8" fill="none" fill-rule="evenodd" transform="matrix(-1 0 0 1 1597.93 1437.5)"/><path d="M1685.5 1640.21 1849.19 1640.21 1849.19 1644.79 1685.5 1644.79ZM1844.61 1628.75 1872.11 1642.5 1844.61 1656.25Z"/><path d="M1006.92 2152.56 1101.1 2152.56M1054.01 2105.47 1054.01 2199.65" stroke="#000000" stroke-width="4.58333" stroke-miterlimit="8" fill="none" fill-rule="evenodd"/><path d="M1020.71 2185.86C1002.32 2167.47 1002.32 2137.65 1020.71 2119.26 1039.1 2100.87 1068.92 2100.87 1087.31 2119.26 1105.7 2137.65 1105.7 2167.47 1087.31 2185.86 1068.92 2204.25 1039.1 2204.25 1020.71 2185.86Z" stroke="#000000" stroke-width="4.58333" stroke-miterlimit="8" fill="none" fill-rule="evenodd"/><path d="M512.891 1728.68 1004.5 2104.17 1001.72 2107.81 510.109 1732.32ZM1007.82 2092.28 1021.33 2119.9 991.125 2114.14Z"/><path d="M875.564 1729.5 1046.66 2084.47 1042.53 2086.46 871.436 1731.49ZM1054.99 2075.36 1054.54 2106.11 1030.21 2087.31Z"/><path d="M2.06438-0.995026 173.156 353.968 169.027 355.959-2.06438 0.995026ZM181.488 344.865 181.042 375.608 156.715 356.805Z" transform="matrix(-1 0 0 1 1235.54 1730.5)"/><path d="M1.39102-1.82121 493.006 373.67 490.224 377.312-1.39102 1.82121ZM496.318 361.781 509.827 389.401 479.626 383.636Z" transform="matrix(-1 0 0 1 1597.33 1730.5)"/><path d="M0-2.29167 3.45551-2.29167 3.45551 666.269 1.16384 663.978 510.438 663.978 508.146 666.269 508.146 606.688 512.73 606.688 512.73 668.561-1.12783 668.561-1.12783 0 1.16384 2.29167 0 2.29167ZM496.688 611.271 510.438 583.771 524.188 611.271Z" transform="matrix(-1.83697e-16 -1 -1 1.83697e-16 1007.27 2152.94)"/><path d="M654.458 1862.03C658.052 1862.03 661.361 1862.43 664.387 1863.24L662.401 1872.4 658.146 1872.4C658.092 1870.35 657.923 1868.86 657.64 1867.95 657.356 1867.03 656.897 1866.34 656.262 1865.88 655.627 1865.42 654.728 1865.19 653.567 1865.19 650.838 1865.19 648.386 1866.28 646.211 1868.45 644.036 1870.63 642.259 1873.71 640.881 1877.69 639.504 1881.68 638.815 1885.51 638.815 1889.18 638.815 1891.94 639.355 1893.98 640.436 1895.32 641.516 1896.66 643.138 1897.33 645.299 1897.33 647.758 1897.33 649.885 1896.86 651.682 1895.93 653.479 1895 655.377 1893.53 657.376 1891.53L659.848 1894.01C657.309 1896.82 654.749 1898.87 652.168 1900.17 649.588 1901.46 646.812 1902.11 643.84 1902.11 639.922 1902.11 636.95 1900.95 634.924 1898.63 632.898 1896.3 631.884 1892.92 631.884 1888.49 631.884 1885.6 632.425 1882.43 633.505 1878.97 634.586 1875.51 636.167 1872.47 638.247 1869.85 640.328 1867.23 642.759 1865.27 645.542 1863.97 648.325 1862.68 651.297 1862.03 654.458 1862.03Z" fill-rule="evenodd"/><text fill="#000000" fill-opacity="0" font-family="Arial,Arial_MSFontService,sans-serif" font-size="40.0815" x="631.884" y="1897.1">ğ‘</text><path d="M681.628 1879.9 683.445 1879.9C683.405 1880.99 683.375 1881.97 683.355 1882.84 683.335 1883.7 683.321 1884.54 683.311 1885.35 683.301 1886.17 683.296 1886.97 683.296 1887.77L683.296 1910.4C683.296 1911.02 683.316 1911.55 683.355 1912 683.395 1912.44 683.46 1912.82 683.549 1913.13 683.638 1913.44 683.757 1913.7 683.906 1913.92 684.055 1914.14 684.229 1914.32 684.428 1914.48 684.666 1914.72 684.984 1914.9 685.381 1915.03 685.778 1915.16 686.284 1915.27 686.9 1915.36 687.515 1915.45 688.255 1915.52 689.119 1915.57 689.982 1915.62 691.02 1915.65 692.231 1915.67L692.231 1918.27 668.612 1918.27 668.612 1915.67C669.783 1915.63 670.776 1915.59 671.59 1915.54 672.404 1915.49 673.099 1915.42 673.675 1915.33 674.251 1915.24 674.713 1915.14 675.06 1915.03 675.408 1914.92 675.71 1914.79 675.969 1914.63 676.247 1914.45 676.485 1914.26 676.683 1914.05 676.882 1913.84 677.041 1913.58 677.16 1913.26 677.279 1912.94 677.373 1912.56 677.443 1912.1 677.512 1911.64 677.547 1911.08 677.547 1910.4L677.547 1889.05C677.547 1888.27 677.398 1887.73 677.1 1887.41 676.803 1887.09 676.376 1886.93 675.82 1886.93 675.204 1886.93 674.291 1887.25 673.079 1887.88 671.868 1888.52 670.299 1889.46 668.373 1890.71 668.115 1890.26 667.877 1889.8 667.659 1889.34 667.44 1888.89 667.212 1888.42 666.973 1887.94 669.436 1886.59 671.873 1885.25 674.286 1883.91 676.698 1882.57 679.146 1881.23 681.628 1879.9Z" fill-rule="evenodd"/><text fill="#000000" fill-opacity="0" font-family="Arial,Arial_MSFontService,sans-serif" font-size="38.3633" x="666.973" y="1913.47">1</text><path d="M877.373 1860.74C880.967 1860.74 884.276 1861.15 887.303 1861.96L885.317 1871.12 881.061 1871.12C881.007 1869.07 880.838 1867.58 880.555 1866.66 880.271 1865.74 879.812 1865.05 879.177 1864.59 878.542 1864.13 877.644 1863.9 876.482 1863.9 873.753 1863.9 871.301 1864.99 869.126 1867.17 866.951 1869.34 865.175 1872.42 863.797 1876.41 862.419 1880.39 861.73 1884.22 861.73 1887.9 861.73 1890.65 862.27 1892.7 863.351 1894.04 864.432 1895.37 866.053 1896.04 868.214 1896.04 870.673 1896.04 872.801 1895.58 874.597 1894.64 876.394 1893.71 878.292 1892.25 880.291 1890.25L882.763 1892.72C880.224 1895.53 877.664 1897.58 875.084 1898.88 872.503 1900.18 869.727 1900.83 866.755 1900.83 862.838 1900.83 859.866 1899.66 857.839 1897.34 855.813 1895.02 854.8 1891.64 854.8 1887.21 854.8 1884.32 855.34 1881.14 856.421 1877.68 857.501 1874.23 859.082 1871.19 861.162 1868.57 863.243 1865.94 865.674 1863.99 868.457 1862.69 871.24 1861.39 874.212 1860.74 877.373 1860.74Z" fill-rule="evenodd"/><text fill="#000000" fill-opacity="0" font-family="Arial,Arial_MSFontService,sans-serif" font-size="40.0815" x="854.8" y="1895.81">ğ‘</text><path d="M904.122 1878.41C906.187 1878.41 907.949 1878.64 909.409 1879.11 910.868 1879.57 912.055 1880.21 912.968 1881 913.881 1881.79 914.542 1882.75 914.949 1883.86 915.356 1884.97 915.559 1886.17 915.559 1887.46 915.559 1888.24 915.505 1888.96 915.396 1889.62 915.286 1890.29 915.098 1890.94 914.83 1891.59 914.562 1892.23 914.209 1892.88 913.772 1893.54 913.335 1894.19 912.789 1894.89 912.134 1895.62 911.638 1896.26 910.992 1896.99 910.198 1897.83 909.404 1898.66 908.535 1899.56 907.592 1900.51 906.649 1901.46 905.661 1902.45 904.628 1903.49 903.596 1904.52 902.593 1905.54 901.62 1906.56 900.647 1907.57 899.753 1908.55 898.939 1909.5 898.125 1910.46 897.46 1911.33 896.944 1912.12L907.964 1912.12C908.897 1912.12 909.642 1912.09 910.198 1912.02 910.754 1911.95 911.216 1911.8 911.583 1911.56 911.95 1911.32 912.263 1910.96 912.521 1910.47 912.779 1909.99 913.077 1909.32 913.415 1908.46L916.185 1908.46C916.086 1909.87 915.991 1911.29 915.902 1912.72 915.812 1914.15 915.718 1915.57 915.619 1916.98L890.391 1916.98 890.391 1915.43C890.867 1914.36 891.423 1913.3 892.059 1912.26 892.694 1911.22 893.409 1910.16 894.203 1909.09 894.998 1908.01 895.901 1906.91 896.914 1905.77 897.927 1904.62 899.048 1903.44 900.28 1902.21 902.146 1900.34 903.665 1898.75 904.837 1897.43 906.008 1896.11 906.932 1894.93 907.607 1893.9 908.282 1892.86 908.743 1891.91 908.992 1891.04 909.24 1890.16 909.364 1889.23 909.364 1888.24 909.364 1887.22 909.22 1886.29 908.932 1885.44 908.644 1884.58 908.232 1883.86 907.696 1883.26 907.16 1882.67 906.48 1882.2 905.656 1881.86 904.832 1881.53 903.884 1881.36 902.811 1881.36 900.965 1881.36 899.416 1881.86 898.165 1882.86 896.914 1883.86 895.941 1885.32 895.246 1887.22L891.344 1887.22 891.344 1881.42C893.886 1880.36 896.224 1879.6 898.358 1879.12 900.493 1878.65 902.414 1878.41 904.122 1878.41Z" fill-rule="evenodd"/><text fill="#000000" fill-opacity="0" font-family="Arial,Arial_MSFontService,sans-serif" font-size="38.5718" x="890.391" y="1912.16">2</text><path d="M1195.59 1860.74C1199.18 1860.74 1202.49 1861.15 1205.52 1861.96L1203.53 1871.12 1199.28 1871.12C1199.22 1869.07 1199.05 1867.58 1198.77 1866.66 1198.48 1865.74 1198.03 1865.05 1197.39 1864.59 1196.76 1864.13 1195.86 1863.9 1194.7 1863.9 1191.97 1863.9 1189.51 1864.99 1187.34 1867.17 1185.17 1869.34 1183.39 1872.42 1182.01 1876.41 1180.63 1880.39 1179.94 1884.22 1179.94 1887.9 1179.94 1890.65 1180.48 1892.7 1181.56 1894.04 1182.65 1895.37 1184.27 1896.04 1186.43 1896.04 1188.89 1896.04 1191.01 1895.58 1192.81 1894.64 1194.61 1893.71 1196.51 1892.25 1198.51 1890.25L1200.98 1892.72C1198.44 1895.53 1195.88 1897.58 1193.3 1898.88 1190.72 1900.18 1187.94 1900.83 1184.97 1900.83 1181.05 1900.83 1178.08 1899.66 1176.05 1897.34 1174.03 1895.02 1173.01 1891.64 1173.01 1887.21 1173.01 1884.32 1173.55 1881.14 1174.63 1877.68 1175.72 1874.23 1177.3 1871.19 1179.38 1868.57 1181.46 1865.94 1183.89 1863.99 1186.67 1862.69 1189.45 1861.39 1192.43 1860.74 1195.59 1860.74Z" fill-rule="evenodd"/><text fill="#000000" fill-opacity="0" font-family="Arial,Arial_MSFontService,sans-serif" font-size="40.0815" x="1173.01" y="1895.81">ğ‘</text><path d="M1222.28 1878.41C1223.86 1878.41 1225.35 1878.58 1226.73 1878.91 1228.11 1879.25 1229.31 1879.76 1230.32 1880.45 1231.33 1881.13 1232.12 1881.99 1232.69 1883.01 1233.25 1884.03 1233.54 1885.22 1233.54 1886.57 1233.54 1887.84 1233.36 1888.96 1233 1889.94 1232.64 1890.91 1232.09 1891.79 1231.35 1892.59 1230.6 1893.38 1229.69 1894.1 1228.61 1894.75 1227.52 1895.39 1226.28 1896.01 1224.87 1896.61L1224.87 1896.96C1226.2 1897.2 1227.44 1897.58 1228.59 1898.11 1229.74 1898.64 1230.75 1899.3 1231.61 1900.11 1232.48 1900.91 1233.16 1901.84 1233.65 1902.89 1234.15 1903.94 1234.4 1905.11 1234.4 1906.38 1234.4 1907.96 1234.1 1909.44 1233.51 1910.8 1232.91 1912.16 1232.02 1913.34 1230.82 1914.33 1229.63 1915.32 1228.16 1916.1 1226.42 1916.65 1224.67 1917.21 1222.62 1917.49 1220.28 1917.49 1218.43 1917.49 1216.56 1917.3 1214.65 1916.94 1212.74 1916.57 1210.94 1916.09 1209.23 1915.49L1209.23 1909.06 1213.07 1909.06C1213.39 1910.05 1213.77 1910.9 1214.2 1911.6 1214.64 1912.31 1215.15 1912.88 1215.74 1913.33 1216.32 1913.78 1217 1914.1 1217.76 1914.3 1218.53 1914.5 1219.4 1914.6 1220.37 1914.6 1222.93 1914.6 1224.87 1913.99 1226.19 1912.77 1227.51 1911.54 1228.17 1909.69 1228.17 1907.21 1228.17 1904.57 1227.3 1902.57 1225.57 1901.21 1223.83 1899.85 1221.25 1899.17 1217.84 1899.17L1215.22 1899.17 1215.22 1896.31C1217.3 1896.21 1219.1 1895.92 1220.62 1895.43 1222.14 1894.94 1223.41 1894.31 1224.42 1893.54 1225.43 1892.76 1226.19 1891.86 1226.68 1890.83 1227.18 1889.8 1227.43 1888.69 1227.43 1887.52 1227.43 1885.62 1226.86 1884.11 1225.73 1883.01 1224.6 1881.91 1222.96 1881.36 1220.82 1881.36 1219.01 1881.36 1217.5 1881.85 1216.27 1882.85 1215.05 1883.84 1214.12 1885.32 1213.46 1887.28L1209.68 1887.28 1209.68 1881.42C1212.02 1880.42 1214.23 1879.67 1216.3 1879.17 1218.38 1878.66 1220.37 1878.41 1222.28 1878.41Z" fill-rule="evenodd"/><text fill="#000000" fill-opacity="0" font-family="Arial,Arial_MSFontService,sans-serif" font-size="39.0781" x="1209.23" y="1912.6">3</text><path d="M1475.13 1860.74C1478.73 1860.74 1482.04 1861.15 1485.06 1861.96L1483.08 1871.12 1478.82 1871.12C1478.77 1869.07 1478.6 1867.58 1478.32 1866.66 1478.03 1865.74 1477.57 1865.05 1476.94 1864.59 1476.3 1864.13 1475.4 1863.9 1474.24 1863.9 1471.51 1863.9 1469.06 1864.99 1466.89 1867.17 1464.71 1869.34 1462.94 1872.42 1461.56 1876.41 1460.18 1880.39 1459.49 1884.22 1459.49 1887.9 1459.49 1890.65 1460.03 1892.7 1461.11 1894.04 1462.19 1895.37 1463.81 1896.04 1465.97 1896.04 1468.43 1896.04 1470.56 1895.58 1472.36 1894.64 1474.15 1893.71 1476.05 1892.25 1478.05 1890.25L1480.52 1892.72C1477.98 1895.53 1475.42 1897.58 1472.84 1898.88 1470.26 1900.18 1467.49 1900.83 1464.52 1900.83 1460.6 1900.83 1457.63 1899.66 1455.6 1897.34 1453.57 1895.02 1452.56 1891.64 1452.56 1887.21 1452.56 1884.32 1453.1 1881.14 1454.18 1877.68 1455.26 1874.23 1456.84 1871.19 1458.92 1868.57 1461 1865.94 1463.44 1863.99 1466.22 1862.69 1469 1861.39 1471.97 1860.74 1475.13 1860.74Z" fill-rule="evenodd"/><text fill="#000000" fill-opacity="0" font-family="Arial,Arial_MSFontService,sans-serif" font-size="40.0815" x="1452.56" y="1895.81">ğ‘</text><path d="M1503.28 1885.79C1501.38 1888.56 1499.48 1891.3 1497.58 1894.02 1495.68 1896.74 1493.77 1899.47 1491.85 1902.21L1491.85 1902.56 1503.28 1902.56 1503.28 1896.58C1503.28 1895.9 1503.29 1895.07 1503.31 1894.08 1503.33 1893.08 1503.36 1892.07 1503.39 1891.05 1503.42 1890.03 1503.45 1889.06 1503.49 1888.13 1503.53 1887.21 1503.57 1886.43 1503.61 1885.79ZM1504.15 1878.83 1508.88 1878.83 1508.88 1902.56 1509.42 1902.56C1510.23 1902.56 1510.89 1902.52 1511.4 1902.44 1511.91 1902.37 1512.31 1902.2 1512.62 1901.95 1512.93 1901.71 1513.19 1901.36 1513.39 1900.91 1513.6 1900.46 1513.83 1899.88 1514.06 1899.17L1516.6 1899.17C1516.54 1900.26 1516.47 1901.34 1516.4 1902.42 1516.33 1903.49 1516.27 1904.58 1516.21 1905.69L1508.88 1905.69 1508.88 1909.59C1508.88 1910.74 1508.91 1911.64 1508.96 1912.27 1509.01 1912.91 1509.16 1913.41 1509.4 1913.76 1509.65 1914.12 1510.02 1914.39 1510.51 1914.57 1510.99 1914.75 1511.67 1914.95 1512.55 1915.19L1512.55 1916.98 1499.68 1916.98 1499.68 1915.19C1500.27 1915.03 1500.78 1914.89 1501.2 1914.76 1501.61 1914.63 1501.96 1914.48 1502.24 1914.31 1502.52 1914.15 1502.72 1913.95 1502.85 1913.72 1502.98 1913.49 1503.08 1913.2 1503.15 1912.85 1503.22 1912.51 1503.26 1912.07 1503.27 1911.54 1503.28 1911.02 1503.28 1910.37 1503.28 1909.59L1503.28 1905.69 1486.51 1905.69 1486.51 1903.34C1489.47 1899.23 1492.41 1895.14 1495.33 1891.08 1498.25 1887.02 1501.19 1882.94 1504.15 1878.83Z" fill-rule="evenodd"/><text fill="#000000" fill-opacity="0" font-family="Arial,Arial_MSFontService,sans-serif" font-size="38.1548" x="1486.51" y="1912.21">4</text><text font-family="Times New Roman,Times New Roman_MSFontService,sans-serif" font-weight="400" font-size="64" transform="matrix(1 0 0 1 183.527 1410)">Clock pulse</text></g></svg>