<svg width="3085" height="727" xmlns="http://www.w3.org/2000/svg" xmlns:xlink="http://www.w3.org/1999/xlink" xml:space="preserve" overflow="hidden"><g transform="translate(-404 -1633)"><path d="M404.5 2002.21 655.744 2002.21 655.744 2006.79 404.5 2006.79ZM651.161 1990.75 678.661 2004.5 651.161 2018.25Z"/><path d="M678.5 2005C678.5 1959.99 715.213 1923.5 760.5 1923.5 805.787 1923.5 842.5 1959.99 842.5 2005 842.5 2050.01 805.787 2086.5 760.5 2086.5 715.213 2086.5 678.5 2050.01 678.5 2005Z" stroke="#000000" stroke-width="6.875" stroke-miterlimit="8" fill="none" fill-rule="evenodd"/><path d="M702.5 1947.5 817.919 2062.92" stroke="#000000" stroke-width="6.875" stroke-miterlimit="8" fill="none" fill-rule="evenodd"/><path d="M0 0 115.418 115.418" stroke="#000000" stroke-width="6.875" stroke-miterlimit="8" fill="none" fill-rule="evenodd" transform="matrix(1 0 0 -1 702.5 2062.92)"/><rect x="1042.5" y="1862.5" width="529" height="284" stroke="#000000" stroke-width="6.875" stroke-miterlimit="8" fill="none"/><path d="M1128.62 1977.55 1144.83 1977.55 1144.39 1979.53C1143.36 1979.75 1142.62 1979.99 1142.18 1980.26 1141.73 1980.53 1141.33 1980.94 1140.98 1981.48 1140.63 1982.02 1140.27 1982.86 1139.89 1984.01 1139.51 1985.16 1139.04 1987.03 1138.47 1989.62L1135.59 2002.55 1136.93 2002.55C1138.06 2002.55 1139.1 2002.36 1140.03 2001.98 1140.96 2001.61 1142.05 2000.92 1143.29 1999.92 1144.54 1998.92 1146.51 1997.08 1149.23 1994.41 1151.95 1991.73 1153.88 1989.7 1155.03 1988.31 1156.17 1986.91 1157.01 1985.71 1157.54 1984.7 1158.07 1983.69 1158.33 1982.76 1158.33 1981.92 1158.33 1981.25 1158.06 1980.7 1157.52 1980.28 1156.98 1979.86 1156.21 1979.61 1155.21 1979.53L1155.65 1977.55 1173.04 1977.55 1172.59 1979.53C1171.51 1979.69 1170.29 1980.25 1168.93 1981.21 1167.56 1982.17 1165.47 1984.04 1162.66 1986.83L1146.94 2002.15 1155.57 2022.9C1156.46 2025.03 1157.2 2026.57 1157.78 2027.52 1158.36 2028.46 1159.06 2029.21 1159.87 2029.77 1160.68 2030.32 1161.68 2030.69 1162.87 2030.88L1162.42 2032.87 1146.78 2032.87 1147.22 2030.88C1148.68 2030.75 1149.41 2030.1 1149.41 2028.93 1149.41 2028.21 1149.26 2027.37 1148.97 2026.44 1148.67 2025.51 1148.32 2024.54 1147.91 2023.54L1142.64 2010.66C1142.02 2009.12 1141.48 2008.04 1141.02 2007.41 1140.56 2006.79 1140.08 2006.36 1139.56 2006.12 1139.05 2005.87 1138.25 2005.75 1137.17 2005.75L1134.9 2005.75 1131.54 2021.07C1131.19 2022.69 1130.96 2023.97 1130.85 2024.9 1130.74 2025.83 1130.69 2026.67 1130.69 2027.39 1130.69 2028.61 1130.99 2029.47 1131.6 2029.97 1132.21 2030.47 1133.23 2030.77 1134.66 2030.88L1134.21 2032.87 1118 2032.87 1118.45 2030.88C1119.48 2030.72 1120.25 2030.45 1120.76 2030.09 1121.27 2029.73 1121.71 2029.22 1122.06 2028.57 1122.41 2027.92 1122.73 2027.13 1123.03 2026.2 1123.33 2025.27 1123.77 2023.46 1124.37 2020.79L1131.26 1989.58C1131.85 1986.88 1132.15 1984.71 1132.15 1983.06 1132.15 1981.79 1131.83 1980.9 1131.2 1980.4 1130.56 1979.9 1129.55 1979.61 1128.18 1979.53Z" fill-rule="evenodd"/><text fill="#000000" fill-opacity="0" font-family="Arial,Arial_MSFontService,sans-serif" font-size="55.3198" x="1118" y="2025.95">𝐾</text><path d="M1207.87 1974.3 1208.96 1977.42C1202.64 1979.51 1197.96 1983.56 1194.92 1989.6 1191.88 1995.64 1190.36 2003.23 1190.36 2012.36 1190.36 2021.82 1191.88 2029.61 1194.92 2035.74 1197.96 2041.88 1202.6 2045.98 1208.84 2048.06L1207.87 2051.18C1199.95 2049.1 1193.89 2044.63 1189.67 2037.75 1185.46 2030.87 1183.35 2022.55 1183.35 2012.76 1183.35 2003.01 1185.47 1994.68 1189.69 1987.78 1193.92 1980.88 1199.98 1976.38 1207.87 1974.3Z" fill-rule="evenodd"/><text fill="#000000" fill-opacity="0" font-family="Arial,Arial_MSFontService,sans-serif" font-size="76.8802" x="1183.35" y="2041.57">(</text><path d="M1236.61 1976.9 1238.84 1976.9C1238.68 1979.49 1238.6 1983.08 1238.6 1987.68L1238.6 2022.29C1238.6 2023.86 1238.69 2025.04 1238.86 2025.83 1239.04 2026.63 1239.35 2027.28 1239.79 2027.78 1240.24 2028.28 1240.88 2028.67 1241.72 2028.96 1242.56 2029.24 1243.61 2029.46 1244.88 2029.6 1246.15 2029.75 1247.82 2029.85 1249.9 2029.91L1249.9 2032.87 1219.96 2032.87 1219.96 2029.91C1222.95 2029.77 1225.1 2029.59 1226.38 2029.36 1227.66 2029.13 1228.64 2028.79 1229.32 2028.33 1229.99 2027.87 1230.49 2027.22 1230.8 2026.38 1231.11 2025.54 1231.26 2024.18 1231.26 2022.29L1231.26 1989.42C1231.26 1988.34 1231.07 1987.55 1230.69 1987.05 1230.32 1986.55 1229.76 1986.3 1229.03 1986.3 1228.17 1986.3 1226.94 1986.75 1225.35 1987.64 1223.75 1988.53 1221.78 1989.76 1219.43 1991.33L1217.65 1988.2Z" fill-rule="evenodd"/><text fill="#000000" fill-opacity="0" font-family="Arial,Arial_MSFontService,sans-serif" font-size="55.9683" x="1217.65" y="2025.87">1</text><path d="M1302.72 1983.1 1308.48 1983.1 1308.48 2006.44 1330.57 2006.44 1330.57 2011.83 1308.48 2011.83 1308.48 2035.18 1302.72 2035.18 1302.72 2011.83 1280.64 2011.83 1280.64 2006.44 1302.72 2006.44Z" fill-rule="evenodd"/><text fill="#000000" fill-opacity="0" font-family="Arial,Arial_MSFontService,sans-serif" font-size="52.0776" x="1280.64" y="2028.67">+</text><path d="M1411.65 1914.45 1413.88 1914.45C1413.72 1917.04 1413.64 1920.64 1413.64 1925.23L1413.64 1959.84C1413.64 1961.41 1413.72 1962.59 1413.9 1963.39 1414.07 1964.18 1414.39 1964.83 1414.83 1965.33 1415.28 1965.83 1415.92 1966.22 1416.76 1966.51 1417.59 1966.79 1418.65 1967.01 1419.92 1967.16 1421.19 1967.3 1422.86 1967.41 1424.94 1967.46L1424.94 1970.42 1394.99 1970.42 1394.99 1967.46C1397.99 1967.32 1400.13 1967.14 1401.42 1966.91 1402.7 1966.68 1403.68 1966.34 1404.35 1965.88 1405.03 1965.42 1405.52 1964.77 1405.83 1963.93 1406.14 1963.1 1406.3 1961.73 1406.3 1959.84L1406.3 1926.97C1406.3 1925.89 1406.11 1925.1 1405.73 1924.6 1405.35 1924.1 1404.8 1923.85 1404.07 1923.85 1403.21 1923.85 1401.98 1924.3 1400.38 1925.19 1398.79 1926.08 1396.82 1927.31 1394.47 1928.88L1392.68 1925.76Z" fill-rule="evenodd"/><text fill="#000000" fill-opacity="0" font-family="Arial,Arial_MSFontService,sans-serif" font-size="55.9683" x="1392.68" y="1963.42">1</text><path d="M1360.68 2032.73 1402.99 2032.73 1399.83 2047 1395.94 2047C1395.94 2044.37 1395.87 2042.41 1395.74 2041.1 1395.6 2039.79 1395.35 2038.79 1394.97 2038.1 1394.59 2037.41 1394.12 2036.94 1393.57 2036.68 1393.02 2036.42 1392.04 2036.3 1390.63 2036.3L1384.63 2036.3 1375.84 2076.26C1375.6 2077.31 1375.43 2078.15 1375.33 2078.77 1375.24 2079.39 1375.16 2080.05 1375.09 2080.73 1375.02 2081.42 1374.99 2082.04 1374.99 2082.58 1374.99 2083.42 1375.12 2084.07 1375.39 2084.54 1375.66 2085.02 1376.07 2085.36 1376.61 2085.58 1377.15 2085.79 1378.08 2085.96 1379.41 2086.06L1378.96 2088.05 1361.9 2088.05 1362.34 2086.06C1363.42 2085.9 1364.22 2085.69 1364.74 2085.42 1365.25 2085.15 1365.7 2084.73 1366.09 2084.16 1366.48 2083.59 1366.88 2082.7 1367.27 2081.48 1367.66 2080.27 1368.13 2078.43 1368.67 2075.97L1377.34 2036.3 1372.19 2036.3C1370.52 2036.3 1369.18 2036.54 1368.18 2037.03 1367.18 2037.51 1366.18 2038.42 1365.18 2039.74 1364.18 2041.06 1362.97 2043.28 1361.53 2046.39L1357.64 2046.39Z" fill-rule="evenodd"/><text fill="#000000" fill-opacity="0" font-family="Arial,Arial_MSFontService,sans-serif" font-size="55.3198" x="1357.64" y="2081.13">𝑇</text><path d="M1409.51 2074.78 1410.96 2074.78 1406.56 2094.62C1406.28 2095.79 1406.08 2096.72 1405.98 2097.42 1405.87 2098.11 1405.81 2098.74 1405.81 2099.29 1405.81 2100.05 1405.97 2100.59 1406.27 2100.93 1406.58 2101.27 1407.04 2101.44 1407.66 2101.44 1408.02 2101.44 1408.37 2101.37 1408.73 2101.23 1409.09 2101.09 1409.47 2100.87 1409.88 2100.57 1410.28 2100.28 1410.73 2099.89 1411.22 2099.43 1411.7 2098.96 1412.25 2098.4 1412.84 2097.74L1414.87 2099.71C1413.83 2100.76 1412.9 2101.65 1412.05 2102.38 1411.21 2103.1 1410.41 2103.69 1409.65 2104.15 1408.9 2104.61 1408.16 2104.93 1407.44 2105.13 1406.71 2105.33 1405.94 2105.43 1405.13 2105.43 1404.37 2105.43 1403.69 2105.29 1403.09 2105.01 1402.48 2104.73 1401.96 2104.35 1401.52 2103.87 1401.09 2103.38 1400.75 2102.8 1400.51 2102.12 1400.27 2101.45 1400.15 2100.7 1400.15 2099.89 1400.15 2099.23 1400.23 2098.42 1400.39 2097.45 1400.55 2096.47 1400.75 2095.42 1401 2094.27 1401.25 2093.13 1401.52 2091.94 1401.82 2090.69 1402.12 2089.43 1402.41 2088.19 1402.7 2086.96 1402.99 2085.73 1403.25 2084.55 1403.47 2083.4 1403.7 2082.26 1403.87 2081.22 1403.97 2080.29 1404 2080.13 1404.02 2079.98 1404.02 2079.83 1404.02 2079.68 1404.02 2079.55 1404.02 2079.43 1403.98 2078.65 1403.71 2078.09 1403.21 2077.73 1402.7 2077.37 1401.8 2077.17 1400.51 2077.13L1400.87 2075.11ZM1407.78 2062.78 1413.73 2062.78 1412.28 2069.18 1406.38 2069.18Z" fill-rule="evenodd"/><text fill="#000000" fill-opacity="0" font-family="Arial,Arial_MSFontService,sans-serif" font-size="42.6523" x="1400.15" y="2100.1">𝑖</text><path d="M1444.5 2048.66C1447.01 2048.66 1449.3 2048.81 1451.37 2049.1 1453.43 2049.4 1455.49 2049.91 1457.55 2050.64L1455.72 2059.15 1452.44 2059.15C1452.14 2056.75 1451.35 2054.93 1450.07 2053.68 1448.79 2052.44 1446.77 2051.82 1444.01 2051.82 1441.88 2051.82 1440.15 2052.37 1438.82 2053.46 1437.5 2054.55 1436.84 2055.99 1436.84 2057.78 1436.84 2058.75 1437.01 2059.61 1437.34 2060.35 1437.68 2061.09 1438.36 2061.91 1439.39 2062.8 1440.42 2063.69 1442.01 2064.79 1444.17 2066.08 1445.88 2067.11 1447.24 2068.05 1448.27 2068.9 1449.29 2069.75 1450.1 2070.6 1450.7 2071.43 1451.29 2072.27 1451.72 2073.16 1452 2074.09 1452.27 2075.02 1452.4 2076.15 1452.4 2077.47 1452.4 2079.88 1451.76 2081.94 1450.48 2083.65 1449.19 2085.37 1447.45 2086.64 1445.25 2087.48 1443.05 2088.32 1440.54 2088.74 1437.73 2088.74 1435.49 2088.74 1433.29 2088.57 1431.12 2088.23 1428.96 2087.89 1426.56 2087.32 1423.91 2086.51L1425.85 2077.67 1429.02 2077.67C1429.12 2080.27 1429.85 2082.23 1431.2 2083.55 1432.56 2084.88 1434.7 2085.54 1437.65 2085.54 1440.22 2085.54 1442.22 2084.96 1443.67 2083.81 1445.11 2082.67 1445.83 2081.04 1445.83 2078.93 1445.83 2077.72 1445.63 2076.67 1445.23 2075.79 1444.82 2074.91 1444.16 2074.07 1443.24 2073.26 1442.32 2072.45 1440.86 2071.43 1438.86 2070.22 1436.76 2068.95 1435.12 2067.8 1433.94 2066.77 1432.76 2065.75 1431.88 2064.63 1431.29 2063.43 1430.69 2062.23 1430.39 2060.84 1430.39 2059.28 1430.39 2057.14 1430.97 2055.27 1432.12 2053.66 1433.26 2052.05 1434.91 2050.82 1437.04 2049.95 1439.17 2049.09 1441.66 2048.66 1444.5 2048.66Z" fill-rule="evenodd"/><text fill="#000000" fill-opacity="0" font-family="Arial,Arial_MSFontService,sans-serif" font-size="40.0815" x="1423.91" y="2083.73">𝑠</text><path d="M1354.86 2006.86 1461.86 2006.86 1461.86 2011.86 1354.86 2011.86Z" fill-rule="evenodd"/><path d="M1464.6 1974.3C1472.49 1976.38 1478.55 1980.88 1482.78 1987.78 1487 1994.68 1489.12 2003.01 1489.12 2012.76 1489.12 2022.55 1487.01 2030.87 1482.8 2037.75 1478.58 2044.63 1472.52 2049.1 1464.6 2051.18L1463.63 2048.06C1469.87 2045.98 1474.51 2041.88 1477.55 2035.74 1480.59 2029.61 1482.11 2021.82 1482.11 2012.36 1482.11 2003.23 1480.59 1995.64 1477.57 1989.6 1474.54 1983.56 1469.85 1979.51 1463.5 1977.42Z" fill-rule="evenodd"/><text fill="#000000" fill-opacity="0" font-family="Arial,Arial_MSFontService,sans-serif" font-size="76.8802" x="1463.5" y="2041.57">)</text><rect x="2393.5" y="1862.5" width="282" height="284" stroke="#000000" stroke-width="6.875" stroke-miterlimit="8" fill="none"/><path d="M2488.97 1973.05C2491.62 1973.05 2493.9 1973.27 2495.82 1973.7L2494.24 1980.59 2490.67 1980.59C2490.29 1979.05 2489.8 1977.94 2489.19 1977.26 2488.58 1976.59 2487.68 1976.25 2486.5 1976.25 2484.96 1976.25 2483.65 1976.68 2482.59 1977.53 2481.52 1978.38 2480.61 1979.64 2479.85 1981.32 2479.09 1982.99 2478.39 1985.25 2477.74 1988.09L2476.73 1992.5 2487.14 1992.5 2486.25 1996.6 2475.8 1996.6 2468.26 2031.94C2467.02 2037.8 2465.11 2042.17 2462.54 2045.05 2459.98 2047.92 2456.75 2049.36 2452.86 2049.36 2451.72 2049.36 2450.83 2049.3 2450.18 2049.16L2450.87 2045.59C2451.14 2045.67 2451.78 2045.72 2452.78 2045.72 2453.99 2045.72 2455.03 2045.4 2455.9 2044.78 2456.76 2044.16 2457.57 2043.08 2458.31 2041.54 2459.05 2040 2459.73 2037.87 2460.36 2035.14L2469.07 1996.6 2462.22 1996.6 2462.83 1993.8C2464.64 1993.69 2465.94 1993.54 2466.74 1993.35 2467.54 1993.16 2468.16 1992.88 2468.6 1992.5 2469.05 1992.12 2469.43 1991.63 2469.74 1991.02 2470.05 1990.42 2470.45 1989.3 2470.93 1987.68 2472.37 1982.82 2474.57 1979.16 2477.56 1976.72 2480.55 1974.27 2484.35 1973.05 2488.97 1973.05Z" fill-rule="evenodd"/><text fill="#000000" fill-opacity="0" font-family="Arial,Arial_MSFontService,sans-serif" font-size="76.3129" x="2450.18" y="2039.82">𝑓</text><path d="M2530.27 1972.68 2531.37 1975.81C2525.04 1977.89 2520.36 1981.95 2517.32 1987.98 2514.28 1994.02 2512.76 2001.61 2512.76 2010.74 2512.76 2020.2 2514.28 2027.99 2517.32 2034.12 2520.36 2040.26 2525 2044.36 2531.24 2046.44L2530.27 2049.57C2522.36 2047.48 2516.29 2043.01 2512.08 2036.13 2507.86 2029.25 2505.75 2020.93 2505.75 2011.15 2505.75 2001.39 2507.87 1993.06 2512.1 1986.16 2516.32 1979.26 2522.38 1974.77 2530.27 1972.68Z" fill-rule="evenodd"/><text fill="#000000" fill-opacity="0" font-family="Arial,Arial_MSFontService,sans-serif" font-size="76.8802" x="2505.75" y="2039.96">(</text><path d="M2545.92 1991.81C2547.65 1991.81 2549.02 1992.39 2550.02 1993.56 2551.02 1994.72 2551.52 1996.29 2551.52 1998.26 2551.52 2000.39 2551.1 2003.05 2550.26 2006.24L2548.48 2013.25C2548.02 2015.04 2547.69 2016.43 2547.48 2017.43 2547.28 2018.43 2547.13 2019.29 2547.04 2020.02 2546.94 2020.75 2546.9 2021.36 2546.9 2021.84 2546.9 2023.71 2547.21 2025.05 2547.83 2025.88 2548.45 2026.7 2549.46 2027.11 2550.87 2027.11 2552 2027.11 2553.23 2026.66 2554.54 2025.76 2555.85 2024.85 2557.24 2023.49 2558.71 2021.66 2560.18 2019.84 2561.36 2018.07 2562.26 2016.35 2563.15 2014.64 2563.88 2012.52 2564.44 2010.01L2568.29 1992.46 2575.31 1992.46 2569.39 2018.16C2568.79 2020.75 2568.5 2022.75 2568.5 2024.15 2568.5 2025.24 2568.67 2026.02 2569.02 2026.51 2569.38 2026.99 2569.93 2027.23 2570.69 2027.23 2571.5 2027.23 2572.36 2026.9 2573.28 2026.24 2574.2 2025.58 2575.49 2024.32 2577.17 2022.45L2579.48 2024.72C2577.02 2027.34 2574.93 2029.19 2573.2 2030.27 2571.47 2031.35 2569.63 2031.9 2567.69 2031.9 2566.01 2031.9 2564.67 2031.34 2563.67 2030.23 2562.67 2029.13 2562.17 2027.65 2562.17 2025.82 2562.17 2024.36 2562.5 2022.76 2563.15 2021.03L2562.66 2020.87C2559.99 2024.63 2557.45 2027.4 2555.06 2029.18 2552.67 2030.96 2550.22 2031.85 2547.71 2031.85 2545.19 2031.85 2543.26 2031.13 2541.91 2029.69 2540.56 2028.24 2539.88 2026.24 2539.88 2023.67 2539.88 2021.97 2540.28 2019.55 2541.06 2016.41L2543.69 2005.8C2544.42 2002.85 2544.79 2000.77 2544.79 1999.55 2544.79 1998.47 2544.61 1997.69 2544.26 1997.2 2543.91 1996.72 2543.36 1996.47 2542.6 1996.47 2541.76 1996.47 2540.88 1996.82 2539.95 1997.51 2539.01 1998.2 2537.74 1999.45 2536.12 2001.26L2533.81 1998.99C2536.1 1996.66 2537.83 1995.07 2538.99 1994.2 2540.16 1993.34 2541.27 1992.73 2542.34 1992.36 2543.4 1992 2544.6 1991.81 2545.92 1991.81Z" fill-rule="evenodd"/><text fill="#000000" fill-opacity="0" font-family="Arial,Arial_MSFontService,sans-serif" font-size="40.0815" x="2533.81" y="2026.89">𝑢</text><path d="M2585.1 1972.68C2592.99 1974.77 2599.05 1979.26 2603.28 1986.16 2607.51 1993.06 2609.62 2001.39 2609.62 2011.15 2609.62 2020.93 2607.52 2029.25 2603.3 2036.13 2599.09 2043.01 2593.02 2047.48 2585.1 2049.57L2584.13 2046.44C2590.37 2044.36 2595.01 2040.26 2598.05 2034.12 2601.09 2027.99 2602.61 2020.2 2602.61 2010.74 2602.61 2001.61 2601.1 1994.02 2598.07 1987.98 2595.05 1981.95 2590.36 1977.89 2584.01 1975.81Z" fill-rule="evenodd"/><text fill="#000000" fill-opacity="0" font-family="Arial,Arial_MSFontService,sans-serif" font-size="76.8802" x="2584.01" y="2039.96">)</text><path d="M842.5 2002.21 1019.88 2002.21 1019.88 2006.79 842.5 2006.79ZM1015.3 1990.75 1042.8 2004.5 1015.3 2018.25Z"/><rect x="2946.5" y="1862.5" width="282" height="284" stroke="#000000" stroke-width="6.875" stroke-miterlimit="8" fill="none"/><path d="M3023.11 1975.28C3025.67 1975.28 3028.02 1975.43 3030.16 1975.74 3032.29 1976.06 3034.63 1976.62 3037.17 1977.43L3034.7 1988.33 3030.81 1988.33C3030.56 1984.95 3029.82 1982.53 3028.58 1981.05 3027.33 1979.58 3025.31 1978.85 3022.5 1978.85 3020.23 1978.85 3018.11 1979.43 3016.14 1980.59 3014.16 1981.75 3012.29 1983.49 3010.52 1985.8 3008.75 1988.11 3007.16 1991.02 3005.74 1994.53 3004.32 1998.04 3003.22 2001.7 3002.44 2005.51 3001.65 2009.32 3001.26 2012.9 3001.26 2016.25 3001.26 2020.47 3001.98 2023.54 3003.43 2025.47 3004.88 2027.4 3007.14 2028.37 3010.22 2028.37 3011.33 2028.37 3012.46 2028.24 3013.62 2027.98 3014.78 2027.73 3015.87 2027.29 3016.89 2026.67 3017.9 2026.05 3018.8 2025.21 3019.58 2024.15 3020.36 2023.1 3020.93 2021.78 3021.28 2020.18L3021.73 2018.28C3022.32 2015.74 3022.62 2013.56 3022.62 2011.75 3022.62 2010.48 3022.3 2009.6 3021.67 2009.1 3021.03 2008.6 3020.03 2008.31 3018.65 2008.23L3019.09 2006.24 3035.31 2006.24 3034.86 2008.23C3033.83 2008.44 3033.09 2008.69 3032.63 2008.96 3032.17 2009.23 3031.76 2009.64 3031.39 2010.19 3031.03 2010.75 3030.67 2011.59 3030.32 2012.73 3029.97 2013.86 3029.51 2015.72 3028.94 2018.32L3026.15 2031.04 3022.94 2031.94 3020.84 2028.73C3018.03 2030.06 3015.81 2030.92 3014.19 2031.31 3012.57 2031.7 3010.92 2031.9 3009.25 2031.9 3004.17 2031.9 3000.3 2030.44 2997.66 2027.52 2995.01 2024.6 2993.68 2020.33 2993.68 2014.71 2993.68 2010.69 2994.36 2006.17 2995.71 2001.16 2997.06 1996.14 2999.03 1991.67 3001.61 1987.72 3004.19 1983.78 3007.31 1980.72 3010.97 1978.54 3014.63 1976.37 3018.68 1975.28 3023.11 1975.28Z" fill-rule="evenodd"/><text fill="#000000" fill-opacity="0" font-family="Arial,Arial_MSFontService,sans-serif" font-size="56.6572" x="2993.68" y="2024.85">𝐺</text><path d="M3055.6 2012.41C3054.21 2012.41 3053.05 2012.77 3052.12 2013.5 3051.19 2014.22 3050.45 2015.28 3049.9 2016.68 3049.35 2018.08 3048.97 2019.79 3048.74 2021.81 3048.51 2023.82 3048.4 2026.11 3048.4 2028.67 3048.4 2031.63 3048.54 2034.19 3048.83 2036.34 3049.12 2038.49 3049.56 2040.27 3050.17 2041.66 3050.77 2043.05 3051.53 2044.07 3052.45 2044.73 3053.36 2045.38 3054.45 2045.71 3055.72 2045.71 3056.91 2045.71 3057.96 2045.4 3058.85 2044.78 3059.74 2044.17 3060.48 2043.21 3061.07 2041.91 3061.66 2040.61 3062.1 2038.96 3062.4 2036.97 3062.69 2034.97 3062.84 2032.61 3062.84 2029.89 3062.84 2026.83 3062.68 2024.2 3062.35 2022 3062.02 2019.79 3061.56 2017.98 3060.97 2016.56 3060.37 2015.14 3059.62 2014.1 3058.72 2013.42 3057.81 2012.75 3056.78 2012.41 3055.6 2012.41ZM3055.72 2009.52C3058.09 2009.52 3060.11 2009.96 3061.78 2010.84 3063.46 2011.73 3064.83 2012.99 3065.9 2014.63 3066.96 2016.27 3067.74 2018.27 3068.23 2020.63 3068.73 2022.99 3068.98 2025.66 3068.98 2028.64 3068.98 2035.25 3067.81 2040.25 3065.46 2043.64 3063.12 2047.02 3059.72 2048.72 3055.28 2048.72 3050.87 2048.72 3047.59 2047.12 3045.45 2043.92 3043.3 2040.72 3042.23 2035.88 3042.23 2029.39 3042.23 2025.99 3042.56 2023.05 3043.23 2020.57 3043.89 2018.09 3044.83 2016.03 3046.03 2014.39 3047.23 2012.75 3048.65 2011.53 3050.3 2010.73 3051.95 2009.92 3053.76 2009.52 3055.72 2009.52Z" fill-rule="evenodd"/><text fill="#000000" fill-opacity="0" font-family="Arial,Arial_MSFontService,sans-serif" font-size="39.1973" x="3042.23" y="2043.82">0</text><path d="M3108.12 1972.68 3109.21 1975.81C3102.89 1977.89 3098.21 1981.95 3095.17 1987.98 3092.13 1994.02 3090.61 2001.61 3090.61 2010.74 3090.61 2020.2 3092.13 2027.99 3095.17 2034.12 3098.21 2040.26 3102.85 2044.36 3109.09 2046.44L3108.12 2049.57C3100.2 2047.48 3094.14 2043.01 3089.92 2036.13 3085.71 2029.25 3083.6 2020.93 3083.6 2011.15 3083.6 2001.39 3085.71 1993.06 3089.94 1986.16 3094.17 1979.26 3100.23 1974.77 3108.12 1972.68Z" fill-rule="evenodd"/><text fill="#000000" fill-opacity="0" font-family="Arial,Arial_MSFontService,sans-serif" font-size="76.8802" x="3083.6" y="2039.96">(</text><path d="M3133.29 1991.85C3135.81 1991.85 3138.1 1992 3140.16 1992.3 3142.23 1992.6 3144.29 1993.11 3146.34 1993.84L3144.52 2002.35 3141.24 2002.35C3140.94 1999.95 3140.15 1998.12 3138.87 1996.88 3137.58 1995.64 3135.56 1995.02 3132.81 1995.02 3130.67 1995.02 3128.94 1995.56 3127.62 1996.66 3126.3 1997.75 3125.63 1999.19 3125.63 2000.97 3125.63 2001.95 3125.8 2002.8 3126.14 2003.55 3126.48 2004.29 3127.16 2005.11 3128.19 2006 3129.21 2006.89 3130.81 2007.98 3132.97 2009.28 3134.67 2010.31 3136.04 2011.25 3137.06 2012.1 3138.09 2012.95 3138.9 2013.79 3139.49 2014.63 3140.09 2015.47 3140.52 2016.35 3140.79 2017.29 3141.06 2018.22 3141.2 2019.35 3141.2 2020.67 3141.2 2023.07 3140.55 2025.13 3139.27 2026.85 3137.99 2028.57 3136.25 2029.84 3134.04 2030.68 3131.84 2031.52 3129.34 2031.94 3126.53 2031.94 3124.28 2031.94 3122.08 2031.77 3119.92 2031.43 3117.76 2031.09 3115.35 2030.52 3112.71 2029.71L3114.65 2020.87 3117.81 2020.87C3117.92 2023.47 3118.65 2025.42 3120 2026.75 3121.35 2028.07 3123.5 2028.73 3126.44 2028.73 3129.01 2028.73 3131.02 2028.16 3132.46 2027.01 3133.91 2025.86 3134.63 2024.24 3134.63 2022.13 3134.63 2020.91 3134.43 2019.87 3134.02 2018.99 3133.62 2018.11 3132.96 2017.27 3132.04 2016.45 3131.12 2015.64 3129.66 2014.63 3127.66 2013.41 3125.55 2012.15 3123.91 2011 3122.74 2009.97 3121.56 2008.94 3120.68 2007.83 3120.08 2006.63 3119.49 2005.42 3119.19 2004.04 3119.19 2002.47 3119.19 2000.34 3119.76 1998.47 3120.91 1996.86 3122.06 1995.25 3123.7 1994.02 3125.84 1993.15 3127.97 1992.29 3130.46 1991.85 3133.29 1991.85Z" fill-rule="evenodd"/><text fill="#000000" fill-opacity="0" font-family="Arial,Arial_MSFontService,sans-serif" font-size="40.0815" x="3112.71" y="2026.93">𝑠</text><path d="M3153.39 1972.68C3161.28 1974.77 3167.34 1979.26 3171.57 1986.16 3175.8 1993.06 3177.91 2001.39 3177.91 2011.15 3177.91 2020.93 3175.81 2029.25 3171.59 2036.13 3167.38 2043.01 3161.31 2047.48 3153.39 2049.57L3152.42 2046.44C3158.66 2044.36 3163.3 2040.26 3166.34 2034.12 3169.38 2027.99 3170.9 2020.2 3170.9 2010.74 3170.9 2001.61 3169.39 1994.02 3166.36 1987.98 3163.34 1981.95 3158.65 1977.89 3152.3 1975.81Z" fill-rule="evenodd"/><text fill="#000000" fill-opacity="0" font-family="Arial,Arial_MSFontService,sans-serif" font-size="76.8802" x="3152.3" y="2039.96">)</text><path d="M2675.5 2002.21 2923.54 2002.21 2923.54 2006.79 2675.5 2006.79ZM2918.96 1990.75 2946.46 2004.5 2918.96 2018.25Z"/><path d="M3228.5 2002.21 3438.28 2002.21 3438.28 2006.79 3228.5 2006.79ZM3433.7 1990.75 3461.2 2004.5 3433.7 2018.25Z"/><path d="M516.41 1934.1C518.139 1934.1 519.504 1934.69 520.504 1935.85 521.503 1937.01 522.003 1938.58 522.003 1940.55 522.003 1942.68 521.584 1945.34 520.747 1948.53L518.964 1955.54C518.504 1957.33 518.173 1958.72 517.971 1959.72 517.768 1960.72 517.619 1961.58 517.525 1962.31 517.43 1963.04 517.383 1963.65 517.383 1964.14 517.383 1966 517.694 1967.34 518.315 1968.17 518.937 1968.99 519.95 1969.4 521.355 1969.4 522.489 1969.4 523.712 1968.95 525.022 1968.05 526.333 1967.14 527.724 1965.78 529.197 1963.95 530.669 1962.13 531.851 1960.36 532.743 1958.64 533.634 1956.93 534.364 1954.81 534.931 1952.3L538.781 1934.75 545.793 1934.75 539.876 1960.45C539.281 1963.04 538.984 1965.04 538.984 1966.45 538.984 1967.53 539.16 1968.31 539.511 1968.8 539.862 1969.28 540.416 1969.53 541.172 1969.53 541.983 1969.53 542.848 1969.19 543.766 1968.53 544.685 1967.87 545.982 1966.61 547.657 1964.74L549.967 1967.01C547.508 1969.63 545.414 1971.48 543.685 1972.57 541.956 1973.65 540.119 1974.19 538.173 1974.19 536.498 1974.19 535.161 1973.63 534.161 1972.52 533.162 1971.42 532.662 1969.94 532.662 1968.11 532.662 1966.65 532.986 1965.05 533.634 1963.33L533.148 1963.16C530.473 1966.92 527.94 1969.69 525.549 1971.47 523.158 1973.25 520.706 1974.15 518.193 1974.15 515.681 1974.15 513.749 1973.42 512.398 1971.98 511.047 1970.53 510.372 1968.53 510.372 1965.96 510.372 1964.26 510.763 1961.84 511.547 1958.71L514.181 1948.09C514.911 1945.14 515.276 1943.06 515.276 1941.85 515.276 1940.77 515.1 1939.98 514.749 1939.5 514.397 1939.01 513.844 1938.77 513.087 1938.77 512.25 1938.77 511.365 1939.11 510.433 1939.8 509.5 1940.49 508.224 1941.74 506.603 1943.55L504.293 1941.28C506.589 1938.95 508.318 1937.36 509.48 1936.5 510.642 1935.63 511.756 1935.02 512.824 1934.65 513.891 1934.29 515.086 1934.1 516.41 1934.1Z" fill-rule="evenodd"/><text fill="#000000" fill-opacity="0" font-family="Arial,Arial_MSFontService,sans-serif" font-size="40.0815" x="504.293" y="1969.18">𝑢</text><path d="M572.913 1959.97C574.363 1959.97 575.708 1960.05 576.949 1960.21 578.19 1960.37 579.476 1960.62 580.806 1960.95L579.138 1968.25 575.624 1968.25C575.604 1967.22 575.529 1966.36 575.4 1965.68 575.271 1964.99 575.063 1964.45 574.775 1964.05 574.487 1963.65 574.109 1963.37 573.643 1963.2 573.176 1963.03 572.605 1962.94 571.93 1962.92 570.858 1962.92 569.83 1963.16 568.847 1963.63 567.865 1964.11 566.951 1964.77 566.107 1965.62 565.263 1966.46 564.494 1967.45 563.799 1968.58 563.104 1969.71 562.508 1970.93 562.012 1972.24 561.515 1973.55 561.133 1974.92 560.865 1976.34 560.597 1977.76 560.463 1979.17 560.463 1980.58 560.463 1982.69 560.88 1984.29 561.714 1985.39 562.548 1986.49 563.799 1987.05 565.467 1987.05 566.4 1987.05 567.264 1986.96 568.058 1986.79 568.852 1986.62 569.627 1986.34 570.381 1985.94 571.136 1985.55 571.915 1985.03 572.719 1984.38 573.524 1983.73 574.412 1982.94 575.385 1981.98 575.763 1982.38 576.125 1982.77 576.472 1983.16 576.82 1983.55 577.182 1983.94 577.56 1984.34 575.415 1986.56 573.271 1988.21 571.126 1989.29 568.981 1990.38 566.678 1990.92 564.216 1990.92 561.138 1990.92 558.78 1990.02 557.142 1988.22 555.504 1986.43 554.685 1983.86 554.685 1980.52 554.685 1978.66 554.893 1976.85 555.31 1975.12 555.727 1973.38 556.328 1971.75 557.112 1970.22 557.896 1968.69 558.835 1967.3 559.927 1966.05 561.019 1964.8 562.24 1963.72 563.59 1962.82 564.941 1961.91 566.4 1961.21 567.969 1960.72 569.537 1960.22 571.186 1959.97 572.913 1959.97Z" fill-rule="evenodd"/><text fill="#000000" fill-opacity="0" font-family="Arial,Arial_MSFontService,sans-serif" font-size="30.9468" x="554.685" y="1987.05">𝑐</text><path d="M789.216 2146.76 839.146 2146.76 839.146 2152.15 789.216 2152.15Z" fill-rule="evenodd"/><text fill="#000000" fill-opacity="0" font-family="Arial,Arial_MSFontService,sans-serif" font-size="5.39014" x="789.216" y="2151.48">−</text><path d="M2228.83 1934.1C2230.56 1934.1 2231.93 1934.69 2232.93 1935.85 2233.92 1937.01 2234.42 1938.58 2234.42 1940.55 2234.42 1942.68 2234.01 1945.34 2233.17 1948.53L2231.39 1955.54C2230.93 1957.33 2230.59 1958.72 2230.39 1959.72 2230.19 1960.72 2230.04 1961.58 2229.95 1962.31 2229.85 1963.04 2229.8 1963.65 2229.8 1964.14 2229.8 1966 2230.12 1967.34 2230.74 1968.17 2231.36 1968.99 2232.37 1969.4 2233.78 1969.4 2234.91 1969.4 2236.13 1968.95 2237.44 1968.05 2238.75 1967.14 2240.15 1965.78 2241.62 1963.95 2243.09 1962.13 2244.27 1960.36 2245.16 1958.64 2246.06 1956.93 2246.79 1954.81 2247.35 1952.3L2251.2 1934.75 2258.21 1934.75 2252.3 1960.45C2251.7 1963.04 2251.41 1965.04 2251.41 1966.45 2251.41 1967.53 2251.58 1968.31 2251.93 1968.8 2252.28 1969.28 2252.84 1969.53 2253.59 1969.53 2254.4 1969.53 2255.27 1969.19 2256.19 1968.53 2257.11 1967.87 2258.4 1966.61 2260.08 1964.74L2262.39 1967.01C2259.93 1969.63 2257.84 1971.48 2256.11 1972.57 2254.38 1973.65 2252.54 1974.19 2250.59 1974.19 2248.92 1974.19 2247.58 1973.63 2246.58 1972.52 2245.58 1971.42 2245.08 1969.94 2245.08 1968.11 2245.08 1966.65 2245.41 1965.05 2246.06 1963.33L2245.57 1963.16C2242.89 1966.92 2240.36 1969.69 2237.97 1971.47 2235.58 1973.25 2233.13 1974.15 2230.61 1974.15 2228.1 1974.15 2226.17 1973.42 2224.82 1971.98 2223.47 1970.53 2222.79 1968.53 2222.79 1965.96 2222.79 1964.26 2223.19 1961.84 2223.97 1958.71L2226.6 1948.09C2227.33 1945.14 2227.7 1943.06 2227.7 1941.85 2227.7 1940.77 2227.52 1939.98 2227.17 1939.5 2226.82 1939.01 2226.27 1938.77 2225.51 1938.77 2224.67 1938.77 2223.79 1939.11 2222.85 1939.8 2221.92 1940.49 2220.65 1941.74 2219.02 1943.55L2216.71 1941.28C2219.01 1938.95 2220.74 1937.36 2221.9 1936.5 2223.06 1935.63 2224.18 1935.02 2225.25 1934.65 2226.31 1934.29 2227.51 1934.1 2228.83 1934.1Z" fill-rule="evenodd"/><text fill="#000000" fill-opacity="0" font-family="Arial,Arial_MSFontService,sans-serif" font-size="40.0815" x="2216.71" y="1969.18">𝑢</text><path d="M2807.33 1938.28C2809.28 1938.28 2810.69 1938.79 2811.55 1939.8 2812.41 1940.82 2812.85 1942.17 2812.85 1943.88 2812.85 1945.17 2812.62 1946.66 2812.16 1948.33 2811.7 1950.01 2811.05 1951.78 2810.21 1953.64 2809.37 1955.51 2808.38 1957.42 2807.21 1959.38 2806.05 1961.34 2804.77 1963.24 2803.36 1965.09 2801.96 1966.94 2800.46 1968.68 2798.86 1970.32 2797.27 1971.95 2795.62 1973.38 2793.9 1974.59 2792.18 1975.81 2790.44 1976.78 2788.67 1977.49 2786.9 1978.21 2785.14 1978.57 2783.38 1978.57 2782.6 1978.57 2781.94 1978.37 2781.42 1977.98 2780.89 1977.59 2780.47 1977.03 2780.14 1976.32 2779.82 1975.6 2779.59 1974.76 2779.45 1973.78 2779.32 1972.81 2779.25 1971.74 2779.25 1970.58 2779.25 1969.04 2779.34 1967.39 2779.53 1965.64 2779.72 1963.88 2779.97 1962.11 2780.26 1960.33L2781.96 1949.1C2782.07 1948.45 2782.16 1947.84 2782.23 1947.26 2782.3 1946.68 2782.33 1946.25 2782.33 1945.98 2782.33 1945.14 2782.19 1944.46 2781.92 1943.92 2781.65 1943.38 2781.19 1943.1 2780.55 1943.1 2780.03 1943.1 2779.48 1943.26 2778.88 1943.57 2778.29 1943.88 2777.69 1944.28 2777.08 1944.77 2776.47 1945.25 2775.89 1945.77 2775.32 1946.33 2774.75 1946.88 2774.22 1947.4 2773.74 1947.89L2771.79 1945.62C2772.63 1944.75 2773.52 1943.9 2774.47 1943.04 2775.41 1942.19 2776.41 1941.42 2777.47 1940.73 2778.52 1940.05 2779.63 1939.49 2780.79 1939.07 2781.95 1938.65 2783.14 1938.44 2784.36 1938.44 2785.38 1938.44 2786.22 1938.61 2786.87 1938.95 2787.52 1939.29 2788.02 1939.73 2788.39 1940.29 2788.75 1940.84 2789 1941.45 2789.14 1942.11 2789.27 1942.77 2789.34 1943.43 2789.34 1944.08 2789.34 1944.46 2789.33 1944.82 2789.3 1945.17 2789.27 1945.52 2789.23 1945.85 2789.18 1946.14L2786.91 1960.82C2786.67 1962.36 2786.46 1963.86 2786.3 1965.33 2786.14 1966.81 2786.06 1968.11 2786.06 1969.25 2786.06 1970.38 2786.13 1971.3 2786.26 1972 2786.4 1972.7 2786.65 1973.05 2787.03 1973.05 2787.92 1973.05 2789.04 1972.7 2790.39 1971.98 2791.75 1971.26 2793.16 1970.28 2794.65 1969.02 2796.14 1967.77 2797.62 1966.28 2799.11 1964.56 2800.59 1962.85 2801.93 1960.99 2803.12 1958.99 2804.31 1956.99 2805.27 1954.88 2806.02 1952.67 2806.76 1950.45 2807.13 1948.22 2807.13 1945.98 2807.13 1945.01 2806.92 1944.26 2806.5 1943.73 2806.09 1943.21 2805.43 1942.94 2804.54 1942.94 2803.4 1942.94 2802.36 1943.38 2801.4 1944.26 2800.44 1945.14 2799.45 1946.29 2798.42 1947.73L2796.11 1945.66C2796.76 1944.69 2797.52 1943.75 2798.4 1942.86 2799.28 1941.97 2800.21 1941.19 2801.19 1940.51 2802.18 1939.84 2803.2 1939.3 2804.25 1938.89 2805.31 1938.48 2806.33 1938.28 2807.33 1938.28Z" fill-rule="evenodd"/><text fill="#000000" fill-opacity="0" font-family="Arial,Arial_MSFontService,sans-serif" font-size="40.2842" x="2771.79" y="1973.53">𝑣</text><path d="M3320.72 1932.26C3321.82 1932.26 3322.77 1932.41 3323.55 1932.71 3324.09 1932.92 3324.63 1933.28 3325.17 1933.78 3325.71 1934.28 3326.19 1934.98 3326.61 1935.87 3327.03 1936.76 3327.4 1937.76 3327.71 1938.87 3328.02 1939.97 3328.36 1941.57 3328.74 1943.65 3329.39 1947.13 3330.02 1950.8 3330.63 1954.65 3331.23 1958.5 3331.75 1962.08 3332.19 1965.37 3334.81 1961.59 3337.03 1957.89 3338.85 1954.27 3340.68 1950.65 3341.99 1947.5 3342.78 1944.82 3343.58 1942.15 3343.98 1939.97 3343.98 1938.3 3343.98 1937.03 3343.71 1936.17 3343.17 1935.71 3342.63 1935.25 3341.71 1934.98 3340.41 1934.9L3340.82 1932.91 3351.48 1932.91 3352.57 1934.94C3350.52 1940.56 3347.73 1946.57 3344.22 1952.97 3340.76 1959.24 3336.81 1965.48 3332.35 1971.69 3328.08 1977.61 3324.53 1981.89 3321.69 1984.54 3319.72 1986.35 3317.81 1987.65 3315.97 1988.43 3314.52 1989.03 3312.96 1989.32 3311.31 1989.32 3310.75 1989.32 3310.09 1989.28 3309.35 1989.18 3308.61 1989.09 3308.03 1988.96 3307.63 1988.8L3309.37 1980.93 3312.57 1980.93C3312.57 1982.66 3313.16 1983.53 3314.35 1983.53 3315.92 1983.53 3317.74 1982.55 3319.82 1980.59 3321.91 1978.63 3324.35 1975.68 3327.16 1971.73 3326.38 1967.01 3325.31 1961.31 3323.96 1954.63 3322.53 1947.5 3321.58 1943.08 3321.12 1941.38 3320.55 1939.33 3319.96 1938.02 3319.34 1937.45 3318.96 1937.1 3318.49 1936.92 3317.92 1936.92 3317.06 1936.92 3316.24 1937.27 3315.49 1937.98 3314.73 1938.68 3313.8 1939.89 3312.69 1941.62L3310.06 1939.88C3311.92 1937.1 3313.66 1935.13 3315.29 1933.98 3316.91 1932.84 3318.72 1932.26 3320.72 1932.26Z" fill-rule="evenodd"/><text fill="#000000" fill-opacity="0" font-family="Arial,Arial_MSFontService,sans-serif" font-size="57.0625" x="3307.63" y="1982.19">𝑦</text><path d="M0 2.29167-1.51731 2.29167 0.774356 0 0.774356 349.739-1.51731 347.447 2574.08 347.447 2571.79 349.739 2571.79 102.24 2576.37 102.24 2576.37 352.03-3.80898 352.03-3.80898-2.29167 0-2.29167ZM2560.33 106.823 2574.08 79.3231 2587.83 106.823Z" transform="matrix(-1 1.22465e-16 1.22465e-16 1 3334.58 2007.5)"/><rect x="1840.5" y="1862.5" width="282" height="284" stroke="#000000" stroke-width="6.875" stroke-miterlimit="8" fill="none"/><path d="M1911.42 1974.06C1914.07 1974.06 1916.35 1974.27 1918.27 1974.71L1916.69 1981.6 1913.12 1981.6C1912.74 1980.06 1912.25 1978.95 1911.64 1978.27 1911.03 1977.6 1910.14 1977.26 1908.95 1977.26 1907.41 1977.26 1906.1 1977.68 1905.04 1978.54 1903.97 1979.39 1903.06 1980.65 1902.3 1982.33 1901.54 1984 1900.84 1986.26 1900.19 1989.09L1899.18 1993.51 1909.6 1993.51 1908.7 1997.6 1898.25 1997.6 1890.71 2032.94C1889.47 2038.81 1887.56 2043.18 1885 2046.05 1882.43 2048.93 1879.2 2050.37 1875.31 2050.37 1874.18 2050.37 1873.28 2050.3 1872.64 2050.17L1873.32 2046.6C1873.59 2046.68 1874.23 2046.72 1875.23 2046.72 1876.44 2046.72 1877.48 2046.41 1878.35 2045.79 1879.21 2045.17 1880.02 2044.09 1880.76 2042.55 1881.5 2041.01 1882.19 2038.87 1882.81 2036.15L1891.52 1997.6 1884.67 1997.6 1885.28 1994.81C1887.09 1994.7 1888.39 1994.55 1889.19 1994.36 1889.99 1994.17 1890.61 1993.89 1891.05 1993.51 1891.5 1993.13 1891.88 1992.64 1892.19 1992.03 1892.5 1991.42 1892.9 1990.31 1893.39 1988.69 1894.82 1983.82 1897.03 1980.17 1900.01 1977.73 1903 1975.28 1906.8 1974.06 1911.42 1974.06Z" fill-rule="evenodd"/><text fill="#000000" fill-opacity="0" font-family="Arial,Arial_MSFontService,sans-serif" font-size="76.313" x="1872.64" y="2040.83">𝑓</text><path d="M1928.56 1982.33 1962.87 1982.33 1962.87 1986.89 1928.56 1986.89Z" fill-rule="evenodd"/><text fill="#000000" fill-opacity="0" font-family="Arial,Arial_MSFontService,sans-serif" font-size="4.55713" x="1928.56" y="1986.32">−</text><path d="M1987.17 1963.69 1988.99 1963.69C1988.95 1964.78 1988.92 1965.76 1988.9 1966.62 1988.88 1967.49 1988.86 1968.32 1988.85 1969.14 1988.84 1969.95 1988.84 1970.76 1988.84 1971.55L1988.84 1994.19C1988.84 1994.8 1988.86 1995.33 1988.9 1995.78 1988.94 1996.23 1989 1996.61 1989.09 1996.91 1989.18 1997.22 1989.3 1997.48 1989.45 1997.7 1989.6 1997.92 1989.77 1998.11 1989.97 1998.27 1990.21 1998.51 1990.52 1998.69 1990.92 1998.82 1991.32 1998.95 1991.83 1999.06 1992.44 1999.15 1993.06 1999.24 1993.8 1999.31 1994.66 1999.36 1995.52 1999.4 1996.56 1999.44 1997.77 1999.46L1997.77 2002.05 1974.15 2002.05 1974.15 1999.46C1975.32 1999.42 1976.32 1999.38 1977.13 1999.33 1977.95 1999.28 1978.64 1999.21 1979.22 1999.12 1979.79 1999.03 1980.25 1998.93 1980.6 1998.82 1980.95 1998.71 1981.25 1998.58 1981.51 1998.42 1981.79 1998.24 1982.03 1998.04 1982.22 1997.84 1982.42 1997.63 1982.58 1997.36 1982.7 1997.05 1982.82 1996.73 1982.91 1996.34 1982.98 1995.89 1983.05 1995.43 1983.09 1994.86 1983.09 1994.19L1983.09 1972.83C1983.09 1972.06 1982.94 1971.51 1982.64 1971.19 1982.34 1970.88 1981.92 1970.72 1981.36 1970.72 1980.74 1970.72 1979.83 1971.03 1978.62 1971.67 1977.41 1972.31 1975.84 1973.25 1973.91 1974.5 1973.66 1974.04 1973.42 1973.59 1973.2 1973.13 1972.98 1972.67 1972.75 1972.21 1972.51 1971.73 1974.98 1970.38 1977.41 1969.03 1979.83 1967.69 1982.24 1966.35 1984.69 1965.02 1987.17 1963.69Z" fill-rule="evenodd"/><text fill="#000000" fill-opacity="0" font-family="Arial,Arial_MSFontService,sans-serif" font-size="38.3633" x="1972.51" y="1997.26">1</text><path d="M2037.24 1973.69 2038.33 1976.81C2032.01 1978.89 2027.33 1982.95 2024.29 1988.99 2021.25 1995.03 2019.73 2002.62 2019.73 2011.75 2019.73 2021.2 2021.25 2029 2024.29 2035.13 2027.33 2041.27 2031.97 2045.37 2038.21 2047.45L2037.24 2050.57C2029.32 2048.49 2023.26 2044.01 2019.04 2037.14 2014.83 2030.26 2012.72 2021.93 2012.72 2012.15 2012.72 2002.4 2014.84 1994.07 2019.06 1987.17 2023.29 1980.27 2029.35 1975.77 2037.24 1973.69Z" fill-rule="evenodd"/><text fill="#000000" fill-opacity="0" font-family="Arial,Arial_MSFontService,sans-serif" font-size="76.8804" x="2012.72" y="2040.96">(</text><path d="M2066.63 1992.86C2070.22 1992.86 2073.53 1993.27 2076.56 1994.08L2074.57 2003.24 2070.32 2003.24C2070.26 2001.18 2070.1 1999.7 2069.81 1998.78 2069.53 1997.86 2069.07 1997.17 2068.43 1996.71 2067.8 1996.25 2066.9 1996.02 2065.74 1996.02 2063.01 1996.02 2060.56 1997.11 2058.38 1999.29 2056.21 2001.46 2054.43 2004.54 2053.05 2008.53 2051.68 2012.51 2050.99 2016.34 2050.99 2020.02 2050.99 2022.77 2051.53 2024.82 2052.61 2026.16 2053.69 2027.49 2055.31 2028.16 2057.47 2028.16 2059.93 2028.16 2062.06 2027.7 2063.85 2026.76 2065.65 2025.83 2067.55 2024.37 2069.55 2022.37L2072.02 2024.84C2069.48 2027.65 2066.92 2029.7 2064.34 2031 2061.76 2032.3 2058.98 2032.94 2056.01 2032.94 2052.09 2032.94 2049.12 2031.78 2047.1 2029.46 2045.07 2027.13 2044.06 2023.76 2044.06 2019.33 2044.06 2016.44 2044.6 2013.26 2045.68 2009.8 2046.76 2006.34 2048.34 2003.3 2050.42 2000.68 2052.5 1998.06 2054.93 1996.1 2057.71 1994.81 2060.5 1993.51 2063.47 1992.86 2066.63 1992.86Z" fill-rule="evenodd"/><text fill="#000000" fill-opacity="0" font-family="Arial,Arial_MSFontService,sans-serif" font-size="40.0815" x="2044.06" y="2027.93">𝑐</text><path d="M2082.86 1973.69C2090.75 1975.77 2096.81 1980.27 2101.04 1987.17 2105.27 1994.07 2107.38 2002.4 2107.38 2012.15 2107.38 2021.93 2105.27 2030.26 2101.06 2037.14 2096.84 2044.01 2090.78 2048.49 2082.86 2050.57L2081.89 2047.45C2088.13 2045.37 2092.77 2041.27 2095.81 2035.13 2098.85 2029 2100.37 2021.2 2100.37 2011.75 2100.37 2002.62 2098.86 1995.03 2095.83 1988.99 2092.8 1982.95 2088.12 1978.89 2081.77 1976.81Z" fill-rule="evenodd"/><text fill="#000000" fill-opacity="0" font-family="Arial,Arial_MSFontService,sans-serif" font-size="76.8804" x="2081.77" y="2040.96">)</text><path d="M2122.5 2002.21 2370.54 2002.21 2370.54 2006.79 2122.5 2006.79ZM2365.96 1990.75 2393.46 2004.5 2365.96 2018.25Z"/><path d="M1571.5 2003.21 1819.54 2003.21 1819.54 2007.79 1571.5 2007.79ZM1814.96 1991.75 1842.46 2005.5 1814.96 2019.25Z"/><path d="M1708 1935.34C1711.59 1935.34 1714.9 1935.74 1717.93 1936.55L1715.94 1945.71 1711.68 1945.71C1711.63 1943.66 1711.46 1942.17 1711.18 1941.25 1710.89 1940.33 1710.43 1939.64 1709.8 1939.19 1709.16 1938.73 1708.27 1938.5 1707.1 1938.5 1704.38 1938.5 1701.92 1939.58 1699.75 1941.76 1697.57 1943.93 1695.8 1947.01 1694.42 1951 1693.04 1954.98 1692.35 1958.81 1692.35 1962.49 1692.35 1965.24 1692.89 1967.29 1693.97 1968.63 1695.05 1969.97 1696.68 1970.63 1698.84 1970.63 1701.3 1970.63 1703.42 1970.17 1705.22 1969.24 1707.02 1968.3 1708.91 1966.84 1710.91 1964.84L1713.39 1967.31C1710.85 1970.12 1708.29 1972.17 1705.71 1973.47 1703.13 1974.77 1700.35 1975.42 1697.38 1975.42 1693.46 1975.42 1690.49 1974.25 1688.46 1971.93 1686.44 1969.61 1685.42 1966.23 1685.42 1961.8 1685.42 1958.91 1685.96 1955.73 1687.04 1952.28 1688.12 1948.82 1689.7 1945.78 1691.79 1943.16 1693.87 1940.54 1696.3 1938.58 1699.08 1937.28 1701.86 1935.98 1704.84 1935.34 1708 1935.34Z" fill-rule="evenodd"/><text fill="#000000" fill-opacity="0" font-family="Arial,Arial_MSFontService,sans-serif" font-size="40.0815" x="1685.42" y="1970.41">𝑐</text><rect x="995" y="1816" width="1172" height="378" stroke="#000000" stroke-width="10.3125" stroke-miterlimit="8" stroke-dasharray="41.25 30.9375" fill="none"/><rect x="2350" y="1815" width="918" height="378" stroke="#000000" stroke-width="10.3125" stroke-miterlimit="8" stroke-dasharray="41.25 30.9375" fill="none"/><text font-family="Times New Roman,Times New Roman_MSFontService,sans-serif" font-weight="400" font-size="92" transform="matrix(1 0 0 1 1391.25 1750)">Controller</text><text font-family="Times New Roman,Times New Roman_MSFontService,sans-serif" font-weight="400" font-size="92" transform="matrix(1 0 0 1 2667.56 1750)">Process</text></g></svg>