<svg width="2532" height="487" xmlns="http://www.w3.org/2000/svg" xmlns:xlink="http://www.w3.org/1999/xlink" xml:space="preserve" overflow="hidden"><g transform="translate(-405 -136)"><path d="M405.5 279.208 656.744 279.209 656.744 283.792 405.5 283.792ZM652.161 267.75 679.661 281.5 652.161 295.25Z"/><path d="M679.5 281.5C679.5 236.213 715.989 199.5 761 199.5 806.011 199.5 842.5 236.213 842.5 281.5 842.5 326.787 806.011 363.5 761 363.5 715.989 363.5 679.5 326.787 679.5 281.5Z" stroke="#000000" stroke-width="6.875" stroke-miterlimit="8" fill="none" fill-rule="evenodd"/><path d="M703.5 223.5 818.919 338.918" stroke="#000000" stroke-width="6.875" stroke-miterlimit="8" fill="none" fill-rule="evenodd"/><path d="M0 0 115.418 115.418" stroke="#000000" stroke-width="6.875" stroke-miterlimit="8" fill="none" fill-rule="evenodd" transform="matrix(1 0 0 -1 703.5 338.918)"/><rect x="1043.5" y="139.5" width="528" height="284" stroke="#000000" stroke-width="6.875" stroke-miterlimit="8" fill="none"/><path d="M1129.55 254.265 1145.76 254.265 1145.31 256.251C1144.28 256.467 1143.55 256.711 1143.1 256.981 1142.66 257.251 1142.26 257.656 1141.91 258.197 1141.56 258.737 1141.19 259.581 1140.81 260.729 1140.43 261.878 1139.96 263.749 1139.39 266.343L1136.52 279.271 1137.85 279.271C1138.99 279.271 1140.02 279.082 1140.95 278.703 1141.89 278.325 1142.97 277.636 1144.22 276.636 1145.46 275.637 1147.44 273.8 1150.15 271.125 1152.87 268.45 1154.8 266.417 1155.95 265.025 1157.1 263.634 1157.94 262.432 1158.46 261.418 1158.99 260.405 1159.25 259.48 1159.25 258.642 1159.25 257.967 1158.98 257.42 1158.44 257.001 1157.9 256.582 1157.13 256.332 1156.13 256.251L1156.58 254.265 1173.96 254.265 1173.52 256.251C1172.44 256.413 1171.21 256.974 1169.85 257.933 1168.49 258.892 1166.4 260.763 1163.59 263.546L1147.86 278.865 1156.5 299.615C1157.39 301.75 1158.12 303.29 1158.71 304.236 1159.29 305.181 1159.98 305.931 1160.79 306.485 1161.6 307.039 1162.6 307.41 1163.79 307.599L1163.35 309.585 1147.7 309.585 1148.15 307.599C1149.61 307.464 1150.34 306.816 1150.34 305.654 1150.34 304.925 1150.19 304.094 1149.89 303.162 1149.59 302.229 1149.24 301.264 1148.84 300.264L1143.57 287.376C1142.95 285.836 1142.41 284.755 1141.95 284.134 1141.49 283.513 1141 283.08 1140.49 282.837 1139.97 282.594 1139.18 282.472 1138.1 282.472L1135.83 282.472 1132.46 297.792C1132.11 299.413 1131.88 300.689 1131.77 301.622 1131.67 302.554 1131.61 303.385 1131.61 304.114 1131.61 305.33 1131.92 306.188 1132.52 306.688 1133.13 307.187 1134.15 307.491 1135.58 307.599L1135.14 309.585 1118.93 309.585 1119.37 307.599C1120.4 307.437 1121.17 307.174 1121.68 306.809 1122.2 306.444 1122.63 305.938 1122.98 305.289 1123.33 304.641 1123.66 303.851 1123.95 302.918 1124.25 301.986 1124.7 300.183 1125.29 297.508L1132.18 266.302C1132.77 263.6 1133.07 261.425 1133.07 259.777 1133.07 258.507 1132.75 257.622 1132.12 257.123 1131.48 256.623 1130.48 256.332 1129.1 256.251Z" fill-rule="evenodd"/><text fill="#000000" fill-opacity="0" font-family="Arial,Arial_MSFontService,sans-serif" font-size="55.3198" x="1118.93" y="302.67">𝐾</text><path d="M1208.79 251.023 1209.89 254.144C1203.57 256.224 1198.89 260.284 1195.85 266.322 1192.81 272.361 1191.29 279.946 1191.29 289.078 1191.29 298.535 1192.81 306.329 1195.85 312.463 1198.89 318.596 1203.53 322.703 1209.77 324.783L1208.79 327.904C1200.88 325.823 1194.81 321.345 1190.6 314.469 1186.38 307.593 1184.28 299.264 1184.28 289.484 1184.28 279.73 1186.39 271.402 1190.62 264.499 1194.85 257.595 1200.9 253.104 1208.79 251.023Z" fill-rule="evenodd"/><text fill="#000000" fill-opacity="0" font-family="Arial,Arial_MSFontService,sans-serif" font-size="76.8804" x="1184.28" y="318.294">(</text><path d="M1237.54 253.617 1239.76 253.617C1239.6 256.211 1239.52 259.804 1239.52 264.397L1239.52 299.008C1239.52 300.575 1239.61 301.757 1239.79 302.554 1239.96 303.351 1240.27 303.999 1240.72 304.499 1241.16 304.999 1241.8 305.391 1242.64 305.674 1243.48 305.958 1244.53 306.174 1245.8 306.323 1247.07 306.471 1248.75 306.573 1250.83 306.627L1250.83 309.585 1220.88 309.585 1220.88 306.627C1223.88 306.492 1226.02 306.309 1227.3 306.08 1228.59 305.85 1229.57 305.505 1230.24 305.046 1230.92 304.587 1231.41 303.938 1231.72 303.101 1232.03 302.263 1232.19 300.899 1232.19 299.008L1232.19 266.14C1232.19 265.059 1232 264.269 1231.62 263.769 1231.24 263.269 1230.69 263.019 1229.96 263.019 1229.09 263.019 1227.86 263.465 1226.27 264.357 1224.68 265.248 1222.7 266.478 1220.35 268.045L1218.57 264.924Z" fill-rule="evenodd"/><text fill="#000000" fill-opacity="0" font-family="Arial,Arial_MSFontService,sans-serif" font-size="55.9683" x="1218.57" y="302.589">1</text><path d="M1303.65 259.818 1309.4 259.818 1309.4 283.161 1331.49 283.161 1331.49 288.552 1309.4 288.552 1309.4 311.895 1303.65 311.895 1303.65 288.552 1281.56 288.552 1281.56 283.161 1303.65 283.161Z" fill-rule="evenodd"/><text fill="#000000" fill-opacity="0" font-family="Arial,Arial_MSFontService,sans-serif" font-size="52.0776" x="1281.56" y="305.386">+</text><path d="M1412.57 191.169 1414.8 191.169C1414.64 193.763 1414.56 197.356 1414.56 201.949L1414.56 236.56C1414.56 238.127 1414.65 239.309 1414.82 240.106 1415 240.903 1415.31 241.551 1415.75 242.051 1416.2 242.551 1416.84 242.943 1417.68 243.226 1418.52 243.51 1419.57 243.726 1420.84 243.875 1422.11 244.023 1423.79 244.125 1425.87 244.179L1425.87 247.137 1395.92 247.137 1395.92 244.179C1398.92 244.044 1401.06 243.861 1402.34 243.632 1403.62 243.402 1404.6 243.058 1405.28 242.598 1405.95 242.139 1406.45 241.49 1406.76 240.653 1407.07 239.815 1407.22 238.451 1407.22 236.56L1407.22 203.692C1407.22 202.611 1407.03 201.821 1406.66 201.321 1406.28 200.821 1405.72 200.571 1404.99 200.571 1404.13 200.571 1402.9 201.017 1401.31 201.909 1399.71 202.8 1397.74 204.03 1395.39 205.597L1393.61 202.476Z" fill-rule="evenodd"/><text fill="#000000" fill-opacity="0" font-family="Arial,Arial_MSFontService,sans-serif" font-size="55.9683" x="1393.61" y="240.141">1</text><path d="M1361.61 309.449 1403.92 309.449 1400.76 323.714 1396.87 323.714C1396.87 321.094 1396.8 319.128 1396.66 317.818 1396.53 316.507 1396.27 315.508 1395.89 314.819 1395.51 314.13 1395.05 313.657 1394.49 313.4 1393.94 313.143 1392.96 313.015 1391.56 313.015L1385.56 313.015 1376.76 352.975C1376.52 354.029 1376.35 354.866 1376.26 355.488 1376.16 356.109 1376.08 356.764 1376.01 357.453 1375.95 358.142 1375.91 358.757 1375.91 359.297 1375.91 360.135 1376.05 360.79 1376.32 361.263 1376.59 361.736 1376.99 362.08 1377.53 362.296 1378.07 362.513 1379.01 362.675 1380.33 362.783L1379.88 364.769 1362.82 364.769 1363.27 362.783C1364.35 362.621 1365.15 362.404 1365.66 362.134 1366.17 361.864 1366.63 361.445 1367.02 360.878 1367.41 360.311 1367.8 359.419 1368.19 358.203 1368.58 356.987 1369.05 355.15 1369.59 352.691L1378.26 313.015 1373.12 313.015C1371.44 313.015 1370.1 313.258 1369.1 313.745 1368.1 314.231 1367.1 315.136 1366.11 316.46 1365.11 317.784 1363.89 319.999 1362.46 323.106L1358.57 323.106Z" fill-rule="evenodd"/><text fill="#000000" fill-opacity="0" font-family="Arial,Arial_MSFontService,sans-serif" font-size="55.3198" x="1358.57" y="357.854">𝑇</text><path d="M1410.43 351.499 1411.89 351.499 1407.48 371.336C1407.2 372.508 1407.01 373.441 1406.9 374.136 1406.79 374.831 1406.74 375.457 1406.74 376.013 1406.74 376.767 1406.89 377.313 1407.2 377.651 1407.51 377.988 1407.97 378.157 1408.58 378.157 1408.94 378.157 1409.3 378.088 1409.65 377.949 1410.01 377.81 1410.39 377.591 1410.8 377.293 1411.21 376.996 1411.66 376.613 1412.14 376.147 1412.63 375.68 1413.17 375.119 1413.77 374.464L1415.79 376.43C1414.76 377.482 1413.82 378.371 1412.98 379.095 1412.13 379.82 1411.33 380.411 1410.58 380.868 1409.82 381.324 1409.08 381.652 1408.36 381.851 1407.63 382.049 1406.86 382.148 1406.05 382.148 1405.3 382.148 1404.62 382.009 1404.01 381.731 1403.4 381.453 1402.88 381.071 1402.45 380.585 1402.01 380.098 1401.67 379.517 1401.43 378.842 1401.2 378.167 1401.08 377.422 1401.08 376.608 1401.08 375.953 1401.16 375.139 1401.31 374.166 1401.47 373.193 1401.68 372.136 1401.93 370.994 1402.17 369.852 1402.45 368.656 1402.74 367.405 1403.04 366.154 1403.34 364.913 1403.62 363.682 1403.91 362.451 1404.17 361.264 1404.4 360.122 1404.63 358.981 1404.79 357.943 1404.89 357.01 1404.93 356.851 1404.95 356.697 1404.95 356.548 1404.95 356.399 1404.95 356.265 1404.95 356.146 1404.91 355.372 1404.64 354.806 1404.13 354.448 1403.62 354.091 1402.72 353.892 1401.43 353.853L1401.79 351.827ZM1408.7 339.496 1414.66 339.496 1413.2 345.9 1407.3 345.9Z" fill-rule="evenodd"/><text fill="#000000" fill-opacity="0" font-family="Arial,Arial_MSFontService,sans-serif" font-size="42.6523" x="1401.08" y="376.817">𝑖</text><path d="M1445.42 325.376C1447.93 325.376 1450.22 325.525 1452.29 325.822 1454.36 326.119 1456.42 326.632 1458.47 327.362L1456.65 335.873 1453.36 335.873C1453.07 333.468 1452.28 331.644 1450.99 330.401 1449.71 329.159 1447.69 328.537 1444.94 328.537 1442.8 328.537 1441.07 329.084 1439.75 330.178 1438.42 331.273 1437.76 332.711 1437.76 334.495 1437.76 335.467 1437.93 336.325 1438.27 337.068 1438.61 337.811 1439.29 338.628 1440.31 339.52 1441.34 340.412 1442.94 341.506 1445.1 342.803 1446.8 343.829 1448.16 344.768 1449.19 345.619 1450.22 346.47 1451.03 347.315 1451.62 348.152 1452.22 348.99 1452.65 349.875 1452.92 350.807 1453.19 351.739 1453.32 352.867 1453.32 354.191 1453.32 356.596 1452.68 358.656 1451.4 360.371 1450.12 362.087 1448.37 363.364 1446.17 364.201 1443.97 365.039 1441.46 365.457 1438.65 365.457 1436.41 365.457 1434.21 365.289 1432.05 364.951 1429.89 364.613 1427.48 364.039 1424.83 363.228L1426.78 354.394 1429.94 354.394C1430.05 356.987 1430.78 358.946 1432.13 360.27 1433.48 361.594 1435.63 362.256 1438.57 362.256 1441.14 362.256 1443.15 361.682 1444.59 360.533 1446.04 359.385 1446.76 357.757 1446.76 355.65 1446.76 354.434 1446.56 353.387 1446.15 352.509 1445.75 351.631 1445.08 350.787 1444.17 349.976 1443.25 349.165 1441.79 348.152 1439.79 346.936 1437.68 345.667 1436.04 344.518 1434.86 343.492 1433.69 342.465 1432.8 341.35 1432.21 340.148 1431.62 338.946 1431.32 337.561 1431.32 335.994 1431.32 333.86 1431.89 331.989 1433.04 330.381 1434.19 328.773 1435.83 327.537 1437.96 326.673 1440.1 325.808 1442.58 325.376 1445.42 325.376Z" fill-rule="evenodd"/><text fill="#000000" fill-opacity="0" font-family="Arial,Arial_MSFontService,sans-serif" font-size="40.0815" x="1424.83" y="360.447">𝑠</text><path d="M1355.78 283.579 1462.78 283.579 1462.78 288.579 1355.78 288.579Z" fill-rule="evenodd"/><path d="M1465.52 251.023C1473.41 253.104 1479.47 257.595 1483.7 264.499 1487.93 271.402 1490.04 279.73 1490.04 289.484 1490.04 299.264 1487.93 307.593 1483.72 314.469 1479.5 321.345 1473.44 325.823 1465.52 327.904L1464.55 324.783C1470.79 322.703 1475.43 318.596 1478.47 312.463 1481.51 306.329 1483.03 298.535 1483.03 289.078 1483.03 279.946 1481.52 272.361 1478.49 266.322 1475.47 260.284 1470.78 256.224 1464.43 254.144Z" fill-rule="evenodd"/><text fill="#000000" fill-opacity="0" font-family="Arial,Arial_MSFontService,sans-serif" font-size="76.8804" x="1464.43" y="318.294">)</text><rect x="1841.5" y="139.5" width="282" height="284" stroke="#000000" stroke-width="6.875" stroke-miterlimit="8" fill="none"/><path d="M1937.03 249.769C1939.67 249.769 1941.96 249.985 1943.87 250.417L1942.29 257.307 1938.73 257.307C1938.35 255.767 1937.86 254.659 1937.25 253.984 1936.64 253.308 1935.74 252.97 1934.55 252.97 1933.01 252.97 1931.71 253.396 1930.64 254.247 1929.57 255.098 1928.66 256.361 1927.91 258.036 1927.15 259.712 1926.45 261.968 1925.8 264.804L1924.79 269.222 1935.2 269.222 1934.31 273.315 1923.85 273.315 1916.32 308.655C1915.07 314.518 1913.17 318.888 1910.6 321.766 1908.03 324.643 1904.81 326.082 1900.92 326.082 1899.78 326.082 1898.89 326.014 1898.24 325.879L1898.93 322.313C1899.2 322.394 1899.83 322.434 1900.83 322.434 1902.05 322.434 1903.09 322.124 1903.95 321.502 1904.82 320.881 1905.62 319.8 1906.37 318.26 1907.11 316.72 1907.79 314.586 1908.41 311.857L1917.13 273.315 1910.28 273.315 1910.89 270.519C1912.7 270.411 1914 270.262 1914.8 270.073 1915.59 269.884 1916.21 269.6 1916.66 269.222 1917.11 268.844 1917.48 268.351 1917.79 267.743 1918.11 267.135 1918.5 266.02 1918.99 264.399 1920.42 259.536 1922.63 255.882 1925.62 253.437 1928.6 250.991 1932.41 249.769 1937.03 249.769Z" fill-rule="evenodd"/><text fill="#000000" fill-opacity="0" font-family="Arial,Arial_MSFontService,sans-serif" font-size="76.313" x="1898.24" y="316.543">𝑓</text><path d="M1978.33 249.404 1979.42 252.525C1973.1 254.605 1968.42 258.665 1965.38 264.703 1962.34 270.742 1960.82 278.327 1960.82 287.459 1960.82 296.916 1962.34 304.71 1965.38 310.844 1968.42 316.977 1973.06 321.083 1979.3 323.164L1978.33 326.284C1970.41 324.204 1964.35 319.726 1960.13 312.85 1955.92 305.973 1953.81 297.645 1953.81 287.865 1953.81 278.111 1955.92 269.783 1960.15 262.879 1964.38 255.976 1970.44 251.484 1978.33 249.404Z" fill-rule="evenodd"/><text fill="#000000" fill-opacity="0" font-family="Arial,Arial_MSFontService,sans-serif" font-size="76.8804" x="1953.81" y="316.674">(</text><path d="M1993.98 268.533C1995.71 268.533 1997.07 269.114 1998.07 270.276 1999.07 271.437 1999.57 273.004 1999.57 274.977 1999.57 277.111 1999.15 279.773 1998.32 282.961L1996.53 289.972C1996.07 291.755 1995.74 293.147 1995.54 294.146 1995.34 295.146 1995.19 296.01 1995.09 296.74 1995 297.469 1994.95 298.077 1994.95 298.564 1994.95 300.428 1995.26 301.772 1995.89 302.596 1996.51 303.42 1997.52 303.832 1998.92 303.832 2000.06 303.832 2001.28 303.38 2002.59 302.475 2003.9 301.569 2005.29 300.205 2006.77 298.381 2008.24 296.558 2009.42 294.788 2010.31 293.072 2011.2 291.357 2011.93 289.242 2012.5 286.73L2016.35 269.181 2023.36 269.181 2017.45 294.876C2016.85 297.469 2016.55 299.469 2016.55 300.874 2016.55 301.954 2016.73 302.738 2017.08 303.224 2017.43 303.711 2017.99 303.954 2018.74 303.954 2019.55 303.954 2020.42 303.623 2021.34 302.961 2022.25 302.299 2023.55 301.036 2025.23 299.172L2027.54 301.441C2025.08 304.062 2022.98 305.913 2021.26 306.993 2019.53 308.074 2017.69 308.615 2015.74 308.615 2014.07 308.615 2012.73 308.061 2011.73 306.953 2010.73 305.845 2010.23 304.373 2010.23 302.535 2010.23 301.076 2010.56 299.482 2011.2 297.753L2010.72 297.591C2008.04 301.347 2005.51 304.116 2003.12 305.899 2000.73 307.682 1998.28 308.574 1995.76 308.574 1993.25 308.574 1991.32 307.851 1989.97 306.406 1988.62 304.96 1987.94 302.954 1987.94 300.387 1987.94 298.685 1988.33 296.267 1989.12 293.133L1991.75 282.515C1992.48 279.57 1992.85 277.49 1992.85 276.274 1992.85 275.193 1992.67 274.409 1992.32 273.923 1991.97 273.437 1991.41 273.194 1990.66 273.194 1989.82 273.194 1988.93 273.538 1988 274.227 1987.07 274.916 1985.79 276.166 1984.17 277.976L1981.86 275.706C1984.16 273.383 1985.89 271.789 1987.05 270.924 1988.21 270.06 1989.33 269.445 1990.39 269.08 1991.46 268.715 1992.66 268.533 1993.98 268.533Z" fill-rule="evenodd"/><text fill="#000000" fill-opacity="0" font-family="Arial,Arial_MSFontService,sans-serif" font-size="40.0815" x="1981.86" y="303.604">𝑢</text><path d="M2033.16 249.404C2041.05 251.484 2047.11 255.976 2051.34 262.879 2055.57 269.783 2057.68 278.111 2057.68 287.865 2057.68 297.645 2055.57 305.973 2051.36 312.85 2047.14 319.726 2041.08 324.204 2033.16 326.284L2032.19 323.164C2038.43 321.083 2043.07 316.977 2046.11 310.844 2049.15 304.71 2050.67 296.916 2050.67 287.459 2050.67 278.327 2049.16 270.742 2046.13 264.703 2043.1 258.665 2038.42 254.605 2032.07 252.525Z" fill-rule="evenodd"/><text fill="#000000" fill-opacity="0" font-family="Arial,Arial_MSFontService,sans-serif" font-size="76.8804" x="2032.07" y="316.674">)</text><path d="M1571.5 279.208 1818.26 279.209 1818.26 283.792 1571.5 283.792ZM1813.68 267.75 1841.18 281.5 1813.68 295.25Z"/><path d="M842.5 279.208 1019.88 279.209 1019.88 283.792 842.5 283.792ZM1015.3 267.75 1042.8 281.5 1015.3 295.25Z"/><rect x="2394.5" y="139.5" width="282" height="284" stroke="#000000" stroke-width="6.875" stroke-miterlimit="8" fill="none"/><path d="M2471.16 251.998C2473.73 251.998 2476.08 252.153 2478.22 252.464 2480.35 252.775 2482.69 253.335 2485.23 254.146L2482.75 265.048 2478.86 265.048C2478.62 261.67 2477.88 259.245 2476.63 257.773 2475.39 256.3 2473.37 255.564 2470.56 255.564 2468.29 255.564 2466.17 256.145 2464.19 257.307 2462.22 258.469 2460.35 260.205 2458.58 262.515 2456.81 264.825 2455.22 267.736 2453.8 271.248 2452.38 274.761 2451.28 278.422 2450.49 282.231 2449.71 286.041 2449.32 289.621 2449.32 292.971 2449.32 297.186 2450.04 300.259 2451.49 302.191 2452.93 304.123 2455.2 305.089 2458.28 305.089 2459.38 305.089 2460.52 304.96 2461.68 304.704 2462.84 304.447 2463.93 304.008 2464.94 303.386 2465.96 302.765 2466.85 301.927 2467.64 300.874 2468.42 299.82 2468.99 298.496 2469.34 296.902L2469.79 294.997C2470.38 292.458 2470.68 290.283 2470.68 288.472 2470.68 287.203 2470.36 286.318 2469.72 285.818 2469.09 285.318 2468.08 285.028 2466.71 284.947L2467.15 282.961 2483.36 282.961 2482.92 284.947C2481.89 285.163 2481.15 285.406 2480.69 285.676 2480.23 285.946 2479.82 286.358 2479.45 286.912 2479.09 287.466 2478.73 288.31 2478.38 289.445 2478.03 290.58 2477.57 292.444 2477 295.038L2474.2 307.763 2471 308.655 2468.89 305.453C2466.08 306.777 2463.87 307.635 2462.25 308.027 2460.63 308.419 2458.98 308.615 2457.3 308.615 2452.22 308.615 2448.36 307.156 2445.71 304.238 2443.06 301.32 2441.74 297.051 2441.74 291.431 2441.74 287.405 2442.42 282.886 2443.77 277.875 2445.12 272.863 2447.08 268.384 2449.66 264.44 2452.24 260.495 2455.36 257.435 2459.03 255.26 2462.69 253.085 2466.73 251.998 2471.16 251.998Z" fill-rule="evenodd"/><text fill="#000000" fill-opacity="0" font-family="Arial,Arial_MSFontService,sans-serif" font-size="56.6572" x="2441.74" y="301.573">𝐺</text><path d="M2503.66 289.127C2502.27 289.127 2501.11 289.49 2500.18 290.214 2499.24 290.939 2498.5 292.001 2497.96 293.401 2497.41 294.801 2497.02 296.509 2496.8 298.524 2496.57 300.54 2496.45 302.828 2496.45 305.39 2496.45 308.349 2496.6 310.905 2496.89 313.06 2497.17 315.214 2497.62 316.986 2498.23 318.376 2498.83 319.766 2499.59 320.789 2500.5 321.444 2501.42 322.099 2502.51 322.427 2503.78 322.427 2504.97 322.427 2506.01 322.119 2506.91 321.504 2507.8 320.888 2508.54 319.93 2509.13 318.629 2509.71 317.329 2510.15 315.681 2510.45 313.685 2510.75 311.689 2510.9 309.331 2510.9 306.611 2510.9 303.553 2510.74 300.922 2510.41 298.718 2510.08 296.514 2509.62 294.702 2509.02 293.282 2508.43 291.862 2507.68 290.815 2506.77 290.14 2505.87 289.465 2504.83 289.127 2503.66 289.127ZM2503.78 286.238C2506.14 286.238 2508.16 286.68 2509.84 287.563 2511.52 288.447 2512.89 289.708 2513.95 291.346 2515.01 292.984 2515.79 294.985 2516.29 297.348 2516.79 299.711 2517.03 302.382 2517.03 305.36 2517.03 311.972 2515.86 316.971 2513.52 320.357 2511.18 323.743 2507.78 325.435 2503.33 325.435 2498.93 325.435 2495.65 323.837 2493.5 320.64 2491.36 317.443 2490.29 312.598 2490.29 306.105 2490.29 302.709 2490.62 299.77 2491.29 297.288 2491.95 294.806 2492.88 292.746 2494.09 291.108 2495.29 289.47 2496.71 288.249 2498.36 287.444 2500.01 286.64 2501.81 286.238 2503.78 286.238Z" fill-rule="evenodd"/><text fill="#000000" fill-opacity="0" font-family="Arial,Arial_MSFontService,sans-serif" font-size="39.1973" x="2490.29" y="320.536">0</text><path d="M2556.18 249.404 2557.27 252.525C2550.95 254.605 2546.27 258.665 2543.23 264.703 2540.19 270.742 2538.67 278.327 2538.67 287.459 2538.67 296.916 2540.19 304.71 2543.23 310.844 2546.27 316.977 2550.91 321.083 2557.15 323.164L2556.18 326.284C2548.26 324.204 2542.19 319.726 2537.98 312.85 2533.76 305.973 2531.66 297.645 2531.66 287.865 2531.66 278.111 2533.77 269.783 2538 262.879 2542.23 255.976 2548.29 251.484 2556.18 249.404Z" fill-rule="evenodd"/><text fill="#000000" fill-opacity="0" font-family="Arial,Arial_MSFontService,sans-serif" font-size="76.8804" x="2531.66" y="316.674">(</text><path d="M2581.35 268.573C2583.86 268.573 2586.15 268.722 2588.22 269.019 2590.29 269.316 2592.35 269.83 2594.4 270.559L2592.58 279.07 2589.29 279.07C2589 276.665 2588.21 274.842 2586.92 273.599 2585.64 272.356 2583.62 271.735 2580.86 271.735 2578.73 271.735 2577 272.282 2575.68 273.376 2574.35 274.47 2573.69 275.909 2573.69 277.692 2573.69 278.665 2573.86 279.523 2574.2 280.266 2574.53 281.009 2575.22 281.826 2576.24 282.718 2577.27 283.609 2578.86 284.703 2581.03 286 2582.73 287.027 2584.09 287.966 2585.12 288.817 2586.15 289.668 2586.96 290.512 2587.55 291.35 2588.15 292.187 2588.58 293.072 2588.85 294.004 2589.12 294.937 2589.25 296.065 2589.25 297.388 2589.25 299.793 2588.61 301.853 2587.33 303.569 2586.04 305.285 2584.3 306.561 2582.1 307.399 2579.9 308.236 2577.39 308.655 2574.58 308.655 2572.34 308.655 2570.14 308.486 2567.98 308.148 2565.81 307.811 2563.41 307.237 2560.76 306.426L2562.71 297.591 2565.87 297.591C2565.98 300.185 2566.71 302.144 2568.06 303.468 2569.41 304.791 2571.56 305.453 2574.5 305.453 2577.07 305.453 2579.07 304.879 2580.52 303.731 2581.97 302.583 2582.69 300.955 2582.69 298.847 2582.69 297.632 2582.49 296.585 2582.08 295.707 2581.67 294.828 2581.01 293.984 2580.09 293.174 2579.18 292.363 2577.72 291.35 2575.72 290.134 2573.61 288.864 2571.97 287.716 2570.79 286.689 2569.62 285.663 2568.73 284.548 2568.14 283.346 2567.54 282.143 2567.25 280.759 2567.25 279.192 2567.25 277.057 2567.82 275.186 2568.97 273.579 2570.12 271.971 2571.76 270.735 2573.89 269.87 2576.03 269.006 2578.51 268.573 2581.35 268.573Z" fill-rule="evenodd"/><text fill="#000000" fill-opacity="0" font-family="Arial,Arial_MSFontService,sans-serif" font-size="40.0815" x="2560.76" y="303.645">𝑠</text><path d="M2601.45 249.404C2609.34 251.484 2615.4 255.976 2619.63 262.879 2623.86 269.783 2625.97 278.111 2625.97 287.865 2625.97 297.645 2623.86 305.973 2619.65 312.85 2615.43 319.726 2609.37 324.204 2601.45 326.284L2600.48 323.164C2606.72 321.083 2611.36 316.977 2614.4 310.844 2617.44 304.71 2618.96 296.916 2618.96 287.459 2618.96 278.327 2617.45 270.742 2614.42 264.703 2611.39 258.665 2606.71 254.605 2600.36 252.525Z" fill-rule="evenodd"/><text fill="#000000" fill-opacity="0" font-family="Arial,Arial_MSFontService,sans-serif" font-size="76.8804" x="2600.36" y="316.674">)</text><path d="M2123.5 279.208 2371.54 279.209 2371.54 283.792 2123.5 283.792ZM2366.96 267.75 2394.46 281.5 2366.96 295.25Z"/><path d="M2676.5 279.208 2886.28 279.209 2886.28 283.792 2676.5 283.792ZM2881.7 267.75 2909.2 281.5 2881.7 295.25Z"/><path d="M0 2.29167-1.34184 2.29167 0.949826 0 0.949826 338.279-1.34184 335.987 2031.42 335.987 2029.13 338.279 2029.13 104.53 2033.71 104.53 2033.71 340.57-3.63351 340.57-3.63351-2.29167 0-2.29167ZM2017.67 109.113 2031.42 81.6133 2045.17 109.113Z" transform="matrix(-1 1.22465e-16 1.22465e-16 1 2792.92 281.5)"/><path d="M517.334 210.824C519.063 210.824 520.428 211.405 521.427 212.567 522.427 213.729 522.927 215.296 522.927 217.268 522.927 219.402 522.508 222.064 521.671 225.252L519.887 232.263C519.428 234.046 519.097 235.438 518.894 236.437 518.692 237.437 518.543 238.302 518.449 239.031 518.354 239.761 518.307 240.369 518.307 240.855 518.307 242.719 518.618 244.063 519.239 244.887 519.86 245.711 520.874 246.123 522.279 246.123 523.413 246.123 524.636 245.671 525.946 244.766 527.257 243.861 528.648 242.496 530.121 240.672 531.593 238.849 532.775 237.079 533.667 235.363 534.558 233.648 535.288 231.534 535.855 229.021L539.705 211.473 546.716 211.473 540.799 237.167C540.205 239.761 539.908 241.76 539.908 243.165 539.908 244.246 540.084 245.029 540.435 245.516 540.786 246.002 541.34 246.245 542.096 246.245 542.907 246.245 543.772 245.914 544.69 245.252 545.609 244.59 546.906 243.327 548.581 241.463L550.891 243.732C548.432 246.353 546.338 248.204 544.609 249.285 542.88 250.365 541.043 250.906 539.097 250.906 537.422 250.906 536.085 250.352 535.085 249.244 534.086 248.136 533.586 246.664 533.586 244.827 533.586 243.368 533.91 241.773 534.558 240.044L534.072 239.882C531.397 243.638 528.864 246.407 526.473 248.19 524.082 249.974 521.63 250.865 519.117 250.865 516.605 250.865 514.673 250.142 513.322 248.697 511.971 247.251 511.296 245.245 511.296 242.679 511.296 240.976 511.687 238.558 512.471 235.424L515.105 224.806C515.835 221.861 516.199 219.781 516.199 218.565 516.199 217.484 516.024 216.701 515.673 216.214 515.321 215.728 514.767 215.485 514.011 215.485 513.173 215.485 512.289 215.829 511.356 216.518 510.424 217.207 509.148 218.457 507.527 220.267L505.217 217.997C507.513 215.674 509.242 214.08 510.404 213.215 511.566 212.351 512.68 211.736 513.748 211.371 514.815 211.006 516.01 210.824 517.334 210.824Z" fill-rule="evenodd"/><text fill="#000000" fill-opacity="0" font-family="Arial,Arial_MSFontService,sans-serif" font-size="40.0815" x="505.217" y="245.895">𝑢</text><path d="M573.837 236.69C575.286 236.69 576.632 236.77 577.873 236.929 579.114 237.087 580.4 237.336 581.73 237.673L580.062 244.971 576.547 244.971C576.528 243.938 576.453 243.079 576.324 242.394 576.195 241.709 575.986 241.168 575.699 240.771 575.411 240.374 575.033 240.091 574.567 239.922 574.1 239.753 573.529 239.659 572.854 239.639 571.782 239.639 570.754 239.877 569.771 240.354 568.788 240.83 567.875 241.491 567.031 242.335 566.187 243.179 565.418 244.166 564.723 245.298 564.028 246.43 563.432 247.651 562.936 248.962 562.439 250.272 562.057 251.637 561.789 253.057 561.521 254.477 561.387 255.892 561.387 257.302 561.387 259.406 561.804 261.01 562.638 262.112 563.472 263.214 564.723 263.765 566.391 263.765 567.324 263.765 568.188 263.681 568.982 263.512 569.776 263.343 570.551 263.06 571.305 262.663 572.06 262.266 572.839 261.745 573.643 261.099 574.448 260.454 575.336 259.655 576.309 258.702 576.686 259.099 577.049 259.491 577.396 259.878 577.744 260.265 578.106 260.657 578.483 261.055 576.339 263.279 574.194 264.932 572.05 266.014 569.905 267.096 567.602 267.637 565.14 267.637 562.062 267.637 559.704 266.739 558.066 264.942 556.428 263.145 555.608 260.578 555.608 257.242 555.608 255.376 555.817 253.574 556.234 251.836 556.651 250.099 557.252 248.465 558.036 246.936 558.82 245.407 559.759 244.017 560.851 242.766 561.943 241.516 563.164 240.438 564.514 239.535 565.865 238.631 567.324 237.931 568.893 237.435 570.461 236.939 572.109 236.69 573.837 236.69Z" fill-rule="evenodd"/><text fill="#000000" fill-opacity="0" font-family="Arial,Arial_MSFontService,sans-serif" font-size="30.9468" x="555.608" y="263.769">𝑐</text><path d="M790.14 423.478 840.07 423.478 840.07 428.868 790.14 428.868Z" fill-rule="evenodd"/><text fill="#000000" fill-opacity="0" font-family="Arial,Arial_MSFontService,sans-serif" font-size="5.39014" x="790.14" y="428.194">−</text><path d="M1676.89 210.824C1678.62 210.824 1679.98 211.405 1680.98 212.567 1681.98 213.729 1682.48 215.296 1682.48 217.268 1682.48 219.402 1682.06 222.064 1681.23 225.252L1679.44 232.263C1678.98 234.046 1678.65 235.438 1678.45 236.437 1678.25 237.437 1678.1 238.302 1678 239.031 1677.91 239.761 1677.86 240.369 1677.86 240.855 1677.86 242.719 1678.17 244.063 1678.79 244.887 1679.42 245.711 1680.43 246.123 1681.83 246.123 1682.97 246.123 1684.19 245.671 1685.5 244.766 1686.81 243.861 1688.2 242.496 1689.68 240.672 1691.15 238.849 1692.33 237.079 1693.22 235.363 1694.11 233.648 1694.84 231.534 1695.41 229.021L1699.26 211.473 1706.27 211.473 1700.35 237.167C1699.76 239.761 1699.46 241.76 1699.46 243.165 1699.46 244.246 1699.64 245.029 1699.99 245.516 1700.34 246.002 1700.89 246.245 1701.65 246.245 1702.46 246.245 1703.33 245.914 1704.24 245.252 1705.16 244.59 1706.46 243.327 1708.14 241.463L1710.45 243.732C1707.99 246.353 1705.89 248.204 1704.16 249.285 1702.43 250.365 1700.6 250.906 1698.65 250.906 1696.98 250.906 1695.64 250.352 1694.64 249.244 1693.64 248.136 1693.14 246.664 1693.14 244.827 1693.14 243.368 1693.46 241.773 1694.11 240.044L1693.63 239.882C1690.95 243.638 1688.42 246.407 1686.03 248.19 1683.64 249.974 1681.18 250.865 1678.67 250.865 1676.16 250.865 1674.23 250.142 1672.88 248.697 1671.53 247.251 1670.85 245.245 1670.85 242.679 1670.85 240.976 1671.24 238.558 1672.03 235.424L1674.66 224.806C1675.39 221.861 1675.75 219.781 1675.75 218.565 1675.75 217.484 1675.58 216.701 1675.23 216.214 1674.88 215.728 1674.32 215.485 1673.57 215.485 1672.73 215.485 1671.84 215.829 1670.91 216.518 1669.98 217.207 1668.7 218.457 1667.08 220.267L1664.77 217.997C1667.07 215.674 1668.8 214.08 1669.96 213.215 1671.12 212.351 1672.23 211.736 1673.3 211.371 1674.37 211.006 1675.56 210.824 1676.89 210.824Z" fill-rule="evenodd"/><text fill="#000000" fill-opacity="0" font-family="Arial,Arial_MSFontService,sans-serif" font-size="40.0815" x="1664.77" y="245.895">𝑢</text><path d="M2255.39 215.001C2257.34 215.001 2258.74 215.508 2259.61 216.521 2260.47 217.534 2260.9 218.892 2260.9 220.594 2260.9 221.891 2260.67 223.377 2260.21 225.052 2259.76 226.727 2259.11 228.497 2258.27 230.361 2257.43 232.225 2256.43 234.137 2255.27 236.096 2254.11 238.055 2252.83 239.959 2251.42 241.81 2250.02 243.661 2248.52 245.404 2246.92 247.038 2245.33 248.673 2243.67 250.098 2241.96 251.314 2240.24 252.53 2238.5 253.496 2236.73 254.212 2234.96 254.928 2233.2 255.286 2231.44 255.286 2230.66 255.286 2230 255.09 2229.47 254.698 2228.95 254.306 2228.52 253.752 2228.2 253.036 2227.87 252.32 2227.64 251.476 2227.51 250.503 2227.37 249.531 2227.31 248.463 2227.31 247.302 2227.31 245.762 2227.4 244.113 2227.59 242.357 2227.78 240.601 2228.02 238.831 2228.32 237.048L2230.02 225.822C2230.13 225.174 2230.22 224.559 2230.29 223.978 2230.35 223.397 2230.39 222.972 2230.39 222.702 2230.39 221.864 2230.25 221.175 2229.98 220.635 2229.71 220.094 2229.25 219.824 2228.6 219.824 2228.09 219.824 2227.54 219.979 2226.94 220.29 2226.35 220.601 2225.75 220.999 2225.14 221.486 2224.53 221.972 2223.94 222.492 2223.38 223.046 2222.81 223.6 2222.28 224.12 2221.79 224.606L2219.85 222.337C2220.69 221.472 2221.58 220.614 2222.52 219.763 2223.47 218.912 2224.47 218.142 2225.52 217.453 2226.58 216.764 2227.68 216.21 2228.85 215.792 2230.01 215.373 2231.2 215.163 2232.41 215.163 2233.44 215.163 2234.28 215.332 2234.93 215.67 2235.57 216.008 2236.08 216.454 2236.45 217.007 2236.81 217.561 2237.06 218.169 2237.2 218.831 2237.33 219.493 2237.4 220.148 2237.4 220.797 2237.4 221.175 2237.38 221.54 2237.36 221.891 2237.33 222.242 2237.29 222.566 2237.24 222.864L2234.97 237.535C2234.72 239.075 2234.52 240.581 2234.36 242.053 2234.2 243.526 2234.11 244.829 2234.11 245.964 2234.11 247.099 2234.18 248.018 2234.32 248.72 2234.45 249.423 2234.71 249.774 2235.09 249.774 2235.98 249.774 2237.1 249.416 2238.45 248.7 2239.8 247.984 2241.22 246.998 2242.71 245.741 2244.19 244.485 2245.68 242.999 2247.16 241.283 2248.65 239.568 2249.99 237.71 2251.18 235.711 2252.37 233.711 2253.33 231.604 2254.07 229.389 2254.82 227.173 2255.19 224.944 2255.19 222.702 2255.19 221.729 2254.98 220.979 2254.56 220.452 2254.14 219.925 2253.49 219.662 2252.6 219.662 2251.46 219.662 2250.41 220.101 2249.45 220.979 2248.5 221.857 2247.5 223.012 2246.48 224.444L2244.17 222.377C2244.81 221.405 2245.58 220.473 2246.46 219.581 2247.33 218.689 2248.27 217.906 2249.25 217.23 2250.24 216.555 2251.26 216.015 2252.31 215.609 2253.37 215.204 2254.39 215.001 2255.39 215.001Z" fill-rule="evenodd"/><text fill="#000000" fill-opacity="0" font-family="Arial,Arial_MSFontService,sans-serif" font-size="40.2842" x="2219.85" y="250.25">𝑣</text><path d="M2781.52 215.696C2782.63 215.696 2783.58 215.845 2784.36 216.142 2784.9 216.358 2785.44 216.716 2785.98 217.216 2786.52 217.716 2787 218.412 2787.42 219.303 2787.84 220.195 2788.2 221.194 2788.51 222.302 2788.83 223.41 2789.17 225.004 2789.55 227.084 2790.2 230.57 2790.82 234.238 2791.43 238.088 2792.04 241.938 2792.56 245.511 2792.99 248.807 2795.61 245.025 2797.84 241.323 2799.66 237.703 2801.48 234.082 2802.79 230.935 2803.59 228.26 2804.39 225.585 2804.79 223.41 2804.79 221.735 2804.79 220.465 2804.52 219.6 2803.98 219.141 2803.44 218.682 2802.52 218.412 2801.22 218.331L2801.63 216.345 2812.28 216.345 2813.38 218.371C2811.32 223.991 2808.54 230.002 2805.03 236.406 2801.57 242.674 2797.61 248.915 2793.16 255.129 2788.89 261.046 2785.33 265.329 2782.5 267.977 2780.52 269.787 2778.62 271.084 2776.78 271.867 2775.32 272.462 2773.77 272.759 2772.12 272.759 2771.55 272.759 2770.9 272.711 2770.16 272.617 2769.41 272.522 2768.84 272.394 2768.43 272.232L2770.18 264.37 2773.38 264.37C2773.38 266.099 2773.97 266.963 2775.16 266.963 2776.73 266.963 2778.55 265.984 2780.63 264.025 2782.71 262.066 2785.16 259.115 2787.97 255.17 2787.18 250.442 2786.12 244.741 2784.77 238.067 2783.33 230.935 2782.39 226.517 2781.93 224.815 2781.36 222.762 2780.77 221.451 2780.15 220.884 2779.77 220.533 2779.29 220.357 2778.73 220.357 2777.86 220.357 2777.05 220.708 2776.3 221.411 2775.54 222.113 2774.61 223.329 2773.5 225.058L2770.87 223.315C2772.73 220.533 2774.47 218.567 2776.09 217.419 2777.71 216.27 2779.52 215.696 2781.52 215.696Z" fill-rule="evenodd"/><text fill="#000000" fill-opacity="0" font-family="Arial,Arial_MSFontService,sans-serif" font-size="57.0625" x="2768.43" y="265.626">𝑦</text></g></svg>