<svg width="2014" height="1314" xmlns="http://www.w3.org/2000/svg" xmlns:xlink="http://www.w3.org/1999/xlink" xml:space="preserve" overflow="hidden"><g transform="translate(-403 -311)"><path d="M1146.5 1052.21 1531.99 1052.21 1531.99 1056.79 1146.5 1056.79ZM1527.41 1040.75 1554.91 1054.5 1527.41 1068.25Z"/><path d="M476.939 983.398C478.668 983.398 480.033 983.978 481.032 985.14 482.032 986.302 482.532 987.869 482.532 989.841 482.532 991.976 482.113 994.637 481.276 997.825L479.492 1004.84C479.033 1006.62 478.702 1008.01 478.499 1009.01 478.297 1010.01 478.148 1010.88 478.054 1011.6 477.959 1012.33 477.912 1012.94 477.912 1013.43 477.912 1015.29 478.223 1016.64 478.844 1017.46 479.465 1018.28 480.479 1018.7 481.883 1018.7 483.018 1018.7 484.241 1018.24 485.551 1017.34 486.862 1016.43 488.253 1015.07 489.726 1013.25 491.198 1011.42 492.38 1009.65 493.272 1007.94 494.163 1006.22 494.893 1004.11 495.46 1001.59L499.31 984.046 506.321 984.046 500.404 1009.74C499.81 1012.33 499.513 1014.33 499.513 1015.74 499.513 1016.82 499.688 1017.6 500.04 1018.09 500.391 1018.58 500.945 1018.82 501.701 1018.82 502.512 1018.82 503.376 1018.49 504.295 1017.83 505.214 1017.16 506.511 1015.9 508.186 1014.04L510.496 1016.31C508.037 1018.93 505.943 1020.78 504.214 1021.86 502.485 1022.94 500.648 1023.48 498.702 1023.48 497.027 1023.48 495.69 1022.93 494.69 1021.82 493.69 1020.71 493.191 1019.24 493.191 1017.4 493.191 1015.94 493.515 1014.35 494.163 1012.62L493.677 1012.46C491.002 1016.21 488.469 1018.98 486.078 1020.76 483.687 1022.55 481.235 1023.44 478.722 1023.44 476.21 1023.44 474.278 1022.72 472.927 1021.27 471.576 1019.82 470.901 1017.82 470.901 1015.25 470.901 1013.55 471.292 1011.13 472.076 1008L474.71 997.38C475.44 994.435 475.804 992.354 475.804 991.138 475.804 990.058 475.629 989.274 475.278 988.788 474.926 988.301 474.372 988.058 473.616 988.058 472.778 988.058 471.893 988.403 470.961 989.092 470.029 989.781 468.753 991.03 467.132 992.84L464.821 990.571C467.118 988.247 468.847 986.653 470.009 985.789 471.171 984.924 472.285 984.309 473.352 983.945 474.42 983.58 475.615 983.398 476.939 983.398Z" fill-rule="evenodd"/><text fill="#000000" fill-opacity="0" font-family="Arial,Arial_MSFontService,sans-serif" font-size="40.0815" x="464.821" y="1018.47">𝑢</text><path d="M2003.3 984.446C2004.41 984.446 2005.35 984.595 2006.14 984.892 2006.68 985.108 2007.22 985.466 2007.76 985.966 2008.3 986.466 2008.78 987.162 2009.2 988.053 2009.61 988.945 2009.98 989.945 2010.29 991.052 2010.6 992.16 2010.94 993.754 2011.32 995.835 2011.97 999.32 2012.6 1002.99 2013.21 1006.84 2013.82 1010.69 2014.34 1014.26 2014.77 1017.56 2017.39 1013.77 2019.61 1010.07 2021.43 1006.45 2023.26 1002.83 2024.57 999.685 2025.37 997.01 2026.16 994.335 2026.56 992.16 2026.56 990.485 2026.56 989.215 2026.29 988.351 2025.75 987.891 2025.21 987.432 2024.29 987.162 2023 987.081L2023.4 985.095 2034.06 985.095 2035.15 987.121C2033.1 992.741 2030.32 998.753 2026.8 1005.16 2023.35 1011.42 2019.39 1017.67 2014.93 1023.88 2010.66 1029.8 2007.11 1034.08 2004.27 1036.73 2002.3 1038.54 2000.39 1039.83 1998.56 1040.62 1997.1 1041.21 1995.54 1041.51 1993.9 1041.51 1993.33 1041.51 1992.67 1041.46 1991.93 1041.37 1991.19 1041.27 1990.61 1041.14 1990.21 1040.98L1991.95 1033.12 1995.15 1033.12C1995.15 1034.85 1995.75 1035.71 1996.94 1035.71 1998.5 1035.71 2000.33 1034.73 2002.41 1032.78 2004.49 1030.82 2006.93 1027.86 2009.74 1023.92 2008.96 1019.19 2007.89 1013.49 2006.54 1006.82 2005.11 999.685 2004.16 995.267 2003.7 993.565 2003.14 991.512 2002.54 990.201 2001.92 989.634 2001.54 989.283 2001.07 989.107 2000.5 989.107 1999.64 989.107 1998.83 989.458 1998.07 990.161 1997.31 990.863 1996.38 992.079 1995.27 993.808L1992.64 992.066C1994.5 989.283 1996.25 987.317 1997.87 986.169 1999.49 985.021 2001.3 984.446 2003.3 984.446Z" fill-rule="evenodd"/><text fill="#000000" fill-opacity="0" font-family="Arial,Arial_MSFontService,sans-serif" font-size="57.0625" x="1990.21" y="1034.38">𝑦</text><path d="M2053.9 1014.26C2052.69 1014.26 2051.57 1014.63 2050.55 1015.35 2049.53 1016.08 2048.43 1017.11 2047.26 1018.46 2046.72 1019.1 2046.23 1019.72 2045.77 1020.34 2045.31 1020.96 2044.9 1021.63 2044.53 1022.35 2044.17 1023.07 2043.84 1023.88 2043.55 1024.76 2043.26 1025.65 2043.01 1026.66 2042.79 1027.82 2042.51 1029.19 2042.29 1030.34 2042.14 1031.27 2041.98 1032.2 2041.9 1033.09 2041.9 1033.92 2041.9 1035.53 2042.27 1036.67 2043.01 1037.33 2043.76 1038 2044.95 1038.33 2046.6 1038.33 2047.75 1038.33 2048.83 1038.08 2049.83 1037.57 2050.84 1037.06 2051.75 1036.37 2052.56 1035.5 2053.37 1034.63 2054.1 1033.61 2054.73 1032.45 2055.37 1031.29 2055.9 1030.04 2056.33 1028.72 2056.75 1027.4 2057.08 1026.05 2057.31 1024.66 2057.54 1023.27 2057.65 1021.92 2057.65 1020.61 2057.65 1018.48 2057.36 1016.89 2056.77 1015.84 2056.19 1014.79 2055.23 1014.26 2053.9 1014.26ZM2040.08 1010.27C2041.53 1010.27 2042.66 1010.75 2043.46 1011.72 2044.26 1012.68 2044.67 1013.95 2044.67 1015.51 2044.67 1015.97 2044.63 1016.41 2044.56 1016.82 2044.49 1017.24 2044.37 1017.66 2044.19 1018.08L2044.61 1018.28C2046.55 1015.56 2048.46 1013.55 2050.34 1012.24 2052.22 1010.93 2054.19 1010.27 2056.25 1010.27 2058.62 1010.27 2060.43 1011.13 2061.69 1012.83 2062.95 1014.54 2063.58 1017.03 2063.58 1020.31 2063.58 1023.17 2063.14 1025.86 2062.26 1028.4 2061.37 1030.93 2060.18 1033.15 2058.67 1035.05 2057.16 1036.96 2055.4 1038.46 2053.41 1039.57 2051.41 1040.67 2049.3 1041.22 2047.08 1041.22 2045.53 1041.22 2044.19 1041.06 2043.04 1040.76 2041.9 1040.45 2040.95 1040.08 2040.2 1039.64 2040.02 1040.41 2039.83 1041.22 2039.62 1042.05 2039.41 1042.89 2039.21 1043.69 2039.02 1044.47 2038.83 1045.24 2038.68 1045.95 2038.56 1046.61 2038.44 1047.27 2038.38 1047.79 2038.38 1048.19 2038.38 1048.55 2038.44 1048.84 2038.55 1049.08 2038.66 1049.32 2038.85 1049.52 2039.14 1049.68 2039.43 1049.84 2039.81 1049.96 2040.29 1050.05 2040.77 1050.14 2041.36 1050.21 2042.08 1050.27L2041.99 1052.24 2031.5 1052.24 2038.77 1021.2C2039.01 1020.11 2039.18 1019.2 2039.28 1018.46 2039.38 1017.73 2039.42 1017.07 2039.42 1016.5 2039.42 1015.05 2038.84 1014.32 2037.67 1014.32 2037.31 1014.32 2036.95 1014.4 2036.6 1014.55 2036.24 1014.7 2035.86 1014.92 2035.45 1015.22 2035.04 1015.51 2034.59 1015.89 2034.11 1016.35 2033.62 1016.8 2033.08 1017.34 2032.48 1017.96L2030.43 1016.02C2031.42 1015.03 2032.33 1014.17 2033.16 1013.44 2033.98 1012.72 2034.77 1012.12 2035.54 1011.66 2036.3 1011.19 2037.05 1010.84 2037.77 1010.61 2038.5 1010.39 2039.27 1010.27 2040.08 1010.27Z" fill-rule="evenodd"/><text fill="#000000" fill-opacity="0" font-family="Arial,Arial_MSFontService,sans-serif" font-size="41.9673" x="2030.43" y="1046.99">𝑝</text><path d="M2348.02 666.209C2345.29 666.209 2342.67 667.587 2340.14 670.343 2337.61 673.098 2335.67 676.827 2334.32 681.528 2338.13 681.501 2341.4 681.157 2344.13 680.495 2346.86 679.833 2348.95 678.779 2350.41 677.333 2351.87 675.888 2352.6 673.936 2352.6 671.477 2352.6 669.829 2352.22 668.539 2351.45 667.607 2350.68 666.675 2349.53 666.209 2348.02 666.209ZM2349.48 663.007C2352.75 663.007 2355.2 663.669 2356.84 664.993 2358.47 666.317 2359.29 668.384 2359.29 671.194 2359.29 675.787 2357.13 679.232 2352.82 681.528 2348.51 683.825 2342.12 684.973 2333.63 684.973 2333.31 686.594 2333.15 688.35 2333.15 690.241 2333.15 693.078 2333.7 695.138 2334.81 696.422 2335.92 697.705 2337.73 698.347 2340.24 698.347 2342.73 698.347 2344.98 697.807 2346.99 696.726 2349 695.645 2351.13 693.983 2353.37 691.741L2355.88 694.375C2353.26 697.266 2350.61 699.441 2347.92 700.9 2345.23 702.359 2342.1 703.089 2338.54 703.089 2334.62 703.089 2331.59 701.893 2329.44 699.502 2327.29 697.111 2326.22 693.781 2326.22 689.512 2326.22 686.621 2326.74 683.521 2327.78 680.211 2328.82 676.901 2330.39 673.929 2332.5 671.295 2334.61 668.661 2337.13 666.621 2340.08 665.175 2343.02 663.73 2346.16 663.007 2349.48 663.007Z" fill-rule="evenodd"/><text fill="#000000" fill-opacity="0" font-family="Arial,Arial_MSFontService,sans-serif" font-size="40.0815" x="2326.22" y="698.078">𝑒</text><path d="M2089.5 745C2089.5 699.989 2126.21 663.5 2171.5 663.5 2216.79 663.5 2253.5 699.989 2253.5 745 2253.5 790.011 2216.79 826.5 2171.5 826.5 2126.21 826.5 2089.5 790.011 2089.5 745Z" stroke="#000000" stroke-width="6.875" stroke-miterlimit="8" fill="none" fill-rule="evenodd"/><path d="M2113.5 687.5 2228.92 802.918" stroke="#000000" stroke-width="6.875" stroke-miterlimit="8" fill="none" fill-rule="evenodd"/><path d="M0 0 115.418 115.418" stroke="#000000" stroke-width="6.875" stroke-miterlimit="8" fill="none" fill-rule="evenodd" transform="matrix(1 0 0 -1 2113.5 802.918)"/><rect x="1342.5" y="1338.5" width="456" height="283" stroke="#000000" stroke-width="6.875" stroke-miterlimit="8" fill="none"/><text font-family="Times New Roman,Times New Roman_MSFontService,sans-serif" font-weight="400" font-size="83" transform="matrix(1 0 0 1 1386.84 1509)">Adaptation</text><path d="M1342.86 1482.66 995.208 1482.66 995.208 1219.42 999.792 1219.42 999.792 1480.37 997.5 1478.08 1342.86 1478.08ZM983.75 1224 997.5 1196.5 1011.25 1224Z"/><rect x="848.5" y="912.5" width="298" height="284" stroke="#000000" stroke-width="6.875" stroke-miterlimit="8" fill="none"/><path d="M932.912 1045.89C931.615 1045.89 930.339 1046.3 929.082 1047.12 927.826 1047.95 926.428 1049.31 924.888 1051.22 923.348 1053.12 922.091 1055.07 921.119 1057.07 920.146 1059.07 919.322 1061.63 918.647 1064.73L918.282 1066.44C917.877 1068.33 917.674 1070.16 917.674 1071.95 917.674 1074.08 918.14 1075.62 919.072 1076.57 920.004 1077.51 921.551 1077.99 923.712 1077.99 924.82 1077.99 925.874 1077.8 926.874 1077.44 927.873 1077.07 928.893 1076.47 929.933 1075.64 930.974 1074.8 931.96 1073.7 932.892 1072.33 933.824 1070.97 934.682 1069.29 935.465 1067.29 936.249 1065.29 936.857 1063.15 937.289 1060.86 937.721 1058.58 937.938 1056.4 937.938 1054.32 937.938 1051.51 937.539 1049.4 936.742 1048 935.945 1046.59 934.668 1045.89 932.912 1045.89ZM925.82 1022.59 928.17 1022.59 921.038 1050.95 921.565 1051.12C924.185 1047.6 926.644 1045.06 928.94 1043.5 931.237 1041.93 933.534 1041.15 935.83 1041.15 938.775 1041.15 941.065 1042.27 942.7 1044.51 944.334 1046.75 945.151 1049.91 945.151 1053.99 945.151 1058.45 944.253 1062.84 942.456 1067.14 940.66 1071.45 938.167 1074.87 934.979 1077.4 931.791 1079.92 928.224 1081.19 924.28 1081.19 920.686 1081.19 917.498 1080.31 914.715 1078.55L910.987 1081.19 908.393 1080.54 918.89 1034.22C919.511 1031.46 919.822 1029.46 919.822 1028.22 919.822 1027.08 919.477 1026.29 918.788 1025.83 918.099 1025.37 916.863 1025.11 915.08 1025.06L915.566 1022.95Z" fill-rule="evenodd"/><text fill="#000000" fill-opacity="0" font-family="Arial,Arial_MSFontService,sans-serif" font-size="58.6025" x="908.393" y="1073.86">𝑏</text><path d="M964.402 1061.7C963.012 1061.7 961.851 1062.06 960.917 1062.79 959.984 1063.51 959.244 1064.57 958.698 1065.97 958.152 1067.37 957.765 1069.08 957.537 1071.1 957.308 1073.11 957.194 1075.4 957.194 1077.96 957.194 1080.92 957.338 1083.48 957.626 1085.63 957.914 1087.79 958.361 1089.56 958.966 1090.95 959.572 1092.34 960.332 1093.36 961.245 1094.02 962.158 1094.67 963.251 1095 964.521 1095 965.713 1095 966.755 1094.69 967.649 1094.08 968.542 1093.46 969.282 1092.5 969.868 1091.2 970.454 1089.9 970.895 1088.25 971.193 1086.26 971.491 1084.26 971.64 1081.9 971.64 1079.18 971.64 1076.13 971.476 1073.5 971.149 1071.29 970.821 1069.09 970.359 1067.28 969.764 1065.86 969.168 1064.44 968.418 1063.39 967.515 1062.71 966.611 1062.04 965.574 1061.7 964.402 1061.7ZM964.521 1058.81C966.884 1058.81 968.905 1059.25 970.583 1060.14 972.261 1061.02 973.631 1062.28 974.693 1063.92 975.755 1065.56 976.535 1067.56 977.031 1069.92 977.528 1072.28 977.776 1074.95 977.776 1077.93 977.776 1084.55 976.604 1089.54 974.261 1092.93 971.918 1096.32 968.523 1098.01 964.075 1098.01 959.666 1098.01 956.39 1096.41 954.245 1093.21 952.101 1090.02 951.029 1085.17 951.029 1078.68 951.029 1075.28 951.361 1072.34 952.026 1069.86 952.692 1067.38 953.625 1065.32 954.826 1063.68 956.028 1062.04 957.452 1060.82 959.1 1060.02 960.749 1059.21 962.556 1058.81 964.521 1058.81Z" fill-rule="evenodd"/><text fill="#000000" fill-opacity="0" font-family="Arial,Arial_MSFontService,sans-serif" font-size="39.1973" x="951.029" y="1093.11">0</text><path d="M1016.92 1021.98 1018.01 1025.1C1011.69 1027.18 1007.01 1031.24 1003.97 1037.28 1000.93 1043.31 999.408 1050.9 999.408 1060.03 999.408 1069.49 1000.93 1077.28 1003.97 1083.42 1007.01 1089.55 1011.65 1093.66 1017.89 1095.74L1016.92 1098.86C1009 1096.78 1002.93 1092.3 998.719 1085.42 994.504 1078.55 992.397 1070.22 992.397 1060.44 992.397 1050.68 994.511 1042.36 998.74 1035.45 1002.97 1028.55 1009.03 1024.06 1016.92 1021.98Z" fill-rule="evenodd"/><text fill="#000000" fill-opacity="0" font-family="Arial,Arial_MSFontService,sans-serif" font-size="76.8804" x="992.397" y="1089.25">(</text><path d="M1035.32 1031.78 1040.92 1031.78 1038.69 1041.8 1051.01 1041.8 1050.12 1045.89 1037.8 1045.89 1034.19 1061.61C1033.49 1064.67 1033.04 1066.86 1032.85 1068.2 1032.66 1069.54 1032.57 1070.61 1032.57 1071.42 1032.57 1074.77 1033.96 1076.45 1036.74 1076.45 1037.93 1076.45 1039.19 1075.99 1040.53 1075.09 1041.87 1074.18 1043.46 1072.64 1045.29 1070.45L1047.64 1072.88C1045.29 1075.72 1043.03 1077.81 1040.86 1079.16 1038.68 1080.51 1036.4 1081.19 1034.03 1081.19 1028.38 1081.19 1025.56 1078.34 1025.56 1072.64 1025.56 1070.83 1025.79 1068.92 1026.25 1066.92L1031.03 1045.89 1024.22 1045.89 1024.83 1043.09C1026.42 1043.06 1027.63 1042.94 1028.45 1042.73 1029.28 1042.51 1029.97 1042.21 1030.52 1041.84 1031.07 1041.46 1031.58 1040.92 1032.04 1040.21 1032.5 1039.51 1032.95 1038.61 1033.38 1037.52 1033.81 1036.43 1034.46 1034.51 1035.32 1031.78Z" fill-rule="evenodd"/><text fill="#000000" fill-opacity="0" font-family="Arial,Arial_MSFontService,sans-serif" font-size="49.4028" x="1024.22" y="1075.01">𝑡</text><path d="M1056.78 1021.98C1064.67 1024.06 1070.73 1028.55 1074.96 1035.45 1079.19 1042.36 1081.3 1050.68 1081.3 1060.44 1081.3 1070.22 1079.2 1078.55 1074.98 1085.42 1070.77 1092.3 1064.7 1096.78 1056.78 1098.86L1055.81 1095.74C1062.05 1093.66 1066.69 1089.55 1069.73 1083.42 1072.77 1077.28 1074.29 1069.49 1074.29 1060.03 1074.29 1050.9 1072.78 1043.31 1069.75 1037.28 1066.73 1031.24 1062.04 1027.18 1055.69 1025.1Z" fill-rule="evenodd"/><text fill="#000000" fill-opacity="0" font-family="Arial,Arial_MSFontService,sans-serif" font-size="76.8804" x="1055.69" y="1089.25">)</text><path d="M416.5 1052.21 824.972 1052.21 824.972 1056.79 416.5 1056.79ZM820.388 1040.75 847.888 1054.5 820.388 1068.25Z"/><rect x="1184.5" y="314.5" width="333" height="284" stroke="#000000" stroke-width="6.875" stroke-miterlimit="8" fill="none"/><path d="M1245.08 448.578C1243.79 448.578 1242.51 448.99 1241.25 449.814 1240 450.638 1238.6 452.002 1237.06 453.907 1235.52 455.812 1234.26 457.764 1233.29 459.763 1232.32 461.763 1231.49 464.316 1230.82 467.423L1230.45 469.125C1230.05 471.017 1229.85 472.854 1229.85 474.637 1229.85 476.771 1230.31 478.311 1231.24 479.257 1232.18 480.203 1233.72 480.676 1235.88 480.676 1236.99 480.676 1238.05 480.493 1239.05 480.128 1240.04 479.764 1241.06 479.163 1242.11 478.325 1243.15 477.487 1244.13 476.386 1245.06 475.022 1246 473.658 1246.85 471.976 1247.64 469.976 1248.42 467.977 1249.03 465.836 1249.46 463.553 1249.89 461.27 1250.11 459.088 1250.11 457.008 1250.11 454.198 1249.71 452.09 1248.91 450.685 1248.12 449.28 1246.84 448.578 1245.08 448.578ZM1237.99 425.275 1240.34 425.275 1233.21 453.644 1233.74 453.806C1236.36 450.294 1238.82 447.754 1241.11 446.187 1243.41 444.62 1245.71 443.836 1248 443.836 1250.95 443.836 1253.24 444.957 1254.87 447.2 1256.51 449.442 1257.32 452.604 1257.32 456.683 1257.32 461.141 1256.42 465.525 1254.63 469.834 1252.83 474.144 1250.34 477.562 1247.15 480.088 1243.96 482.614 1240.4 483.877 1236.45 483.877 1232.86 483.877 1229.67 482.999 1226.89 481.243L1223.16 483.877 1220.56 483.229 1231.06 436.906C1231.68 434.15 1231.99 432.151 1231.99 430.908 1231.99 429.773 1231.65 428.976 1230.96 428.517 1230.27 428.058 1229.04 427.801 1227.25 427.747L1227.74 425.639Z" fill-rule="evenodd"/><text fill="#000000" fill-opacity="0" font-family="Arial,Arial_MSFontService,sans-serif" font-size="58.6025" x="1220.56" y="476.552">𝑏</text><path d="M1269.75 469.662C1271.22 469.662 1272.36 470.143 1273.16 471.106 1273.97 472.069 1274.37 473.335 1274.37 474.904 1274.37 475.341 1274.34 475.768 1274.28 476.185 1274.22 476.602 1274.11 477.009 1273.95 477.406L1274.31 477.555C1276.2 474.914 1278.08 472.938 1279.97 471.628 1281.86 470.317 1283.79 469.662 1285.78 469.662 1287.88 469.662 1289.46 470.203 1290.5 471.285 1291.54 472.367 1292.06 473.961 1292.06 476.066 1292.06 476.244 1292.06 476.418 1292.06 476.587 1292.06 476.756 1292.04 476.929 1292 477.108L1292.12 477.108C1293.97 474.586 1295.81 472.715 1297.63 471.494 1299.46 470.272 1301.36 469.662 1303.35 469.662 1305.46 469.662 1307.03 470.228 1308.07 471.36 1309.11 472.491 1309.64 474.08 1309.64 476.125 1309.64 476.741 1309.54 477.57 1309.34 478.612 1309.14 479.655 1308.9 480.802 1308.61 482.052 1308.32 483.303 1308.01 484.599 1307.67 485.939 1307.33 487.28 1307.01 488.546 1306.72 489.737 1306.54 490.511 1306.39 491.142 1306.28 491.628 1306.18 492.115 1306.09 492.522 1306.03 492.85 1305.97 493.177 1305.93 493.46 1305.91 493.698 1305.89 493.937 1305.88 494.195 1305.88 494.473 1305.88 495.227 1306.02 495.774 1306.3 496.111 1306.58 496.449 1307.02 496.617 1307.64 496.617 1308 496.617 1308.35 496.548 1308.71 496.409 1309.07 496.27 1309.45 496.052 1309.86 495.754 1310.27 495.456 1310.71 495.074 1311.2 494.607 1311.69 494.14 1312.23 493.579 1312.82 492.924L1314.88 494.89C1313.92 495.883 1313.04 496.737 1312.21 497.451 1311.39 498.166 1310.59 498.757 1309.83 499.224 1309.06 499.69 1308.3 500.038 1307.55 500.266 1306.8 500.494 1306 500.609 1305.17 500.609 1304.41 500.609 1303.73 500.47 1303.11 500.192 1302.5 499.914 1301.98 499.531 1301.55 499.045 1301.12 498.558 1300.79 497.983 1300.55 497.317 1300.31 496.652 1300.19 495.922 1300.19 495.128 1300.19 493.5 1300.54 491.405 1301.24 488.844 1301.61 487.553 1301.96 486.317 1302.26 485.135 1302.57 483.954 1302.83 482.862 1303.05 481.859 1303.27 480.856 1303.45 479.963 1303.57 479.178 1303.7 478.394 1303.77 477.744 1303.77 477.227 1303.77 475.996 1303.53 475.093 1303.07 474.517 1302.6 473.941 1301.87 473.653 1300.88 473.653 1300.26 473.653 1299.61 473.812 1298.91 474.13 1298.22 474.447 1297.52 474.889 1296.81 475.455 1296.11 476.021 1295.42 476.691 1294.74 477.466 1294.07 478.24 1293.44 479.079 1292.87 479.982 1292.29 480.886 1291.78 481.834 1291.33 482.827 1290.89 483.82 1290.54 484.823 1290.3 485.835L1287.36 500.073 1281.55 500.073C1281.83 498.802 1282.14 497.437 1282.49 495.977 1282.83 494.518 1283.19 493.043 1283.54 491.554 1283.9 490.065 1284.24 488.595 1284.57 487.146 1284.9 485.696 1285.19 484.341 1285.45 483.08 1285.71 481.819 1285.92 480.687 1286.08 479.685 1286.23 478.682 1286.31 477.883 1286.31 477.287 1286.31 476.036 1286.07 475.118 1285.58 474.532 1285.1 473.946 1284.32 473.653 1283.25 473.653 1282.29 473.653 1281.27 474.01 1280.18 474.725 1279.09 475.44 1278.05 476.378 1277.07 477.54 1276.08 478.702 1275.2 480.012 1274.43 481.472 1273.65 482.931 1273.11 484.406 1272.79 485.895L1269.75 500.073 1263.92 500.073 1268.38 480.653C1268.64 479.58 1268.83 478.647 1268.95 477.853 1269.07 477.059 1269.13 476.403 1269.13 475.887 1269.13 474.437 1268.54 473.713 1267.37 473.713 1267.01 473.713 1266.65 473.787 1266.28 473.936 1265.92 474.085 1265.53 474.308 1265.12 474.606 1264.71 474.904 1264.27 475.281 1263.8 475.738 1263.32 476.195 1262.78 476.731 1262.19 477.346L1260.13 475.41C1261.11 474.418 1262 473.559 1262.83 472.834 1263.65 472.109 1264.45 471.514 1265.21 471.047 1265.98 470.58 1266.72 470.233 1267.46 470.004 1268.19 469.776 1268.96 469.662 1269.75 469.662Z" fill-rule="evenodd"/><text fill="#000000" fill-opacity="0" font-family="Arial,Arial_MSFontService,sans-serif" font-size="30.9468" x="1260.13" y="496.74">𝑚</text><path d="M1354.4 427.26C1356.96 427.26 1359.31 427.416 1361.45 427.727 1363.58 428.037 1365.92 428.598 1368.46 429.408L1365.99 440.31 1362.1 440.31C1361.85 436.933 1361.11 434.508 1359.87 433.036 1358.63 431.563 1356.6 430.827 1353.79 430.827 1351.52 430.827 1349.4 431.408 1347.43 432.57 1345.45 433.731 1343.58 435.467 1341.81 437.777 1340.04 440.087 1338.45 442.999 1337.03 446.511 1335.61 450.023 1334.51 453.684 1333.73 457.494 1332.94 461.303 1332.55 464.883 1332.55 468.234 1332.55 472.448 1333.28 475.522 1334.72 477.454 1336.17 479.385 1338.43 480.351 1341.51 480.351 1342.62 480.351 1343.75 480.223 1344.91 479.966 1346.08 479.71 1347.16 479.271 1348.18 478.649 1349.19 478.028 1350.09 477.19 1350.87 476.136 1351.65 475.083 1352.22 473.759 1352.57 472.165L1353.02 470.26C1353.61 467.72 1353.91 465.545 1353.91 463.735 1353.91 462.465 1353.59 461.58 1352.96 461.081 1352.32 460.581 1351.32 460.29 1349.94 460.209L1350.38 458.223 1366.6 458.223 1366.15 460.209C1365.12 460.425 1364.38 460.669 1363.92 460.939 1363.46 461.209 1363.05 461.621 1362.68 462.175 1362.32 462.729 1361.96 463.573 1361.61 464.708 1361.26 465.843 1360.8 467.707 1360.23 470.301L1357.44 483.026 1354.23 483.918 1352.13 480.716C1349.32 482.04 1347.1 482.898 1345.48 483.29 1343.86 483.681 1342.21 483.877 1340.54 483.877 1335.46 483.877 1331.59 482.418 1328.95 479.5 1326.3 476.582 1324.97 472.313 1324.97 466.694 1324.97 462.668 1325.65 458.149 1327 453.137 1328.35 448.125 1330.32 443.647 1332.9 439.702 1335.48 435.758 1338.6 432.698 1342.26 430.523 1345.92 428.348 1349.97 427.26 1354.4 427.26Z" fill-rule="evenodd"/><text fill="#000000" fill-opacity="0" font-family="Arial,Arial_MSFontService,sans-serif" font-size="56.6572" x="1324.97" y="476.836">𝐺</text><path d="M1407.07 424.667 1408.17 427.787C1401.85 429.868 1397.16 433.927 1394.12 439.966 1391.09 446.004 1389.57 453.59 1389.57 462.722 1389.57 472.178 1391.09 479.973 1394.12 486.106 1397.16 492.239 1401.8 496.346 1408.05 498.427L1407.07 501.547C1399.16 499.467 1393.09 494.988 1388.88 488.112 1384.66 481.236 1382.55 472.908 1382.55 463.127 1382.55 453.374 1384.67 445.045 1388.9 438.142 1393.13 431.239 1399.18 426.747 1407.07 424.667Z" fill-rule="evenodd"/><text fill="#000000" fill-opacity="0" font-family="Arial,Arial_MSFontService,sans-serif" font-size="76.8804" x="1382.55" y="491.937">(</text><path d="M1432.25 443.836C1434.76 443.836 1437.05 443.985 1439.12 444.282 1441.18 444.579 1443.24 445.093 1445.3 445.822L1443.47 454.333 1440.19 454.333C1439.89 451.928 1439.1 450.104 1437.82 448.862 1436.54 447.619 1434.52 446.997 1431.76 446.997 1429.63 446.997 1427.9 447.544 1426.57 448.639 1425.25 449.733 1424.59 451.172 1424.59 452.955 1424.59 453.927 1424.76 454.785 1425.1 455.528 1425.43 456.271 1426.12 457.089 1427.14 457.98 1428.17 458.872 1429.76 459.966 1431.92 461.263 1433.63 462.29 1434.99 463.229 1436.02 464.08 1437.04 464.931 1437.85 465.775 1438.45 466.613 1439.04 467.45 1439.48 468.335 1439.75 469.267 1440.02 470.199 1440.15 471.327 1440.15 472.651 1440.15 475.056 1439.51 477.116 1438.23 478.832 1436.94 480.547 1435.2 481.824 1433 482.661 1430.8 483.499 1428.29 483.918 1425.48 483.918 1423.24 483.918 1421.04 483.749 1418.87 483.411 1416.71 483.073 1414.31 482.499 1411.66 481.689L1413.61 472.854 1416.77 472.854C1416.88 475.448 1417.6 477.406 1418.96 478.73 1420.31 480.054 1422.45 480.716 1425.4 480.716 1427.97 480.716 1429.97 480.142 1431.42 478.994 1432.86 477.845 1433.59 476.218 1433.59 474.11 1433.59 472.894 1433.38 471.847 1432.98 470.969 1432.57 470.091 1431.91 469.247 1430.99 468.436 1430.07 467.626 1428.61 466.613 1426.62 465.397 1424.51 464.127 1422.87 462.979 1421.69 461.952 1420.52 460.925 1419.63 459.811 1419.04 458.608 1418.44 457.406 1418.15 456.021 1418.15 454.454 1418.15 452.32 1418.72 450.449 1419.87 448.841 1421.02 447.234 1422.66 445.998 1424.79 445.133 1426.93 444.268 1429.41 443.836 1432.25 443.836Z" fill-rule="evenodd"/><text fill="#000000" fill-opacity="0" font-family="Arial,Arial_MSFontService,sans-serif" font-size="40.0815" x="1411.66" y="478.908">𝑠</text><path d="M1452.35 424.667C1460.24 426.747 1466.3 431.239 1470.53 438.142 1474.75 445.045 1476.87 453.374 1476.87 463.127 1476.87 472.908 1474.76 481.236 1470.55 488.112 1466.33 494.988 1460.27 499.467 1452.35 501.547L1451.38 498.427C1457.62 496.346 1462.26 492.239 1465.3 486.106 1468.34 479.973 1469.86 472.178 1469.86 462.722 1469.86 453.59 1468.34 446.004 1465.32 439.966 1462.29 433.927 1457.6 429.868 1451.26 427.787Z" fill-rule="evenodd"/><text fill="#000000" fill-opacity="0" font-family="Arial,Arial_MSFontService,sans-serif" font-size="76.8804" x="1451.26" y="491.937">)</text><path d="M0-2.29167 159.968-2.29167 159.968 597.31 157.676 595.019 689.068 595.019 689.068 599.602 155.385 599.602 155.385 0 157.676 2.29167 0 2.29167ZM684.485 583.56 711.985 597.31 684.485 611.06Z" transform="matrix(1 0 0 -1 472.5 1053.81)"/><rect x="1555.5" y="912.5" width="333" height="284" stroke="#000000" stroke-width="6.875" stroke-miterlimit="8" fill="none"/><path d="M1624.99 1046.9C1623.69 1046.9 1622.42 1047.31 1621.16 1048.13 1619.9 1048.96 1618.51 1050.32 1616.97 1052.23 1615.43 1054.13 1614.17 1056.08 1613.2 1058.08 1612.22 1060.08 1611.4 1062.63 1610.72 1065.74L1610.36 1067.44C1609.95 1069.33 1609.75 1071.17 1609.75 1072.96 1609.75 1075.09 1610.22 1076.63 1611.15 1077.58 1612.08 1078.52 1613.63 1078.99 1615.79 1078.99 1616.9 1078.99 1617.95 1078.81 1618.95 1078.45 1619.95 1078.08 1620.97 1077.48 1622.01 1076.64 1623.05 1075.81 1624.04 1074.7 1624.97 1073.34 1625.9 1071.98 1626.76 1070.29 1627.54 1068.29 1628.33 1066.3 1628.93 1064.15 1629.37 1061.87 1629.8 1059.59 1630.01 1057.41 1630.01 1055.33 1630.01 1052.52 1629.62 1050.41 1628.82 1049 1628.02 1047.6 1626.75 1046.9 1624.99 1046.9ZM1617.9 1023.59 1620.25 1023.59 1613.11 1051.96 1613.64 1052.12C1616.26 1048.61 1618.72 1046.07 1621.02 1044.51 1623.31 1042.94 1625.61 1042.15 1627.91 1042.15 1630.85 1042.15 1633.14 1043.28 1634.78 1045.52 1636.41 1047.76 1637.23 1050.92 1637.23 1055 1637.23 1059.46 1636.33 1063.84 1634.53 1068.15 1632.74 1072.46 1630.24 1075.88 1627.06 1078.41 1623.87 1080.93 1620.3 1082.2 1616.36 1082.2 1612.76 1082.2 1609.58 1081.32 1606.79 1079.56L1603.06 1082.2 1600.47 1081.55 1610.97 1035.22C1611.59 1032.47 1611.9 1030.47 1611.9 1029.23 1611.9 1028.09 1611.55 1027.29 1610.87 1026.84 1610.18 1026.38 1608.94 1026.12 1607.16 1026.07L1607.64 1023.96Z" fill-rule="evenodd"/><text fill="#000000" fill-opacity="0" font-family="Arial,Arial_MSFontService,sans-serif" font-size="58.6025" x="1600.47" y="1074.87">𝑏</text><path d="M1663.63 1071.97C1662.42 1071.97 1661.3 1072.33 1660.28 1073.06 1659.25 1073.78 1658.16 1074.82 1656.99 1076.17 1656.45 1076.81 1655.95 1077.43 1655.5 1078.05 1655.04 1078.66 1654.63 1079.33 1654.26 1080.06 1653.89 1080.78 1653.57 1081.59 1653.28 1082.47 1652.99 1083.35 1652.74 1084.37 1652.52 1085.52 1652.24 1086.89 1652.02 1088.05 1651.86 1088.98 1651.7 1089.91 1651.62 1090.8 1651.62 1091.63 1651.62 1093.24 1652 1094.37 1652.74 1095.04 1653.49 1095.71 1654.68 1096.04 1656.33 1096.04 1657.48 1096.04 1658.56 1095.78 1659.56 1095.28 1660.57 1094.77 1661.47 1094.08 1662.29 1093.21 1663.1 1092.33 1663.83 1091.32 1664.46 1090.16 1665.1 1088.99 1665.63 1087.75 1666.06 1086.43 1666.48 1085.11 1666.81 1083.76 1667.04 1082.37 1667.27 1080.98 1667.38 1079.63 1667.38 1078.32 1667.38 1076.19 1667.09 1074.6 1666.5 1073.55 1665.92 1072.5 1664.96 1071.97 1663.63 1071.97ZM1649.81 1067.98C1651.26 1067.98 1652.38 1068.46 1653.19 1069.42 1653.99 1070.39 1654.39 1071.65 1654.39 1073.22 1654.39 1073.68 1654.36 1074.12 1654.29 1074.53 1654.22 1074.95 1654.1 1075.37 1653.92 1075.78L1654.33 1075.99C1656.28 1073.27 1658.19 1071.26 1660.07 1069.95 1661.95 1068.64 1663.92 1067.98 1665.98 1067.98 1668.34 1067.98 1670.16 1068.83 1671.42 1070.54 1672.68 1072.25 1673.31 1074.74 1673.31 1078.02 1673.31 1080.88 1672.87 1083.57 1671.98 1086.1 1671.1 1088.64 1669.9 1090.86 1668.39 1092.76 1666.88 1094.67 1665.13 1096.17 1663.14 1097.27 1661.14 1098.38 1659.03 1098.93 1656.81 1098.93 1655.26 1098.93 1653.91 1098.77 1652.77 1098.47 1651.63 1098.16 1650.68 1097.79 1649.93 1097.35 1649.75 1098.12 1649.55 1098.93 1649.35 1099.76 1649.14 1100.59 1648.94 1101.4 1648.75 1102.17 1648.56 1102.95 1648.41 1103.66 1648.29 1104.32 1648.17 1104.97 1648.11 1105.5 1648.11 1105.9 1648.11 1106.25 1648.16 1106.55 1648.27 1106.79 1648.38 1107.03 1648.58 1107.23 1648.87 1107.39 1649.16 1107.54 1649.54 1107.67 1650.02 1107.76 1650.49 1107.85 1651.09 1107.92 1651.8 1107.98L1651.71 1109.95 1641.23 1109.95 1648.5 1078.91C1648.74 1077.82 1648.9 1076.91 1649 1076.17 1649.1 1075.44 1649.15 1074.78 1649.15 1074.21 1649.15 1072.76 1648.57 1072.03 1647.4 1072.03 1647.04 1072.03 1646.68 1072.11 1646.32 1072.25 1645.97 1072.4 1645.58 1072.63 1645.18 1072.92 1644.77 1073.22 1644.32 1073.6 1643.84 1074.06 1643.35 1074.51 1642.81 1075.05 1642.21 1075.66L1640.16 1073.73C1641.15 1072.74 1642.06 1071.88 1642.88 1071.15 1643.71 1070.43 1644.5 1069.83 1645.27 1069.37 1646.03 1068.9 1646.77 1068.55 1647.5 1068.32 1648.22 1068.09 1648.99 1067.98 1649.81 1067.98Z" fill-rule="evenodd"/><text fill="#000000" fill-opacity="0" font-family="Arial,Arial_MSFontService,sans-serif" font-size="41.9673" x="1640.16" y="1104.7">𝑝</text><path d="M1715.67 1025.58C1718.24 1025.58 1720.59 1025.73 1722.72 1026.04 1724.86 1026.36 1727.19 1026.92 1729.73 1027.73L1727.26 1038.63 1723.37 1038.63C1723.13 1035.25 1722.39 1032.83 1721.14 1031.35 1719.9 1029.88 1717.87 1029.15 1715.06 1029.15 1712.79 1029.15 1710.67 1029.73 1708.7 1030.89 1706.73 1032.05 1704.86 1033.79 1703.09 1036.1 1701.32 1038.41 1699.72 1041.32 1698.31 1044.83 1696.89 1048.34 1695.79 1052 1695 1055.81 1694.22 1059.62 1693.83 1063.2 1693.83 1066.55 1693.83 1070.77 1694.55 1073.84 1696 1075.77 1697.44 1077.7 1699.7 1078.67 1702.78 1078.67 1703.89 1078.67 1705.03 1078.54 1706.19 1078.28 1707.35 1078.03 1708.44 1077.59 1709.45 1076.97 1710.46 1076.35 1711.36 1075.51 1712.15 1074.45 1712.93 1073.4 1713.5 1072.08 1713.85 1070.48L1714.29 1068.58C1714.89 1066.04 1715.19 1063.86 1715.19 1062.05 1715.19 1060.78 1714.87 1059.9 1714.23 1059.4 1713.6 1058.9 1712.59 1058.61 1711.21 1058.53L1711.66 1056.54 1727.87 1056.54 1727.42 1058.53C1726.4 1058.74 1725.65 1058.99 1725.2 1059.26 1724.74 1059.53 1724.32 1059.94 1723.96 1060.49 1723.59 1061.05 1723.24 1061.89 1722.89 1063.03 1722.53 1064.16 1722.07 1066.03 1721.51 1068.62L1718.71 1081.34 1715.51 1082.24 1713.4 1079.03C1710.59 1080.36 1708.38 1081.22 1706.76 1081.61 1705.13 1082 1703.49 1082.2 1701.81 1082.2 1696.73 1082.2 1692.87 1080.74 1690.22 1077.82 1687.57 1074.9 1686.25 1070.63 1686.25 1065.01 1686.25 1060.99 1686.92 1056.47 1688.27 1051.46 1689.63 1046.44 1691.59 1041.97 1694.17 1038.02 1696.75 1034.08 1699.87 1031.02 1703.53 1028.84 1707.19 1026.67 1711.24 1025.58 1715.67 1025.58Z" fill-rule="evenodd"/><text fill="#000000" fill-opacity="0" font-family="Arial,Arial_MSFontService,sans-serif" font-size="56.6572" x="1686.25" y="1075.15">𝐺</text><path d="M1768.35 1022.99 1769.44 1026.11C1763.12 1028.19 1758.44 1032.25 1755.4 1038.28 1752.36 1044.32 1750.84 1051.91 1750.84 1061.04 1750.84 1070.5 1752.36 1078.29 1755.4 1084.42 1758.44 1090.56 1763.08 1094.66 1769.32 1096.74L1768.35 1099.87C1760.43 1097.79 1754.37 1093.31 1750.15 1086.43 1745.94 1079.55 1743.83 1071.23 1743.83 1061.45 1743.83 1051.69 1745.94 1043.36 1750.17 1036.46 1754.4 1029.56 1760.46 1025.07 1768.35 1022.99Z" fill-rule="evenodd"/><text fill="#000000" fill-opacity="0" font-family="Arial,Arial_MSFontService,sans-serif" font-size="76.8804" x="1743.83" y="1090.26">(</text><path d="M1793.52 1042.15C1796.04 1042.15 1798.33 1042.3 1800.39 1042.6 1802.46 1042.9 1804.52 1043.41 1806.57 1044.14L1804.75 1052.65 1801.47 1052.65C1801.17 1050.25 1800.38 1048.42 1799.1 1047.18 1797.81 1045.94 1795.79 1045.32 1793.04 1045.32 1790.9 1045.32 1789.17 1045.86 1787.85 1046.96 1786.53 1048.05 1785.86 1049.49 1785.86 1051.27 1785.86 1052.25 1786.03 1053.1 1786.37 1053.85 1786.71 1054.59 1787.39 1055.41 1788.42 1056.3 1789.44 1057.19 1791.04 1058.28 1793.2 1059.58 1794.9 1060.61 1796.27 1061.55 1797.29 1062.4 1798.32 1063.25 1799.13 1064.09 1799.72 1064.93 1800.32 1065.77 1800.75 1066.65 1801.02 1067.59 1801.29 1068.52 1801.43 1069.65 1801.43 1070.97 1801.43 1073.37 1800.78 1075.43 1799.5 1077.15 1798.22 1078.87 1796.47 1080.14 1794.27 1080.98 1792.07 1081.82 1789.56 1082.24 1786.75 1082.24 1784.51 1082.24 1782.31 1082.07 1780.15 1081.73 1777.99 1081.39 1775.58 1080.82 1772.93 1080.01L1774.88 1071.17 1778.04 1071.17C1778.15 1073.77 1778.88 1075.72 1780.23 1077.05 1781.58 1078.37 1783.73 1079.03 1786.67 1079.03 1789.24 1079.03 1791.25 1078.46 1792.69 1077.31 1794.14 1076.16 1794.86 1074.54 1794.86 1072.43 1794.86 1071.21 1794.66 1070.17 1794.25 1069.29 1793.85 1068.41 1793.19 1067.57 1792.27 1066.75 1791.35 1065.94 1789.89 1064.93 1787.89 1063.72 1785.78 1062.45 1784.14 1061.3 1782.97 1060.27 1781.79 1059.24 1780.91 1058.13 1780.31 1056.93 1779.72 1055.72 1779.42 1054.34 1779.42 1052.77 1779.42 1050.64 1779.99 1048.77 1781.14 1047.16 1782.29 1045.55 1783.93 1044.32 1786.07 1043.45 1788.2 1042.59 1790.69 1042.15 1793.52 1042.15Z" fill-rule="evenodd"/><text fill="#000000" fill-opacity="0" font-family="Arial,Arial_MSFontService,sans-serif" font-size="40.0815" x="1772.93" y="1077.23">𝑠</text><path d="M1813.62 1022.99C1821.51 1025.07 1827.57 1029.56 1831.8 1036.46 1836.03 1043.36 1838.14 1051.69 1838.14 1061.45 1838.14 1071.23 1836.04 1079.55 1831.82 1086.43 1827.61 1093.31 1821.54 1097.79 1813.62 1099.87L1812.65 1096.74C1818.89 1094.66 1823.53 1090.56 1826.57 1084.42 1829.61 1078.29 1831.13 1070.5 1831.13 1061.04 1831.13 1051.91 1829.62 1044.32 1826.59 1038.28 1823.57 1032.25 1818.88 1028.19 1812.53 1026.11Z" fill-rule="evenodd"/><text fill="#000000" fill-opacity="0" font-family="Arial,Arial_MSFontService,sans-serif" font-size="76.8804" x="1812.53" y="1090.26">)</text><path d="M0-2.29167 285.549-2.29167 285.549 208.664 280.966 208.664 280.966 0 283.258 2.29167 0 2.29167ZM297.008 204.08 283.258 231.58 269.508 204.08Z" transform="matrix(1 0 0 -1 1888.5 1058.08)"/><path d="M1235.59 987.262C1237.32 987.262 1238.68 987.843 1239.68 989.005 1240.68 990.166 1241.18 991.733 1241.18 993.706 1241.18 995.84 1240.76 998.502 1239.93 1001.69L1238.14 1008.7C1237.68 1010.48 1237.35 1011.88 1237.15 1012.88 1236.95 1013.87 1236.8 1014.74 1236.7 1015.47 1236.61 1016.2 1236.56 1016.81 1236.56 1017.29 1236.56 1019.16 1236.87 1020.5 1237.49 1021.33 1238.11 1022.15 1239.13 1022.56 1240.53 1022.56 1241.67 1022.56 1242.89 1022.11 1244.2 1021.2 1245.51 1020.3 1246.9 1018.93 1248.38 1017.11 1249.85 1015.29 1251.03 1013.52 1251.92 1011.8 1252.81 1010.09 1253.54 1007.97 1254.11 1005.46L1257.96 987.91 1264.97 987.91 1259.05 1013.6C1258.46 1016.2 1258.16 1018.2 1258.16 1019.6 1258.16 1020.68 1258.34 1021.47 1258.69 1021.95 1259.04 1022.44 1259.59 1022.68 1260.35 1022.68 1261.16 1022.68 1262.03 1022.35 1262.94 1021.69 1263.86 1021.03 1265.16 1019.76 1266.84 1017.9L1269.15 1020.17C1266.69 1022.79 1264.59 1024.64 1262.86 1025.72 1261.13 1026.8 1259.3 1027.34 1257.35 1027.34 1255.68 1027.34 1254.34 1026.79 1253.34 1025.68 1252.34 1024.57 1251.84 1023.1 1251.84 1021.26 1251.84 1019.81 1252.16 1018.21 1252.81 1016.48L1252.33 1016.32C1249.65 1020.08 1247.12 1022.84 1244.73 1024.63 1242.34 1026.41 1239.88 1027.3 1237.37 1027.3 1234.86 1027.3 1232.93 1026.58 1231.58 1025.13 1230.23 1023.69 1229.55 1021.68 1229.55 1019.12 1229.55 1017.41 1229.94 1015 1230.73 1011.86L1233.36 1001.24C1234.09 998.299 1234.45 996.219 1234.45 995.003 1234.45 993.922 1234.28 993.138 1233.93 992.652 1233.58 992.166 1233.02 991.923 1232.27 991.923 1231.43 991.923 1230.54 992.267 1229.61 992.956 1228.68 993.645 1227.4 994.895 1225.78 996.705L1223.47 994.435C1225.77 992.112 1227.5 990.518 1228.66 989.653 1229.82 988.789 1230.93 988.174 1232 987.809 1233.07 987.444 1234.26 987.262 1235.59 987.262Z" fill-rule="evenodd"/><text fill="#000000" fill-opacity="0" font-family="Arial,Arial_MSFontService,sans-serif" font-size="40.0815" x="1223.47" y="1022.33">𝑢</text><path d="M1288.25 1005.18 1290.07 1005.18C1290.03 1006.27 1290 1007.25 1289.98 1008.11 1289.96 1008.97 1289.95 1009.81 1289.94 1010.63 1289.93 1011.44 1289.92 1012.24 1289.92 1013.04L1289.92 1035.68C1289.92 1036.29 1289.94 1036.82 1289.98 1037.27 1290.02 1037.72 1290.09 1038.09 1290.17 1038.4 1290.26 1038.71 1290.38 1038.97 1290.53 1039.19 1290.68 1039.41 1290.85 1039.6 1291.05 1039.76 1291.29 1039.99 1291.61 1040.18 1292.01 1040.31 1292.4 1040.44 1292.91 1040.55 1293.53 1040.63 1294.14 1040.72 1294.88 1040.79 1295.74 1040.84 1296.61 1040.89 1297.65 1040.93 1298.86 1040.95L1298.86 1043.54 1275.24 1043.54 1275.24 1040.95C1276.41 1040.91 1277.4 1040.86 1278.22 1040.81 1279.03 1040.76 1279.72 1040.69 1280.3 1040.6 1280.88 1040.52 1281.34 1040.42 1281.69 1040.31 1282.03 1040.2 1282.34 1040.06 1282.59 1039.91 1282.87 1039.73 1283.11 1039.53 1283.31 1039.32 1283.51 1039.12 1283.67 1038.85 1283.79 1038.53 1283.9 1038.22 1284 1037.83 1284.07 1037.37 1284.14 1036.92 1284.17 1036.35 1284.17 1035.68L1284.17 1014.32C1284.17 1013.55 1284.02 1013 1283.73 1012.68 1283.43 1012.36 1283 1012.2 1282.45 1012.2 1281.83 1012.2 1280.92 1012.52 1279.7 1013.16 1278.49 1013.79 1276.93 1014.74 1275 1015.99 1274.74 1015.53 1274.5 1015.07 1274.28 1014.62 1274.07 1014.16 1273.84 1013.69 1273.6 1013.22 1276.06 1011.87 1278.5 1010.52 1280.91 1009.18 1283.32 1007.84 1285.77 1006.51 1288.25 1005.18Z" fill-rule="evenodd"/><text fill="#000000" fill-opacity="0" font-family="Arial,Arial_MSFontService,sans-serif" font-size="38.3633" x="1273.6" y="1038.74">1</text><path d="M1517.5 454.208 2173.79 454.208 2173.79 639.952 2169.21 639.952 2169.21 456.5 2171.5 458.792 1517.5 458.792ZM2185.25 635.368 2171.5 662.868 2157.75 635.368Z"/><path d="M0 2.29167-82.4995 2.29167-80.2078 0-80.2078 735.136-82.4995 732.845 431.476 732.845 431.476 737.428-84.7912 737.428-84.7912-2.29167 0-2.29167ZM426.892 721.386 454.392 735.136 426.892 748.886Z" transform="matrix(-1 0 0 1 2252.89 744.5)"/><path d="M2003.3 384.538C2004.41 384.538 2005.35 384.686 2006.14 384.983 2006.68 385.2 2007.22 385.558 2007.76 386.057 2008.3 386.557 2008.78 387.253 2009.2 388.145 2009.61 389.036 2009.98 390.036 2010.29 391.144 2010.6 392.251 2010.94 393.845 2011.32 395.926 2011.97 399.411 2012.6 403.079 2013.21 406.929 2013.82 410.779 2014.34 414.352 2014.77 417.648 2017.39 413.866 2019.61 410.164 2021.43 406.544 2023.26 402.923 2024.57 399.776 2025.37 397.101 2026.16 394.426 2026.56 392.251 2026.56 390.576 2026.56 389.306 2026.29 388.442 2025.75 387.982 2025.21 387.523 2024.29 387.253 2023 387.172L2023.4 385.186 2034.06 385.186 2035.15 387.212C2033.1 392.832 2030.32 398.844 2026.8 405.247 2023.35 411.515 2019.39 417.757 2014.93 423.971 2010.66 429.888 2007.11 434.17 2004.27 436.818 2002.3 438.628 2000.39 439.925 1998.56 440.708 1997.1 441.303 1995.54 441.6 1993.9 441.6 1993.33 441.6 1992.67 441.553 1991.93 441.458 1991.19 441.364 1990.61 441.235 1990.21 441.073L1991.95 433.211 1995.15 433.211C1995.15 434.94 1995.75 435.805 1996.94 435.805 1998.5 435.805 2000.33 434.825 2002.41 432.866 2004.49 430.908 2006.93 427.956 2009.74 424.011 2008.96 419.283 2007.89 413.582 2006.54 406.909 2005.11 399.776 2004.16 395.358 2003.7 393.656 2003.14 391.603 2002.54 390.292 2001.92 389.725 2001.54 389.374 2001.07 389.198 2000.5 389.198 1999.64 389.198 1998.83 389.549 1998.07 390.252 1997.31 390.954 1996.38 392.17 1995.27 393.899L1992.64 392.157C1994.5 389.374 1996.25 387.408 1997.87 386.26 1999.49 385.112 2001.3 384.538 2003.3 384.538Z" fill-rule="evenodd"/><text fill="#000000" fill-opacity="0" font-family="Arial,Arial_MSFontService,sans-serif" font-size="57.0625" x="1990.21" y="434.467">𝑦</text><path d="M2039.93 410.363C2041.4 410.363 2042.54 410.845 2043.34 411.808 2044.15 412.771 2044.55 414.037 2044.55 415.605 2044.55 416.042 2044.52 416.469 2044.46 416.886 2044.4 417.303 2044.29 417.71 2044.13 418.107L2044.49 418.256C2046.37 415.615 2048.26 413.64 2050.15 412.329 2052.03 411.019 2053.97 410.363 2055.96 410.363 2058.06 410.363 2059.63 410.904 2060.68 411.987 2061.72 413.069 2062.24 414.662 2062.24 416.767 2062.24 416.946 2062.24 417.12 2062.24 417.288 2062.24 417.457 2062.22 417.631 2062.18 417.81L2062.3 417.81C2064.15 415.288 2065.98 413.416 2067.81 412.195 2069.64 410.974 2071.54 410.363 2073.53 410.363 2075.63 410.363 2077.21 410.929 2078.25 412.061 2079.29 413.193 2079.81 414.781 2079.81 416.827 2079.81 417.442 2079.71 418.271 2079.52 419.314 2079.32 420.356 2079.07 421.503 2078.79 422.754 2078.5 424.005 2078.19 425.301 2077.85 426.641 2077.51 427.981 2077.19 429.247 2076.89 430.438 2076.72 431.213 2076.57 431.843 2076.46 432.33 2076.35 432.816 2076.27 433.223 2076.21 433.551 2076.15 433.879 2076.11 434.162 2076.09 434.4 2076.07 434.638 2076.06 434.896 2076.06 435.174 2076.06 435.929 2076.2 436.475 2076.48 436.812 2076.76 437.15 2077.2 437.319 2077.82 437.319 2078.18 437.319 2078.53 437.249 2078.89 437.11 2079.25 436.971 2079.63 436.753 2080.04 436.455 2080.44 436.157 2080.89 435.775 2081.38 435.308 2081.86 434.842 2082.4 434.281 2083 433.625L2085.06 435.591C2084.1 436.584 2083.21 437.438 2082.39 438.153 2081.57 438.868 2080.77 439.458 2080.01 439.925 2079.24 440.392 2078.48 440.739 2077.73 440.968 2076.97 441.196 2076.18 441.31 2075.35 441.31 2074.59 441.31 2073.91 441.171 2073.29 440.893 2072.68 440.615 2072.15 440.233 2071.73 439.746 2071.3 439.26 2070.97 438.684 2070.73 438.019 2070.49 437.354 2070.37 436.624 2070.37 435.83 2070.37 434.201 2070.72 432.106 2071.41 429.545 2071.79 428.254 2072.13 427.018 2072.44 425.837 2072.75 424.655 2073.01 423.563 2073.23 422.56 2073.45 421.558 2073.62 420.664 2073.75 419.88 2073.88 419.095 2073.95 418.445 2073.95 417.929 2073.95 416.698 2073.71 415.794 2073.25 415.218 2072.78 414.642 2072.05 414.354 2071.06 414.354 2070.44 414.354 2069.79 414.513 2069.09 414.831 2068.4 415.149 2067.7 415.591 2066.99 416.156 2066.29 416.722 2065.6 417.393 2064.92 418.167 2064.25 418.941 2063.62 419.78 2063.04 420.684 2062.47 421.587 2061.96 422.535 2061.51 423.528 2061.06 424.521 2060.72 425.524 2060.48 426.537L2057.53 440.774 2051.73 440.774C2052 439.503 2052.32 438.138 2052.66 436.678 2053.01 435.219 2053.36 433.745 2053.72 432.255 2054.08 430.766 2054.42 429.297 2054.75 427.847 2055.08 426.398 2055.37 425.042 2055.63 423.781 2055.89 422.521 2056.09 421.389 2056.25 420.386 2056.41 419.383 2056.49 418.584 2056.49 417.988 2056.49 416.737 2056.25 415.819 2055.76 415.233 2055.28 414.647 2054.5 414.354 2053.42 414.354 2052.47 414.354 2051.45 414.712 2050.36 415.427 2049.26 416.142 2048.23 417.08 2047.24 418.241 2046.26 419.403 2045.38 420.714 2044.61 422.173 2043.83 423.633 2043.29 425.107 2042.97 426.596L2039.93 440.774 2034.09 440.774 2038.56 421.354C2038.82 420.282 2039.01 419.348 2039.13 418.554 2039.25 417.76 2039.31 417.105 2039.31 416.588 2039.31 415.139 2038.72 414.414 2037.55 414.414 2037.19 414.414 2036.83 414.489 2036.46 414.637 2036.09 414.786 2035.71 415.01 2035.3 415.308 2034.89 415.605 2034.45 415.983 2033.97 416.439 2033.5 416.896 2032.96 417.432 2032.37 418.048L2030.31 416.112C2031.28 415.119 2032.18 414.26 2033.01 413.535 2033.83 412.811 2034.62 412.215 2035.39 411.748 2036.15 411.282 2036.9 410.934 2037.64 410.706 2038.37 410.477 2039.14 410.363 2039.93 410.363Z" fill-rule="evenodd"/><text fill="#000000" fill-opacity="0" font-family="Arial,Arial_MSFontService,sans-serif" font-size="30.9468" x="2030.31" y="437.442">𝑚</text><path d="M2078.45 854.471 2128.38 854.471 2128.38 859.861 2078.45 859.861Z" fill-rule="evenodd"/><text fill="#000000" fill-opacity="0" font-family="Arial,Arial_MSFontService,sans-serif" font-size="5.39014" x="2078.45" y="859.188">−</text></g></svg>