<svg width="2014" height="1314" xmlns="http://www.w3.org/2000/svg" xmlns:xlink="http://www.w3.org/1999/xlink" xml:space="preserve" overflow="hidden"><g transform="translate(-403 -311)"><path d="M1146.5 1052.21 1531.99 1052.21 1531.99 1056.79 1146.5 1056.79ZM1527.41 1040.75 1554.91 1054.5 1527.41 1068.25Z"/><path d="M463.771 983.438C464.879 983.438 465.824 983.587 466.608 983.884 467.148 984.1 467.688 984.458 468.229 984.958 468.769 985.458 469.249 986.153 469.667 987.045 470.086 987.937 470.451 988.936 470.762 990.044 471.072 991.152 471.417 992.746 471.795 994.826 472.444 998.312 473.072 1001.98 473.68 1005.83 474.288 1009.68 474.808 1013.25 475.24 1016.55 477.861 1012.77 480.083 1009.06 481.907 1005.44 483.73 1001.82 485.041 998.676 485.838 996.002 486.635 993.327 487.033 991.152 487.033 989.477 487.033 988.207 486.763 987.342 486.223 986.883 485.683 986.424 484.764 986.153 483.467 986.072L483.872 984.087 494.531 984.087 495.625 986.113C493.572 991.733 490.789 997.744 487.277 1004.15 483.818 1010.42 479.86 1016.66 475.402 1022.87 471.133 1028.79 467.58 1033.07 464.743 1035.72 462.771 1037.53 460.866 1038.83 459.029 1039.61 457.57 1040.2 456.017 1040.5 454.368 1040.5 453.801 1040.5 453.146 1040.45 452.403 1040.36 451.66 1040.26 451.086 1040.14 450.68 1039.97L452.423 1032.11 455.625 1032.11C455.625 1033.84 456.219 1034.71 457.408 1034.71 458.975 1034.71 460.799 1033.73 462.879 1031.77 464.96 1029.81 467.405 1026.86 470.215 1022.91 469.431 1018.18 468.364 1012.48 467.013 1005.81 465.581 998.676 464.635 994.259 464.176 992.557 463.609 990.503 463.014 989.193 462.393 988.626 462.015 988.274 461.542 988.099 460.974 988.099 460.11 988.099 459.299 988.45 458.543 989.152 457.786 989.855 456.854 991.071 455.746 992.8L453.112 991.057C454.976 988.274 456.719 986.309 458.34 985.161 459.961 984.012 461.771 983.438 463.771 983.438Z" fill-rule="evenodd"/><text fill="#000000" fill-opacity="0" font-family="Arial,Arial_MSFontService,sans-serif" font-size="57.0625" x="450.68" y="1033.37">𝑦</text><path d="M500.403 1009.26C501.873 1009.26 503.009 1009.75 503.814 1010.71 504.618 1011.67 505.02 1012.94 505.02 1014.51 505.02 1015.4 504.881 1016.19 504.603 1016.89L505.02 1017.07C507.025 1014.39 508.976 1012.42 510.873 1011.16 512.769 1009.89 514.72 1009.26 516.725 1009.26 517.48 1009.26 518.19 1009.3 518.855 1009.38 519.52 1009.46 520.161 1009.56 520.776 1009.68L519.257 1016.89 515.802 1016.89C515.703 1015.7 515.45 1014.84 515.043 1014.33 514.635 1013.81 514.045 1013.55 513.27 1013.55 512.814 1013.53 512.287 1013.67 511.692 1013.97 511.096 1014.27 510.466 1014.69 509.8 1015.25 509.135 1015.81 508.475 1016.46 507.82 1017.22 507.164 1017.97 506.544 1018.8 505.958 1019.69 505.372 1020.58 504.861 1021.53 504.424 1022.53 503.987 1023.54 503.66 1024.54 503.441 1025.56L500.403 1039.67 494.565 1039.67 499.033 1020.25C499.311 1019.1 499.505 1018.15 499.614 1017.4 499.723 1016.64 499.778 1016.01 499.778 1015.49 499.778 1014.04 499.192 1013.31 498.02 1013.31 497.643 1013.31 497.271 1013.39 496.903 1013.54 496.536 1013.69 496.154 1013.91 495.757 1014.21 495.36 1014.51 494.923 1014.88 494.446 1015.34 493.97 1015.8 493.433 1016.33 492.838 1016.95L490.783 1015.01C491.775 1014 492.684 1013.13 493.508 1012.41 494.332 1011.68 495.121 1011.09 495.876 1010.62 496.63 1010.15 497.375 1009.81 498.11 1009.59 498.844 1009.37 499.609 1009.26 500.403 1009.26Z" fill-rule="evenodd"/><text fill="#000000" fill-opacity="0" font-family="Arial,Arial_MSFontService,sans-serif" font-size="30.4106" x="490.783" y="1035.87">𝑟</text><path d="M2003.3 984.446C2004.41 984.446 2005.35 984.595 2006.14 984.892 2006.68 985.108 2007.22 985.466 2007.76 985.966 2008.3 986.466 2008.78 987.162 2009.2 988.053 2009.61 988.945 2009.98 989.945 2010.29 991.052 2010.6 992.16 2010.94 993.754 2011.32 995.835 2011.97 999.32 2012.6 1002.99 2013.21 1006.84 2013.82 1010.69 2014.34 1014.26 2014.77 1017.56 2017.39 1013.77 2019.61 1010.07 2021.43 1006.45 2023.26 1002.83 2024.57 999.685 2025.37 997.01 2026.16 994.335 2026.56 992.16 2026.56 990.485 2026.56 989.215 2026.29 988.351 2025.75 987.891 2025.21 987.432 2024.29 987.162 2023 987.081L2023.4 985.095 2034.06 985.095 2035.15 987.121C2033.1 992.741 2030.32 998.753 2026.8 1005.16 2023.35 1011.42 2019.39 1017.67 2014.93 1023.88 2010.66 1029.8 2007.11 1034.08 2004.27 1036.73 2002.3 1038.54 2000.39 1039.83 1998.56 1040.62 1997.1 1041.21 1995.54 1041.51 1993.9 1041.51 1993.33 1041.51 1992.67 1041.46 1991.93 1041.37 1991.19 1041.27 1990.61 1041.14 1990.21 1040.98L1991.95 1033.12 1995.15 1033.12C1995.15 1034.85 1995.75 1035.71 1996.94 1035.71 1998.5 1035.71 2000.33 1034.73 2002.41 1032.78 2004.49 1030.82 2006.93 1027.86 2009.74 1023.92 2008.96 1019.19 2007.89 1013.49 2006.54 1006.82 2005.11 999.685 2004.16 995.267 2003.7 993.565 2003.14 991.512 2002.54 990.201 2001.92 989.634 2001.54 989.283 2001.07 989.107 2000.5 989.107 1999.64 989.107 1998.83 989.458 1998.07 990.161 1997.31 990.863 1996.38 992.079 1995.27 993.808L1992.64 992.066C1994.5 989.283 1996.25 987.317 1997.87 986.169 1999.49 985.021 2001.3 984.446 2003.3 984.446Z" fill-rule="evenodd"/><text fill="#000000" fill-opacity="0" font-family="Arial,Arial_MSFontService,sans-serif" font-size="57.0625" x="1990.21" y="1034.38">𝑦</text><path d="M2053.9 1014.26C2052.69 1014.26 2051.57 1014.63 2050.55 1015.35 2049.53 1016.08 2048.43 1017.11 2047.26 1018.46 2046.72 1019.1 2046.23 1019.72 2045.77 1020.34 2045.31 1020.96 2044.9 1021.63 2044.53 1022.35 2044.17 1023.07 2043.84 1023.88 2043.55 1024.76 2043.26 1025.65 2043.01 1026.66 2042.79 1027.82 2042.51 1029.19 2042.29 1030.34 2042.14 1031.27 2041.98 1032.2 2041.9 1033.09 2041.9 1033.92 2041.9 1035.53 2042.27 1036.67 2043.01 1037.33 2043.76 1038 2044.95 1038.33 2046.6 1038.33 2047.75 1038.33 2048.83 1038.08 2049.83 1037.57 2050.84 1037.06 2051.75 1036.37 2052.56 1035.5 2053.37 1034.63 2054.1 1033.61 2054.73 1032.45 2055.37 1031.29 2055.9 1030.04 2056.33 1028.72 2056.75 1027.4 2057.08 1026.05 2057.31 1024.66 2057.54 1023.27 2057.65 1021.92 2057.65 1020.61 2057.65 1018.48 2057.36 1016.89 2056.77 1015.84 2056.19 1014.79 2055.23 1014.26 2053.9 1014.26ZM2040.08 1010.27C2041.53 1010.27 2042.66 1010.75 2043.46 1011.72 2044.26 1012.68 2044.67 1013.95 2044.67 1015.51 2044.67 1015.97 2044.63 1016.41 2044.56 1016.82 2044.49 1017.24 2044.37 1017.66 2044.19 1018.08L2044.61 1018.28C2046.55 1015.56 2048.46 1013.55 2050.34 1012.24 2052.22 1010.93 2054.19 1010.27 2056.25 1010.27 2058.62 1010.27 2060.43 1011.13 2061.69 1012.83 2062.95 1014.54 2063.58 1017.03 2063.58 1020.31 2063.58 1023.17 2063.14 1025.86 2062.26 1028.4 2061.37 1030.93 2060.18 1033.15 2058.67 1035.05 2057.16 1036.96 2055.4 1038.46 2053.41 1039.57 2051.41 1040.67 2049.3 1041.22 2047.08 1041.22 2045.53 1041.22 2044.19 1041.06 2043.04 1040.76 2041.9 1040.45 2040.95 1040.08 2040.2 1039.64 2040.02 1040.41 2039.83 1041.22 2039.62 1042.05 2039.41 1042.89 2039.21 1043.69 2039.02 1044.47 2038.83 1045.24 2038.68 1045.95 2038.56 1046.61 2038.44 1047.27 2038.38 1047.79 2038.38 1048.19 2038.38 1048.55 2038.44 1048.84 2038.55 1049.08 2038.66 1049.32 2038.85 1049.52 2039.14 1049.68 2039.43 1049.84 2039.81 1049.96 2040.29 1050.05 2040.77 1050.14 2041.36 1050.21 2042.08 1050.27L2041.99 1052.24 2031.5 1052.24 2038.77 1021.2C2039.01 1020.11 2039.18 1019.2 2039.28 1018.46 2039.38 1017.73 2039.42 1017.07 2039.42 1016.5 2039.42 1015.05 2038.84 1014.32 2037.67 1014.32 2037.31 1014.32 2036.95 1014.4 2036.6 1014.55 2036.24 1014.7 2035.86 1014.92 2035.45 1015.22 2035.04 1015.51 2034.59 1015.89 2034.11 1016.35 2033.62 1016.8 2033.08 1017.34 2032.48 1017.96L2030.43 1016.02C2031.42 1015.03 2032.33 1014.17 2033.16 1013.44 2033.98 1012.72 2034.77 1012.12 2035.54 1011.66 2036.3 1011.19 2037.05 1010.84 2037.77 1010.61 2038.5 1010.39 2039.27 1010.27 2040.08 1010.27Z" fill-rule="evenodd"/><text fill="#000000" fill-opacity="0" font-family="Arial,Arial_MSFontService,sans-serif" font-size="41.9673" x="2030.43" y="1046.99">𝑝</text><path d="M2348.02 666.209C2345.29 666.209 2342.67 667.587 2340.14 670.343 2337.61 673.098 2335.67 676.827 2334.32 681.528 2338.13 681.501 2341.4 681.157 2344.13 680.495 2346.86 679.833 2348.95 678.779 2350.41 677.333 2351.87 675.888 2352.6 673.936 2352.6 671.477 2352.6 669.829 2352.22 668.539 2351.45 667.607 2350.68 666.675 2349.53 666.209 2348.02 666.209ZM2349.48 663.007C2352.75 663.007 2355.2 663.669 2356.84 664.993 2358.47 666.317 2359.29 668.384 2359.29 671.194 2359.29 675.787 2357.13 679.232 2352.82 681.528 2348.51 683.825 2342.12 684.973 2333.63 684.973 2333.31 686.594 2333.15 688.35 2333.15 690.241 2333.15 693.078 2333.7 695.138 2334.81 696.422 2335.92 697.705 2337.73 698.347 2340.24 698.347 2342.73 698.347 2344.98 697.807 2346.99 696.726 2349 695.645 2351.13 693.983 2353.37 691.741L2355.88 694.375C2353.26 697.266 2350.61 699.441 2347.92 700.9 2345.23 702.359 2342.1 703.089 2338.54 703.089 2334.62 703.089 2331.59 701.893 2329.44 699.502 2327.29 697.111 2326.22 693.781 2326.22 689.512 2326.22 686.621 2326.74 683.521 2327.78 680.211 2328.82 676.901 2330.39 673.929 2332.5 671.295 2334.61 668.661 2337.13 666.621 2340.08 665.175 2343.02 663.73 2346.16 663.007 2349.48 663.007Z" fill-rule="evenodd"/><text fill="#000000" fill-opacity="0" font-family="Arial,Arial_MSFontService,sans-serif" font-size="40.0815" x="2326.22" y="698.078">𝑒</text><path d="M2089.5 745C2089.5 699.989 2126.21 663.5 2171.5 663.5 2216.79 663.5 2253.5 699.989 2253.5 745 2253.5 790.011 2216.79 826.5 2171.5 826.5 2126.21 826.5 2089.5 790.011 2089.5 745Z" stroke="#000000" stroke-width="6.875" stroke-miterlimit="8" fill="none" fill-rule="evenodd"/><path d="M2113.5 687.5 2228.92 802.918" stroke="#000000" stroke-width="6.875" stroke-miterlimit="8" fill="none" fill-rule="evenodd"/><path d="M0 0 115.418 115.418" stroke="#000000" stroke-width="6.875" stroke-miterlimit="8" fill="none" fill-rule="evenodd" transform="matrix(1 0 0 -1 2113.5 802.918)"/><rect x="1342.5" y="1338.5" width="456" height="283" stroke="#000000" stroke-width="6.875" stroke-miterlimit="8" fill="none"/><text font-family="Times New Roman,Times New Roman_MSFontService,sans-serif" font-weight="400" font-size="83" transform="matrix(1 0 0 1 1386.84 1509)">Adaptation</text><path d="M1342.86 1482.66 995.208 1482.66 995.208 1219.42 999.792 1219.42 999.792 1480.37 997.5 1478.08 1342.86 1478.08ZM983.75 1224 997.5 1196.5 1011.25 1224Z"/><rect x="848.5" y="912.5" width="298" height="284" stroke="#000000" stroke-width="6.875" stroke-miterlimit="8" fill="none"/><path d="M933.648 1054.32C932.379 1060.18 931.744 1065.11 931.744 1069.11 931.744 1072.14 932.203 1074.36 933.122 1075.78 934.04 1077.2 935.526 1077.9 937.58 1077.9 940.606 1077.9 943.476 1075.87 946.192 1071.81 948.907 1067.74 951.21 1061.91 953.102 1054.32ZM950.265 1027C947.104 1027 944.179 1029 941.491 1033 938.802 1037 936.512 1042.73 934.621 1050.18L954.034 1050.18C955.304 1044.48 955.939 1039.58 955.939 1035.47 955.939 1032.64 955.479 1030.51 954.561 1029.11 953.642 1027.71 952.21 1027 950.265 1027ZM950.751 1023.72C958.586 1023.72 962.504 1028.69 962.504 1038.63 962.504 1041.44 962.187 1044.8 961.552 1048.7 960.917 1052.61 959.91 1056.59 958.532 1060.64 957.154 1064.69 955.412 1068.28 953.304 1071.4 951.197 1074.52 948.765 1076.93 946.009 1078.63 943.253 1080.34 940.281 1081.19 937.093 1081.19 933.068 1081.19 930.069 1079.96 928.096 1077.5 926.124 1075.04 925.138 1071.35 925.138 1066.44 925.138 1063.76 925.435 1060.46 926.029 1056.55 926.624 1052.63 927.603 1048.62 928.968 1044.53 930.332 1040.44 932.088 1036.8 934.236 1033.63 936.384 1030.45 938.856 1028.01 941.653 1026.29 944.449 1024.58 947.482 1023.72 950.751 1023.72Z" fill-rule="evenodd"/><text fill="#000000" fill-opacity="0" font-family="Arial,Arial_MSFontService,sans-serif" font-size="57.4678" x="925.138" y="1074">𝜃</text><path d="M1001.1 1021.98 1002.2 1025.1C995.876 1027.18 991.195 1031.24 988.155 1037.28 985.116 1043.31 983.596 1050.9 983.596 1060.03 983.596 1069.49 985.116 1077.28 988.155 1083.42 991.195 1089.55 995.835 1093.66 1002.08 1095.74L1001.1 1098.86C993.187 1096.78 987.122 1092.3 982.907 1085.42 978.692 1078.55 976.585 1070.22 976.585 1060.44 976.585 1050.68 978.699 1042.36 982.927 1035.45 987.155 1028.55 993.214 1024.06 1001.1 1021.98Z" fill-rule="evenodd"/><text fill="#000000" fill-opacity="0" font-family="Arial,Arial_MSFontService,sans-serif" font-size="76.8804" x="976.585" y="1089.25">(</text><path d="M1019.51 1031.78 1025.1 1031.78 1022.87 1041.8 1035.19 1041.8 1034.3 1045.89 1021.98 1045.89 1018.38 1061.61C1017.67 1064.67 1017.23 1066.86 1017.04 1068.2 1016.85 1069.54 1016.75 1070.61 1016.75 1071.42 1016.75 1074.77 1018.15 1076.45 1020.93 1076.45 1022.12 1076.45 1023.38 1075.99 1024.72 1075.09 1026.06 1074.18 1027.64 1072.64 1029.48 1070.45L1031.83 1072.88C1029.48 1075.72 1027.22 1077.81 1025.04 1079.16 1022.87 1080.51 1020.59 1081.19 1018.21 1081.19 1012.57 1081.19 1009.74 1078.34 1009.74 1072.64 1009.74 1070.83 1009.97 1068.92 1010.43 1066.92L1015.21 1045.89 1008.41 1045.89 1009.01 1043.09C1010.61 1043.06 1011.82 1042.94 1012.64 1042.73 1013.47 1042.51 1014.15 1042.21 1014.71 1041.84 1015.26 1041.46 1015.77 1040.92 1016.23 1040.21 1016.69 1039.51 1017.13 1038.61 1017.57 1037.52 1018 1036.43 1018.65 1034.51 1019.51 1031.78Z" fill-rule="evenodd"/><text fill="#000000" fill-opacity="0" font-family="Arial,Arial_MSFontService,sans-serif" font-size="49.4028" x="1008.41" y="1075.01">𝑡</text><path d="M1040.97 1021.98C1048.86 1024.06 1054.92 1028.55 1059.15 1035.45 1063.38 1042.36 1065.49 1050.68 1065.49 1060.44 1065.49 1070.22 1063.38 1078.55 1059.17 1085.42 1054.95 1092.3 1048.89 1096.78 1040.97 1098.86L1040 1095.74C1046.24 1093.66 1050.88 1089.55 1053.92 1083.42 1056.96 1077.28 1058.48 1069.49 1058.48 1060.03 1058.48 1050.9 1056.97 1043.31 1053.94 1037.28 1050.91 1031.24 1046.23 1027.18 1039.88 1025.1Z" fill-rule="evenodd"/><text fill="#000000" fill-opacity="0" font-family="Arial,Arial_MSFontService,sans-serif" font-size="76.8804" x="1039.88" y="1089.25">)</text><path d="M416.5 1052.21 824.972 1052.21 824.972 1056.79 416.5 1056.79ZM820.388 1040.75 847.888 1054.5 820.388 1068.25Z"/><rect x="1184.5" y="314.5" width="333" height="284" stroke="#000000" stroke-width="6.875" stroke-miterlimit="8" fill="none"/><path d="M1247.32 425.275 1249.67 425.275 1241.73 460.655 1243.03 460.655C1245.05 460.655 1247.33 459.77 1249.86 458 1252.38 456.231 1254.4 454.589 1255.92 453.076 1257.43 451.563 1258.19 450.104 1258.19 448.699 1258.19 447.376 1257.27 446.633 1255.43 446.47L1255.88 444.485 1269.01 444.485 1269.78 446.47C1267.53 448.497 1265.16 450.483 1262.64 452.428L1252.59 460.209 1256.56 474.84C1256.89 476.082 1257.18 476.981 1257.44 477.535 1257.69 478.089 1257.99 478.501 1258.33 478.771 1258.66 479.041 1259.12 479.176 1259.68 479.176 1260.39 479.176 1261.22 478.798 1262.2 478.041 1263.17 477.285 1264.28 476.191 1265.52 474.759L1267.83 477.028C1265.4 479.595 1263.39 481.378 1261.79 482.378 1260.2 483.377 1258.66 483.877 1257.17 483.877 1255.33 483.877 1253.88 483.357 1252.8 482.317 1251.71 481.277 1250.86 479.541 1250.24 477.109L1247.57 466.572C1247.3 465.518 1247.03 464.789 1246.76 464.384 1246.49 463.978 1246.18 463.708 1245.82 463.573 1245.47 463.438 1244.85 463.37 1243.96 463.37L1241.16 463.37 1236.95 483.229 1229.94 483.229 1240.35 436.906C1240.7 435.339 1240.95 434.116 1241.1 433.238 1241.25 432.36 1241.33 431.583 1241.33 430.908 1241.33 429.773 1240.98 428.976 1240.29 428.517 1239.6 428.058 1238.37 427.801 1236.58 427.747L1237.07 425.639Z" fill-rule="evenodd"/><text fill="#000000" fill-opacity="0" font-family="Arial,Arial_MSFontService,sans-serif" font-size="58.6025" x="1229.94" y="476.552">𝑘</text><path d="M1289.13 464.39C1287.74 464.39 1286.58 464.752 1285.65 465.477 1284.71 466.202 1283.97 467.264 1283.43 468.664 1282.88 470.064 1282.5 471.772 1282.27 473.787 1282.04 475.803 1281.92 478.091 1281.92 480.653 1281.92 483.611 1282.07 486.168 1282.36 488.322 1282.64 490.477 1283.09 492.249 1283.7 493.639 1284.3 495.029 1285.06 496.052 1285.97 496.707 1286.89 497.362 1287.98 497.69 1289.25 497.69 1290.44 497.69 1291.49 497.382 1292.38 496.766 1293.27 496.151 1294.01 495.193 1294.6 493.892 1295.18 492.591 1295.63 490.943 1295.92 488.948 1296.22 486.952 1296.37 484.594 1296.37 481.874 1296.37 478.816 1296.21 476.185 1295.88 473.981 1295.55 471.777 1295.09 469.965 1294.49 468.545 1293.9 467.125 1293.15 466.078 1292.24 465.403 1291.34 464.727 1290.3 464.39 1289.13 464.39ZM1289.25 461.501C1291.61 461.501 1293.63 461.943 1295.31 462.826 1296.99 463.71 1298.36 464.971 1299.42 466.609 1300.49 468.247 1301.26 470.248 1301.76 472.611 1302.26 474.974 1302.51 477.644 1302.51 480.623 1302.51 487.235 1301.33 492.234 1298.99 495.62 1296.65 499.005 1293.25 500.698 1288.8 500.698 1284.4 500.698 1281.12 499.1 1278.98 495.903 1276.83 492.706 1275.76 487.861 1275.76 481.367 1275.76 477.972 1276.09 475.033 1276.76 472.551 1277.42 470.069 1278.35 468.009 1279.56 466.371 1280.76 464.732 1282.18 463.511 1283.83 462.707 1285.48 461.903 1287.29 461.501 1289.25 461.501Z" fill-rule="evenodd"/><text fill="#000000" fill-opacity="0" font-family="Arial,Arial_MSFontService,sans-serif" font-size="39.1973" x="1275.76" y="495.798">0</text><path d="M1344.73 427.26C1347.29 427.26 1349.64 427.416 1351.78 427.727 1353.91 428.037 1356.25 428.598 1358.79 429.408L1356.32 440.31 1352.43 440.31C1352.18 436.933 1351.44 434.508 1350.2 433.036 1348.95 431.563 1346.93 430.827 1344.12 430.827 1341.85 430.827 1339.73 431.408 1337.76 432.57 1335.78 433.731 1333.91 435.467 1332.14 437.777 1330.37 440.087 1328.78 442.999 1327.36 446.511 1325.94 450.023 1324.84 453.684 1324.06 457.494 1323.27 461.303 1322.88 464.883 1322.88 468.234 1322.88 472.448 1323.6 475.522 1325.05 477.454 1326.5 479.385 1328.76 480.351 1331.84 480.351 1332.95 480.351 1334.08 480.223 1335.24 479.966 1336.4 479.71 1337.49 479.271 1338.51 478.649 1339.52 478.028 1340.42 477.19 1341.2 476.136 1341.98 475.083 1342.55 473.759 1342.9 472.165L1343.35 470.26C1343.94 467.72 1344.24 465.545 1344.24 463.735 1344.24 462.465 1343.92 461.58 1343.29 461.081 1342.65 460.581 1341.65 460.29 1340.27 460.209L1340.71 458.223 1356.92 458.223 1356.48 460.209C1355.45 460.425 1354.71 460.669 1354.25 460.939 1353.79 461.209 1353.38 461.621 1353.01 462.175 1352.65 462.729 1352.29 463.573 1351.94 464.708 1351.59 465.843 1351.13 467.707 1350.56 470.301L1347.77 483.026 1344.56 483.918 1342.46 480.716C1339.65 482.04 1337.43 482.898 1335.81 483.29 1334.19 483.681 1332.54 483.877 1330.87 483.877 1325.79 483.877 1321.92 482.418 1319.28 479.5 1316.63 476.582 1315.3 472.313 1315.3 466.694 1315.3 462.668 1315.98 458.149 1317.33 453.137 1318.68 448.125 1320.65 443.647 1323.23 439.702 1325.81 435.758 1328.93 432.698 1332.59 430.523 1336.25 428.348 1340.3 427.26 1344.73 427.26Z" fill-rule="evenodd"/><text fill="#000000" fill-opacity="0" font-family="Arial,Arial_MSFontService,sans-serif" font-size="56.6572" x="1315.3" y="476.836">𝐺</text><path d="M1397.4 424.667 1398.5 427.787C1392.17 429.868 1387.49 433.927 1384.45 439.966 1381.41 446.004 1379.89 453.59 1379.89 462.722 1379.89 472.178 1381.41 479.973 1384.45 486.106 1387.49 492.239 1392.13 496.346 1398.38 498.427L1397.4 501.547C1389.49 499.467 1383.42 494.988 1379.21 488.112 1374.99 481.236 1372.88 472.908 1372.88 463.127 1372.88 453.374 1375 445.045 1379.23 438.142 1383.45 431.239 1389.51 426.747 1397.4 424.667Z" fill-rule="evenodd"/><text fill="#000000" fill-opacity="0" font-family="Arial,Arial_MSFontService,sans-serif" font-size="76.8804" x="1372.88" y="491.937">(</text><path d="M1422.58 443.836C1425.09 443.836 1427.38 443.985 1429.45 444.282 1431.51 444.579 1433.57 445.093 1435.63 445.822L1433.8 454.333 1430.52 454.333C1430.22 451.928 1429.43 450.104 1428.15 448.862 1426.87 447.619 1424.85 446.997 1422.09 446.997 1419.96 446.997 1418.23 447.544 1416.9 448.639 1415.58 449.733 1414.92 451.172 1414.92 452.955 1414.92 453.927 1415.09 454.785 1415.42 455.528 1415.76 456.271 1416.44 457.089 1417.47 457.98 1418.5 458.872 1420.09 459.966 1422.25 461.263 1423.96 462.29 1425.32 463.229 1426.35 464.08 1427.37 464.931 1428.18 465.775 1428.78 466.613 1429.37 467.45 1429.81 468.335 1430.08 469.267 1430.35 470.199 1430.48 471.327 1430.48 472.651 1430.48 475.056 1429.84 477.116 1428.56 478.832 1427.27 480.547 1425.53 481.824 1423.33 482.661 1421.13 483.499 1418.62 483.918 1415.81 483.918 1413.57 483.918 1411.37 483.749 1409.2 483.411 1407.04 483.073 1404.64 482.499 1401.99 481.689L1403.94 472.854 1407.1 472.854C1407.2 475.448 1407.93 477.406 1409.28 478.73 1410.64 480.054 1412.78 480.716 1415.73 480.716 1418.3 480.716 1420.3 480.142 1421.75 478.994 1423.19 477.845 1423.92 476.218 1423.92 474.11 1423.92 472.894 1423.71 471.847 1423.31 470.969 1422.9 470.091 1422.24 469.247 1421.32 468.436 1420.4 467.626 1418.94 466.613 1416.94 465.397 1414.84 464.127 1413.2 462.979 1412.02 461.952 1410.84 460.925 1409.96 459.811 1409.37 458.608 1408.77 457.406 1408.47 456.021 1408.47 454.454 1408.47 452.32 1409.05 450.449 1410.2 448.841 1411.34 447.234 1412.99 445.998 1415.12 445.133 1417.26 444.268 1419.74 443.836 1422.58 443.836Z" fill-rule="evenodd"/><text fill="#000000" fill-opacity="0" font-family="Arial,Arial_MSFontService,sans-serif" font-size="40.0815" x="1401.99" y="478.908">𝑠</text><path d="M1442.68 424.667C1450.57 426.747 1456.63 431.239 1460.86 438.142 1465.08 445.045 1467.2 453.374 1467.2 463.127 1467.2 472.908 1465.09 481.236 1460.88 488.112 1456.66 494.988 1450.6 499.467 1442.68 501.547L1441.71 498.427C1447.95 496.346 1452.59 492.239 1455.63 486.106 1458.67 479.973 1460.19 472.178 1460.19 462.722 1460.19 453.59 1458.67 446.004 1455.65 439.966 1452.62 433.927 1447.93 429.868 1441.58 427.787Z" fill-rule="evenodd"/><text fill="#000000" fill-opacity="0" font-family="Arial,Arial_MSFontService,sans-serif" font-size="76.8804" x="1441.58" y="491.937">)</text><rect x="1555.5" y="912.5" width="333" height="284" stroke="#000000" stroke-width="6.875" stroke-miterlimit="8" fill="none"/><path d="M1696.02 1024.57C1698.59 1024.57 1700.94 1024.73 1703.08 1025.04 1705.21 1025.35 1707.55 1025.91 1710.09 1026.72L1707.61 1037.62 1703.72 1037.62C1703.48 1034.24 1702.74 1031.82 1701.49 1030.35 1700.25 1028.87 1698.23 1028.14 1695.42 1028.14 1693.15 1028.14 1691.03 1028.72 1689.05 1029.88 1687.08 1031.04 1685.21 1032.78 1683.44 1035.09 1681.67 1037.4 1680.08 1040.31 1678.66 1043.82 1677.24 1047.33 1676.14 1050.99 1675.35 1054.8 1674.57 1058.61 1674.18 1062.19 1674.18 1065.54 1674.18 1069.76 1674.9 1072.83 1676.35 1074.76 1677.79 1076.7 1680.06 1077.66 1683.14 1077.66 1684.24 1077.66 1685.38 1077.53 1686.54 1077.28 1687.7 1077.02 1688.79 1076.58 1689.8 1075.96 1690.82 1075.34 1691.71 1074.5 1692.5 1073.45 1693.28 1072.39 1693.85 1071.07 1694.2 1069.47L1694.65 1067.57C1695.24 1065.03 1695.54 1062.86 1695.54 1061.05 1695.54 1059.78 1695.22 1058.89 1694.58 1058.39 1693.95 1057.89 1692.94 1057.6 1691.57 1057.52L1692.01 1055.53 1708.22 1055.53 1707.78 1057.52C1706.75 1057.74 1706.01 1057.98 1705.55 1058.25 1705.09 1058.52 1704.68 1058.93 1704.31 1059.48 1703.95 1060.04 1703.59 1060.88 1703.24 1062.02 1702.89 1063.15 1702.43 1065.02 1701.86 1067.61L1699.06 1080.34 1695.86 1081.23 1693.75 1078.03C1690.94 1079.35 1688.73 1080.21 1687.11 1080.6 1685.49 1080.99 1683.84 1081.19 1682.16 1081.19 1677.08 1081.19 1673.22 1079.73 1670.57 1076.81 1667.92 1073.89 1666.6 1069.62 1666.6 1064 1666.6 1059.98 1667.28 1055.46 1668.63 1050.45 1669.98 1045.44 1671.94 1040.96 1674.52 1037.01 1677.1 1033.07 1680.22 1030.01 1683.89 1027.83 1687.55 1025.66 1691.59 1024.57 1696.02 1024.57ZM1637.24 1022.58 1639.59 1022.58 1631.65 1057.97 1632.95 1057.97C1634.97 1057.97 1637.25 1057.08 1639.78 1055.31 1642.3 1053.54 1644.32 1051.9 1645.84 1050.39 1647.35 1048.87 1648.11 1047.41 1648.11 1046.01 1648.11 1044.69 1647.19 1043.94 1645.35 1043.78L1645.8 1041.79 1658.93 1041.79 1659.7 1043.78C1657.45 1045.81 1655.08 1047.79 1652.56 1049.74L1642.51 1057.52 1646.48 1072.15C1646.81 1073.39 1647.1 1074.29 1647.36 1074.84 1647.61 1075.4 1647.91 1075.81 1648.25 1076.08 1648.59 1076.35 1649.04 1076.49 1649.6 1076.49 1650.31 1076.49 1651.15 1076.11 1652.12 1075.35 1653.09 1074.59 1654.2 1073.5 1655.44 1072.07L1657.75 1074.34C1655.32 1076.9 1653.31 1078.69 1651.71 1079.69 1650.12 1080.69 1648.58 1081.19 1647.09 1081.19 1645.26 1081.19 1643.8 1080.67 1642.72 1079.63 1641.63 1078.59 1640.78 1076.85 1640.16 1074.42L1637.49 1063.88C1637.22 1062.83 1636.95 1062.1 1636.68 1061.69 1636.41 1061.29 1636.1 1061.02 1635.74 1060.88 1635.39 1060.75 1634.77 1060.68 1633.88 1060.68L1631.08 1060.68 1626.87 1080.54 1619.86 1080.54 1630.27 1034.22C1630.62 1032.65 1630.87 1031.43 1631.02 1030.55 1631.17 1029.67 1631.25 1028.89 1631.25 1028.22 1631.25 1027.08 1630.9 1026.29 1630.21 1025.83 1629.52 1025.37 1628.29 1025.11 1626.5 1025.06L1626.99 1022.95Z" fill-rule="evenodd"/><text fill="#000000" fill-opacity="0" font-family="Arial,Arial_MSFontService,sans-serif" font-size="58.6431" x="1619.86" y="1073.9">𝑘𝐺</text><path d="M1748.96 1021.98 1750.05 1025.1C1743.73 1027.18 1739.05 1031.24 1736.01 1037.28 1732.97 1043.31 1731.45 1050.9 1731.45 1060.03 1731.45 1069.49 1732.97 1077.28 1736.01 1083.42 1739.05 1089.55 1743.69 1093.66 1749.93 1095.74L1748.96 1098.86C1741.04 1096.78 1734.98 1092.3 1730.76 1085.42 1726.55 1078.55 1724.44 1070.22 1724.44 1060.44 1724.44 1050.68 1726.56 1042.36 1730.78 1035.45 1735.01 1028.55 1741.07 1024.06 1748.96 1021.98Z" fill-rule="evenodd"/><text fill="#000000" fill-opacity="0" font-family="Arial,Arial_MSFontService,sans-serif" font-size="76.8804" x="1724.44" y="1089.25">(</text><path d="M1774.14 1041.15C1776.65 1041.15 1778.94 1041.29 1781 1041.59 1783.07 1041.89 1785.13 1042.4 1787.19 1043.13L1785.36 1051.64 1782.08 1051.64C1781.78 1049.24 1780.99 1047.41 1779.71 1046.17 1778.42 1044.93 1776.4 1044.31 1773.65 1044.31 1771.51 1044.31 1769.79 1044.85 1768.46 1045.95 1767.14 1047.04 1766.48 1048.48 1766.48 1050.26 1766.48 1051.24 1766.64 1052.1 1766.98 1052.84 1767.32 1053.58 1768 1054.4 1769.03 1055.29 1770.06 1056.18 1771.65 1057.28 1773.81 1058.57 1775.51 1059.6 1776.88 1060.54 1777.9 1061.39 1778.93 1062.24 1779.74 1063.09 1780.34 1063.92 1780.93 1064.76 1781.36 1065.65 1781.63 1066.58 1781.9 1067.51 1782.04 1068.64 1782.04 1069.96 1782.04 1072.37 1781.4 1074.43 1780.11 1076.14 1778.83 1077.86 1777.09 1079.13 1774.89 1079.97 1772.68 1080.81 1770.18 1081.23 1767.37 1081.23 1765.12 1081.23 1762.92 1081.06 1760.76 1080.72 1758.6 1080.38 1756.2 1079.81 1753.55 1079L1755.49 1070.16 1758.65 1070.16C1758.76 1072.76 1759.49 1074.72 1760.84 1076.04 1762.19 1077.36 1764.34 1078.03 1767.29 1078.03 1769.85 1078.03 1771.86 1077.45 1773.3 1076.3 1774.75 1075.16 1775.47 1073.53 1775.47 1071.42 1775.47 1070.2 1775.27 1069.16 1774.86 1068.28 1774.46 1067.4 1773.8 1066.56 1772.88 1065.75 1771.96 1064.94 1770.5 1063.92 1768.5 1062.71 1766.39 1061.44 1764.75 1060.29 1763.58 1059.26 1762.4 1058.24 1761.52 1057.12 1760.92 1055.92 1760.33 1054.72 1760.03 1053.33 1760.03 1051.76 1760.03 1049.63 1760.61 1047.76 1761.75 1046.15 1762.9 1044.54 1764.54 1043.31 1766.68 1042.44 1768.81 1041.58 1771.3 1041.15 1774.14 1041.15Z" fill-rule="evenodd"/><text fill="#000000" fill-opacity="0" font-family="Arial,Arial_MSFontService,sans-serif" font-size="40.0815" x="1753.55" y="1076.22">𝑠</text><path d="M1794.24 1021.98C1802.13 1024.06 1808.18 1028.55 1812.41 1035.45 1816.64 1042.36 1818.76 1050.68 1818.76 1060.44 1818.76 1070.22 1816.65 1078.55 1812.43 1085.42 1808.22 1092.3 1802.15 1096.78 1794.24 1098.86L1793.26 1095.74C1799.51 1093.66 1804.15 1089.55 1807.19 1083.42 1810.22 1077.28 1811.74 1069.49 1811.74 1060.03 1811.74 1050.9 1810.23 1043.31 1807.21 1037.28 1804.18 1031.24 1799.49 1027.18 1793.14 1025.1Z" fill-rule="evenodd"/><text fill="#000000" fill-opacity="0" font-family="Arial,Arial_MSFontService,sans-serif" font-size="76.8804" x="1793.14" y="1089.25">)</text><path d="M0-2.29167 285.549-2.29167 285.549 204.799 280.966 204.799 280.966 0 283.258 2.29167 0 2.29167ZM297.008 200.216 283.258 227.716 269.508 200.216Z" transform="matrix(1 0 0 -1 1888.5 1054.22)"/><path d="M1235.59 987.262C1237.32 987.262 1238.68 987.843 1239.68 989.005 1240.68 990.166 1241.18 991.733 1241.18 993.706 1241.18 995.84 1240.76 998.502 1239.93 1001.69L1238.14 1008.7C1237.68 1010.48 1237.35 1011.88 1237.15 1012.88 1236.95 1013.87 1236.8 1014.74 1236.7 1015.47 1236.61 1016.2 1236.56 1016.81 1236.56 1017.29 1236.56 1019.16 1236.87 1020.5 1237.49 1021.33 1238.11 1022.15 1239.13 1022.56 1240.53 1022.56 1241.67 1022.56 1242.89 1022.11 1244.2 1021.2 1245.51 1020.3 1246.9 1018.93 1248.38 1017.11 1249.85 1015.29 1251.03 1013.52 1251.92 1011.8 1252.81 1010.09 1253.54 1007.97 1254.11 1005.46L1257.96 987.91 1264.97 987.91 1259.05 1013.6C1258.46 1016.2 1258.16 1018.2 1258.16 1019.6 1258.16 1020.68 1258.34 1021.47 1258.69 1021.95 1259.04 1022.44 1259.59 1022.68 1260.35 1022.68 1261.16 1022.68 1262.03 1022.35 1262.94 1021.69 1263.86 1021.03 1265.16 1019.76 1266.84 1017.9L1269.15 1020.17C1266.69 1022.79 1264.59 1024.64 1262.86 1025.72 1261.13 1026.8 1259.3 1027.34 1257.35 1027.34 1255.68 1027.34 1254.34 1026.79 1253.34 1025.68 1252.34 1024.57 1251.84 1023.1 1251.84 1021.26 1251.84 1019.81 1252.16 1018.21 1252.81 1016.48L1252.33 1016.32C1249.65 1020.08 1247.12 1022.84 1244.73 1024.63 1242.34 1026.41 1239.88 1027.3 1237.37 1027.3 1234.86 1027.3 1232.93 1026.58 1231.58 1025.13 1230.23 1023.69 1229.55 1021.68 1229.55 1019.12 1229.55 1017.41 1229.94 1015 1230.73 1011.86L1233.36 1001.24C1234.09 998.299 1234.45 996.219 1234.45 995.003 1234.45 993.922 1234.28 993.138 1233.93 992.652 1233.58 992.166 1233.02 991.923 1232.27 991.923 1231.43 991.923 1230.54 992.267 1229.61 992.956 1228.68 993.645 1227.4 994.895 1225.78 996.705L1223.47 994.435C1225.77 992.112 1227.5 990.518 1228.66 989.653 1229.82 988.789 1230.93 988.174 1232 987.809 1233.07 987.444 1234.26 987.262 1235.59 987.262Z" fill-rule="evenodd"/><text fill="#000000" fill-opacity="0" font-family="Arial,Arial_MSFontService,sans-serif" font-size="40.0815" x="1223.47" y="1022.33">𝑢</text><path d="M1288.25 1005.18 1290.07 1005.18C1290.03 1006.27 1290 1007.25 1289.98 1008.11 1289.96 1008.97 1289.95 1009.81 1289.94 1010.63 1289.93 1011.44 1289.92 1012.24 1289.92 1013.04L1289.92 1035.68C1289.92 1036.29 1289.94 1036.82 1289.98 1037.27 1290.02 1037.72 1290.09 1038.09 1290.17 1038.4 1290.26 1038.71 1290.38 1038.97 1290.53 1039.19 1290.68 1039.41 1290.85 1039.6 1291.05 1039.76 1291.29 1039.99 1291.61 1040.18 1292.01 1040.31 1292.4 1040.44 1292.91 1040.55 1293.53 1040.63 1294.14 1040.72 1294.88 1040.79 1295.74 1040.84 1296.61 1040.89 1297.65 1040.93 1298.86 1040.95L1298.86 1043.54 1275.24 1043.54 1275.24 1040.95C1276.41 1040.91 1277.4 1040.86 1278.22 1040.81 1279.03 1040.76 1279.72 1040.69 1280.3 1040.6 1280.88 1040.52 1281.34 1040.42 1281.69 1040.31 1282.03 1040.2 1282.34 1040.06 1282.59 1039.91 1282.87 1039.73 1283.11 1039.53 1283.31 1039.32 1283.51 1039.12 1283.67 1038.85 1283.79 1038.53 1283.9 1038.22 1284 1037.83 1284.07 1037.37 1284.14 1036.92 1284.17 1036.35 1284.17 1035.68L1284.17 1014.32C1284.17 1013.55 1284.02 1013 1283.73 1012.68 1283.43 1012.36 1283 1012.2 1282.45 1012.2 1281.83 1012.2 1280.92 1012.52 1279.7 1013.16 1278.49 1013.79 1276.93 1014.74 1275 1015.99 1274.74 1015.53 1274.5 1015.07 1274.28 1014.62 1274.07 1014.16 1273.84 1013.69 1273.6 1013.22 1276.06 1011.87 1278.5 1010.52 1280.91 1009.18 1283.32 1007.84 1285.77 1006.51 1288.25 1005.18Z" fill-rule="evenodd"/><text fill="#000000" fill-opacity="0" font-family="Arial,Arial_MSFontService,sans-serif" font-size="38.3633" x="1273.6" y="1038.74">1</text><path d="M1517.5 454.208 2173.79 454.208 2173.79 639.952 2169.21 639.952 2169.21 456.5 2171.5 458.792 1517.5 458.792ZM2185.25 635.368 2171.5 662.868 2157.75 635.368Z"/><path d="M0 2.29167-82.4995 2.29167-80.2078 0-80.2078 735.136-82.4995 732.845 431.476 732.845 431.476 737.428-84.7912 737.428-84.7912-2.29167 0-2.29167ZM426.892 721.386 454.392 735.136 426.892 748.886Z" transform="matrix(-1 0 0 1 2252.89 744.5)"/><path d="M2003.3 384.538C2004.41 384.538 2005.35 384.686 2006.14 384.983 2006.68 385.2 2007.22 385.558 2007.76 386.057 2008.3 386.557 2008.78 387.253 2009.2 388.145 2009.61 389.036 2009.98 390.036 2010.29 391.144 2010.6 392.251 2010.94 393.845 2011.32 395.926 2011.97 399.411 2012.6 403.079 2013.21 406.929 2013.82 410.779 2014.34 414.352 2014.77 417.648 2017.39 413.866 2019.61 410.164 2021.43 406.544 2023.26 402.923 2024.57 399.776 2025.37 397.101 2026.16 394.426 2026.56 392.251 2026.56 390.576 2026.56 389.306 2026.29 388.442 2025.75 387.982 2025.21 387.523 2024.29 387.253 2023 387.172L2023.4 385.186 2034.06 385.186 2035.15 387.212C2033.1 392.832 2030.32 398.844 2026.8 405.247 2023.35 411.515 2019.39 417.757 2014.93 423.971 2010.66 429.888 2007.11 434.17 2004.27 436.818 2002.3 438.628 2000.39 439.925 1998.56 440.708 1997.1 441.303 1995.54 441.6 1993.9 441.6 1993.33 441.6 1992.67 441.553 1991.93 441.458 1991.19 441.364 1990.61 441.235 1990.21 441.073L1991.95 433.211 1995.15 433.211C1995.15 434.94 1995.75 435.805 1996.94 435.805 1998.5 435.805 2000.33 434.825 2002.41 432.866 2004.49 430.908 2006.93 427.956 2009.74 424.011 2008.96 419.283 2007.89 413.582 2006.54 406.909 2005.11 399.776 2004.16 395.358 2003.7 393.656 2003.14 391.603 2002.54 390.292 2001.92 389.725 2001.54 389.374 2001.07 389.198 2000.5 389.198 1999.64 389.198 1998.83 389.549 1998.07 390.252 1997.31 390.954 1996.38 392.17 1995.27 393.899L1992.64 392.157C1994.5 389.374 1996.25 387.408 1997.87 386.26 1999.49 385.112 2001.3 384.538 2003.3 384.538Z" fill-rule="evenodd"/><text fill="#000000" fill-opacity="0" font-family="Arial,Arial_MSFontService,sans-serif" font-size="57.0625" x="1990.21" y="434.467">𝑦</text><path d="M2039.93 410.363C2041.4 410.363 2042.54 410.845 2043.34 411.808 2044.15 412.771 2044.55 414.037 2044.55 415.605 2044.55 416.042 2044.52 416.469 2044.46 416.886 2044.4 417.303 2044.29 417.71 2044.13 418.107L2044.49 418.256C2046.37 415.615 2048.26 413.64 2050.15 412.329 2052.03 411.019 2053.97 410.363 2055.96 410.363 2058.06 410.363 2059.63 410.904 2060.68 411.987 2061.72 413.069 2062.24 414.662 2062.24 416.767 2062.24 416.946 2062.24 417.12 2062.24 417.288 2062.24 417.457 2062.22 417.631 2062.18 417.81L2062.3 417.81C2064.15 415.288 2065.98 413.416 2067.81 412.195 2069.64 410.974 2071.54 410.363 2073.53 410.363 2075.63 410.363 2077.21 410.929 2078.25 412.061 2079.29 413.193 2079.81 414.781 2079.81 416.827 2079.81 417.442 2079.71 418.271 2079.52 419.314 2079.32 420.356 2079.07 421.503 2078.79 422.754 2078.5 424.005 2078.19 425.301 2077.85 426.641 2077.51 427.981 2077.19 429.247 2076.89 430.438 2076.72 431.213 2076.57 431.843 2076.46 432.33 2076.35 432.816 2076.27 433.223 2076.21 433.551 2076.15 433.879 2076.11 434.162 2076.09 434.4 2076.07 434.638 2076.06 434.896 2076.06 435.174 2076.06 435.929 2076.2 436.475 2076.48 436.812 2076.76 437.15 2077.2 437.319 2077.82 437.319 2078.18 437.319 2078.53 437.249 2078.89 437.11 2079.25 436.971 2079.63 436.753 2080.04 436.455 2080.44 436.157 2080.89 435.775 2081.38 435.308 2081.86 434.842 2082.4 434.281 2083 433.625L2085.06 435.591C2084.1 436.584 2083.21 437.438 2082.39 438.153 2081.57 438.868 2080.77 439.458 2080.01 439.925 2079.24 440.392 2078.48 440.739 2077.73 440.968 2076.97 441.196 2076.18 441.31 2075.35 441.31 2074.59 441.31 2073.91 441.171 2073.29 440.893 2072.68 440.615 2072.15 440.233 2071.73 439.746 2071.3 439.26 2070.97 438.684 2070.73 438.019 2070.49 437.354 2070.37 436.624 2070.37 435.83 2070.37 434.201 2070.72 432.106 2071.41 429.545 2071.79 428.254 2072.13 427.018 2072.44 425.837 2072.75 424.655 2073.01 423.563 2073.23 422.56 2073.45 421.558 2073.62 420.664 2073.75 419.88 2073.88 419.095 2073.95 418.445 2073.95 417.929 2073.95 416.698 2073.71 415.794 2073.25 415.218 2072.78 414.642 2072.05 414.354 2071.06 414.354 2070.44 414.354 2069.79 414.513 2069.09 414.831 2068.4 415.149 2067.7 415.591 2066.99 416.156 2066.29 416.722 2065.6 417.393 2064.92 418.167 2064.25 418.941 2063.62 419.78 2063.04 420.684 2062.47 421.587 2061.96 422.535 2061.51 423.528 2061.06 424.521 2060.72 425.524 2060.48 426.537L2057.53 440.774 2051.73 440.774C2052 439.503 2052.32 438.138 2052.66 436.678 2053.01 435.219 2053.36 433.745 2053.72 432.255 2054.08 430.766 2054.42 429.297 2054.75 427.847 2055.08 426.398 2055.37 425.042 2055.63 423.781 2055.89 422.521 2056.09 421.389 2056.25 420.386 2056.41 419.383 2056.49 418.584 2056.49 417.988 2056.49 416.737 2056.25 415.819 2055.76 415.233 2055.28 414.647 2054.5 414.354 2053.42 414.354 2052.47 414.354 2051.45 414.712 2050.36 415.427 2049.26 416.142 2048.23 417.08 2047.24 418.241 2046.26 419.403 2045.38 420.714 2044.61 422.173 2043.83 423.633 2043.29 425.107 2042.97 426.596L2039.93 440.774 2034.09 440.774 2038.56 421.354C2038.82 420.282 2039.01 419.348 2039.13 418.554 2039.25 417.76 2039.31 417.105 2039.31 416.588 2039.31 415.139 2038.72 414.414 2037.55 414.414 2037.19 414.414 2036.83 414.489 2036.46 414.637 2036.09 414.786 2035.71 415.01 2035.3 415.308 2034.89 415.605 2034.45 415.983 2033.97 416.439 2033.5 416.896 2032.96 417.432 2032.37 418.048L2030.31 416.112C2031.28 415.119 2032.18 414.26 2033.01 413.535 2033.83 412.811 2034.62 412.215 2035.39 411.748 2036.15 411.282 2036.9 410.934 2037.64 410.706 2038.37 410.477 2039.14 410.363 2039.93 410.363Z" fill-rule="evenodd"/><text fill="#000000" fill-opacity="0" font-family="Arial,Arial_MSFontService,sans-serif" font-size="30.9468" x="2030.31" y="437.442">𝑚</text><path d="M2078.45 854.471 2128.38 854.471 2128.38 859.861 2078.45 859.861Z" fill-rule="evenodd"/><text fill="#000000" fill-opacity="0" font-family="Arial,Arial_MSFontService,sans-serif" font-size="5.39014" x="2078.45" y="859.188">−</text><path d="M620.208 1053.81 620.208 454.208 1161.8 454.208 1161.8 458.792 622.5 458.792 624.792 456.5 624.792 1053.81ZM1157.22 442.75 1184.72 456.5 1157.22 470.25Z"/></g></svg>