<svg width="3214" height="1258" xmlns="http://www.w3.org/2000/svg" xmlns:xlink="http://www.w3.org/1999/xlink" xml:space="preserve" overflow="hidden"><g transform="translate(-403 -367)"><path d="M1146.5 1052.21 1336.88 1052.21 1336.88 1056.79 1146.5 1056.79ZM1332.3 1040.75 1359.8 1054.5 1332.3 1068.25Z"/><path d="M1359.5 1054C1359.5 1008.99 1396.21 972.5 1441.5 972.5 1486.79 972.5 1523.5 1008.99 1523.5 1054 1523.5 1099.01 1486.79 1135.5 1441.5 1135.5 1396.21 1135.5 1359.5 1099.01 1359.5 1054Z" stroke="#000000" stroke-width="6.875" stroke-miterlimit="8" fill="none" fill-rule="evenodd"/><path d="M1383.5 996.5 1498.92 1111.92" stroke="#000000" stroke-width="6.875" stroke-miterlimit="8" fill="none" fill-rule="evenodd"/><path d="M0 0 115.418 115.418" stroke="#000000" stroke-width="6.875" stroke-miterlimit="8" fill="none" fill-rule="evenodd" transform="matrix(1 0 0 -1 1383.5 1111.92)"/><rect x="1723.5" y="912.5" width="335" height="284" stroke="#000000" stroke-width="6.875" stroke-miterlimit="8" fill="none"/><path d="M1893.89 963.742 1896.11 963.742C1895.95 966.336 1895.87 969.93 1895.87 974.523L1895.87 1009.13C1895.87 1010.7 1895.96 1011.88 1896.14 1012.68 1896.31 1013.48 1896.62 1014.12 1897.07 1014.62 1897.51 1015.12 1898.15 1015.52 1898.99 1015.8 1899.83 1016.08 1900.88 1016.3 1902.15 1016.45 1903.42 1016.6 1905.1 1016.7 1907.18 1016.75L1907.18 1019.71 1877.23 1019.71 1877.23 1016.75C1880.23 1016.62 1882.37 1016.43 1883.65 1016.21 1884.94 1015.98 1885.92 1015.63 1886.59 1015.17 1887.27 1014.71 1887.76 1014.06 1888.07 1013.23 1888.38 1012.39 1888.54 1011.02 1888.54 1009.13L1888.54 976.265C1888.54 975.185 1888.35 974.394 1887.97 973.895 1887.59 973.395 1887.04 973.145 1886.31 973.145 1885.44 973.145 1884.21 973.591 1882.62 974.482 1881.03 975.374 1879.05 976.603 1876.7 978.17L1874.92 975.05Z" fill-rule="evenodd"/><text fill="#000000" fill-opacity="0" font-family="Arial,Arial_MSFontService,sans-serif" font-size="55.9683" x="1874.92" y="1012.71">1</text><path d="M1777.81 1082.02 1814.36 1082.02 1811.57 1094.46 1807.67 1094.46C1807.57 1092.38 1807.4 1090.74 1807.17 1089.54 1806.94 1088.34 1806.61 1087.47 1806.2 1086.95 1805.78 1086.42 1805.27 1086.06 1804.68 1085.87 1804.08 1085.68 1803.19 1085.59 1802 1085.59L1789.52 1085.59 1784.7 1107.64 1792.27 1107.64C1793.46 1107.64 1794.45 1107.47 1795.23 1107.15 1796.02 1106.82 1796.75 1106.24 1797.42 1105.39 1798.1 1104.54 1798.93 1103.08 1799.93 1101.03L1803.62 1101.03 1799.69 1118.13 1796.12 1118.13C1796.12 1115.4 1796.04 1113.69 1795.86 1113.01 1795.69 1112.32 1795.35 1111.84 1794.85 1111.59 1794.35 1111.33 1793.36 1111.2 1791.87 1111.2L1783.93 1111.2 1780.72 1125.55C1780.16 1128.09 1779.87 1130.2 1779.87 1131.87 1779.87 1132.71 1780.01 1133.36 1780.28 1133.84 1780.55 1134.31 1780.95 1134.65 1781.49 1134.87 1782.03 1135.09 1782.97 1135.25 1784.29 1135.36L1783.84 1137.34 1767.19 1137.34 1767.63 1135.36C1768.66 1135.19 1769.43 1134.93 1769.94 1134.57 1770.46 1134.2 1770.89 1133.69 1771.24 1133.05 1771.59 1132.4 1771.92 1131.61 1772.21 1130.68 1772.51 1129.74 1772.96 1127.94 1773.55 1125.26L1780.44 1094.06C1781.03 1091.36 1781.33 1089.22 1781.33 1087.66 1781.33 1086.33 1781.02 1085.41 1780.4 1084.9 1779.78 1084.39 1778.77 1084.09 1777.36 1084.01Z" fill-rule="evenodd"/><text fill="#000000" fill-opacity="0" font-family="Arial,Arial_MSFontService,sans-serif" font-size="55.3198" x="1767.19" y="1130.43">𝐹</text><path d="M1850.34 1078.78 1851.43 1081.9C1845.11 1083.98 1840.43 1088.04 1837.39 1094.08 1834.35 1100.12 1832.83 1107.7 1832.83 1116.84 1832.83 1126.29 1834.35 1134.09 1837.39 1140.22 1840.43 1146.35 1845.07 1150.46 1851.31 1152.54L1850.34 1155.66C1842.42 1153.58 1836.36 1149.1 1832.14 1142.23 1827.93 1135.35 1825.82 1127.02 1825.82 1117.24 1825.82 1107.49 1827.94 1099.16 1832.16 1092.26 1836.39 1085.35 1842.45 1080.86 1850.34 1078.78Z" fill-rule="evenodd"/><text fill="#000000" fill-opacity="0" font-family="Arial,Arial_MSFontService,sans-serif" font-size="76.8804" x="1825.82" y="1146.05">(</text><path d="M1878.8 1101.11C1876.04 1101.11 1873.57 1102.23 1871.38 1104.45 1869.19 1106.68 1867.47 1109.69 1866.21 1113.47 1864.96 1117.25 1864.33 1121.02 1864.33 1124.78 1864.33 1127.59 1864.71 1129.69 1865.48 1131.08 1866.25 1132.47 1867.54 1133.17 1869.36 1133.17 1870.19 1133.17 1871.04 1132.99 1871.91 1132.62 1872.77 1132.26 1873.67 1131.67 1874.6 1130.86 1875.54 1130.05 1876.45 1129.06 1877.36 1127.9 1878.26 1126.74 1879.1 1125.57 1879.85 1124.39 1880.61 1123.22 1881.31 1121.83 1881.96 1120.22 1882.61 1118.61 1883.16 1116.67 1883.62 1114.4L1883.99 1112.66C1884.39 1110.72 1884.59 1108.88 1884.59 1107.15 1884.59 1105.04 1884.15 1103.51 1883.26 1102.55 1882.36 1101.59 1880.88 1101.11 1878.8 1101.11ZM1878.07 1097.91C1879.74 1097.91 1881.34 1098.1 1882.85 1098.5 1884.36 1098.89 1885.93 1099.58 1887.55 1100.58L1891.28 1097.91 1893.87 1098.56 1883.5 1144.64C1883.04 1146.69 1882.81 1148.23 1882.81 1149.26 1882.81 1150.45 1883.11 1151.29 1883.72 1151.79 1884.33 1152.29 1885.53 1152.62 1887.31 1152.78L1886.94 1154.77 1874.3 1154.77 1881.27 1128.18 1880.7 1127.94C1878.38 1131.21 1876.01 1133.69 1873.59 1135.4 1871.17 1137.1 1868.81 1137.95 1866.52 1137.95 1863.55 1137.95 1861.24 1136.83 1859.61 1134.59 1857.97 1132.34 1857.16 1129.2 1857.16 1125.14 1857.16 1120.5 1858.07 1116.03 1859.89 1111.75 1861.72 1107.47 1864.22 1104.09 1867.41 1101.62 1870.6 1099.15 1874.15 1097.91 1878.07 1097.91Z" fill-rule="evenodd"/><text fill="#000000" fill-opacity="0" font-family="Arial,Arial_MSFontService,sans-serif" font-size="56.8599" x="1857.16" y="1147.66">𝑞</text><path d="M1905.12 1092.85 1939.43 1092.85 1939.43 1097.41 1905.12 1097.41Z" fill-rule="evenodd"/><text fill="#000000" fill-opacity="0" font-family="Arial,Arial_MSFontService,sans-serif" font-size="4.55713" x="1905.12" y="1096.84">−</text><path d="M1963.73 1074.21 1965.55 1074.21C1965.51 1075.3 1965.48 1076.28 1965.46 1077.14 1965.44 1078 1965.43 1078.84 1965.42 1079.66 1965.41 1080.47 1965.4 1081.27 1965.4 1082.07L1965.4 1104.71C1965.4 1105.32 1965.42 1105.85 1965.46 1106.3 1965.5 1106.75 1965.56 1107.12 1965.65 1107.43 1965.74 1107.74 1965.86 1108 1966.01 1108.22 1966.16 1108.44 1966.33 1108.63 1966.53 1108.79 1966.77 1109.02 1967.09 1109.21 1967.49 1109.34 1967.88 1109.47 1968.39 1109.58 1969.01 1109.67 1969.62 1109.75 1970.36 1109.82 1971.22 1109.87 1972.09 1109.92 1973.13 1109.96 1974.34 1109.98L1974.34 1112.57 1950.72 1112.57 1950.72 1109.98C1951.89 1109.94 1952.88 1109.89 1953.7 1109.84 1954.51 1109.79 1955.2 1109.72 1955.78 1109.64 1956.36 1109.55 1956.82 1109.45 1957.17 1109.34 1957.51 1109.23 1957.82 1109.09 1958.07 1108.94 1958.35 1108.76 1958.59 1108.56 1958.79 1108.35 1958.99 1108.15 1959.15 1107.88 1959.27 1107.57 1959.38 1107.25 1959.48 1106.86 1959.55 1106.4 1959.62 1105.95 1959.65 1105.38 1959.65 1104.71L1959.65 1083.35C1959.65 1082.58 1959.5 1082.03 1959.21 1081.71 1958.91 1081.39 1958.48 1081.24 1957.92 1081.24 1957.31 1081.24 1956.4 1081.55 1955.18 1082.19 1953.97 1082.82 1952.4 1083.77 1950.48 1085.02 1950.22 1084.56 1949.98 1084.1 1949.76 1083.65 1949.55 1083.19 1949.32 1082.72 1949.08 1082.25 1951.54 1080.9 1953.98 1079.55 1956.39 1078.21 1958.8 1076.87 1961.25 1075.54 1963.73 1074.21Z" fill-rule="evenodd"/><text fill="#000000" fill-opacity="0" font-family="Arial,Arial_MSFontService,sans-serif" font-size="38.3633" x="1949.08" y="1107.77">1</text><path d="M1984.62 1078.78C1992.51 1080.86 1998.57 1085.35 2002.8 1092.26 2007.03 1099.16 2009.14 1107.49 2009.14 1117.24 2009.14 1127.02 2007.04 1135.35 2002.82 1142.23 1998.61 1149.1 1992.54 1153.58 1984.62 1155.66L1983.65 1152.54C1989.89 1150.46 1994.53 1146.35 1997.57 1140.22 2000.61 1134.09 2002.13 1126.29 2002.13 1116.84 2002.13 1107.7 2000.62 1100.12 1997.59 1094.08 1994.57 1088.04 1989.88 1083.98 1983.53 1081.9Z" fill-rule="evenodd"/><text fill="#000000" fill-opacity="0" font-family="Arial,Arial_MSFontService,sans-serif" font-size="76.8804" x="1983.53" y="1146.05">)</text><path d="M1764.99 1056.15 1827.74 1056.15 1890.49 1056.15 1953.24 1056.15 2015.99 1056.15 2015.99 1061.15 1953.24 1061.15 1890.49 1061.15 1827.74 1061.15 1764.99 1061.15Z" fill-rule="evenodd"/><rect x="2321.5" y="912.5" width="482" height="284" stroke="#000000" stroke-width="6.875" stroke-miterlimit="8" fill="none"/><path d="M2397.02 983.61C2394.27 983.61 2391.8 984.725 2389.61 986.954 2387.42 989.183 2385.7 992.189 2384.44 995.971 2383.18 999.754 2382.56 1003.52 2382.56 1007.28 2382.56 1010.09 2382.94 1012.19 2383.71 1013.58 2384.48 1014.97 2385.77 1015.67 2387.58 1015.67 2388.42 1015.67 2389.27 1015.49 2390.14 1015.12 2391 1014.76 2391.9 1014.17 2392.83 1013.36 2393.76 1012.55 2394.68 1011.56 2395.59 1010.4 2396.49 1009.24 2397.32 1008.07 2398.08 1006.89 2398.84 1005.72 2399.54 1004.33 2400.19 1002.72 2400.83 1001.11 2401.39 999.173 2401.85 996.903L2402.21 995.161C2402.62 993.215 2402.82 991.378 2402.82 989.649 2402.82 987.542 2402.37 986.008 2401.48 985.049 2400.59 984.09 2399.11 983.61 2397.02 983.61ZM2396.3 980.409C2397.97 980.409 2399.56 980.605 2401.08 980.996 2402.59 981.388 2404.16 982.084 2405.78 983.083L2409.51 980.409 2412.1 981.057 2401.73 1027.14C2401.27 1029.19 2401.04 1030.73 2401.04 1031.76 2401.04 1032.95 2401.34 1033.79 2401.95 1034.29 2402.56 1034.79 2403.75 1035.12 2405.54 1035.28L2405.17 1037.27 2392.53 1037.27 2399.5 1010.68 2398.93 1010.44C2396.61 1013.71 2394.24 1016.19 2391.82 1017.9 2389.4 1019.6 2387.04 1020.45 2384.75 1020.45 2381.77 1020.45 2379.47 1019.33 2377.84 1017.09 2376.2 1014.84 2375.38 1011.7 2375.38 1007.64 2375.38 1003 2376.3 998.531 2378.12 994.249 2379.94 989.966 2382.45 986.589 2385.64 984.117 2388.82 981.645 2392.38 980.409 2396.3 980.409Z" fill-rule="evenodd"/><text fill="#000000" fill-opacity="0" font-family="Arial,Arial_MSFontService,sans-serif" font-size="56.8599" x="2375.38" y="1030.16">𝑞</text><path d="M2423.35 969.92 2457.66 969.92 2457.66 974.477 2423.35 974.477Z" fill-rule="evenodd"/><text fill="#000000" fill-opacity="0" font-family="Arial,Arial_MSFontService,sans-serif" font-size="4.55713" x="2423.35" y="973.907">−</text><path d="M2482.85 962.176C2481.68 962.176 2480.59 962.429 2479.59 962.935 2478.59 963.442 2477.67 964.137 2476.84 965.02 2476 965.904 2475.26 966.926 2474.6 968.088 2473.95 969.25 2473.4 970.491 2472.95 971.811 2472.5 973.132 2472.17 974.482 2471.94 975.862 2471.71 977.242 2471.59 978.587 2471.59 979.898 2471.59 982.042 2471.9 983.636 2472.5 984.678 2473.11 985.721 2474.09 986.242 2475.44 986.242 2476.35 986.242 2477.36 985.934 2478.48 985.319 2479.59 984.703 2480.66 983.815 2481.71 982.653 2482.75 981.491 2483.71 980.077 2484.58 978.409 2485.45 976.741 2486.11 974.864 2486.55 972.779 2486.77 971.707 2486.96 970.635 2487.14 969.562 2487.32 968.49 2487.41 967.507 2487.41 966.614 2487.41 965.005 2487.05 963.864 2486.32 963.188 2485.6 962.513 2484.44 962.176 2482.85 962.176ZM2495.96 948.981 2497.48 948.981 2490.57 979.362C2490.29 980.533 2490.11 981.467 2490.02 982.162 2489.93 982.857 2489.88 983.482 2489.88 984.038 2489.88 984.793 2490.04 985.339 2490.34 985.676 2490.65 986.014 2491.09 986.183 2491.67 986.183 2492.03 986.183 2492.38 986.113 2492.73 985.974 2493.07 985.835 2493.45 985.617 2493.86 985.319 2494.27 985.021 2494.71 984.639 2495.2 984.172 2495.69 983.705 2496.24 983.144 2496.85 982.489 2497.17 982.827 2497.5 983.159 2497.84 983.487 2498.17 983.815 2498.5 984.137 2498.82 984.455 2497.83 985.468 2496.92 986.336 2496.11 987.061 2495.29 987.786 2494.5 988.382 2493.74 988.848 2492.98 989.315 2492.23 989.653 2491.49 989.861 2490.76 990.07 2489.99 990.174 2489.2 990.174 2487.77 990.174 2486.66 989.712 2485.86 988.789 2485.07 987.865 2484.67 986.6 2484.67 984.991 2484.67 984.098 2484.81 983.244 2485.09 982.43L2484.67 982.251C2483.66 983.661 2482.67 984.862 2481.72 985.855 2480.77 986.848 2479.83 987.667 2478.89 988.312 2477.96 988.958 2477.02 989.429 2476.06 989.727 2475.11 990.025 2474.12 990.174 2473.08 990.174 2470.72 990.174 2468.89 989.325 2467.6 987.627 2466.31 985.929 2465.67 983.462 2465.67 980.226 2465.67 978.299 2465.87 976.448 2466.28 974.671 2466.69 972.893 2467.26 971.225 2468.01 969.667 2468.75 968.108 2469.64 966.688 2470.67 965.407 2471.7 964.127 2472.84 963.03 2474.07 962.116 2475.3 961.203 2476.61 960.493 2478 959.987 2479.39 959.48 2480.83 959.227 2482.32 959.227 2483.63 959.227 2484.83 959.356 2485.92 959.614 2487.01 959.872 2488.06 960.389 2489.05 961.163 2489.39 959.912 2489.65 958.845 2489.85 957.961 2490.05 957.078 2490.22 956.263 2490.34 955.519 2490.47 954.774 2490.54 954.154 2490.54 953.657 2490.54 953.24 2490.48 952.893 2490.37 952.615 2490.27 952.337 2490.07 952.108 2489.79 951.93 2489.52 951.751 2489.12 951.622 2488.62 951.542 2488.11 951.463 2487.47 951.403 2486.7 951.364L2487.08 949.338Z" fill-rule="evenodd"/><text fill="#000000" fill-opacity="0" font-family="Arial,Arial_MSFontService,sans-serif" font-size="41.1929" x="2465.67" y="985.025">𝑑</text><path d="M2524.69 992.891 2519.66 1016.11C2521.31 1016.22 2523.34 1016.28 2525.74 1016.28 2529.85 1016.28 2532.93 1015.81 2535 1014.88 2537.07 1013.95 2538.84 1012.29 2540.33 1009.91 2541.82 1007.53 2542.56 1004.6 2542.56 1001.12 2542.56 998.389 2541.66 996.336 2539.86 994.958 2538.07 993.58 2535.39 992.891 2531.82 992.891ZM2536.68 968.088C2534.33 968.088 2532.14 968.129 2530.12 968.21L2525.54 989.325 2531.25 989.325C2534.44 989.325 2536.97 989.068 2538.85 988.555 2540.73 988.041 2542.38 987.123 2543.81 985.799 2545.25 984.475 2546.29 983.023 2546.94 981.442 2547.58 979.862 2547.91 978.031 2547.91 975.951 2547.91 974.789 2547.71 973.701 2547.3 972.688 2546.9 971.675 2546.2 970.81 2545.21 970.094 2544.23 969.378 2543.09 968.865 2541.81 968.554 2540.53 968.244 2538.82 968.088 2536.68 968.088ZM2518.49 964.522 2538.55 964.522C2542.6 964.522 2545.85 964.948 2548.29 965.799 2550.74 966.65 2552.54 967.899 2553.68 969.547 2554.83 971.195 2555.41 973.262 2555.41 975.748 2555.41 979.287 2554.32 982.374 2552.16 985.009 2550 987.643 2546.79 989.662 2542.52 991.067L2542.44 991.513C2544.95 992.513 2546.88 993.938 2548.23 995.789 2549.58 997.64 2550.26 999.74 2550.26 1002.09 2550.26 1005.68 2549.43 1008.76 2547.79 1011.31 2546.14 1013.86 2543.67 1015.92 2540.37 1017.49 2537.07 1019.06 2532.25 1019.84 2525.9 1019.84L2507.87 1019.84 2508.31 1017.86C2509.34 1017.69 2510.11 1017.43 2510.62 1017.07 2511.14 1016.7 2511.57 1016.19 2511.92 1015.55 2512.27 1014.9 2512.6 1014.11 2512.89 1013.18 2513.19 1012.24 2513.64 1010.44 2514.23 1007.76L2521.12 976.559C2521.71 973.857 2522.01 971.722 2522.01 970.155 2522.01 968.831 2521.7 967.913 2521.08 967.399 2520.46 966.886 2519.44 966.589 2518.04 966.508Z" fill-rule="evenodd"/><text fill="#000000" fill-opacity="0" font-family="Arial,Arial_MSFontService,sans-serif" font-size="55.3198" x="2507.87" y="1012.93">𝐵</text><path d="M2728.17 957.728C2736.06 959.808 2742.12 964.3 2746.35 971.203 2750.57 978.106 2752.69 986.435 2752.69 996.188 2752.69 1005.97 2750.58 1014.3 2746.37 1021.17 2742.15 1028.05 2736.08 1032.53 2728.17 1034.61L2727.2 1031.49C2733.44 1029.41 2738.08 1025.3 2741.12 1019.17 2744.16 1013.03 2745.68 1005.24 2745.68 995.783 2745.68 986.651 2744.16 979.065 2741.14 973.027 2738.11 966.988 2733.42 962.929 2727.07 960.848ZM2594.02 957.728 2595.12 960.848C2588.79 962.929 2584.11 966.988 2581.07 973.027 2578.03 979.065 2576.51 986.651 2576.51 995.783 2576.51 1005.24 2578.03 1013.03 2581.07 1019.17 2584.11 1025.3 2588.75 1029.41 2594.99 1031.49L2594.02 1034.61C2586.1 1032.53 2580.04 1028.05 2575.82 1021.17 2571.61 1014.3 2569.5 1005.97 2569.5 996.188 2569.5 986.435 2571.62 978.106 2575.84 971.203 2580.07 964.3 2586.13 959.808 2594.02 957.728Z" fill-rule="evenodd"/><path d="M2622.34 983.61C2619.59 983.61 2617.11 984.725 2614.93 986.954 2612.74 989.183 2611.01 992.189 2609.76 995.971 2608.5 999.754 2607.87 1003.52 2607.87 1007.28 2607.87 1010.09 2608.26 1012.19 2609.03 1013.58 2609.8 1014.97 2611.09 1015.67 2612.9 1015.67 2613.74 1015.67 2614.59 1015.49 2615.45 1015.12 2616.32 1014.76 2617.21 1014.17 2618.15 1013.36 2619.08 1012.55 2620 1011.56 2620.9 1010.4 2621.81 1009.24 2622.64 1008.07 2623.4 1006.89 2624.15 1005.72 2624.85 1004.33 2625.5 1002.72 2626.15 1001.11 2626.71 999.173 2627.16 996.903L2627.53 995.161C2627.93 993.215 2628.14 991.378 2628.14 989.649 2628.14 987.542 2627.69 986.008 2626.8 985.049 2625.91 984.09 2624.42 983.61 2622.34 983.61ZM2621.61 980.409C2623.29 980.409 2624.88 980.605 2626.39 980.996 2627.91 981.388 2629.47 982.084 2631.1 983.083L2634.82 980.409 2637.42 981.057 2627.04 1027.14C2626.58 1029.19 2626.35 1030.73 2626.35 1031.76 2626.35 1032.95 2626.66 1033.79 2627.27 1034.29 2627.87 1034.79 2629.07 1035.12 2630.85 1035.28L2630.49 1037.27 2617.84 1037.27 2624.81 1010.68 2624.25 1010.44C2621.92 1013.71 2619.55 1016.19 2617.13 1017.9 2614.72 1019.6 2612.36 1020.45 2610.06 1020.45 2607.09 1020.45 2604.79 1019.33 2603.15 1017.09 2601.52 1014.84 2600.7 1011.7 2600.7 1007.64 2600.7 1003 2601.61 998.531 2603.44 994.249 2605.26 989.966 2607.77 986.589 2610.95 984.117 2614.14 981.645 2617.69 980.409 2621.61 980.409Z" fill-rule="evenodd"/><text fill="#000000" fill-opacity="0" font-family="Arial,Arial_MSFontService,sans-serif" font-size="56.8599" x="2600.7" y="1030.16">𝑞</text><path d="M2648.66 969.92 2682.98 969.92 2682.98 974.477 2648.66 974.477Z" fill-rule="evenodd"/><text fill="#000000" fill-opacity="0" font-family="Arial,Arial_MSFontService,sans-serif" font-size="4.55713" x="2648.66" y="973.907">−</text><path d="M2707.28 951.274 2709.09 951.274C2709.05 952.366 2709.02 953.344 2709 954.208 2708.98 955.072 2708.97 955.911 2708.96 956.725 2708.95 957.539 2708.94 958.343 2708.94 959.138L2708.94 981.774C2708.94 982.39 2708.96 982.921 2709 983.368 2709.04 983.815 2709.11 984.192 2709.2 984.5 2709.29 984.807 2709.41 985.071 2709.56 985.289 2709.7 985.507 2709.88 985.696 2710.08 985.855 2710.31 986.093 2710.63 986.277 2711.03 986.406 2711.43 986.535 2711.93 986.644 2712.55 986.734 2713.16 986.823 2713.9 986.892 2714.77 986.942 2715.63 986.992 2716.67 987.026 2717.88 987.046L2717.88 989.638 2694.26 989.638 2694.26 987.046C2695.43 987.007 2696.42 986.962 2697.24 986.912 2698.05 986.863 2698.75 986.793 2699.32 986.704 2699.9 986.614 2700.36 986.515 2700.71 986.406 2701.06 986.297 2701.36 986.163 2701.62 986.004 2701.9 985.825 2702.13 985.632 2702.33 985.423 2702.53 985.215 2702.69 984.951 2702.81 984.634 2702.93 984.316 2703.02 983.929 2703.09 983.472 2703.16 983.015 2703.2 982.449 2703.2 981.774L2703.2 960.418C2703.2 959.644 2703.05 959.098 2702.75 958.78 2702.45 958.463 2702.02 958.304 2701.47 958.304 2700.85 958.304 2699.94 958.621 2698.73 959.257 2697.52 959.892 2695.95 960.835 2694.02 962.086 2693.76 961.63 2693.53 961.173 2693.31 960.716 2693.09 960.26 2692.86 959.793 2692.62 959.316 2695.08 957.966 2697.52 956.621 2699.93 955.28 2702.35 953.94 2704.79 952.605 2707.28 951.274Z" fill-rule="evenodd"/><text fill="#000000" fill-opacity="0" font-family="Arial,Arial_MSFontService,sans-serif" font-size="38.3633" x="2692.62" y="984.842">1</text><path d="M2473.98 1090.06 2459.55 1115.59 2475.4 1115.59 2474.71 1102.54C2474.63 1100.76 2474.56 1098.53 2474.51 1095.85 2474.46 1093.18 2474.43 1091.24 2474.43 1090.06ZM2474.23 1081.5 2480.35 1081.5 2483.26 1126.69C2483.4 1128.83 2483.64 1130.5 2483.99 1131.7 2484.34 1132.9 2484.82 1133.79 2485.43 1134.37 2486.04 1134.95 2486.92 1135.33 2488.09 1135.49L2487.64 1137.47 2470.78 1137.47 2471.23 1135.49C2472.82 1135.35 2474.01 1134.73 2474.79 1133.62 2475.58 1132.52 2475.97 1130.57 2475.97 1127.79 2475.97 1126.73 2475.93 1125.58 2475.85 1124.34L2475.56 1119.11 2457.73 1119.11 2455.5 1123.09C2454.45 1124.95 2453.68 1126.55 2453.19 1127.89 2452.71 1129.23 2452.46 1130.41 2452.46 1131.43 2452.46 1133.7 2453.83 1135.05 2456.56 1135.49L2456.11 1137.47 2439.53 1137.47 2439.98 1135.49C2440.82 1135.38 2441.61 1135.05 2442.35 1134.49 2443.09 1133.94 2443.88 1133.1 2444.72 1131.98 2445.56 1130.86 2446.73 1129 2448.25 1126.41Z" fill-rule="evenodd"/><text fill="#000000" fill-opacity="0" font-family="Arial,Arial_MSFontService,sans-serif" font-size="55.9683" x="2439.53" y="1130.48">𝐴</text><path d="M2524.81 1078.91 2525.91 1082.03C2519.58 1084.11 2514.9 1088.17 2511.86 1094.21 2508.82 1100.25 2507.3 1107.83 2507.3 1116.97 2507.3 1126.42 2508.82 1134.22 2511.86 1140.35 2514.9 1146.48 2519.54 1150.59 2525.79 1152.67L2524.81 1155.79C2516.9 1153.71 2510.83 1149.23 2506.62 1142.36 2502.4 1135.48 2500.29 1127.15 2500.29 1117.37 2500.29 1107.62 2502.41 1099.29 2506.64 1092.39 2510.86 1085.48 2516.92 1080.99 2524.81 1078.91Z" fill-rule="evenodd"/><text fill="#000000" fill-opacity="0" font-family="Arial,Arial_MSFontService,sans-serif" font-size="76.8804" x="2500.29" y="1146.18">(</text><path d="M2553.27 1101.24C2550.51 1101.24 2548.04 1102.36 2545.85 1104.59 2543.67 1106.81 2541.94 1109.82 2540.69 1113.6 2539.43 1117.39 2538.8 1121.15 2538.8 1124.91 2538.8 1127.72 2539.19 1129.82 2539.96 1131.21 2540.73 1132.6 2542.02 1133.3 2543.83 1133.3 2544.67 1133.3 2545.52 1133.12 2546.38 1132.75 2547.25 1132.39 2548.14 1131.8 2549.08 1130.99 2550.01 1130.18 2550.93 1129.19 2551.83 1128.03 2552.74 1126.87 2553.57 1125.7 2554.32 1124.52 2555.08 1123.35 2555.78 1121.96 2556.43 1120.35 2557.08 1118.74 2557.63 1116.8 2558.09 1114.53L2558.46 1112.79C2558.86 1110.85 2559.07 1109.01 2559.07 1107.28 2559.07 1105.17 2558.62 1103.64 2557.73 1102.68 2556.84 1101.72 2555.35 1101.24 2553.27 1101.24ZM2552.54 1098.04C2554.22 1098.04 2555.81 1098.24 2557.32 1098.63 2558.84 1099.02 2560.4 1099.72 2562.02 1100.71L2565.75 1098.04 2568.35 1098.69 2557.97 1144.77C2557.51 1146.82 2557.28 1148.36 2557.28 1149.39 2557.28 1150.58 2557.59 1151.42 2558.19 1151.92 2558.8 1152.42 2560 1152.75 2561.78 1152.91L2561.42 1154.9 2548.77 1154.9 2555.74 1128.31 2555.18 1128.07C2552.85 1131.34 2550.48 1133.83 2548.06 1135.53 2545.64 1137.23 2543.29 1138.08 2540.99 1138.08 2538.02 1138.08 2535.72 1136.96 2534.08 1134.72 2532.45 1132.47 2531.63 1129.33 2531.63 1125.27 2531.63 1120.63 2532.54 1116.16 2534.36 1111.88 2536.19 1107.6 2538.69 1104.22 2541.88 1101.75 2545.07 1099.28 2548.62 1098.04 2552.54 1098.04Z" fill-rule="evenodd"/><text fill="#000000" fill-opacity="0" font-family="Arial,Arial_MSFontService,sans-serif" font-size="56.8599" x="2531.63" y="1147.79">𝑞</text><path d="M2579.59 1092.98 2613.91 1092.98 2613.91 1097.54 2579.59 1097.54Z" fill-rule="evenodd"/><text fill="#000000" fill-opacity="0" font-family="Arial,Arial_MSFontService,sans-serif" font-size="4.55713" x="2579.59" y="1096.97">−</text><path d="M2638.21 1074.34 2640.02 1074.34C2639.98 1075.43 2639.95 1076.41 2639.93 1077.27 2639.91 1078.13 2639.9 1078.97 2639.89 1079.79 2639.88 1080.6 2639.87 1081.41 2639.87 1082.2L2639.87 1104.84C2639.87 1105.45 2639.89 1105.98 2639.93 1106.43 2639.97 1106.88 2640.04 1107.25 2640.13 1107.56 2640.22 1107.87 2640.34 1108.13 2640.48 1108.35 2640.63 1108.57 2640.81 1108.76 2641.01 1108.92 2641.24 1109.16 2641.56 1109.34 2641.96 1109.47 2642.36 1109.6 2642.86 1109.71 2643.48 1109.8 2644.09 1109.89 2644.83 1109.95 2645.7 1110 2646.56 1110.05 2647.6 1110.09 2648.81 1110.11L2648.81 1112.7 2625.19 1112.7 2625.19 1110.11C2626.36 1110.07 2627.35 1110.02 2628.17 1109.97 2628.98 1109.93 2629.68 1109.86 2630.25 1109.77 2630.83 1109.68 2631.29 1109.58 2631.64 1109.47 2631.99 1109.36 2632.29 1109.23 2632.55 1109.07 2632.82 1108.89 2633.06 1108.69 2633.26 1108.49 2633.46 1108.28 2633.62 1108.01 2633.74 1107.7 2633.86 1107.38 2633.95 1106.99 2634.02 1106.53 2634.09 1106.08 2634.13 1105.51 2634.13 1104.84L2634.13 1083.48C2634.13 1082.71 2633.98 1082.16 2633.68 1081.84 2633.38 1081.52 2632.95 1081.37 2632.4 1081.37 2631.78 1081.37 2630.87 1081.68 2629.66 1082.32 2628.45 1082.95 2626.88 1083.9 2624.95 1085.15 2624.69 1084.69 2624.46 1084.24 2624.24 1083.78 2624.02 1083.32 2623.79 1082.86 2623.55 1082.38 2626.01 1081.03 2628.45 1079.68 2630.86 1078.34 2633.28 1077 2635.72 1075.67 2638.21 1074.34Z" fill-rule="evenodd"/><text fill="#000000" fill-opacity="0" font-family="Arial,Arial_MSFontService,sans-serif" font-size="38.3633" x="2623.55" y="1107.9">1</text><path d="M2659.1 1078.91C2666.99 1080.99 2673.05 1085.48 2677.27 1092.39 2681.5 1099.29 2683.62 1107.62 2683.62 1117.37 2683.62 1127.15 2681.51 1135.48 2677.29 1142.36 2673.08 1149.23 2667.01 1153.71 2659.1 1155.79L2658.12 1152.67C2664.37 1150.59 2669.01 1146.48 2672.05 1140.35 2675.09 1134.22 2676.61 1126.42 2676.61 1116.97 2676.61 1107.83 2675.09 1100.25 2672.07 1094.21 2669.04 1088.17 2664.35 1084.11 2658 1082.03Z" fill-rule="evenodd"/><text fill="#000000" fill-opacity="0" font-family="Arial,Arial_MSFontService,sans-serif" font-size="76.8804" x="2658" y="1146.18">)</text><path d="M2371.49 1056.3 2468.74 1056.3 2565.99 1056.3 2663.24 1056.3 2760.49 1056.3 2760.49 1061.3 2663.24 1061.3 2565.99 1061.3 2468.74 1061.3 2371.49 1061.3Z" fill-rule="evenodd"/><path d="M2058.5 1052.21 2298.19 1052.21 2298.19 1056.79 2058.5 1056.79ZM2293.61 1040.75 2321.11 1054.5 2293.61 1068.25Z"/><path d="M1523.5 1052.21 1700.88 1052.21 1700.88 1056.79 1523.5 1056.79ZM1696.3 1040.75 1723.8 1054.5 1696.3 1068.25Z"/><path d="M2803.5 1052.21 3057.21 1052.21 3057.21 1056.79 2803.5 1056.79ZM3052.63 1040.75 3080.13 1054.5 3052.63 1068.25Z"/><path d="M3243.5 1052.21 3566.29 1052.21 3566.29 1056.79 3243.5 1056.79ZM3561.71 1040.75 3589.21 1054.5 3561.71 1068.25Z"/><path d="M453.086 984.087 469.581 984.087 469.581 986.072C468.311 986.37 467.419 986.66 466.906 986.944 466.393 987.227 466.014 987.592 465.771 988.038 465.528 988.484 465.406 989.058 465.406 989.76 465.406 990.49 465.494 991.246 465.67 992.03 465.845 992.813 466.122 993.732 466.501 994.786L473.715 1015.09 481.82 995.637C482.279 994.556 482.637 993.563 482.894 992.658 483.151 991.753 483.279 990.909 483.279 990.125 483.279 988.963 482.961 988.085 482.327 987.491 481.692 986.896 480.591 986.424 479.024 986.072L479.024 984.087 494.181 984.087 494.181 986.072C493.127 986.289 492.317 986.62 491.749 987.065 491.182 987.511 490.614 988.214 490.047 989.173 489.48 990.132 488.804 991.476 488.021 993.205L473.35 1026.15C471.864 1029.5 470.418 1032.22 469.013 1034.3 467.608 1036.38 466.062 1037.95 464.373 1039 462.684 1040.05 460.678 1040.58 458.355 1040.58 456.869 1040.58 455.194 1040.41 453.329 1040.05L453.329 1032.03 456.936 1032.03C457.26 1033.14 457.666 1033.91 458.152 1034.34 458.638 1034.77 459.341 1034.99 460.259 1034.99 461.07 1034.99 461.793 1034.83 462.428 1034.52 463.063 1034.21 463.725 1033.68 464.413 1032.92 465.102 1032.17 465.913 1031 466.845 1029.44 467.777 1027.87 468.824 1025.88 469.986 1023.48L458.638 992.962C457.909 990.99 457.321 989.612 456.875 988.828 456.43 988.045 455.95 987.45 455.437 987.045 454.923 986.64 454.14 986.316 453.086 986.072Z" fill-rule="evenodd"/><text fill="#000000" fill-opacity="0" font-family="Arial,Arial_MSFontService,sans-serif" font-size="56.4951" x="453.086" y="1033.52">y</text><path d="M504.94 1009.26C506.41 1009.26 507.546 1009.75 508.351 1010.71 509.155 1011.67 509.557 1012.94 509.557 1014.51 509.557 1015.4 509.418 1016.19 509.14 1016.89L509.557 1017.07C511.562 1014.39 513.513 1012.42 515.41 1011.16 517.306 1009.89 519.257 1009.26 521.263 1009.26 522.017 1009.26 522.727 1009.3 523.392 1009.38 524.057 1009.46 524.698 1009.56 525.313 1009.68L523.794 1016.89 520.339 1016.89C520.24 1015.7 519.987 1014.84 519.58 1014.33 519.173 1013.81 518.582 1013.55 517.807 1013.55 517.351 1013.53 516.825 1013.67 516.229 1013.97 515.633 1014.27 515.003 1014.69 514.337 1015.25 513.672 1015.81 513.012 1016.46 512.357 1017.22 511.701 1017.97 511.081 1018.8 510.495 1019.69 509.909 1020.58 509.398 1021.53 508.961 1022.53 508.524 1023.54 508.197 1024.54 507.978 1025.56L504.94 1039.67 499.102 1039.67 503.57 1020.25C503.848 1019.1 504.042 1018.15 504.151 1017.4 504.26 1016.64 504.315 1016.01 504.315 1015.49 504.315 1014.04 503.729 1013.31 502.557 1013.31 502.18 1013.31 501.808 1013.39 501.44 1013.54 501.073 1013.69 500.691 1013.91 500.294 1014.21 499.897 1014.51 499.46 1014.88 498.983 1015.34 498.507 1015.8 497.971 1016.33 497.375 1016.95L495.32 1015.01C496.312 1014 497.221 1013.13 498.045 1012.41 498.869 1011.68 499.658 1011.09 500.413 1010.62 501.167 1010.15 501.912 1009.81 502.647 1009.59 503.382 1009.37 504.146 1009.26 504.94 1009.26Z" fill-rule="evenodd"/><text fill="#000000" fill-opacity="0" font-family="Arial,Arial_MSFontService,sans-serif" font-size="30.4106" x="495.32" y="1035.87">𝑟</text><path d="M563.312 964.269 564.407 967.389C558.084 969.47 553.404 973.529 550.364 979.568 547.324 985.606 545.805 993.192 545.805 1002.32 545.805 1011.78 547.324 1019.58 550.364 1025.71 553.404 1031.84 558.044 1035.95 564.285 1038.03L563.312 1041.15C555.396 1039.07 549.331 1034.59 545.116 1027.71 540.901 1020.84 538.793 1012.51 538.793 1002.73 538.793 992.976 540.908 984.647 545.136 977.744 549.364 970.841 555.423 966.349 563.312 964.269Z" fill-rule="evenodd"/><text fill="#000000" fill-opacity="0" font-family="Arial,Arial_MSFontService,sans-serif" font-size="76.8804" x="538.793" y="1031.54">(</text><path d="M586.988 964.877 589.339 964.877 581.395 1000.26 582.692 1000.26C584.719 1000.26 586.995 999.372 589.521 997.602 592.047 995.833 594.067 994.191 595.58 992.678 597.093 991.165 597.85 989.706 597.85 988.301 597.85 986.977 596.931 986.234 595.094 986.072L595.539 984.087 608.67 984.087 609.44 986.072C607.198 988.099 604.82 990.085 602.308 992.03L592.257 999.811 596.228 1014.44C596.553 1015.68 596.843 1016.58 597.1 1017.14 597.356 1017.69 597.654 1018.1 597.991 1018.37 598.329 1018.64 598.782 1018.78 599.349 1018.78 600.052 1018.78 600.889 1018.4 601.862 1017.64 602.834 1016.89 603.942 1015.79 605.185 1014.36L607.495 1016.63C605.063 1019.2 603.051 1020.98 601.456 1021.98 599.862 1022.98 598.322 1023.48 596.836 1023.48 594.999 1023.48 593.54 1022.96 592.459 1021.92 591.379 1020.88 590.528 1019.14 589.906 1016.71L587.231 1006.17C586.961 1005.12 586.691 1004.39 586.421 1003.99 586.151 1003.58 585.84 1003.31 585.489 1003.17 585.137 1003.04 584.516 1002.97 583.624 1002.97L580.828 1002.97 576.613 1022.83 569.602 1022.83 580.018 976.508C580.369 974.941 580.619 973.718 580.767 972.84 580.916 971.962 580.99 971.185 580.99 970.51 580.99 969.375 580.646 968.578 579.957 968.119 579.268 967.659 578.032 967.403 576.248 967.349L576.735 965.241Z" fill-rule="evenodd"/><text fill="#000000" fill-opacity="0" font-family="Arial,Arial_MSFontService,sans-serif" font-size="58.6025" x="569.602" y="1016.15">𝑘</text><path d="M659.999 973.063 665.754 973.063 665.754 996.407 687.842 996.407 687.842 1001.8 665.754 1001.8 665.754 1025.14 659.999 1025.14 659.999 1001.8 637.912 1001.8 637.912 996.407 659.999 996.407Z" fill-rule="evenodd"/><text fill="#000000" fill-opacity="0" font-family="Arial,Arial_MSFontService,sans-serif" font-size="52.0776" x="637.912" y="1018.63">+</text><path d="M737.979 986.599C735.223 986.599 732.751 987.714 730.562 989.943 728.374 992.172 726.651 995.178 725.395 998.96 724.139 1002.74 723.51 1006.51 723.51 1010.27 723.51 1013.08 723.896 1015.18 724.666 1016.57 725.436 1017.96 726.726 1018.66 728.536 1018.66 729.373 1018.66 730.225 1018.47 731.089 1018.11 731.954 1017.74 732.852 1017.16 733.784 1016.35 734.716 1015.54 735.635 1014.55 736.54 1013.39 737.445 1012.23 738.276 1011.06 739.032 1009.88 739.789 1008.71 740.491 1007.32 741.14 1005.71 741.788 1004.1 742.342 1002.16 742.802 999.892L743.166 998.15C743.572 996.204 743.774 994.367 743.774 992.638 743.774 990.53 743.328 988.997 742.437 988.038 741.545 987.079 740.059 986.599 737.979 986.599ZM754.96 964.877 757.351 964.877 747.26 1009.74C746.665 1012.39 746.368 1014.39 746.368 1015.74 746.368 1016.82 746.544 1017.6 746.895 1018.09 747.246 1018.58 747.8 1018.82 748.556 1018.82 749.367 1018.82 750.232 1018.49 751.15 1017.83 752.069 1017.16 753.366 1015.9 755.041 1014.04L757.351 1016.31C754.865 1018.93 752.771 1020.78 751.069 1021.86 749.367 1022.94 747.53 1023.48 745.557 1023.48 743.882 1023.48 742.545 1022.93 741.545 1021.82 740.545 1020.71 740.046 1019.24 740.046 1017.4 740.046 1015.91 740.356 1014.33 740.978 1012.66L740.451 1012.5C737.857 1016.28 735.398 1019.05 733.075 1020.8 730.751 1022.56 728.293 1023.44 725.699 1023.44 722.727 1023.44 720.424 1022.32 718.789 1020.07 717.154 1017.83 716.337 1014.68 716.337 1010.63 716.337 1005.98 717.249 1001.52 719.073 997.238 720.896 992.955 723.402 989.578 726.591 987.106 729.779 984.634 733.332 983.398 737.249 983.398 738.897 983.398 740.417 983.566 741.809 983.904 743.2 984.242 744.625 984.83 746.084 985.667L748.192 976.305C748.408 975.414 748.597 974.428 748.759 973.347 748.921 972.266 749.002 971.32 749.002 970.51 749.002 969.699 748.854 969.085 748.556 968.666 748.259 968.247 747.834 967.943 747.28 967.754 746.726 967.565 745.733 967.43 744.301 967.349L744.787 965.241Z" fill-rule="evenodd"/><text fill="#000000" fill-opacity="0" font-family="Arial,Arial_MSFontService,sans-serif" font-size="58.6025" x="716.337" y="1016.15">𝑑</text><path d="M764.881 964.269C772.77 966.349 778.829 970.841 783.057 977.744 787.286 984.647 789.4 992.976 789.4 1002.73 789.4 1012.51 787.292 1020.84 783.077 1027.71 778.863 1034.59 772.797 1039.07 764.881 1041.15L763.908 1038.03C770.149 1035.95 774.79 1031.84 777.829 1025.71 780.869 1019.58 782.388 1011.78 782.388 1002.32 782.388 993.192 780.875 985.606 777.849 979.568 774.823 973.529 770.136 969.47 763.786 967.389Z" fill-rule="evenodd"/><text fill="#000000" fill-opacity="0" font-family="Arial,Arial_MSFontService,sans-serif" font-size="76.8804" x="763.786" y="1031.54">)</text><path d="M1483.55 1202.37 1533.48 1202.37 1533.48 1207.76 1483.55 1207.76Z" fill-rule="evenodd"/><text fill="#000000" fill-opacity="0" font-family="Arial,Arial_MSFontService,sans-serif" font-size="5.39014" x="1483.55" y="1207.09">−</text><path d="M2115.96 983.706C2117.69 983.706 2119.06 984.287 2120.06 985.449 2121.06 986.611 2121.56 988.178 2121.56 990.15 2121.56 992.285 2121.14 994.946 2120.3 998.134L2118.52 1005.15C2118.06 1006.93 2117.73 1008.32 2117.52 1009.32 2117.32 1010.32 2117.17 1011.18 2117.08 1011.91 2116.98 1012.64 2116.94 1013.25 2116.94 1013.74 2116.94 1015.6 2117.25 1016.95 2117.87 1017.77 2118.49 1018.59 2119.5 1019.01 2120.91 1019.01 2122.04 1019.01 2123.27 1018.55 2124.58 1017.65 2125.89 1016.74 2127.28 1015.38 2128.75 1013.55 2130.22 1011.73 2131.41 1009.96 2132.3 1008.25 2133.19 1006.53 2133.92 1004.42 2134.49 1001.9L2138.34 984.355 2145.35 984.355 2139.43 1010.05C2138.84 1012.64 2138.54 1014.64 2138.54 1016.05 2138.54 1017.13 2138.71 1017.91 2139.07 1018.4 2139.42 1018.88 2139.97 1019.13 2140.73 1019.13 2141.54 1019.13 2142.4 1018.8 2143.32 1018.13 2144.24 1017.47 2145.54 1016.21 2147.21 1014.35L2149.52 1016.61C2147.06 1019.24 2144.97 1021.09 2143.24 1022.17 2141.51 1023.25 2139.67 1023.79 2137.73 1023.79 2136.05 1023.79 2134.72 1023.23 2133.72 1022.13 2132.72 1021.02 2132.22 1019.55 2132.22 1017.71 2132.22 1016.25 2132.54 1014.66 2133.19 1012.93L2132.7 1012.76C2130.03 1016.52 2127.49 1019.29 2125.1 1021.07 2122.71 1022.86 2120.26 1023.75 2117.75 1023.75 2115.24 1023.75 2113.3 1023.02 2111.95 1021.58 2110.6 1020.13 2109.93 1018.13 2109.93 1015.56 2109.93 1013.86 2110.32 1011.44 2111.1 1008.31L2113.74 997.688C2114.47 994.743 2114.83 992.663 2114.83 991.447 2114.83 990.366 2114.65 989.583 2114.3 989.097 2113.95 988.61 2113.4 988.367 2112.64 988.367 2111.8 988.367 2110.92 988.712 2109.99 989.401 2109.05 990.09 2107.78 991.339 2106.16 993.149L2103.85 990.88C2106.14 988.556 2107.87 986.962 2109.03 986.098 2110.2 985.233 2111.31 984.618 2112.38 984.254 2113.45 983.889 2114.64 983.706 2115.96 983.706Z" fill-rule="evenodd"/><text fill="#000000" fill-opacity="0" font-family="Arial,Arial_MSFontService,sans-serif" font-size="40.0815" x="2103.85" y="1018.78">𝑢</text><path d="M2184.33 964.578 2185.42 967.698C2179.1 969.779 2174.42 973.838 2171.38 979.877 2168.34 985.915 2166.82 993.501 2166.82 1002.63 2166.82 1012.09 2168.34 1019.88 2171.38 1026.02 2174.42 1032.15 2179.06 1036.26 2185.3 1038.34L2184.33 1041.46C2176.41 1039.38 2170.34 1034.9 2166.13 1028.02 2161.91 1021.15 2159.81 1012.82 2159.81 1003.04 2159.81 993.284 2161.92 984.956 2166.15 978.053 2170.38 971.15 2176.44 966.658 2184.33 964.578Z" fill-rule="evenodd"/><text fill="#000000" fill-opacity="0" font-family="Arial,Arial_MSFontService,sans-serif" font-size="76.8803" x="2159.81" y="1031.85">(</text><path d="M2208 965.185 2210.35 965.185 2202.41 1000.57 2203.71 1000.57C2205.73 1000.57 2208.01 999.681 2210.53 997.911 2213.06 996.142 2215.08 994.5 2216.59 992.987 2218.11 991.474 2218.86 990.015 2218.86 988.61 2218.86 987.286 2217.94 986.543 2216.11 986.381L2216.55 984.395 2229.68 984.395 2230.45 986.381C2228.21 988.408 2225.83 990.393 2223.32 992.339L2213.27 1000.12 2217.24 1014.75C2217.57 1015.99 2217.86 1016.89 2218.11 1017.45 2218.37 1018 2218.67 1018.41 2219 1018.68 2219.34 1018.95 2219.8 1019.09 2220.36 1019.09 2221.06 1019.09 2221.9 1018.71 2222.88 1017.95 2223.85 1017.2 2224.96 1016.1 2226.2 1014.67L2228.51 1016.94C2226.08 1019.51 2224.06 1021.29 2222.47 1022.29 2220.88 1023.29 2219.34 1023.79 2217.85 1023.79 2216.01 1023.79 2214.55 1023.27 2213.47 1022.23 2212.39 1021.19 2211.54 1019.45 2210.92 1017.02L2208.24 1006.48C2207.97 1005.43 2207.7 1004.7 2207.43 1004.29 2207.16 1003.89 2206.85 1003.62 2206.5 1003.48 2206.15 1003.35 2205.53 1003.28 2204.64 1003.28L2201.84 1003.28 2197.63 1023.14 2190.62 1023.14 2201.03 976.817C2201.38 975.25 2201.63 974.027 2201.78 973.149 2201.93 972.271 2202 971.494 2202 970.819 2202 969.684 2201.66 968.887 2200.97 968.428 2200.28 967.968 2199.05 967.712 2197.26 967.658L2197.75 965.55Z" fill-rule="evenodd"/><text fill="#000000" fill-opacity="0" font-family="Arial,Arial_MSFontService,sans-serif" font-size="58.6025" x="2190.62" y="1016.46">𝑘</text><path d="M2237.19 964.578C2245.08 966.658 2251.14 971.15 2255.36 978.053 2259.59 984.956 2261.71 993.284 2261.71 1003.04 2261.71 1012.82 2259.6 1021.15 2255.38 1028.02 2251.17 1034.9 2245.1 1039.38 2237.19 1041.46L2236.22 1038.34C2242.46 1036.26 2247.1 1032.15 2250.14 1026.02 2253.18 1019.88 2254.7 1012.09 2254.7 1002.63 2254.7 993.501 2253.18 985.915 2250.16 979.877 2247.13 973.838 2242.44 969.779 2236.09 967.698Z" fill-rule="evenodd"/><text fill="#000000" fill-opacity="0" font-family="Arial,Arial_MSFontService,sans-serif" font-size="76.8803" x="2236.09" y="1031.85">)</text><path d="M3232.9 420.85C3234.85 420.85 3236.26 421.357 3237.12 422.37 3237.98 423.383 3238.42 424.741 3238.42 426.443 3238.42 427.74 3238.19 429.226 3237.73 430.901 3237.27 432.576 3236.62 434.346 3235.78 436.21 3234.94 438.074 3233.95 439.986 3232.78 441.945 3231.62 443.903 3230.34 445.808 3228.93 447.659 3227.53 449.51 3226.03 451.252 3224.43 452.887 3222.84 454.522 3221.19 455.947 3219.47 457.163 3217.75 458.378 3216.01 459.344 3214.24 460.06 3212.47 460.776 3210.71 461.134 3208.95 461.134 3208.17 461.134 3207.51 460.938 3206.99 460.547 3206.46 460.155 3206.04 459.601 3205.71 458.885 3205.39 458.169 3205.16 457.325 3205.02 456.352 3204.89 455.379 3204.82 454.312 3204.82 453.15 3204.82 451.61 3204.91 449.962 3205.1 448.206 3205.29 446.45 3205.54 444.68 3205.83 442.897L3207.53 431.671C3207.64 431.022 3207.73 430.408 3207.8 429.827 3207.87 429.246 3207.9 428.82 3207.9 428.55 3207.9 427.713 3207.76 427.024 3207.49 426.483 3207.22 425.943 3206.76 425.673 3206.12 425.673 3205.6 425.673 3205.05 425.828 3204.45 426.139 3203.86 426.45 3203.26 426.848 3202.65 427.334 3202.04 427.821 3201.46 428.341 3200.89 428.895 3200.32 429.449 3199.79 429.969 3199.31 430.455L3197.36 428.185C3198.2 427.321 3199.09 426.463 3200.04 425.612 3200.98 424.761 3201.98 423.991 3203.04 423.302 3204.09 422.613 3205.2 422.059 3206.36 421.64 3207.52 421.222 3208.71 421.012 3209.93 421.012 3210.95 421.012 3211.79 421.181 3212.44 421.519 3213.09 421.856 3213.59 422.302 3213.96 422.856 3214.32 423.41 3214.57 424.018 3214.71 424.68 3214.84 425.342 3214.91 425.997 3214.91 426.645 3214.91 427.024 3214.9 427.388 3214.87 427.74 3214.84 428.091 3214.8 428.415 3214.75 428.712L3212.48 443.383C3212.24 444.923 3212.03 446.43 3211.87 447.902 3211.71 449.375 3211.63 450.678 3211.63 451.813 3211.63 452.948 3211.7 453.866 3211.83 454.569 3211.97 455.271 3212.22 455.622 3212.6 455.622 3213.49 455.622 3214.61 455.264 3215.96 454.549 3217.32 453.833 3218.73 452.846 3220.22 451.59 3221.71 450.334 3223.19 448.848 3224.68 447.132 3226.16 445.416 3227.5 443.559 3228.69 441.56 3229.88 439.56 3230.84 437.453 3231.59 435.237 3232.33 433.022 3232.7 430.793 3232.7 428.55 3232.7 427.578 3232.49 426.828 3232.07 426.301 3231.66 425.774 3231 425.511 3230.11 425.511 3228.97 425.511 3227.93 425.95 3226.97 426.828 3226.01 427.706 3225.02 428.861 3223.99 430.293L3221.68 428.226C3222.33 427.253 3223.09 426.321 3223.97 425.43 3224.85 424.538 3225.78 423.755 3226.76 423.079 3227.75 422.404 3228.77 421.863 3229.82 421.458 3230.88 421.053 3231.91 420.85 3232.9 420.85Z" fill-rule="evenodd"/><text fill="#000000" fill-opacity="0" font-family="Arial,Arial_MSFontService,sans-serif" font-size="40.2842" x="3197.36" y="456.099">𝑣</text><path d="M3273.43 401.883 3274.53 405.004C3268.21 407.084 3263.52 411.144 3260.48 417.182 3257.45 423.221 3255.93 430.806 3255.93 439.938 3255.93 449.395 3257.45 457.19 3260.48 463.323 3263.52 469.456 3268.16 473.563 3274.41 475.643L3273.43 478.764C3265.52 476.683 3259.45 472.205 3255.24 465.329 3251.02 458.453 3248.91 450.124 3248.91 440.344 3248.91 430.59 3251.03 422.262 3255.26 415.359 3259.48 408.455 3265.54 403.964 3273.43 401.883Z" fill-rule="evenodd"/><text fill="#000000" fill-opacity="0" font-family="Arial,Arial_MSFontService,sans-serif" font-size="76.8804" x="3248.91" y="469.154">(</text><path d="M3297.11 402.491 3299.46 402.491 3291.52 437.872 3292.81 437.872C3294.84 437.872 3297.12 436.987 3299.64 435.217 3302.17 433.447 3304.19 431.806 3305.7 430.293 3307.21 428.78 3307.97 427.321 3307.97 425.916 3307.97 424.592 3307.05 423.849 3305.21 423.687L3305.66 421.701 3318.79 421.701 3319.56 423.687C3317.32 425.713 3314.94 427.699 3312.43 429.644L3302.38 437.426 3306.35 452.056C3306.67 453.299 3306.96 454.197 3307.22 454.751 3307.48 455.305 3307.77 455.717 3308.11 455.987 3308.45 456.257 3308.9 456.393 3309.47 456.393 3310.17 456.393 3311.01 456.014 3311.98 455.258 3312.96 454.501 3314.06 453.407 3315.31 451.975L3317.62 454.245C3315.18 456.811 3313.17 458.595 3311.58 459.594 3309.98 460.594 3308.44 461.094 3306.96 461.094 3305.12 461.094 3303.66 460.574 3302.58 459.533 3301.5 458.493 3300.65 456.757 3300.03 454.326L3297.35 443.789C3297.08 442.735 3296.81 442.005 3296.54 441.6 3296.27 441.195 3295.96 440.925 3295.61 440.789 3295.26 440.654 3294.64 440.587 3293.75 440.587L3290.95 440.587 3286.73 460.445 3279.72 460.445 3290.14 414.122C3290.49 412.555 3290.74 411.333 3290.89 410.455 3291.04 409.577 3291.11 408.8 3291.11 408.124 3291.11 406.99 3290.77 406.193 3290.08 405.733 3289.39 405.274 3288.15 405.017 3286.37 404.963L3286.86 402.856Z" fill-rule="evenodd"/><text fill="#000000" fill-opacity="0" font-family="Arial,Arial_MSFontService,sans-serif" font-size="58.6025" x="3279.72" y="453.768">𝑘</text><path d="M3326.3 401.883C3334.18 403.964 3340.24 408.455 3344.47 415.359 3348.7 422.262 3350.81 430.59 3350.81 440.344 3350.81 450.124 3348.71 458.453 3344.49 465.329 3340.28 472.205 3334.21 476.683 3326.3 478.764L3325.32 475.643C3331.56 473.563 3336.2 469.456 3339.24 463.323 3342.28 457.19 3343.8 449.395 3343.8 439.938 3343.8 430.806 3342.29 423.221 3339.26 417.182 3336.24 411.144 3331.55 407.084 3325.2 405.004Z" fill-rule="evenodd"/><text fill="#000000" fill-opacity="0" font-family="Arial,Arial_MSFontService,sans-serif" font-size="76.8804" x="3325.2" y="469.154">)</text><path d="M3421.2 983.438C3422.3 983.438 3423.25 983.587 3424.03 983.884 3424.57 984.1 3425.11 984.458 3425.66 984.958 3426.2 985.458 3426.68 986.153 3427.09 987.045 3427.51 987.937 3427.88 988.936 3428.19 990.044 3428.5 991.152 3428.84 992.746 3429.22 994.826 3429.87 998.312 3430.5 1001.98 3431.11 1005.83 3431.71 1009.68 3432.23 1013.25 3432.67 1016.55 3435.29 1012.77 3437.51 1009.06 3439.33 1005.44 3441.16 1001.82 3442.47 998.676 3443.26 996.002 3444.06 993.327 3444.46 991.152 3444.46 989.477 3444.46 988.207 3444.19 987.342 3443.65 986.883 3443.11 986.424 3442.19 986.153 3440.89 986.072L3441.3 984.087 3451.96 984.087 3453.05 986.113C3451 991.733 3448.22 997.744 3444.7 1004.15 3441.24 1010.42 3437.29 1016.66 3432.83 1022.87 3428.56 1028.79 3425.01 1033.07 3422.17 1035.72 3420.2 1037.53 3418.29 1038.83 3416.46 1039.61 3415 1040.2 3413.44 1040.5 3411.79 1040.5 3411.23 1040.5 3410.57 1040.45 3409.83 1040.36 3409.09 1040.26 3408.51 1040.14 3408.11 1039.97L3409.85 1032.11 3413.05 1032.11C3413.05 1033.84 3413.65 1034.71 3414.83 1034.71 3416.4 1034.71 3418.23 1033.73 3420.31 1031.77 3422.39 1029.81 3424.83 1026.86 3427.64 1022.91 3426.86 1018.18 3425.79 1012.48 3424.44 1005.81 3423.01 998.676 3422.06 994.259 3421.6 992.557 3421.04 990.503 3420.44 989.193 3419.82 988.626 3419.44 988.274 3418.97 988.099 3418.4 988.099 3417.54 988.099 3416.73 988.45 3415.97 989.152 3415.21 989.855 3414.28 991.071 3413.17 992.8L3410.54 991.057C3412.4 988.274 3414.15 986.309 3415.77 985.161 3417.39 984.012 3419.2 983.438 3421.2 983.438Z" fill-rule="evenodd"/><text fill="#000000" fill-opacity="0" font-family="Arial,Arial_MSFontService,sans-serif" font-size="57.0625" x="3408.11" y="1033.37">𝑦</text><path d="M3487.46 964.269 3488.56 967.389C3482.24 969.47 3477.56 973.529 3474.52 979.568 3471.48 985.606 3469.96 993.192 3469.96 1002.32 3469.96 1011.78 3471.48 1019.58 3474.52 1025.71 3477.56 1031.84 3482.2 1035.95 3488.44 1038.03L3487.46 1041.15C3479.55 1039.07 3473.48 1034.59 3469.27 1027.71 3465.05 1020.84 3462.95 1012.51 3462.95 1002.73 3462.95 992.976 3465.06 984.647 3469.29 977.744 3473.52 970.841 3479.57 966.349 3487.46 964.269Z" fill-rule="evenodd"/><text fill="#000000" fill-opacity="0" font-family="Arial,Arial_MSFontService,sans-serif" font-size="76.8804" x="3462.95" y="1031.54">(</text><path d="M3511.14 964.877 3513.49 964.877 3505.55 1000.26 3506.84 1000.26C3508.87 1000.26 3511.15 999.372 3513.67 997.602 3516.2 995.833 3518.22 994.191 3519.73 992.678 3521.24 991.165 3522 989.706 3522 988.301 3522 986.977 3521.08 986.234 3519.25 986.072L3519.69 984.087 3532.82 984.087 3533.59 986.072C3531.35 988.099 3528.97 990.085 3526.46 992.03L3516.41 999.811 3520.38 1014.44C3520.7 1015.68 3521 1016.58 3521.25 1017.14 3521.51 1017.69 3521.81 1018.1 3522.14 1018.37 3522.48 1018.64 3522.93 1018.78 3523.5 1018.78 3524.2 1018.78 3525.04 1018.4 3526.01 1017.64 3526.99 1016.89 3528.09 1015.79 3529.34 1014.36L3531.65 1016.63C3529.22 1019.2 3527.2 1020.98 3525.61 1021.98 3524.01 1022.98 3522.47 1023.48 3520.99 1023.48 3519.15 1023.48 3517.69 1022.96 3516.61 1021.92 3515.53 1020.88 3514.68 1019.14 3514.06 1016.71L3511.38 1006.17C3511.11 1005.12 3510.84 1004.39 3510.57 1003.99 3510.3 1003.58 3509.99 1003.31 3509.64 1003.17 3509.29 1003.04 3508.67 1002.97 3507.78 1002.97L3504.98 1002.97 3500.77 1022.83 3493.75 1022.83 3504.17 976.508C3504.52 974.941 3504.77 973.718 3504.92 972.84 3505.07 971.962 3505.14 971.185 3505.14 970.51 3505.14 969.375 3504.8 968.578 3504.11 968.119 3503.42 967.659 3502.18 967.403 3500.4 967.349L3500.89 965.241Z" fill-rule="evenodd"/><text fill="#000000" fill-opacity="0" font-family="Arial,Arial_MSFontService,sans-serif" font-size="58.6025" x="3493.75" y="1016.15">𝑘</text><path d="M3540.33 964.269C3548.22 966.349 3554.27 970.841 3558.5 977.744 3562.73 984.647 3564.85 992.976 3564.85 1002.73 3564.85 1012.51 3562.74 1020.84 3558.52 1027.71 3554.31 1034.59 3548.24 1039.07 3540.33 1041.15L3539.35 1038.03C3545.59 1035.95 3550.24 1031.84 3553.27 1025.71 3556.31 1019.58 3557.83 1011.78 3557.83 1002.32 3557.83 993.192 3556.32 985.606 3553.29 979.568 3550.27 973.529 3545.58 969.47 3539.23 967.389Z" fill-rule="evenodd"/><text fill="#000000" fill-opacity="0" font-family="Arial,Arial_MSFontService,sans-serif" font-size="76.8804" x="3539.23" y="1031.54">)</text><path d="M3080.5 1054C3080.5 1008.99 3116.99 972.5 3162 972.5 3207.01 972.5 3243.5 1008.99 3243.5 1054 3243.5 1099.01 3207.01 1135.5 3162 1135.5 3116.99 1135.5 3080.5 1099.01 3080.5 1054Z" stroke="#000000" stroke-width="6.875" stroke-miterlimit="8" fill="none" fill-rule="evenodd"/><path d="M3104.5 996.5 3219.92 1111.92" stroke="#000000" stroke-width="6.875" stroke-miterlimit="8" fill="none" fill-rule="evenodd"/><path d="M0 0 115.418 115.418" stroke="#000000" stroke-width="6.875" stroke-miterlimit="8" fill="none" fill-rule="evenodd" transform="matrix(1 0 0 -1 3104.5 1111.92)"/><rect x="2994.5" y="534.5" width="336" height="284" stroke="#000000" stroke-width="6.875" stroke-miterlimit="8" fill="none"/><path d="M3165.19 585.643 3167.42 585.643C3167.26 588.237 3167.18 591.83 3167.18 596.423L3167.18 631.034C3167.18 632.601 3167.27 633.783 3167.44 634.58 3167.62 635.377 3167.93 636.025 3168.37 636.525 3168.82 637.025 3169.46 637.417 3170.3 637.701 3171.14 637.984 3172.19 638.2 3173.46 638.349 3174.73 638.498 3176.41 638.599 3178.49 638.653L3178.49 641.611 3148.54 641.611 3148.54 638.653C3151.53 638.518 3153.68 638.335 3154.96 638.106 3156.24 637.876 3157.22 637.532 3157.9 637.072 3158.57 636.613 3159.07 635.965 3159.38 635.127 3159.69 634.289 3159.84 632.925 3159.84 631.034L3159.84 598.166C3159.84 597.085 3159.65 596.295 3159.28 595.795 3158.9 595.295 3158.34 595.045 3157.61 595.045 3156.75 595.045 3155.52 595.491 3153.93 596.383 3152.33 597.274 3150.36 598.504 3148.01 600.071L3146.23 596.95Z" fill-rule="evenodd"/><text fill="#000000" fill-opacity="0" font-family="Arial,Arial_MSFontService,sans-serif" font-size="55.9683" x="3146.23" y="634.615">1</text><path d="M3070.47 711.826 3056.05 737.358 3071.89 737.358 3071.2 724.308C3071.12 722.525 3071.05 720.296 3071 717.621 3070.95 714.946 3070.92 713.014 3070.92 711.826ZM3070.72 703.274 3076.84 703.274 3079.75 748.462C3079.89 750.597 3080.13 752.265 3080.48 753.468 3080.83 754.67 3081.31 755.561 3081.92 756.142 3082.53 756.723 3083.41 757.095 3084.58 757.257L3084.13 759.243 3067.27 759.243 3067.72 757.257C3069.31 757.122 3070.5 756.5 3071.28 755.393 3072.07 754.285 3072.46 752.34 3072.46 749.557 3072.46 748.503 3072.42 747.355 3072.34 746.112L3072.05 740.884 3054.22 740.884 3051.99 744.855C3050.94 746.72 3050.17 748.321 3049.68 749.658 3049.2 750.995 3048.95 752.177 3048.95 753.204 3048.95 755.474 3050.32 756.825 3053.05 757.257L3052.6 759.243 3036.02 759.243 3036.47 757.257C3037.31 757.149 3038.1 756.818 3038.84 756.264 3039.58 755.71 3040.37 754.872 3041.21 753.751 3042.05 752.63 3043.23 750.772 3044.74 748.179Z" fill-rule="evenodd"/><text fill="#000000" fill-opacity="0" font-family="Arial,Arial_MSFontService,sans-serif" font-size="55.9683" x="3036.02" y="752.247">𝐴</text><path d="M3121.3 700.681 3122.4 703.801C3116.07 705.882 3111.39 709.941 3108.35 715.98 3105.31 722.018 3103.8 729.604 3103.8 738.736 3103.8 748.192 3105.31 755.987 3108.35 762.12 3111.39 768.253 3116.03 772.36 3122.28 774.44L3121.3 777.561C3113.39 775.481 3107.32 771.002 3103.11 764.126 3098.89 757.25 3096.78 748.922 3096.78 739.141 3096.78 729.388 3098.9 721.059 3103.13 714.156 3107.35 707.253 3113.41 702.761 3121.3 700.681Z" fill-rule="evenodd"/><text fill="#000000" fill-opacity="0" font-family="Arial,Arial_MSFontService,sans-serif" font-size="76.8804" x="3096.78" y="767.951">(</text><path d="M3149.76 723.011C3147.01 723.011 3144.53 724.126 3142.34 726.355 3140.16 728.584 3138.43 731.59 3137.18 735.372 3135.92 739.155 3135.29 742.924 3135.29 746.679 3135.29 749.489 3135.68 751.59 3136.45 752.981 3137.22 754.373 3138.51 755.068 3140.32 755.068 3141.16 755.068 3142.01 754.886 3142.87 754.521 3143.74 754.156 3144.63 753.569 3145.57 752.758 3146.5 751.948 3147.42 750.962 3148.32 749.8 3149.23 748.638 3150.06 747.469 3150.81 746.294 3151.57 745.119 3152.27 743.727 3152.92 742.12 3153.57 740.512 3154.12 738.574 3154.58 736.304L3154.95 734.562C3155.35 732.616 3155.56 730.779 3155.56 729.05 3155.56 726.942 3155.11 725.409 3154.22 724.45 3153.33 723.491 3151.84 723.011 3149.76 723.011ZM3149.03 719.81C3150.71 719.81 3152.3 720.005 3153.81 720.397 3155.33 720.789 3156.89 721.485 3158.51 722.484L3162.24 719.81 3164.84 720.458 3154.46 766.538C3154 768.591 3153.77 770.131 3153.77 771.158 3153.77 772.346 3154.08 773.191 3154.69 773.691 3155.29 774.19 3156.49 774.521 3158.27 774.684L3157.91 776.669 3145.26 776.669 3152.23 750.083 3151.67 749.84C3149.34 753.11 3146.97 755.595 3144.55 757.297 3142.14 759 3139.78 759.851 3137.48 759.851 3134.51 759.851 3132.21 758.729 3130.57 756.487 3128.94 754.244 3128.12 751.097 3128.12 747.044 3128.12 742.397 3129.03 737.932 3130.85 733.65 3132.68 729.367 3135.18 725.99 3138.37 723.518 3141.56 721.046 3145.11 719.81 3149.03 719.81Z" fill-rule="evenodd"/><text fill="#000000" fill-opacity="0" font-family="Arial,Arial_MSFontService,sans-serif" font-size="56.8599" x="3128.12" y="769.562">𝑞</text><path d="M3176.08 714.752 3210.4 714.752 3210.4 719.309 3176.08 719.309Z" fill-rule="evenodd"/><text fill="#000000" fill-opacity="0" font-family="Arial,Arial_MSFontService,sans-serif" font-size="4.55713" x="3176.08" y="718.739">−</text><path d="M3234.7 696.106 3236.51 696.106C3236.47 697.199 3236.44 698.177 3236.42 699.04 3236.4 699.904 3236.39 700.743 3236.38 701.557 3236.37 702.371 3236.36 703.175 3236.36 703.97L3236.36 726.606C3236.36 727.222 3236.38 727.753 3236.42 728.2 3236.46 728.647 3236.53 729.024 3236.62 729.332 3236.71 729.64 3236.83 729.903 3236.97 730.121 3237.12 730.34 3237.3 730.528 3237.5 730.687 3237.73 730.925 3238.05 731.109 3238.45 731.238 3238.85 731.367 3239.35 731.476 3239.97 731.566 3240.58 731.655 3241.32 731.725 3242.19 731.774 3243.05 731.824 3244.09 731.859 3245.3 731.878L3245.3 734.47 3221.68 734.47 3221.68 731.878C3222.85 731.839 3223.84 731.794 3224.66 731.744 3225.47 731.695 3226.17 731.625 3226.74 731.536 3227.32 731.447 3227.78 731.347 3228.13 731.238 3228.48 731.129 3228.78 730.995 3229.04 730.836 3229.31 730.657 3229.55 730.464 3229.75 730.255 3229.95 730.047 3230.11 729.784 3230.23 729.466 3230.35 729.148 3230.44 728.761 3230.51 728.304 3230.58 727.847 3230.62 727.282 3230.62 726.606L3230.62 705.25C3230.62 704.476 3230.47 703.93 3230.17 703.612 3229.87 703.295 3229.44 703.136 3228.89 703.136 3228.27 703.136 3227.36 703.453 3226.15 704.089 3224.94 704.724 3223.37 705.667 3221.44 706.918 3221.18 706.462 3220.95 706.005 3220.73 705.548 3220.51 705.092 3220.28 704.625 3220.04 704.148 3222.5 702.798 3224.94 701.453 3227.35 700.113 3229.77 698.772 3232.21 697.437 3234.7 696.106Z" fill-rule="evenodd"/><text fill="#000000" fill-opacity="0" font-family="Arial,Arial_MSFontService,sans-serif" font-size="38.3633" x="3220.04" y="729.674">1</text><path d="M3255.59 700.681C3263.48 702.761 3269.54 707.253 3273.76 714.156 3277.99 721.059 3280.11 729.388 3280.11 739.141 3280.11 748.922 3278 757.25 3273.78 764.126 3269.57 771.002 3263.5 775.481 3255.59 777.561L3254.62 774.44C3260.86 772.36 3265.5 768.253 3268.54 762.12 3271.58 755.987 3273.1 748.192 3273.1 738.736 3273.1 729.604 3271.58 722.018 3268.56 715.98 3265.53 709.941 3260.84 705.882 3254.49 703.801Z" fill-rule="evenodd"/><text fill="#000000" fill-opacity="0" font-family="Arial,Arial_MSFontService,sans-serif" font-size="76.8804" x="3254.49" y="767.951">)</text><path d="M3036.32 678.053 3099.07 678.053 3161.82 678.053 3224.57 678.053 3287.32 678.053 3287.32 683.053 3224.57 683.053 3161.82 683.053 3099.07 683.053 3036.32 683.053Z" fill-rule="evenodd"/><path d="M2.29166-0.00667301 2.67496 131.628-1.90835 131.641-2.29166 0.00667301ZM14.1199 127.011 0.450033 154.551-13.38 127.091Z" transform="matrix(-1 0 0 1 3162.95 818.5)"/><path d="M3164.79 379.493 3165.18 511.128 3160.59 511.141 3160.21 379.507ZM3176.62 506.511 3162.95 534.051 3149.12 506.591Z"/><rect x="2217.5" y="1338.5" width="298" height="283" stroke="#000000" stroke-width="6.875" stroke-miterlimit="8" fill="none"/><path d="M2284.41 1451.39C2286.98 1451.39 2289.33 1451.54 2291.46 1451.85 2293.6 1452.16 2295.94 1452.72 2298.47 1453.53L2296 1464.44 2292.11 1464.44C2291.87 1461.06 2291.13 1458.63 2289.88 1457.16 2288.64 1455.69 2286.61 1454.95 2283.8 1454.95 2281.53 1454.95 2279.41 1455.53 2277.44 1456.7 2275.47 1457.86 2273.6 1459.59 2271.83 1461.9 2270.06 1464.21 2268.46 1467.12 2267.05 1470.64 2265.63 1474.15 2264.53 1477.81 2263.74 1481.62 2262.96 1485.43 2262.57 1489.01 2262.57 1492.36 2262.57 1496.57 2263.29 1499.65 2264.74 1501.58 2266.18 1503.51 2268.44 1504.48 2271.52 1504.48 2272.63 1504.48 2273.77 1504.35 2274.93 1504.09 2276.09 1503.84 2277.18 1503.4 2278.19 1502.78 2279.2 1502.15 2280.1 1501.32 2280.89 1500.26 2281.67 1499.21 2282.24 1497.88 2282.59 1496.29L2283.03 1494.39C2283.63 1491.85 2283.93 1489.67 2283.93 1487.86 2283.93 1486.59 2283.61 1485.71 2282.97 1485.21 2282.34 1484.71 2281.33 1484.42 2279.95 1484.34L2280.4 1482.35 2296.61 1482.35 2296.16 1484.34C2295.14 1484.55 2294.4 1484.79 2293.94 1485.06 2293.48 1485.33 2293.06 1485.75 2292.7 1486.3 2292.33 1486.85 2291.98 1487.7 2291.63 1488.83 2291.27 1489.97 2290.82 1491.83 2290.25 1494.43L2287.45 1507.15 2284.25 1508.04 2282.14 1504.84C2279.33 1506.17 2277.12 1507.02 2275.5 1507.42 2273.87 1507.81 2272.23 1508 2270.55 1508 2265.47 1508 2261.61 1506.54 2258.96 1503.63 2256.31 1500.71 2254.99 1496.44 2254.99 1490.82 2254.99 1486.79 2255.66 1482.27 2257.02 1477.26 2258.37 1472.25 2260.33 1467.77 2262.91 1463.83 2265.49 1459.88 2268.61 1456.82 2272.27 1454.65 2275.93 1452.47 2279.98 1451.39 2284.41 1451.39Z" fill-rule="evenodd"/><text fill="#000000" fill-opacity="0" font-family="Arial,Arial_MSFontService,sans-serif" font-size="56.6572" x="2254.99" y="1500.96">𝐺</text><path d="M2471.24 1445.24C2479.12 1447.32 2485.18 1451.81 2489.41 1458.72 2493.64 1465.62 2495.75 1473.95 2495.75 1483.7 2495.75 1493.48 2493.65 1501.81 2489.43 1508.69 2485.22 1515.56 2479.15 1520.04 2471.24 1522.12L2470.26 1519C2476.5 1516.92 2481.14 1512.81 2484.18 1506.68 2487.22 1500.55 2488.74 1492.75 2488.74 1483.3 2488.74 1474.16 2487.23 1466.58 2484.2 1460.54 2481.18 1454.5 2476.49 1450.44 2470.14 1448.36ZM2337.09 1445.24 2338.18 1448.36C2331.86 1450.44 2327.18 1454.5 2324.14 1460.54 2321.1 1466.58 2319.58 1474.16 2319.58 1483.3 2319.58 1492.75 2321.1 1500.55 2324.14 1506.68 2327.18 1512.81 2331.82 1516.92 2338.06 1519L2337.09 1522.12C2329.17 1520.04 2323.11 1515.56 2318.89 1508.69 2314.68 1501.81 2312.57 1493.48 2312.57 1483.7 2312.57 1473.95 2314.68 1465.62 2318.91 1458.72 2323.14 1451.81 2329.2 1447.32 2337.09 1445.24Z" fill-rule="evenodd"/><path d="M2365.41 1471.12C2362.65 1471.12 2360.18 1472.24 2357.99 1474.47 2355.8 1476.7 2354.08 1479.7 2352.82 1483.48 2351.57 1487.27 2350.94 1491.04 2350.94 1494.79 2350.94 1497.6 2351.33 1499.7 2352.1 1501.09 2352.87 1502.48 2354.16 1503.18 2355.97 1503.18 2356.8 1503.18 2357.65 1503 2358.52 1502.63 2359.38 1502.27 2360.28 1501.68 2361.21 1500.87 2362.15 1500.06 2363.06 1499.07 2363.97 1497.91 2364.88 1496.75 2365.71 1495.58 2366.46 1494.41 2367.22 1493.23 2367.92 1491.84 2368.57 1490.23 2369.22 1488.62 2369.77 1486.69 2370.23 1484.42L2370.6 1482.67C2371 1480.73 2371.2 1478.89 2371.2 1477.16 2371.2 1475.05 2370.76 1473.52 2369.87 1472.56 2368.98 1471.6 2367.49 1471.12 2365.41 1471.12ZM2364.68 1467.92C2366.35 1467.92 2367.95 1468.12 2369.46 1468.51 2370.97 1468.9 2372.54 1469.6 2374.16 1470.6L2377.89 1467.92 2380.48 1468.57 2370.11 1514.65C2369.65 1516.7 2369.42 1518.24 2369.42 1519.27 2369.42 1520.46 2369.72 1521.3 2370.33 1521.8 2370.94 1522.3 2372.14 1522.63 2373.92 1522.8L2373.55 1524.78 2360.91 1524.78 2367.88 1498.2 2367.31 1497.95C2364.99 1501.22 2362.62 1503.71 2360.2 1505.41 2357.78 1507.11 2355.43 1507.96 2353.13 1507.96 2350.16 1507.96 2347.85 1506.84 2346.22 1504.6 2344.58 1502.36 2343.77 1499.21 2343.77 1495.16 2343.77 1490.51 2344.68 1486.04 2346.5 1481.76 2348.33 1477.48 2350.83 1474.1 2354.02 1471.63 2357.21 1469.16 2360.76 1467.92 2364.68 1467.92Z" fill-rule="evenodd"/><text fill="#000000" fill-opacity="0" font-family="Arial,Arial_MSFontService,sans-serif" font-size="56.8599" x="2343.77" y="1517.67">𝑞</text><path d="M2391.73 1457.43 2426.04 1457.43 2426.04 1461.99 2391.73 1461.99Z" fill-rule="evenodd"/><text fill="#000000" fill-opacity="0" font-family="Arial,Arial_MSFontService,sans-serif" font-size="4.55713" x="2391.73" y="1461.42">−</text><path d="M2450.34 1438.79 2452.16 1438.79C2452.12 1439.88 2452.09 1440.86 2452.07 1441.72 2452.05 1442.58 2452.04 1443.42 2452.03 1444.24 2452.02 1445.05 2452.01 1445.86 2452.01 1446.65L2452.01 1469.29C2452.01 1469.9 2452.03 1470.43 2452.07 1470.88 2452.11 1471.33 2452.18 1471.7 2452.26 1472.01 2452.35 1472.32 2452.47 1472.58 2452.62 1472.8 2452.77 1473.02 2452.95 1473.21 2453.14 1473.37 2453.38 1473.61 2453.7 1473.79 2454.1 1473.92 2454.49 1474.05 2455 1474.16 2455.62 1474.25 2456.23 1474.34 2456.97 1474.41 2457.83 1474.45 2458.7 1474.5 2459.74 1474.54 2460.95 1474.56L2460.95 1477.15 2437.33 1477.15 2437.33 1474.56C2438.5 1474.52 2439.49 1474.47 2440.31 1474.43 2441.12 1474.38 2441.82 1474.31 2442.39 1474.22 2442.97 1474.13 2443.43 1474.03 2443.78 1473.92 2444.12 1473.81 2444.43 1473.68 2444.68 1473.52 2444.96 1473.34 2445.2 1473.14 2445.4 1472.94 2445.6 1472.73 2445.76 1472.46 2445.88 1472.15 2446 1471.83 2446.09 1471.44 2446.16 1470.98 2446.23 1470.53 2446.26 1469.96 2446.26 1469.29L2446.26 1447.93C2446.26 1447.16 2446.11 1446.61 2445.82 1446.29 2445.52 1445.98 2445.09 1445.82 2444.54 1445.82 2443.92 1445.82 2443.01 1446.13 2441.8 1446.77 2440.58 1447.41 2439.02 1448.35 2437.09 1449.6 2436.83 1449.14 2436.59 1448.69 2436.37 1448.23 2436.16 1447.77 2435.93 1447.31 2435.69 1446.83 2438.15 1445.48 2440.59 1444.13 2443 1442.79 2445.41 1441.45 2447.86 1440.12 2450.34 1438.79Z" fill-rule="evenodd"/><text fill="#000000" fill-opacity="0" font-family="Arial,Arial_MSFontService,sans-serif" font-size="38.3633" x="2435.69" y="1472.36">1</text><path d="M0 2.29167-14.7017 2.29167-12.41 0-12.41 425.807-14.7017 423.516 861.156 423.516 861.156 428.099-16.9933 428.099-16.9933-2.29167 0-2.29167ZM856.573 412.057 884.073 425.807 856.573 439.557Z" transform="matrix(-1 1.22465e-16 1.22465e-16 1 3399.57 1054.5)"/><path d="M2216.94 1481.99 1439.21 1481.99 1439.21 1158.42 1443.79 1158.42 1443.79 1479.69 1441.5 1477.4 2216.94 1477.4ZM1427.75 1163 1441.5 1135.5 1455.25 1163Z"/><rect x="848.5" y="912.5" width="298" height="284" stroke="#000000" stroke-width="6.875" stroke-miterlimit="8" fill="none"/><path d="M909.759 1029.79C908.327 1029.79 906.814 1029.85 905.22 1029.96L900.032 1053.42 904.815 1053.42C908.732 1053.42 911.826 1052.89 914.095 1051.84 916.365 1050.79 918.161 1049.06 919.485 1046.65 920.809 1044.25 921.471 1041.66 921.471 1038.87 921.471 1037.71 921.363 1036.68 921.147 1035.77 920.931 1034.87 920.647 1034.12 920.296 1033.52 919.945 1032.93 919.499 1032.4 918.959 1031.94 918.418 1031.48 917.743 1031.08 916.932 1030.75 916.122 1030.41 915.183 1030.17 914.116 1030.02 913.048 1029.87 911.596 1029.79 909.759 1029.79ZM893.507 1026.23 911.542 1026.23C914.406 1026.23 916.743 1026.4 918.553 1026.73 920.364 1027.07 921.91 1027.58 923.194 1028.25 924.477 1028.93 925.551 1029.8 926.416 1030.87 927.28 1031.94 927.929 1033.14 928.361 1034.47 928.793 1035.81 929.009 1037.24 929.009 1038.75 929.009 1042.91 927.74 1046.45 925.2 1049.37 922.66 1052.29 918.918 1054.5 913.974 1056.02L913.974 1056.46C915.271 1057.43 916.318 1058.6 917.115 1059.95 917.912 1061.3 918.553 1063.18 919.04 1065.58L919.972 1070.28C920.269 1071.77 920.607 1073.1 920.985 1074.29 921.363 1075.48 921.816 1076.43 922.343 1077.13 922.869 1077.83 923.464 1078.36 924.126 1078.71 924.788 1079.06 925.754 1079.35 927.023 1079.56L926.618 1081.55 915.392 1081.55C914.528 1079.14 913.758 1076.28 913.082 1072.96L911.299 1064.36C911.002 1062.88 910.644 1061.63 910.225 1060.62 909.806 1059.6 909.306 1058.82 908.725 1058.26 908.145 1057.71 907.469 1057.35 906.699 1057.17 905.929 1056.99 904.99 1056.91 903.882 1056.91L899.262 1056.91 896.425 1069.75C896.182 1070.81 896.013 1071.65 895.919 1072.27 895.824 1072.89 895.743 1073.54 895.676 1074.23 895.608 1074.92 895.574 1075.54 895.574 1076.08 895.574 1076.91 895.709 1077.57 895.98 1078.04 896.25 1078.51 896.655 1078.86 897.195 1079.08 897.736 1079.29 898.668 1079.45 899.992 1079.56L899.546 1081.55 882.889 1081.55 883.335 1079.56C884.362 1079.4 885.132 1079.14 885.645 1078.77 886.158 1078.41 886.591 1077.9 886.942 1077.25 887.293 1076.6 887.617 1075.81 887.915 1074.88 888.212 1073.95 888.658 1072.15 889.252 1069.47L896.142 1038.26C896.736 1035.56 897.033 1033.43 897.033 1031.86 897.033 1030.54 896.723 1029.62 896.101 1029.11 895.48 1028.59 894.467 1028.29 893.062 1028.21Z" fill-rule="evenodd"/><text fill="#000000" fill-opacity="0" font-family="Arial,Arial_MSFontService,sans-serif" font-size="55.3198" x="882.889" y="1074.63">𝑅</text><path d="M1101.66 1019.43C1109.54 1021.51 1115.6 1026.01 1119.83 1032.91 1124.06 1039.81 1126.17 1048.14 1126.17 1057.89 1126.17 1067.67 1124.07 1076 1119.85 1082.88 1115.64 1089.76 1109.57 1094.23 1101.66 1096.31L1100.68 1093.19C1106.92 1091.11 1111.56 1087.01 1114.6 1080.87 1117.64 1074.74 1119.16 1066.94 1119.16 1057.49 1119.16 1048.36 1117.65 1040.77 1114.62 1034.73 1111.6 1028.69 1106.91 1024.63 1100.56 1022.55ZM967.508 1019.43 968.602 1022.55C962.28 1024.63 957.599 1028.69 954.559 1034.73 951.52 1040.77 950 1048.36 950 1057.49 950 1066.94 951.52 1074.74 954.559 1080.87 957.599 1087.01 962.239 1091.11 968.48 1093.19L967.508 1096.31C959.591 1094.23 953.526 1089.76 949.311 1082.88 945.096 1076 942.989 1067.67 942.989 1057.89 942.989 1048.14 945.103 1039.81 949.331 1032.91 953.56 1026.01 959.618 1021.51 967.508 1019.43Z" fill-rule="evenodd"/><path d="M995.828 1045.32C993.072 1045.32 990.6 1046.43 988.412 1048.66 986.223 1050.89 984.501 1053.89 983.245 1057.68 981.988 1061.46 981.36 1065.23 981.36 1068.98 981.36 1071.79 981.745 1073.89 982.515 1075.29 983.285 1076.68 984.575 1077.37 986.385 1077.37 987.223 1077.37 988.074 1077.19 988.939 1076.83 989.803 1076.46 990.702 1075.87 991.634 1075.06 992.566 1074.25 993.484 1073.27 994.39 1072.1 995.295 1070.94 996.125 1069.77 996.882 1068.6 997.638 1067.42 998.341 1066.03 998.989 1064.42 999.638 1062.82 1000.19 1060.88 1000.65 1058.61L1001.02 1056.87C1001.42 1054.92 1001.62 1053.08 1001.62 1051.35 1001.62 1049.25 1001.18 1047.71 1000.29 1046.75 999.395 1045.8 997.909 1045.32 995.828 1045.32ZM995.099 1042.11C996.774 1042.11 998.368 1042.31 999.881 1042.7 1001.39 1043.09 1002.96 1043.79 1004.58 1044.79L1008.31 1042.11 1010.9 1042.76 1000.53 1088.84C1000.07 1090.9 999.84 1092.44 999.84 1093.46 999.84 1094.65 1000.14 1095.5 1000.75 1096 1001.36 1096.5 1002.56 1096.83 1004.34 1096.99L1003.97 1098.97 991.33 1098.97 998.3 1072.39 997.733 1072.15C995.409 1075.41 993.039 1077.9 990.62 1079.6 988.202 1081.3 985.845 1082.16 983.548 1082.16 980.576 1082.16 978.273 1081.03 976.639 1078.79 975.004 1076.55 974.187 1073.4 974.187 1069.35 974.187 1064.7 975.099 1060.24 976.922 1055.95 978.746 1051.67 981.252 1048.29 984.44 1045.82 987.628 1043.35 991.181 1042.11 995.099 1042.11Z" fill-rule="evenodd"/><text fill="#000000" fill-opacity="0" font-family="Arial,Arial_MSFontService,sans-serif" font-size="56.8599" x="974.187" y="1091.87">𝑞</text><path d="M1022.15 1031.63 1056.46 1031.63 1056.46 1036.18 1022.15 1036.18Z" fill-rule="evenodd"/><text fill="#000000" fill-opacity="0" font-family="Arial,Arial_MSFontService,sans-serif" font-size="4.55713" x="1022.15" y="1035.61">−</text><path d="M1080.76 1012.98 1082.58 1012.98C1082.54 1014.07 1082.51 1015.05 1082.49 1015.91 1082.47 1016.78 1082.46 1017.62 1082.45 1018.43 1082.44 1019.24 1082.43 1020.05 1082.43 1020.84L1082.43 1043.48C1082.43 1044.1 1082.45 1044.63 1082.49 1045.07 1082.53 1045.52 1082.6 1045.9 1082.68 1046.21 1082.77 1046.51 1082.89 1046.78 1083.04 1046.99 1083.19 1047.21 1083.36 1047.4 1083.56 1047.56 1083.8 1047.8 1084.12 1047.98 1084.52 1048.11 1084.91 1048.24 1085.42 1048.35 1086.04 1048.44 1086.65 1048.53 1087.39 1048.6 1088.25 1048.65 1089.12 1048.7 1090.16 1048.73 1091.37 1048.75L1091.37 1051.34 1067.75 1051.34 1067.75 1048.75C1068.92 1048.71 1069.91 1048.67 1070.73 1048.62 1071.54 1048.57 1072.23 1048.5 1072.81 1048.41 1073.39 1048.32 1073.85 1048.22 1074.2 1048.11 1074.54 1048 1074.85 1047.87 1075.1 1047.71 1075.38 1047.53 1075.62 1047.34 1075.82 1047.13 1076.02 1046.92 1076.18 1046.66 1076.3 1046.34 1076.41 1046.02 1076.51 1045.63 1076.58 1045.18 1076.65 1044.72 1076.68 1044.16 1076.68 1043.48L1076.68 1022.12C1076.68 1021.35 1076.53 1020.8 1076.24 1020.49 1075.94 1020.17 1075.51 1020.01 1074.96 1020.01 1074.34 1020.01 1073.43 1020.33 1072.21 1020.96 1071 1021.6 1069.44 1022.54 1067.51 1023.79 1067.25 1023.34 1067.01 1022.88 1066.79 1022.42 1066.58 1021.97 1066.35 1021.5 1066.11 1021.02 1068.57 1019.67 1071.01 1018.33 1073.42 1016.99 1075.83 1015.65 1078.28 1014.31 1080.76 1012.98Z" fill-rule="evenodd"/><text fill="#000000" fill-opacity="0" font-family="Arial,Arial_MSFontService,sans-serif" font-size="38.3633" x="1066.11" y="1046.55">1</text><path d="M416.5 1052.21 824.972 1052.21 824.972 1056.79 416.5 1056.79ZM820.388 1040.75 847.888 1054.5 820.388 1068.25Z"/></g></svg>