<svg id="图层_1" data-name="图层 1" xmlns="http://www.w3.org/2000/svg" viewBox="0 0 518.87 107.97"><defs><style>.cls-1{fill:#2472ba;}.cls-2{fill:#606060;}</style></defs><title>转曲</title><path class="cls-1" d="M167.17,144.2V114.55h6.73V144.2Zm3.47-16.33v-5.26H192v5.26Zm.59,7.92v-5.26h21.41v5.26Zm.53,8.41v-5.4h23v5.4Zm18.5,0V120H172.5v-5.4H197V144.2ZM177.08,118l.64-5.78h8.19l-.66,5.78Z" transform="translate(-39.49 -93.02)"/><path class="cls-1" d="M222,123v5.18h-15.8V123Zm-8.13,2.52L212.45,139h-6l1.5-13.49ZM220.83,139v5.15h-14.4V139Zm.8-26.28v5.19h-15.1v-5.19Zm.35,31.43h-5.92l-.63-14.36h5.89ZM238,114.69v5.44H222.4v-5.44Zm-7.67-2.45-1.79,32h-5.92l2.06-32Zm5.43,26.81v5.15H230v-5.15Zm2.24-22.6V144.2h-6V116.45Z" transform="translate(-39.49 -93.02)"/><path class="cls-1" d="M245.49,129l6.41-16.79h6.76L252.25,129Zm3.5,15.2V123h6.45v21.23Zm8.34-18v-5.53h21.48v5.53Zm6.13,18v-32h6.45v32Zm2.6,0v-5.15h12.78v5.15Z" transform="translate(-39.49 -93.02)"/><path class="cls-1" d="M308.67,130.88v5.26H286.6v-5.26ZM288,128.53V112.24h6.1v16.29ZM313.89,139v5.11H288V139Zm-3,5.11V128.53H290.35v-5.25h26.94v20.81Zm6.94-29.25v5.25H291.47v-5.25Z" transform="translate(-39.49 -93.02)"/><path class="cls-1" d="M326.35,118.62l.8-6.38h5.22l-.8,6.38Zm16.5.81V124H326.52v-4.59Zm-10.09,8.65h-5.82l1.37-6.66h5.82Zm1.19,1v15.1h-6.48v-15.1Zm8.66-16.26v4.59H327.86V112.8Zm13.7,27v4.41H329.36v-4.41Zm-5.47,4.41V133.47H329.43v-4.41h27.93v15.1Zm4.87-9.39v3.68H329.89v-3.68Zm-17.06-19.09v5.25h-5.92v-5.25Zm3.85,12.4h-5.85l-1.33-6.59h5.85Zm7.22-15.38v15.38h-6.06V112.7Zm2.38,15.38V117.5h-7.32v-4.8h13.38v15.38Zm5.15-4.8v4.8H344.92v-4.8Z" transform="translate(-39.49 -93.02)"/><path class="cls-1" d="M374.77,112.14l-1.9,6.41h-6.34l1.93-6.41Zm5.22,6.41v4.9H366.53v-4.9Zm-7,6.17v19.44h-6.06V124.72Zm8.48,6.48v4.1H368v-4.1Zm.07,5.88v4.07H368v-4.07Zm1.15,7.08h-6.06V129.48h-8.51v-4.76h14.57Zm.15-30.87v10.16h-5.89V113.29Zm7.67-1.15v14.78h-6.27V112.14Zm7.57,9.84v4.94H384.23V122Zm-7.57,6.34v15.91h-6.27V128.32Zm7.57,10.87v5H384.23v-5Zm0-25.06V119H387.59v-4.84Zm0,16.19v4.87H387.59v-4.87Z" transform="translate(-39.49 -93.02)"/><path class="cls-1" d="M412.74,112.24l-.87,8.13h-5.61l.84-8.13Zm13.32,8.9v5.15H406.72v-5.15Zm-5.61,22V133H407.24v-5.15h18.5v15.27Zm-7.88-14.78v14.78h-5.33V128.36ZM425.88,114v5.15H408.33V114Zm-6.76-1.75v32h-5.29v-32Zm12.51,0v25.37h-4.7V112.24ZM437,139.05v5.15H426.93v-5.15Zm1.41-26.81v32h-5.78v-32Z" transform="translate(-39.49 -93.02)"/><path class="cls-1" d="M448.37,141.11V126.36h-2v-5.15h8.13v19.9Zm-2-1.89h32V144h-32ZM448,112.28h6.1l.53,7.11h-6.1Zm14.61,0-.94,7.89H455.8l.91-7.89Zm15.7,8.69v4.7H455.8v-4.7Zm-6.59,16.61v-6.17h-15.2v-4.59h21.37v10.76Zm-9.11-10.76V137h-6.09v-10.2Zm15.28,6.52v4.59H456.54V133.3Zm.21-19.76v4.69H457.94v-4.69Zm-7.22-1.3V123h-6.34V112.24Z" transform="translate(-39.49 -93.02)"/><path class="cls-1" d="M518.38,130.5v5.15H486.49V130.5Zm-25.44-15.56v8.93h-6.41v-8.93Zm-4.52-2.7H495l.56,5.57H489Zm17,15.63H489.4V123h25.68v4.35l-8.44,6.09-6-2Zm12.89-4h-6.41v-3.71H490.1V115h28.24Zm-14.89,15.32V144H490.77v-4.83ZM499,112.24h6.62l.56,5.57h-6.62Zm8.61,18.92V144h-6.37V131.16ZM516,118.09H509.3l.7-5.85h6.62Z" transform="translate(-39.49 -93.02)"/><path class="cls-1" d="M532,112.28V144.2h-5.43V112.28Zm1.4,28.31V128.74H526.8v-5.15h11.88v17Zm0-23.16h-6v-5.15h11.29v13.38h-5.26Zm5.26,18.71v5.15H527.57v-5.15Zm6.69-22.53v7.18h-5.85v-7.18Zm12.89,14.71v5.12h-18.6v-5.12Zm-.21-6.48v5H539.87v-5ZM540.6,144.16l1-13.77h6.07l-1.09,13.77Zm17.66-23.37h-5.85v-2.14h-8.62v-5h14.47Zm-6.2-8.48v4.8h-6.45v-4.8Zm4.24,18.43v13.42h-6V130.74Zm2.07,8.34v5.08h-7.5v-5.08Z" transform="translate(-39.49 -93.02)"/><path class="cls-1" d="M51.21,161.58a1,1,0,0,0,.6-.47.88.88,0,0,0,0-.7,1.07,1.07,0,0,0-.17-.32.6.6,0,0,0-.22-.17.51.51,0,0,0-.25,0,.91.91,0,0,0-.27,0,.71.71,0,0,0-.33.24.77.77,0,0,0-.11.53l.06.56a3.2,3.2,0,0,1,0,.62,1.4,1.4,0,0,1-.16.5,1.47,1.47,0,0,1-.36.39,2.1,2.1,0,0,1-.6.3,1.84,1.84,0,0,1-.68.1,1.52,1.52,0,0,1-.57-.17,1.54,1.54,0,0,1-.44-.41,2.12,2.12,0,0,1-.31-.6,2,2,0,0,1-.12-.78,1.51,1.51,0,0,1,.17-.59,1.49,1.49,0,0,1,.4-.43,2.61,2.61,0,0,1,.54-.31l.39.75a1.19,1.19,0,0,0-.52.45.77.77,0,0,0,0,.6,1.2,1.2,0,0,0,.16.34.71.71,0,0,0,.2.19.42.42,0,0,0,.21.06.54.54,0,0,0,.22,0,.6.6,0,0,0,.38-.27.94.94,0,0,0,.08-.51l-.05-.6a1.88,1.88,0,0,1,.2-1.14,1.63,1.63,0,0,1,.95-.66,1.89,1.89,0,0,1,.65-.11,1.49,1.49,0,0,1,.59.13,1.45,1.45,0,0,1,.49.38,2.05,2.05,0,0,1,.35.66,1.79,1.79,0,0,1,0,1.41,2.06,2.06,0,0,1-1.18.93Z" transform="translate(-39.49 -93.02)"/><path class="cls-1" d="M49.78,155.2a2,2,0,0,1,1.17.12,1.25,1.25,0,0,1,.64.9,1.51,1.51,0,0,1,0,.7,1.41,1.41,0,0,1-.3.55,1.83,1.83,0,0,1-.58.41,3.41,3.41,0,0,1-.8.28,3.71,3.71,0,0,1-.85.1,2,2,0,0,1-.71-.15,1.33,1.33,0,0,1-.52-.38,1.52,1.52,0,0,1-.33-1.17,1.11,1.11,0,0,1,.19-.45,1.31,1.31,0,0,1,.36-.34,2,2,0,0,1,.51-.24l.33.79a1.08,1.08,0,0,0-.44.24.41.41,0,0,0-.09.41.43.43,0,0,0,.17.28.59.59,0,0,0,.31.13,1.31,1.31,0,0,0,.4,0,4,4,0,0,0,.46-.08,3,3,0,0,0,.45-.14,1.82,1.82,0,0,0,.37-.18.77.77,0,0,0,.22-.26.53.53,0,0,0,0-.33.46.46,0,0,0-.26-.34,1,1,0,0,0-.54,0Z" transform="translate(-39.49 -93.02)"/><path class="cls-1" d="M45.68,154.67l-.11-.83,1.91-.27a1.27,1.27,0,0,1-.52-.36,1,1,0,0,1-.22-.49.93.93,0,0,1,.23-.83,1.9,1.9,0,0,1,1.05-.41l2.56-.36.12.83-2.42.34a.91.91,0,0,0-.54.21.42.42,0,0,0-.1.35.66.66,0,0,0,.1.27.91.91,0,0,0,.2.19,1.08,1.08,0,0,0,.27.1.85.85,0,0,0,.32,0l2.33-.33.12.83Z" transform="translate(-39.49 -93.02)"/><path class="cls-1" d="M50.53,148.58a1.41,1.41,0,0,1-.48,1.19,2.52,2.52,0,0,1-1.52.49,3.41,3.41,0,0,1-.87-.07,2.15,2.15,0,0,1-.67-.28,1.41,1.41,0,0,1-.43-.48,1.43,1.43,0,0,1-.17-.65,1.32,1.32,0,0,1,.11-.66,1.3,1.3,0,0,1,.38-.52,1.75,1.75,0,0,1,.63-.35,3.67,3.67,0,0,1,.86-.15,3.05,3.05,0,0,1,.88.07,2.15,2.15,0,0,1,.67.28,1.45,1.45,0,0,1,.61,1.13Zm-.84,0a.58.58,0,0,0-.35-.52,2.48,2.48,0,0,0-1.83.09.61.61,0,0,0,.05,1.07,1.89,1.89,0,0,0,.92.13,1.94,1.94,0,0,0,.92-.22A.56.56,0,0,0,49.69,148.62Z" transform="translate(-39.49 -93.02)"/><path class="cls-1" d="M50.52,144.61a1.41,1.41,0,0,1-.59,1.14,2.48,2.48,0,0,1-1.56.35,3.16,3.16,0,0,1-.86-.14,2,2,0,0,1-.64-.35,1.3,1.3,0,0,1-.38-.52,1.42,1.42,0,0,1-.12-.65,1.53,1.53,0,0,1,.17-.66,1.41,1.41,0,0,1,.43-.48,2,2,0,0,1,.66-.29,3.41,3.41,0,0,1,.87-.07,3.22,3.22,0,0,1,.87.15,2,2,0,0,1,.64.34,1.52,1.52,0,0,1,.39.52A1.58,1.58,0,0,1,50.52,144.61Zm-.84,0a.56.56,0,0,0-.3-.54,2,2,0,0,0-.91-.22,1.9,1.9,0,0,0-.93.14.57.57,0,0,0-.33.52.59.59,0,0,0,.29.55,1.82,1.82,0,0,0,.91.21,1.91,1.91,0,0,0,.93-.13A.59.59,0,0,0,49.68,144.57Z" transform="translate(-39.49 -93.02)"/><path class="cls-1" d="M45.27,141.41l.09-.83,5.31.59-.09.84Z" transform="translate(-39.49 -93.02)"/><path class="cls-1" d="M51.54,136.88a1.38,1.38,0,0,1-.78,1,2.49,2.49,0,0,1-1.6.06,3.17,3.17,0,0,1-.82-.3,2,2,0,0,1-.56-.45,1.44,1.44,0,0,1-.29-.58,1.39,1.39,0,0,1,0-.67,1.55,1.55,0,0,1,.28-.61,1.39,1.39,0,0,1,.51-.39,1.9,1.9,0,0,1,.7-.17,3.39,3.39,0,0,1,.87.09,3.11,3.11,0,0,1,.83.3,2.18,2.18,0,0,1,.57.45,1.39,1.39,0,0,1,.28,1.25Zm-.82-.18a.57.57,0,0,0-.19-.6,2.51,2.51,0,0,0-1.79-.4.61.61,0,0,0-.24,1,2,2,0,0,0,.85.38,1.94,1.94,0,0,0,.95,0A.56.56,0,0,0,50.72,136.7Z" transform="translate(-39.49 -93.02)"/><path class="cls-1" d="M49.17,133.23l-.14.47-.78-.24.15-.47-.13,0a2.24,2.24,0,0,1-.56-.26,1.12,1.12,0,0,1-.34-.35.82.82,0,0,1-.13-.4,1.06,1.06,0,0,1,0-.43c0-.1.07-.2.11-.3a1.32,1.32,0,0,1,.19-.29l.7.33a1,1,0,0,0-.17.33.5.5,0,0,0,0,.32.58.58,0,0,0,.36.25l.14,0,.22-.69.78.24-.22.69,3,.92-.25.8Z" transform="translate(-39.49 -93.02)"/><path class="cls-1" d="M49.15,126.8l.35-.77,5.53.74-.39.88-1.27-.2-.62,1.36,1,.82-.39.84Zm3.28.48-2-.32L52,128.22Z" transform="translate(-39.49 -93.02)"/><path class="cls-1" d="M52,124.22l.41-.72,2.12,1.21a1,1,0,0,0,.55.18.41.41,0,0,0,.29-.21.59.59,0,0,0,.08-.26.85.85,0,0,0,0-.26.73.73,0,0,0-.14-.26.87.87,0,0,0-.25-.21l-2-1.17.41-.73,3.39,1.95-.4.71-.47-.27a1.41,1.41,0,0,1,.22.63.86.86,0,0,1-.13.52.88.88,0,0,1-.69.51,1.87,1.87,0,0,1-1.07-.33Z" transform="translate(-39.49 -93.02)"/><path class="cls-1" d="M55,120.89l-.28.41-.67-.46.27-.41-.86-.58.48-.7.86.59.4-.6.67.46-.4.6,1.49,1a.57.57,0,0,0,.4.15.32.32,0,0,0,.24-.15l.09-.15.06-.17.7.34a1.17,1.17,0,0,1-.11.33l-.15.28a1,1,0,0,1-.69.46,1.7,1.7,0,0,1-1-.38Z" transform="translate(-39.49 -93.02)"/><path class="cls-1" d="M59.88,119.58a1.38,1.38,0,0,1-1.15.58,2.5,2.5,0,0,1-1.47-.64,2.94,2.94,0,0,1-.6-.63,1.69,1.69,0,0,1-.31-.65,1.3,1.3,0,0,1,0-.65,1.54,1.54,0,0,1,.3-.6,1.38,1.38,0,0,1,.52-.42,1.46,1.46,0,0,1,.63-.14,2.08,2.08,0,0,1,.7.16,3.37,3.37,0,0,1,.75.46,3.27,3.27,0,0,1,.61.63,2,2,0,0,1,.31.66,1.26,1.26,0,0,1,0,.64A1.4,1.4,0,0,1,59.88,119.58Zm-.66-.52a.56.56,0,0,0,.08-.62,1.81,1.81,0,0,0-.61-.71,1.76,1.76,0,0,0-.82-.43.61.61,0,0,0-.67.83,1.81,1.81,0,0,0,.61.71,1.92,1.92,0,0,0,.83.44A.57.57,0,0,0,59.22,119.06Z" transform="translate(-39.49 -93.02)"/><path class="cls-1" d="M58.62,114.76l.58-.57.37.37a1.19,1.19,0,0,1-.06-.63.82.82,0,0,1,.24-.46.86.86,0,0,1,.51-.27.88.88,0,0,1,.57.13,1.48,1.48,0,0,1,0-.68.94.94,0,0,1,.26-.49.85.85,0,0,1,.75-.28,1.9,1.9,0,0,1,.94.59l1.84,1.85-.59.59-1.75-1.74A1.22,1.22,0,0,0,62,113a.5.5,0,0,0-.2-.09.29.29,0,0,0-.16,0,.38.38,0,0,0-.13.09.55.55,0,0,0-.14.47.9.9,0,0,0,.07.27.72.72,0,0,0,.17.23l1.69,1.7-.59.59-1.75-1.75-.26-.22-.2-.08a.32.32,0,0,0-.17,0,.5.5,0,0,0-.12.08.63.63,0,0,0-.13.2.82.82,0,0,0,0,.28.72.72,0,0,0,.09.27.87.87,0,0,0,.18.26L62,116.93l-.59.6Z" transform="translate(-39.49 -93.02)"/><path class="cls-1" d="M66.53,112.1a1.66,1.66,0,0,1,0,.6,1,1,0,0,1-.36.5,1.07,1.07,0,0,1-.36.2.81.81,0,0,1-.38,0,1,1,0,0,1-.41-.14,1.6,1.6,0,0,1-.39-.36,1.44,1.44,0,0,1-.31-.6,1.09,1.09,0,0,1,0-.54,1.42,1.42,0,0,1,.28-.49,3.32,3.32,0,0,1,.41-.43l.3-.27-.12-.15a.65.65,0,0,0-.44-.29.56.56,0,0,0-.37.13.51.51,0,0,0-.15.73l-.65.41a1.24,1.24,0,0,1-.22-1,1.46,1.46,0,0,1,.55-.8,1.64,1.64,0,0,1,.54-.3,1,1,0,0,1,.51,0,1.21,1.21,0,0,1,.48.24,2.88,2.88,0,0,1,.47.46L67.46,112l-.62.5Zm-.8-1-.27.25a1.94,1.94,0,0,0-.29.32.77.77,0,0,0-.11.26.41.41,0,0,0,0,.22.76.76,0,0,0,.13.2.41.41,0,0,0,.27.17.41.41,0,0,0,.31-.1.82.82,0,0,0,.29-.48.88.88,0,0,0,0-.32,1,1,0,0,0-.2-.36Z" transform="translate(-39.49 -93.02)"/><path class="cls-1" d="M66.74,108.7l-.4.28-.47-.67.41-.28-.59-.85.69-.48.59.85.59-.41.46.68-.59.4,1,1.49c.12.17.22.26.32.28a.36.36,0,0,0,.28-.06.69.69,0,0,0,.13-.11.49.49,0,0,0,.12-.13l.54.57a2,2,0,0,1-.23.27l-.24.2a.92.92,0,0,1-.8.18,1.58,1.58,0,0,1-.79-.71Z" transform="translate(-39.49 -93.02)"/><path class="cls-1" d="M67.76,105.31l.74-.45.49.8-.73.45Zm.77,1.22.71-.44,2.05,3.33-.71.44Z" transform="translate(-39.49 -93.02)"/><path class="cls-1" d="M73.63,108.24a1.38,1.38,0,0,1-1.29.07,2.52,2.52,0,0,1-1.08-1.18,2.82,2.82,0,0,1-.3-.82,2,2,0,0,1,0-.72,1.36,1.36,0,0,1,.25-.59,1.38,1.38,0,0,1,.52-.43,1.4,1.4,0,0,1,1.28,0,1.75,1.75,0,0,1,.58.43,2.84,2.84,0,0,1,.49.72,3,3,0,0,1,.31.82,2,2,0,0,1,0,.73,1.36,1.36,0,0,1-.25.59A1.43,1.43,0,0,1,73.63,108.24Zm-.39-.74a.59.59,0,0,0,.33-.53,2,2,0,0,0-.27-.9,1.83,1.83,0,0,0-.59-.73.58.58,0,0,0-.62,0,.59.59,0,0,0-.33.53,2.09,2.09,0,0,0,.27.89,2,2,0,0,0,.58.74A.6.6,0,0,0,73.24,107.5Z" transform="translate(-39.49 -93.02)"/><path class="cls-1" d="M74.39,103.38l.75-.31.21.5a1.27,1.27,0,0,1,.21-.63,1,1,0,0,1,.43-.35,1,1,0,0,1,.87,0,1.93,1.93,0,0,1,.65.92l1,2.39-.77.32L76.79,104a.87.87,0,0,0-.33-.47.4.4,0,0,0-.37,0,.56.56,0,0,0-.23.16.69.69,0,0,0-.14.24,1.29,1.29,0,0,0,0,.29.7.7,0,0,0,.07.31l.89,2.18-.78.31Z" transform="translate(-39.49 -93.02)"/><path class="cls-1" d="M84.59,103.67a1.83,1.83,0,0,1-.31.51,1.07,1.07,0,0,1-.55.29,1.36,1.36,0,0,1-.4,0,.92.92,0,0,1-.37-.14,1.07,1.07,0,0,1-.3-.3,1.54,1.54,0,0,1-.19-.5,1.38,1.38,0,0,1,0-.67,1.07,1.07,0,0,1,.29-.47,1.49,1.49,0,0,1,.46-.31,3.78,3.78,0,0,1,.56-.21l.39-.1,0-.19a.61.61,0,0,0-.26-.45.56.56,0,0,0-.4-.05.5.5,0,0,0-.45.58l-.77.08a1.31,1.31,0,0,1,.23-1,1.5,1.5,0,0,1,.85-.47,1.67,1.67,0,0,1,.62,0,1,1,0,0,1,.46.22,1.33,1.33,0,0,1,.33.43,3,3,0,0,1,.2.62l.54,2.41-.77.17Zm-.29-1.22-.35.1a1.84,1.84,0,0,0-.41.16.78.78,0,0,0-.21.18.46.46,0,0,0-.08.21,1,1,0,0,0,0,.23.39.39,0,0,0,.17.28.36.36,0,0,0,.31,0,.72.72,0,0,0,.48-.29.79.79,0,0,0,.12-.3,1,1,0,0,0,0-.41Z" transform="translate(-39.49 -93.02)"/><path class="cls-1" d="M86,99.92l.8-.11.07.53a1.35,1.35,0,0,1,.38-.55,1,1,0,0,1,1.33,0,1.91,1.91,0,0,1,.4,1l.33,2.56-.83.11-.32-2.42a.93.93,0,0,0-.19-.54.41.41,0,0,0-.35-.1.54.54,0,0,0-.27.09.76.76,0,0,0-.2.2,1.69,1.69,0,0,0-.11.27.86.86,0,0,0,0,.32l.3,2.33-.83.11Z" transform="translate(-39.49 -93.02)"/><path class="cls-1" d="M92.55,102.74a1.11,1.11,0,0,1-1,.67,1.08,1.08,0,0,1-1-.52,3,3,0,0,1-.38-1.52,2.87,2.87,0,0,1,.06-.84,2.15,2.15,0,0,1,.24-.66,1.24,1.24,0,0,1,.41-.44,1.15,1.15,0,0,1,.56-.17,1,1,0,0,1,.47.09,1.06,1.06,0,0,1,.45.39l-.07-1.83.84,0,.2,5.34-.81,0Zm-.08-1.49a2.8,2.8,0,0,0-.07-.59.87.87,0,0,0-.18-.36.51.51,0,0,0-.24-.17l-.26,0a.5.5,0,0,0-.26.08.51.51,0,0,0-.2.21,1.21,1.21,0,0,0-.14.38,2.42,2.42,0,0,0,0,.56,2.87,2.87,0,0,0,.07.58,1.24,1.24,0,0,0,.16.38.47.47,0,0,0,.22.2.55.55,0,0,0,.26.06.64.64,0,0,0,.48-.24,1,1,0,0,0,.16-.37,2.81,2.81,0,0,0,0-.55Z" transform="translate(-39.49 -93.02)"/><path class="cls-1" d="M96.73,98l.89.07-.4,5.33-.89-.07Z" transform="translate(-39.49 -93.02)"/><path class="cls-1" d="M99,99.62l.81.12-.08.53a1.33,1.33,0,0,1,.51-.43,1.06,1.06,0,0,1,.55-.08.91.91,0,0,1,.73.46,1.83,1.83,0,0,1,.1,1.12l-.37,2.56-.83-.12.35-2.42a.87.87,0,0,0,0-.57.4.4,0,0,0-.31-.2.64.64,0,0,0-.28,0,1,1,0,0,0-.24.14,1.08,1.08,0,0,0-.18.23.94.94,0,0,0-.1.31l-.33,2.32-.84-.12Z" transform="translate(-39.49 -93.02)"/><path class="cls-1" d="M103.15,101.15l-.47-.11.17-.8.48.11.23-1,.82.19-.23,1,.7.16-.18.8-.7-.16-.39,1.76a.6.6,0,0,0,0,.43.35.35,0,0,0,.23.16l.17,0h.18l-.06.78a1.4,1.4,0,0,1-.35,0l-.31,0a1,1,0,0,1-.68-.47,1.68,1.68,0,0,1,0-1.06Z" transform="translate(-39.49 -93.02)"/><path class="cls-1" d="M107.91,104.37a1.67,1.67,0,0,1-.69.83,1.31,1.31,0,0,1-1,0,1.36,1.36,0,0,1-1-.85,2.63,2.63,0,0,1,.07-1.58,3.37,3.37,0,0,1,.37-.81,2,2,0,0,1,.5-.53,1.34,1.34,0,0,1,.59-.25,1.56,1.56,0,0,1,.64,0,1.24,1.24,0,0,1,.89.81,2.4,2.4,0,0,1-.06,1.44l-.12.4-2.08-.63a1.43,1.43,0,0,0,0,.76.61.61,0,0,0,.44.41.54.54,0,0,0,.71-.33Zm-.4-1.34a1.15,1.15,0,0,0,0-.65.6.6,0,0,0-.41-.36.63.63,0,0,0-.3,0,.76.76,0,0,0-.26.11.88.88,0,0,0-.21.22,1,1,0,0,0-.14.31Z" transform="translate(-39.49 -93.02)"/><path class="cls-1" d="M110.45,100.92l.78.3-1.9,5-.78-.3Z" transform="translate(-39.49 -93.02)"/><path class="cls-1" d="M112.55,101.75l.77.34-2.14,4.9-.77-.34Z" transform="translate(-39.49 -93.02)"/><path class="cls-1" d="M114,104l.75.37L113,107.86l-.75-.37Zm.62-1.3.78.39-.42.84-.77-.38Z" transform="translate(-39.49 -93.02)"/><path class="cls-1" d="M114.66,109a.6.6,0,0,0-.06.24.28.28,0,0,0,0,.18.29.29,0,0,0,.12.15,1,1,0,0,0,.21.15.54.54,0,0,0,.37.09.64.64,0,0,0,.31-.15,1.49,1.49,0,0,0,.28-.32c.08-.13.17-.26.25-.4l.06-.11a1.07,1.07,0,0,1-.56.17,1,1,0,0,1-.55-.15,1.07,1.07,0,0,1-.58-1,2.7,2.7,0,0,1,.44-1.4,2.89,2.89,0,0,1,.48-.64,1.94,1.94,0,0,1,.54-.39,1.33,1.33,0,0,1,.57-.14,1.08,1.08,0,0,1,.57.17,1,1,0,0,1,.36.34,1.08,1.08,0,0,1,.15.61l.23-.39.7.41-1.7,2.91a4.15,4.15,0,0,1-.51.72,1.92,1.92,0,0,1-.55.43,1.08,1.08,0,0,1-.61.12,1.42,1.42,0,0,1-.66-.23,2.27,2.27,0,0,1-.52-.39,1.15,1.15,0,0,1-.26-.43,1.27,1.27,0,0,1,0-.48,2.2,2.2,0,0,1,.18-.55Zm2.28-1.37a2.32,2.32,0,0,0,.24-.53,1,1,0,0,0,0-.37.53.53,0,0,0-.12-.25.75.75,0,0,0-.2-.15.46.46,0,0,0-.25-.08.52.52,0,0,0-.29.06,1.26,1.26,0,0,0-.3.22,2.31,2.31,0,0,0-.3.4,1.57,1.57,0,0,0-.28.86.61.61,0,0,0,.28.46.94.94,0,0,0,.28.1.59.59,0,0,0,.29,0,1,1,0,0,0,.29-.2,2.19,2.19,0,0,0,.29-.39Z" transform="translate(-39.49 -93.02)"/><path class="cls-1" d="M120.57,111.14a1.63,1.63,0,0,1-.93.57,1.31,1.31,0,0,1-1-.29,1.39,1.39,0,0,1-.64-1.12,2.58,2.58,0,0,1,.57-1.47,3,3,0,0,1,.61-.65,1.93,1.93,0,0,1,.64-.35,1.28,1.28,0,0,1,.64,0,1.43,1.43,0,0,1,.6.25,1.24,1.24,0,0,1,.57,1,2.32,2.32,0,0,1-.51,1.34l-.24.35-1.77-1.27a1.32,1.32,0,0,0-.27.72.61.61,0,0,0,.28.53.55.55,0,0,0,.78-.09Zm.05-1.39a1.13,1.13,0,0,0,.23-.61.53.53,0,0,0-.27-.47.8.8,0,0,0-.27-.12.65.65,0,0,0-.28,0,.87.87,0,0,0-.27.14,1.36,1.36,0,0,0-.24.24Z" transform="translate(-39.49 -93.02)"/><path class="cls-1" d="M123.21,109.81l.62.53-.36.41a1.26,1.26,0,0,1,.66-.1,1.09,1.09,0,0,1,.51.23.91.91,0,0,1,.37.78,1.82,1.82,0,0,1-.52,1l-1.68,2-.64-.55,1.59-1.85a.9.9,0,0,0,.27-.51.43.43,0,0,0-.15-.33.79.79,0,0,0-.25-.14.87.87,0,0,0-.28,0,1,1,0,0,0-.27.1.82.82,0,0,0-.25.21l-1.54,1.78-.63-.55Z" transform="translate(-39.49 -93.02)"/><path class="cls-1" d="M125.91,113.33l-.34-.34.58-.58.34.35.74-.74.59.59-.74.74.51.51-.57.58-.51-.51-1.28,1.27a.64.64,0,0,0-.22.37.34.34,0,0,0,.11.26.69.69,0,0,0,.13.11.38.38,0,0,0,.15.09l-.46.63a1.31,1.31,0,0,1-.31-.17,1.59,1.59,0,0,1-.24-.2.94.94,0,0,1-.32-.76,1.65,1.65,0,0,1,.55-.91Z" transform="translate(-39.49 -93.02)"/><path class="cls-1" d="M130.82,115.25l.65.85L129,119.37l3.84-1.55.63.83-4.24,3.25-.5-.66,2.83-2.16-3.43,1.39-.42-.55,2.23-2.94-2.83,2.16-.49-.64Z" transform="translate(-39.49 -93.02)"/><path class="cls-1" d="M131.18,124.2a1.76,1.76,0,0,1-.58-.13,1.12,1.12,0,0,1-.45-.42,1.37,1.37,0,0,1-.15-.38.74.74,0,0,1,0-.39.91.91,0,0,1,.19-.38,1.45,1.45,0,0,1,.41-.35,1.36,1.36,0,0,1,.63-.22,1.07,1.07,0,0,1,.54.12,1.58,1.58,0,0,1,.44.34,4.22,4.22,0,0,1,.38.46l.22.34.17-.11a.62.62,0,0,0,.34-.39.59.59,0,0,0-.08-.39.52.52,0,0,0-.7-.24l-.32-.7a1.28,1.28,0,0,1,1-.09,1.43,1.43,0,0,1,.72.65,1.79,1.79,0,0,1,.23.58,1.09,1.09,0,0,1-.06.51,1.33,1.33,0,0,1-.3.44,3.22,3.22,0,0,1-.52.4l-2.11,1.28-.41-.67Zm1.06-.66-.21-.31a2.63,2.63,0,0,0-.28-.33.77.77,0,0,0-.24-.14.42.42,0,0,0-.22,0,1.38,1.38,0,0,0-.22.1.43.43,0,0,0-.2.25.38.38,0,0,0,.06.32.76.76,0,0,0,.43.35.89.89,0,0,0,.33,0,1.24,1.24,0,0,0,.38-.15Z" transform="translate(-39.49 -93.02)"/><path class="cls-1" d="M135.19,124.33l.36.73-.48.24a1.34,1.34,0,0,1,.64.17,1,1,0,0,1,.38.41.91.91,0,0,1,0,.86,1.87,1.87,0,0,1-.87.72l-2.32,1.14-.37-.75,2.19-1.08a1,1,0,0,0,.45-.36.44.44,0,0,0,0-.37.58.58,0,0,0-.18-.22.83.83,0,0,0-.25-.12.84.84,0,0,0-.28,0,.85.85,0,0,0-.31.09l-2.11,1-.37-.76Z" transform="translate(-39.49 -93.02)"/><path class="cls-1" d="M137,128.15l.3.79-2.28.88a.91.91,0,0,0-.48.31.41.41,0,0,0,0,.36.57.57,0,0,0,.15.23.77.77,0,0,0,.24.12.65.65,0,0,0,.29,0,.57.57,0,0,0,.31-.06l2.2-.84.3.78-3.65,1.41-.29-.76.5-.2A1.3,1.3,0,0,1,134,131a1,1,0,0,1-.34-.43.92.92,0,0,1,0-.86,1.84,1.84,0,0,1,.93-.63Z" transform="translate(-39.49 -93.02)"/><path class="cls-1" d="M137.74,132.55l-.15-.47.79-.23.14.47.12,0a2.15,2.15,0,0,1,.62-.1,1.3,1.3,0,0,1,.47.1.88.88,0,0,1,.34.26,1.18,1.18,0,0,1,.19.39,1.55,1.55,0,0,1,.07.31,1.35,1.35,0,0,1,0,.35l-.77.11a1.11,1.11,0,0,0-.05-.37.41.41,0,0,0-.19-.24.5.5,0,0,0-.44,0l-.14,0,.21.7-.78.23-.21-.69-3,.89-.24-.8Z" transform="translate(-39.49 -93.02)"/><path class="cls-1" d="M136.32,137.38a1.83,1.83,0,0,1-.51-.31,1,1,0,0,1-.29-.55,1.09,1.09,0,0,1,0-.4.78.78,0,0,1,.13-.37,1.07,1.07,0,0,1,.3-.3,1.63,1.63,0,0,1,.5-.2,1.41,1.41,0,0,1,.68,0,1.08,1.08,0,0,1,.46.28,1.77,1.77,0,0,1,.32.47,3.73,3.73,0,0,1,.2.56l.11.38.19,0a.65.65,0,0,0,.45-.26.61.61,0,0,0,0-.4.52.52,0,0,0-.59-.45l-.08-.76a1.31,1.31,0,0,1,1,.22,1.44,1.44,0,0,1,.47.85,1.67,1.67,0,0,1,0,.62,1,1,0,0,1-.22.47,1.41,1.41,0,0,1-.42.32,2.65,2.65,0,0,1-.62.21l-2.41.54-.18-.77Zm1.21-.29-.1-.36a1.74,1.74,0,0,0-.16-.4.65.65,0,0,0-.18-.21.42.42,0,0,0-.21-.08l-.23,0a.39.39,0,0,0-.27.18.36.36,0,0,0,0,.31.8.8,0,0,0,.3.48.68.68,0,0,0,.3.12,1,1,0,0,0,.41,0Z" transform="translate(-39.49 -93.02)"/><path class="cls-1" d="M138,141.92a1.92,1.92,0,0,1-1.16-.24,1.22,1.22,0,0,1-.54-1,1.47,1.47,0,0,1,0-.7,1.32,1.32,0,0,1,.36-.52,1.88,1.88,0,0,1,.61-.35,3.78,3.78,0,0,1,.82-.21,3.09,3.09,0,0,1,.86,0,1.86,1.86,0,0,1,.69.21,1.42,1.42,0,0,1,.49.42,1.44,1.44,0,0,1,.23.63,1.53,1.53,0,0,1,0,.57,1.27,1.27,0,0,1-.23.43,1.34,1.34,0,0,1-.39.31,2.76,2.76,0,0,1-.53.19l-.26-.82a1.16,1.16,0,0,0,.46-.2.39.39,0,0,0,.14-.39.48.48,0,0,0-.15-.3.64.64,0,0,0-.29-.17,1.7,1.7,0,0,0-.41-.05l-.46,0-.46.1a1.67,1.67,0,0,0-.38.15.59.59,0,0,0-.24.23.45.45,0,0,0-.06.33.44.44,0,0,0,.23.36.86.86,0,0,0,.53.09Z" transform="translate(-39.49 -93.02)"/><path class="cls-1" d="M139.74,143.09l0-.49.81,0,0,.49,1-.06,0,.84-1,.06.05.72-.82.05,0-.72L138,144a.62.62,0,0,0-.41.12.36.36,0,0,0-.1.27,1,1,0,0,0,0,.17.55.55,0,0,0,.05.17l-.76.16a1.46,1.46,0,0,1-.12-.33,1.76,1.76,0,0,1,0-.31.91.91,0,0,1,.26-.78,1.63,1.63,0,0,1,1-.31Z" transform="translate(-39.49 -93.02)"/><path class="cls-1" d="M140.69,145.76l0,.84-2.44,0a.87.87,0,0,0-.56.11.42.42,0,0,0-.16.32.54.54,0,0,0,.06.27.79.79,0,0,0,.17.2.72.72,0,0,0,.25.16.78.78,0,0,0,.31.06l2.36,0,0,.84-3.91-.06,0-.82h.54a1.37,1.37,0,0,1-.5-.44,1,1,0,0,1-.15-.52A.92.92,0,0,1,137,146a1.94,1.94,0,0,1,1.1-.23Z" transform="translate(-39.49 -93.02)"/><path class="cls-1" d="M140.55,150l-.08.81-.54-.05a1.2,1.2,0,0,1,.42.42.85.85,0,0,1,.11.48c0,.08,0,.14,0,.19a.47.47,0,0,1,0,.14l-.94-.19a1.06,1.06,0,0,0,.08-.35.75.75,0,0,0,0-.26.57.57,0,0,0-.14-.25.76.76,0,0,0-.25-.18,1.11,1.11,0,0,0-.3-.08l-2.25-.21.07-.83Z" transform="translate(-39.49 -93.02)"/><path class="cls-1" d="M140.2,153.11l-.12.83-3.87-.58.13-.83Zm1.43.2-.13.86-.93-.14.12-.86Z" transform="translate(-39.49 -93.02)"/><path class="cls-1" d="M139.86,155.32l-.18.8-.53-.12a1.31,1.31,0,0,1,.4.54,1,1,0,0,1,0,.55.94.94,0,0,1-.51.7,1.92,1.92,0,0,1-1.13,0l-2.52-.56.18-.82L138,157a.92.92,0,0,0,.58,0,.44.44,0,0,0,.22-.29.71.71,0,0,0,0-.29.72.72,0,0,0-.12-.25,1,1,0,0,0-.22-.19.83.83,0,0,0-.3-.13l-2.29-.51.18-.81Z" transform="translate(-39.49 -93.02)"/><path class="cls-1" d="M134.64,159a.72.72,0,0,0-.25,0,.51.51,0,0,0-.17.07.44.44,0,0,0-.12.15,1.45,1.45,0,0,0-.1.24.62.62,0,0,0,0,.38.64.64,0,0,0,.22.27,1.18,1.18,0,0,0,.37.2,4.72,4.72,0,0,0,.45.16l.11,0a1.08,1.08,0,0,1-.28-.51,1,1,0,0,1,0-.57,1.11,1.11,0,0,1,.81-.77,3.33,3.33,0,0,1,2.18.46,2,2,0,0,1,.51.44,1.23,1.23,0,0,1,.25.53,1.19,1.19,0,0,1,0,.59,1,1,0,0,1-.27.43,1.19,1.19,0,0,1-.55.28l.42.13-.25.78-3.2-1a4.38,4.38,0,0,1-.81-.35,1.93,1.93,0,0,1-.55-.45,1.13,1.13,0,0,1-.24-.56,1.47,1.47,0,0,1,.08-.7,1.9,1.9,0,0,1,.27-.59,1.09,1.09,0,0,1,.36-.35,1.22,1.22,0,0,1,.47-.13,2.4,2.4,0,0,1,.57.06Zm1.83,1.94a2,2,0,0,0,.57.11.76.76,0,0,0,.36-.05.48.48,0,0,0,.22-.17.8.8,0,0,0,.11-.23.5.5,0,0,0,0-.27.54.54,0,0,0-.11-.26,1.22,1.22,0,0,0-.29-.25,1.81,1.81,0,0,0-.46-.2,1.47,1.47,0,0,0-.89-.09.52.52,0,0,0-.39.37.57.57,0,0,0,0,.29.52.52,0,0,0,.1.27.87.87,0,0,0,.26.24,1.5,1.5,0,0,0,.44.2Z" transform="translate(-39.49 -93.02)"/><path class="cls-1" d="M62.2,179l-4.15,3.86-.57-.62.31-.29-2.32-2.5-.31.29-.57-.61,4.15-3.86L60,176.63l.69-.35.52.65-.63.32Zm-3.28,1.91-2.32-2.5-.55.51,2.32,2.5Zm1.07-1-2.32-2.5-.53.5,2.32,2.5Zm1.07-1-2.32-2.5-.53.49,2.32,2.5Z" transform="translate(-39.49 -93.02)"/><path class="cls-1" d="M67,184.82a6,6,0,0,1-3.44,2.65l-.31-.77a3.6,3.6,0,0,0,.44-.12l-.38-.1.16-.36c-.7-.41-1.36-.77-2-1.08l.28-.74a.64.64,0,0,0,.51,0,12.31,12.31,0,0,0,1.27-1l.63.51a13.73,13.73,0,0,1-1.43,1l1,.55q.13-.43.27-.93l.66.16a15.8,15.8,0,0,1-.48,1.73,6.71,6.71,0,0,0,2.19-2l.2-.28-.6-.45.47-.65.61.44.63-.86.64.47-.63.86,1.37,1-1.44,2q-.66.89-1,1.26a2,2,0,0,1-.52.51.9.9,0,0,1-.41.14.62.62,0,0,1-.31-.07,2.59,2.59,0,0,1-.39-.24l-.59-.44.38-.75.57.41a.6.6,0,0,0,.27.13.28.28,0,0,0,.24-.06,2.49,2.49,0,0,0,.34-.36l.86-1.15.84-1.16-.73-.54Zm-3.6-2.69,2.46,1.81-.46.63-2.46-1.81Zm1.19-1.21,2.05,1.51-.46.64-2.06-1.51Z" transform="translate(-39.49 -93.02)"/><path class="cls-1" d="M70.24,188a10.67,10.67,0,0,0,2.86-2l.7.5c-.38.35-.78.69-1.19,1l-2,4.27-.75-.36,1.42-3q-.45.27-.9.51Zm2.9,1.05,1.13-2.37.75.36-.9,1.91c.7-.09,1.43-.2,2.19-.34l.19.82c-.9.16-1.83.29-2.8.38l-.78,1.66a.28.28,0,0,0,.16.42l.71.33a.31.31,0,0,0,.47-.16l.37-.79.67.48-.5,1.06a.67.67,0,0,1-1,.35l-1.46-.7a.65.65,0,0,1-.35-1l.76-1.59-.7,0-.18-.79Z" transform="translate(-39.49 -93.02)"/><path class="cls-1" d="M78.54,192.49l4.2,1.08-.2.76-4.19-1.08Zm6.43-.71-4.12-1.07c-.11.25-.2.49-.29.72l3.87,1c-.17.64-.32,1.22-.45,1.75s-.24.91-.32,1.13a1.11,1.11,0,0,1-.31.48.89.89,0,0,1-.42.15,2.26,2.26,0,0,1-.45,0l-.67-.15-1.09-.29.07-.84,1.07.27a3.66,3.66,0,0,0,.57.11.55.55,0,0,0,.33,0,.54.54,0,0,0,.2-.3q.08-.24.27-1c.06-.24.12-.48.19-.73l-4-1c.42-1,.79-2,1.12-3l.86.22-.28.75,4,1Z" transform="translate(-39.49 -93.02)"/><path class="cls-1" d="M92.06,197l-3.14-.19,0,.25-.81,0,.19-3-.44.16-.39-.67a2.59,2.59,0,0,0,1.15-.61l-1-.06,0-.62,1.27.08a1.1,1.1,0,0,0,0-.18l0-.33-.46,0a5.19,5.19,0,0,1-.36.46l-.59-.41a3.47,3.47,0,0,0,.77-1.18l.67.21c0,.1-.08.19-.12.3l1.87.11,0,.65-1-.07,0,.34a1,1,0,0,1,0,.17l1.14.07,0,.63-.93-.06a10.71,10.71,0,0,1,.93.69l-.46.37,2.73.17-.19,3.13-.81-.05Zm-3.6-3.11,1.59.1a8.76,8.76,0,0,0-.8-.72A2.83,2.83,0,0,1,88.46,193.9Zm3.67,2L89,195.69l0,.47,3.14.2ZM89,195.07l3.15.19,0-.48-3.14-.19Zm4.61-3.67-.15,2.45-2.59-.16.15-2.45Zm-.78.65L91.73,192,91.66,193l1.13.07Z" transform="translate(-39.49 -93.02)"/><path class="cls-1" d="M97.94,190.88a12.78,12.78,0,0,1-.55,1.25l1.09-.22-.39-.5.58-.33a10.78,10.78,0,0,1,1.15,1.48l-.68.37c-.07-.13-.15-.26-.23-.39-.89.17-1.7.35-2.42.54l-.28-.72a1,1,0,0,0,.46-.41,9.14,9.14,0,0,0,.5-1.17Zm-.86,6.34-.5-3.94,2.88-.36.41,3.26a.6.6,0,0,1-.58.76l-.82.1-.25-.75.66-.09c.15,0,.22-.1.2-.26l0-.23-1.38.18.16,1.24Zm1.71-3.54-1.38.18,0,.41,1.39-.18Zm.13,1-1.38.18,0,.38,1.38-.18Zm2.92-3,.77,0,.07.57a.6.6,0,0,1-.56.78l-1.5.19a.59.59,0,0,1-.73-.57l-.28-2.26.77-.1.11.84q.75-.36,1.44-.78l.58.53a13.84,13.84,0,0,1-1.93,1l0,.31c0,.18.12.25.29.23l.73-.09a.25.25,0,0,0,.24-.32Zm-1.5,4.35-.31-2.45.78-.09.1.81c.5-.25,1-.52,1.43-.8l.59.52a12.25,12.25,0,0,1-1.92,1l.07.52a.22.22,0,0,0,.28.22l.73-.09c.19,0,.27-.13.24-.31l-.06-.52.77.06.09.69a.6.6,0,0,1-.56.78l-1.5.19A.59.59,0,0,1,100.34,196.08Z" transform="translate(-39.49 -93.02)"/><path class="cls-1" d="M109,191.77l.59,1.79c.12.35,0,.59-.31.69l-.57.19-.37-.68.29-.1a.17.17,0,0,0,.13-.23l-.24-.73-.58.19.68,2.09-.74.25-.69-2.09-.58.19.54,1.63-.72.24-.76-2.34,1.29-.42-.16-.49-1.55.51-.23-.69,1.56-.51-.2-.6-.74.25c0,.2,0,.39-.07.58l-.74-.13a6.74,6.74,0,0,0,.07-1.67l.69,0c0,.15,0,.32,0,.48l.52-.17-.26-.8.74-.24.27.79,1.31-.43.23.7-1.32.43.2.59,1.48-.48.23.69-1.48.48.16.49Zm.83,1.22-1.37-4.15.69-.23,1.37,4.16Zm.38-5.23,1.76,5.39a.61.61,0,0,1-.44.88l-1,.33-.4-.75.81-.27a.2.2,0,0,0,.15-.29l-1.65-5Z" transform="translate(-39.49 -93.02)"/><path class="cls-1" d="M114.08,187.87c-.38-.21-.83-.43-1.34-.65l.37-.73a12.13,12.13,0,0,1,1.37.66Zm.72.23,1.34,2.4.41,0a1.86,1.86,0,0,0,1-.32l3.16-1.76.24.76-3,1.69a2.12,2.12,0,0,1-1,.33c-.25,0-.43,0-.53,0a.53.53,0,0,0-.26,0c-.11.08-.18.41-.22,1l-.78-.32a2.57,2.57,0,0,1,.3-1l-.93-1.67-.56.32-.39-.69Zm-.19-.62a5.48,5.48,0,0,0,0-1.75l.73-.12.06.39.52-.29-.35-.62.71-.39.34.62,1.33-.75.35.64-1.32.74.27.5,1.56-.87.36.64-3.8,2.12-.36-.64,1.54-.86-.28-.5-.81.46c0,.21,0,.43,0,.64Zm4.32-.78,1,1.71-3.1,1.73-1-1.71Zm-.37,1-1.68.94.29.52,1.68-.94Z" transform="translate(-39.49 -93.02)"/><path class="cls-1" d="M125,180.44l-3.42,2.87.54.65-.59.5-1-1.2.75-.63a6,6,0,0,0-.86-.26l.39-.71a6.76,6.76,0,0,1,1,.29l-.25.46,1.16-1a6.71,6.71,0,0,0-.93-.31l.4-.7a7.24,7.24,0,0,1,1,.32l-.32.54.86-.72a7.17,7.17,0,0,0-.18-1.21l.78-.33c0,.28.09.59.13.93l.69-.58,1,1.2-.6.51Zm-2.83,3,3-2.5.46.54-.46,1.61,2-1.66.49.58-2,1.69.63.74a.62.62,0,0,1-.09,1l-1.06.89-.63-.53.89-.74a.21.21,0,0,0,0-.33l-.41-.48-2.25,1.88-.49-.58,2.25-1.89-.22-.26.13-.1.37-1.09L122.59,184Z" transform="translate(-39.49 -93.02)"/><path class="cls-1" d="M131.08,180.86l-4.7-3.83,1.27-1.57.61.49.92,1.22a3.13,3.13,0,0,1,1.52.63,1,1,0,0,1,.44.7,1.23,1.23,0,0,1-.41.79l-.7-.36q.39-.39.15-.6a3.36,3.36,0,0,0-1.44-.57l-.93-1.25-.33.41,4.09,3.34Zm-.56-7.34L129,175.43l.47.38-.46.57-1-.85.95-1.17c-.15-.1-.32-.19-.49-.28l.49-.64c.18.09.35.19.51.29l1-1.23,1,.85-.46.56Zm-1.24,2.68,2.06-2.53.57.46-2.06,2.53Zm4.59-1.13.71.58a.47.47,0,0,1,.08.75l-.55.67a.47.47,0,0,1-.75.08l-1.31-1.07-.35.42a2.56,2.56,0,0,1,.7,2.78l-.81,0a2,2,0,0,0-.38-2.15l-.51.62-.59-.48,2.47-3,.59.48-.65.79,1,.84a.12.12,0,0,0,.19,0l.15-.18a.12.12,0,0,0,0-.19l-.54-.44Z" transform="translate(-39.49 -93.02)"/><path class="cls-1" d="M93.56,188a41,41,0,1,1,41-41A41.07,41.07,0,0,1,93.56,188Zm0-80.85A39.83,39.83,0,1,0,133.39,147,39.87,39.87,0,0,0,93.56,107.18Z" transform="translate(-39.49 -93.02)"/><path class="cls-1" d="M93.48,201a54,54,0,1,1,54-54A54,54,0,0,1,93.48,201Zm0-106.17A52.19,52.19,0,1,0,145.66,147,52.25,52.25,0,0,0,93.48,94.82Z" transform="translate(-39.49 -93.02)"/><path class="cls-1" d="M94.05,112.22,61.89,166.75h8.33l8.85-15,8.58,15h13l8.85-15,8.58,15h7.13Zm-7.14,19.07c.31-2.81,3-4.58,3.92-5.16a12.2,12.2,0,0,1,2.92-1.35c.06,0,.09.12-.08.22a3.8,3.8,0,0,0-1.35,1.3c-.15.32-.06.52.51.17a12.62,12.62,0,0,1,2.42-1.19,14.52,14.52,0,0,1,2.86-.7s.06.13,0,.22c-2.49,2.3-2.76,4-2.08,4.28a2.45,2.45,0,0,0,1.41-.11,5.41,5.41,0,0,1,1.57-.4c1.33,0,1.89,2.49.45,4.88a10.37,10.37,0,0,1-3.11,3c-.07,0-.1-.1-.07-.22s.8-1.78.18-2.05c-.09,0-.33,0-.56.56-.29.7-.51.83-.63.8s-.08-.22-.06-.35,0-.24,0-.2-.76.82-1,.81-.13-.09-.08-.21a2.87,2.87,0,0,0,.1-.27,6,6,0,0,1-2.63,1.43,1.18,1.18,0,0,1-.49,0,.13.13,0,0,1,0-.21,6.59,6.59,0,0,0,2.29-2c.2-.34.21-.51.15-.6s-.78,0-1.21.18a7.38,7.38,0,0,1-1.89.69,3.06,3.06,0,0,1-2.84-.91A3.28,3.28,0,0,1,86.91,131.29Zm6.94,30.86L82,141.34h24.17Z" transform="translate(-39.49 -93.02)"/><path class="cls-2" d="M169,164a1.78,1.78,0,0,0,.64,1.29,2.64,2.64,0,0,0,1.6.4,2.79,2.79,0,0,0,.87-.11,1.74,1.74,0,0,0,.56-.3,1,1,0,0,0,.31-.45,1.92,1.92,0,0,0,.09-.55,1.54,1.54,0,0,0-.07-.42,1,1,0,0,0-.22-.39,1.41,1.41,0,0,0-.45-.3,2.65,2.65,0,0,0-.7-.21l-1.15-.22a8.17,8.17,0,0,1-1.21-.31,2.83,2.83,0,0,1-.89-.5,2,2,0,0,1-.54-.76,2.73,2.73,0,0,1-.19-1.09,2.34,2.34,0,0,1,.26-1.12,2.3,2.3,0,0,1,.72-.8,3,3,0,0,1,1.07-.48,5.34,5.34,0,0,1,1.36-.16,5,5,0,0,1,1.56.21,3.25,3.25,0,0,1,1,.57,2.31,2.31,0,0,1,.59.8,3.88,3.88,0,0,1,.27.94l-1.43.23a2,2,0,0,0-.61-1.12,2.12,2.12,0,0,0-1.39-.37,3.29,3.29,0,0,0-.9.1,1.64,1.64,0,0,0-.58.26,1,1,0,0,0-.31.39,1.06,1.06,0,0,0-.1.46,1.16,1.16,0,0,0,.32.89,2.58,2.58,0,0,0,1.13.45l1.25.24a4.19,4.19,0,0,1,2.1.9,2.46,2.46,0,0,1,.67,1.84,2.63,2.63,0,0,1-.21,1,2.36,2.36,0,0,1-.64.85,3.38,3.38,0,0,1-1.07.56,4.72,4.72,0,0,1-1.48.21,4.52,4.52,0,0,1-2.71-.72,2.85,2.85,0,0,1-1.08-2.26Z" transform="translate(-39.49 -93.02)"/><path class="cls-2" d="M184.28,163.7a4.08,4.08,0,0,1-.34,1.3,3.16,3.16,0,0,1-.73,1,3.28,3.28,0,0,1-1.13.68,4.4,4.4,0,0,1-1.56.25,4.34,4.34,0,0,1-1.73-.33,3.47,3.47,0,0,1-1.29-.94,4,4,0,0,1-.79-1.49,6.59,6.59,0,0,1-.27-2,6.46,6.46,0,0,1,.29-2,4.23,4.23,0,0,1,.84-1.49,3.77,3.77,0,0,1,1.3-.94,4.32,4.32,0,0,1,1.67-.32,4.55,4.55,0,0,1,1.46.21,3,3,0,0,1,1.75,1.57,5,5,0,0,1,.38,1.24l-1.5.21a5.17,5.17,0,0,0-.25-.81,1.91,1.91,0,0,0-.4-.6,1.67,1.67,0,0,0-.6-.38,2.6,2.6,0,0,0-.84-.13,2.28,2.28,0,0,0-1.07.24,2.1,2.1,0,0,0-.79.69,3.15,3.15,0,0,0-.49,1.08,5.58,5.58,0,0,0-.16,1.41,5.24,5.24,0,0,0,.17,1.43,3,3,0,0,0,.5,1.07,2.23,2.23,0,0,0,.78.69,2.39,2.39,0,0,0,1.06.23,2.66,2.66,0,0,0,.9-.14,1.64,1.64,0,0,0,.62-.39,1.85,1.85,0,0,0,.4-.61,3.17,3.17,0,0,0,.21-.82Z" transform="translate(-39.49 -93.02)"/><path class="cls-2" d="M186.48,157.74H188v3.64h4.05v-3.64h1.53v9h-1.53V162.8H188v3.94h-1.52Z" transform="translate(-39.49 -93.02)"/><path class="cls-2" d="M200.17,167a4.54,4.54,0,0,1-1.74-.32,3.8,3.8,0,0,1-1.33-.93,4.15,4.15,0,0,1-.86-1.48,6.41,6.41,0,0,1-.29-2,6.16,6.16,0,0,1,.3-2,4.11,4.11,0,0,1,.86-1.49,3.7,3.7,0,0,1,1.33-.94,4.86,4.86,0,0,1,3.47,0,3.71,3.71,0,0,1,1.33.93,4.27,4.27,0,0,1,.84,1.48,6.46,6.46,0,0,1,.29,2,6.19,6.19,0,0,1-.29,2,4.23,4.23,0,0,1-.83,1.49,3.68,3.68,0,0,1-1.32.93A4.6,4.6,0,0,1,200.17,167Zm0-1.31a2.29,2.29,0,0,0,2-.92,4.12,4.12,0,0,0,.67-2.5,5.58,5.58,0,0,0-.17-1.42,3.27,3.27,0,0,0-.5-1.08,2.25,2.25,0,0,0-.82-.68,2.88,2.88,0,0,0-2.3,0,2.25,2.25,0,0,0-.82.68,2.91,2.91,0,0,0-.5,1.08,5.58,5.58,0,0,0-.17,1.42,4.19,4.19,0,0,0,.67,2.5A2.28,2.28,0,0,0,200.16,165.66Z" transform="translate(-39.49 -93.02)"/><path class="cls-2" d="M210.67,167a4.62,4.62,0,0,1-1.75-.32,3.8,3.8,0,0,1-1.33-.93,4.14,4.14,0,0,1-.85-1.48,6.12,6.12,0,0,1-.3-2,5.9,5.9,0,0,1,.31-2,4.1,4.1,0,0,1,.85-1.49,3.74,3.74,0,0,1,1.34-.94,4.86,4.86,0,0,1,3.47,0,3.68,3.68,0,0,1,1.32.93,4.12,4.12,0,0,1,.84,1.48,6.16,6.16,0,0,1,.3,2,6.48,6.48,0,0,1-.29,2,4.23,4.23,0,0,1-.83,1.49,3.86,3.86,0,0,1-1.32.93A4.68,4.68,0,0,1,210.67,167Zm0-1.31a2.27,2.27,0,0,0,2-.92,4.12,4.12,0,0,0,.67-2.5,5.58,5.58,0,0,0-.17-1.42,3.08,3.08,0,0,0-.5-1.08,2.25,2.25,0,0,0-.82-.68,2.55,2.55,0,0,0-1.14-.24,2.6,2.6,0,0,0-1.15.24,2.29,2.29,0,0,0-.83.68,3.08,3.08,0,0,0-.5,1.08,5.6,5.6,0,0,0-.16,1.42,4.19,4.19,0,0,0,.66,2.5A2.29,2.29,0,0,0,210.66,165.66Z" transform="translate(-39.49 -93.02)"/><path class="cls-2" d="M218.77,157.74v7.68h4.46l-.19,1.32h-5.8v-9Z" transform="translate(-39.49 -93.02)"/><path class="cls-2" d="M232.72,167a4.62,4.62,0,0,1-1.75-.32,3.9,3.9,0,0,1-1.33-.93,4.14,4.14,0,0,1-.85-1.48,6.13,6.13,0,0,1-.29-2,5.9,5.9,0,0,1,.3-2,4.1,4.1,0,0,1,.85-1.49,3.74,3.74,0,0,1,1.34-.94,4.86,4.86,0,0,1,3.47,0,3.8,3.8,0,0,1,1.33.93,4.1,4.1,0,0,1,.83,1.48,6.16,6.16,0,0,1,.3,2,6.48,6.48,0,0,1-.29,2,4.23,4.23,0,0,1-.83,1.49,3.68,3.68,0,0,1-1.32.93A4.68,4.68,0,0,1,232.72,167Zm0-1.31a2.27,2.27,0,0,0,2-.92,4.12,4.12,0,0,0,.67-2.5,5.17,5.17,0,0,0-.17-1.42,3.08,3.08,0,0,0-.5-1.08,2.22,2.22,0,0,0-.81-.68,2.63,2.63,0,0,0-1.15-.24,2.6,2.6,0,0,0-1.15.24,2.37,2.37,0,0,0-.83.68,3.08,3.08,0,0,0-.5,1.08,5.6,5.6,0,0,0-.16,1.42,4.19,4.19,0,0,0,.66,2.5A2.29,2.29,0,0,0,232.71,165.66Z" transform="translate(-39.49 -93.02)"/><path class="cls-2" d="M245,157.74v1.31h-4.22v2.55h4v1.32h-4v3.82h-1.53v-9Z" transform="translate(-39.49 -93.02)"/><path class="cls-2" d="M253.47,157.74H255l3.43,9h-1.62l-.85-2.29h-3.49l-.84,2.29H250Zm2.05,5.43-1.33-3.7-1.33,3.7Z" transform="translate(-39.49 -93.02)"/><path class="cls-2" d="M261.64,157.74v5.4a3.21,3.21,0,0,0,.46,1.89,1.81,1.81,0,0,0,1.56.63,1.74,1.74,0,0,0,1.53-.63,3.21,3.21,0,0,0,.45-1.89v-5.4h1.53v5.4a5.72,5.72,0,0,1-.25,1.77,3,3,0,0,1-.72,1.18,2.81,2.81,0,0,1-1.11.67,4.64,4.64,0,0,1-1.44.21A3.48,3.48,0,0,1,261,166a4.14,4.14,0,0,1-.89-2.94v-5.36Z" transform="translate(-39.49 -93.02)"/><path class="cls-2" d="M272,159.06h-2.85v-1.32h7.21v1.32h-2.84v7.68H272Z" transform="translate(-39.49 -93.02)"/><path class="cls-2" d="M282.08,167a4.62,4.62,0,0,1-1.75-.32,3.8,3.8,0,0,1-1.33-.93,4,4,0,0,1-.85-1.48,6.75,6.75,0,0,1,0-4,4.26,4.26,0,0,1,.86-1.49,3.74,3.74,0,0,1,1.34-.94,4.59,4.59,0,0,1,1.73-.32,4.68,4.68,0,0,1,1.74.32,3.68,3.68,0,0,1,1.32.93,4.27,4.27,0,0,1,.84,1.48,6.16,6.16,0,0,1,.3,2,6.48,6.48,0,0,1-.29,2,4.41,4.41,0,0,1-.84,1.49,3.68,3.68,0,0,1-1.32.93A4.59,4.59,0,0,1,282.08,167Zm0-1.31a2.29,2.29,0,0,0,2-.92,4.12,4.12,0,0,0,.67-2.5,5.58,5.58,0,0,0-.17-1.42,3.08,3.08,0,0,0-.5-1.08,2.25,2.25,0,0,0-.82-.68,2.6,2.6,0,0,0-1.15-.24,2.55,2.55,0,0,0-1.14.24,2.29,2.29,0,0,0-.83.68,3.08,3.08,0,0,0-.5,1.08,5.6,5.6,0,0,0-.16,1.42,4.19,4.19,0,0,0,.66,2.5A2.28,2.28,0,0,0,282.06,165.66Z" transform="translate(-39.49 -93.02)"/><path class="cls-2" d="M288.65,157.74h1.85l2.56,7.16,2.64-7.16h1.79v9h-1.4V160.2l-2.47,6.54h-1.21L290,160.21v6.53h-1.37Z" transform="translate(-39.49 -93.02)"/><path class="cls-2" d="M302.77,157.74h1.52l3.43,9h-1.63l-.84-2.29h-3.5l-.83,2.29h-1.58Zm2.06,5.43-1.34-3.7-1.32,3.7Z" transform="translate(-39.49 -93.02)"/><path class="cls-2" d="M311.71,159.06h-2.85v-1.32h7.21v1.32h-2.84v7.68h-1.52Z" transform="translate(-39.49 -93.02)"/><path class="cls-2" d="M317.9,157.74h1.52v9H317.9Z" transform="translate(-39.49 -93.02)"/><path class="cls-2" d="M326,167a4.62,4.62,0,0,1-1.75-.32,3.8,3.8,0,0,1-1.33-.93,4.14,4.14,0,0,1-.85-1.48,6.12,6.12,0,0,1-.3-2,5.9,5.9,0,0,1,.31-2,4.1,4.1,0,0,1,.85-1.49,3.74,3.74,0,0,1,1.34-.94,4.86,4.86,0,0,1,3.47,0,3.68,3.68,0,0,1,1.32.93,4.12,4.12,0,0,1,.84,1.48,6.16,6.16,0,0,1,.3,2,6.48,6.48,0,0,1-.29,2,4.23,4.23,0,0,1-.83,1.49,3.86,3.86,0,0,1-1.32.93A4.68,4.68,0,0,1,326,167Zm0-1.31a2.27,2.27,0,0,0,2-.92,4.12,4.12,0,0,0,.67-2.5,5.58,5.58,0,0,0-.17-1.42,3.08,3.08,0,0,0-.5-1.08,2.25,2.25,0,0,0-.82-.68,2.55,2.55,0,0,0-1.14-.24,2.6,2.6,0,0,0-1.15.24,2.29,2.29,0,0,0-.83.68,3.08,3.08,0,0,0-.5,1.08,5.6,5.6,0,0,0-.16,1.42,4.19,4.19,0,0,0,.66,2.5A2.29,2.29,0,0,0,326,165.66Z" transform="translate(-39.49 -93.02)"/><path class="cls-2" d="M332.58,157.74H334l4.14,6.51v-6.51h1.49v9h-1.41l-4.15-6.48v6.48h-1.48Z" transform="translate(-39.49 -93.02)"/><path class="cls-2" d="M170.6,175h1.51l3.43,9h-1.62l-.85-2.29h-3.49l-.84,2.29h-1.57Zm2.05,5.43-1.33-3.7-1.33,3.7Z" transform="translate(-39.49 -93.02)"/><path class="cls-2" d="M177.4,175h1.41L183,181.5V175h1.49v9H183l-4.15-6.48V184H177.4Z" transform="translate(-39.49 -93.02)"/><path class="cls-2" d="M190.36,175a5.48,5.48,0,0,1,1.79.27,3.54,3.54,0,0,1,1.36.82,3.84,3.84,0,0,1,.85,1.4,6.08,6.08,0,0,1,.29,2,5.62,5.62,0,0,1-.31,2A3.64,3.64,0,0,1,192,183.7a5.7,5.7,0,0,1-1.92.29h-2.95v-9Zm-.25,7.7a3.69,3.69,0,0,0,1.36-.22,2.29,2.29,0,0,0,.92-.66,2.67,2.67,0,0,0,.52-1,5,5,0,0,0,.16-1.34,3.7,3.7,0,0,0-.63-2.32,2.39,2.39,0,0,0-2.06-.84h-1.75v6.4Z" transform="translate(-39.49 -93.02)"/><path class="cls-2" d="M200.59,175h1.53v9h-1.53Z" transform="translate(-39.49 -93.02)"/><path class="cls-2" d="M204.78,175h1.41l4.14,6.51V175h1.49v9h-1.41l-4.15-6.48V184h-1.48Z" transform="translate(-39.49 -93.02)"/><path class="cls-2" d="M216.62,176.31h-2.85V175H221v1.32h-2.84V184h-1.53Z" transform="translate(-39.49 -93.02)"/><path class="cls-2" d="M222.82,175h6v1.31h-4.46v2.4h4.21V180h-4.21v2.66h4.7l-.17,1.31h-6.06Z" transform="translate(-39.49 -93.02)"/><path class="cls-2" d="M232.22,175v7.68h4.46l-.19,1.32h-5.8v-9Z" transform="translate(-39.49 -93.02)"/><path class="cls-2" d="M240.2,175v7.68h4.47l-.19,1.32h-5.8v-9Z" transform="translate(-39.49 -93.02)"/><path class="cls-2" d="M246.66,175h1.53v9h-1.53Z" transform="translate(-39.49 -93.02)"/><path class="cls-2" d="M258.3,179.21v3.71a4.58,4.58,0,0,1-1.64,1,5.71,5.71,0,0,1-1.9.33,4.76,4.76,0,0,1-1.84-.33,3.72,3.72,0,0,1-1.32-.95,4.12,4.12,0,0,1-.79-1.48,6.6,6.6,0,0,1-.26-2,6,6,0,0,1,.29-2,4.41,4.41,0,0,1,.81-1.5,3.64,3.64,0,0,1,1.29-.94,4.21,4.21,0,0,1,1.69-.33,4.35,4.35,0,0,1,1.43.21,3.14,3.14,0,0,1,1,.57,3.07,3.07,0,0,1,.68.85,3.79,3.79,0,0,1,.37,1l-1.5.22a3.86,3.86,0,0,0-.25-.68,1.51,1.51,0,0,0-.37-.49,1.54,1.54,0,0,0-.58-.31,2.81,2.81,0,0,0-.82-.11,2.26,2.26,0,0,0-1.1.25,2,2,0,0,0-.79.7,3.13,3.13,0,0,0-.47,1.08,6.07,6.07,0,0,0-.15,1.4,6.22,6.22,0,0,0,.15,1.43,2.84,2.84,0,0,0,.48,1.07,2.22,2.22,0,0,0,.83.69,2.73,2.73,0,0,0,1.2.24,4.47,4.47,0,0,0,1.14-.13,3.07,3.07,0,0,0,1-.46V180.5h-2v-1.29Z" transform="translate(-39.49 -93.02)"/><path class="cls-2" d="M260.7,175h6v1.31h-4.47v2.4h4.22V180h-4.22v2.66h4.71l-.18,1.31H260.7Z" transform="translate(-39.49 -93.02)"/><path class="cls-2" d="M268.57,175H270l4.14,6.51V175h1.48v9h-1.41L270,177.51V184h-1.47Z" transform="translate(-39.49 -93.02)"/><path class="cls-2" d="M280.41,176.31h-2.85V175h7.21v1.32h-2.83V184h-1.53Z" transform="translate(-39.49 -93.02)"/><path class="cls-2" d="M290.17,175H292l2.56,7.16,2.63-7.16H299v9h-1.39v-6.54L295.14,184h-1.21l-2.38-6.53V184h-1.38Z" transform="translate(-39.49 -93.02)"/><path class="cls-2" d="M304.3,175h1.51l3.43,9h-1.62l-.85-2.29h-3.49l-.83,2.29h-1.58Zm2.05,5.43-1.33-3.7-1.33,3.7Z" transform="translate(-39.49 -93.02)"/><path class="cls-2" d="M311.1,175h1.41l4.14,6.51V175h1.49v9h-1.42l-4.15-6.48V184H311.1Z" transform="translate(-39.49 -93.02)"/><path class="cls-2" d="M322.19,175v5.4a3.13,3.13,0,0,0,.46,1.89,1.78,1.78,0,0,0,1.55.63,1.76,1.76,0,0,0,1.54-.63,3.29,3.29,0,0,0,.44-1.89V175h1.53v5.4a5.43,5.43,0,0,1-.25,1.77,3,3,0,0,1-.72,1.18,2.74,2.74,0,0,1-1.11.67,4.64,4.64,0,0,1-1.44.21,3.46,3.46,0,0,1-2.62-.93,4.09,4.09,0,0,1-.9-2.94V175Z" transform="translate(-39.49 -93.02)"/><path class="cls-2" d="M336.31,175v1.31h-4.22v2.55h4v1.32h-4V184h-1.53v-9Z" transform="translate(-39.49 -93.02)"/><path class="cls-2" d="M341.17,175h1.51l3.43,9h-1.62l-.85-2.29h-3.49l-.83,2.29h-1.58Zm2.06,5.43-1.34-3.7-1.32,3.7Z" transform="translate(-39.49 -93.02)"/><path class="cls-2" d="M355.51,181a4.15,4.15,0,0,1-.34,1.3,3.16,3.16,0,0,1-.73,1,3.28,3.28,0,0,1-1.13.68,4.4,4.4,0,0,1-1.56.25,4.34,4.34,0,0,1-1.73-.33,3.47,3.47,0,0,1-1.29-.94,4,4,0,0,1-.79-1.49,6.59,6.59,0,0,1-.27-2,6.46,6.46,0,0,1,.29-2,4.23,4.23,0,0,1,.84-1.49,3.77,3.77,0,0,1,1.3-.94,4.32,4.32,0,0,1,1.67-.32,4.55,4.55,0,0,1,1.46.21,3,3,0,0,1,1.75,1.57,5,5,0,0,1,.38,1.24l-1.5.21a5.17,5.17,0,0,0-.25-.81,1.91,1.91,0,0,0-.4-.6,1.67,1.67,0,0,0-.6-.38,2.6,2.6,0,0,0-.84-.13,2.35,2.35,0,0,0-1.08.24,2.14,2.14,0,0,0-.78.69,3.15,3.15,0,0,0-.49,1.08,5.58,5.58,0,0,0-.16,1.41,5.24,5.24,0,0,0,.17,1.43,3,3,0,0,0,.5,1.07,2.23,2.23,0,0,0,.78.69,2.39,2.39,0,0,0,1.06.23,2.66,2.66,0,0,0,.9-.14,1.64,1.64,0,0,0,.62-.39,1.85,1.85,0,0,0,.4-.61,3.17,3.17,0,0,0,.21-.82Z" transform="translate(-39.49 -93.02)"/><path class="cls-2" d="M360,176.31h-2.85V175h7.22v1.32h-2.84V184H360Z" transform="translate(-39.49 -93.02)"/><path class="cls-2" d="M367.53,175v5.4a3.21,3.21,0,0,0,.46,1.89,1.81,1.81,0,0,0,1.56.63,1.74,1.74,0,0,0,1.53-.63,3.21,3.21,0,0,0,.45-1.89V175h1.53v5.4a5.72,5.72,0,0,1-.25,1.77,3,3,0,0,1-.72,1.18A2.81,2.81,0,0,1,371,184a4.64,4.64,0,0,1-1.44.21,3.48,3.48,0,0,1-2.63-.93,4.14,4.14,0,0,1-.89-2.94V175Z" transform="translate(-39.49 -93.02)"/><path class="cls-2" d="M378.23,175a5,5,0,0,1,1.68.24,2.81,2.81,0,0,1,1,.62,2.2,2.2,0,0,1,.53.85,3,3,0,0,1,.15.92,2.92,2.92,0,0,1-.34,1.48,2.44,2.44,0,0,1-1.12,1l1.87,3.93h-1.67l-1.61-3.58-.24,0h-1.88V184h-1.5v-9Zm.11,4.16a3,3,0,0,0,.86-.11,1.29,1.29,0,0,0,.53-.3,1.08,1.08,0,0,0,.28-.47,2,2,0,0,0,.08-.62,1.81,1.81,0,0,0-.09-.58,1,1,0,0,0-.32-.44,1.57,1.57,0,0,0-.58-.28,3.42,3.42,0,0,0-.91-.1h-1.54v2.9Z" transform="translate(-39.49 -93.02)"/><path class="cls-2" d="M383.58,175h1.52v9h-1.52Z" transform="translate(-39.49 -93.02)"/><path class="cls-2" d="M387.76,175h1.42l4.13,6.51V175h1.49v9h-1.41l-4.15-6.48V184h-1.48Z" transform="translate(-39.49 -93.02)"/><path class="cls-2" d="M404.93,179.21v3.71a4.58,4.58,0,0,1-1.64,1,5.71,5.71,0,0,1-1.9.33,4.76,4.76,0,0,1-1.84-.33,3.72,3.72,0,0,1-1.32-.95,4,4,0,0,1-.79-1.48,6.59,6.59,0,0,1-.27-2,6.33,6.33,0,0,1,.29-2,4.6,4.6,0,0,1,.82-1.5,3.64,3.64,0,0,1,1.29-.94,4.18,4.18,0,0,1,1.69-.33,4.4,4.4,0,0,1,1.43.21,2.9,2.9,0,0,1,1.72,1.42,4.15,4.15,0,0,1,.37,1l-1.5.22A3.86,3.86,0,0,0,403,177a1.54,1.54,0,0,0-.38-.49,1.42,1.42,0,0,0-.57-.31,2.81,2.81,0,0,0-.82-.11,2.26,2.26,0,0,0-1.1.25,2,2,0,0,0-.79.7,3.13,3.13,0,0,0-.47,1.08,6.07,6.07,0,0,0-.15,1.4,6.22,6.22,0,0,0,.15,1.43,2.84,2.84,0,0,0,.48,1.07,2.14,2.14,0,0,0,.83.69,2.73,2.73,0,0,0,1.2.24,4.47,4.47,0,0,0,1.14-.13,3.07,3.07,0,0,0,1-.46V180.5h-2v-1.29Z" transform="translate(-39.49 -93.02)"/></svg>